G04 #@! TF.GenerationSoftware,KiCad,Pcbnew,(5.0.1-3-g963ef8bb5)*
G04 #@! TF.CreationDate,2019-01-02T19:54:35-06:00*
G04 #@! TF.ProjectId,kbxBinaryClock.v4,6B627842696E617279436C6F636B2E76,rev?*
G04 #@! TF.SameCoordinates,Original*
G04 #@! TF.FileFunction,Other,Fab,Bot*
%FSLAX46Y46*%
G04 Gerber Fmt 4.6, Leading zero omitted, Abs format (unit mm)*
G04 Created by KiCad (PCBNEW (5.0.1-3-g963ef8bb5)) date Wednesday, January 02, 2019 at 07:54:35 PM*
%MOMM*%
%LPD*%
G01*
G04 APERTURE LIST*
%ADD10C,0.100000*%
%ADD11C,0.150000*%
G04 APERTURE END LIST*
D10*
G04 #@! TO.C,BT1*
X218235000Y-47265000D02*
G75*
G02X218635000Y-47665000I0J-400000D01*
G01*
X218235000Y-53065000D02*
G75*
G03X218635000Y-52665000I0J400000D01*
G01*
X216535000Y-48865000D02*
X216535000Y-51465000D01*
X200335000Y-51465000D02*
G75*
G02X200335000Y-48865000I0J1300000D01*
G01*
X212189277Y-46672818D02*
G75*
G03X213035000Y-47265000I845723J307818D01*
G01*
X200335000Y-48865000D02*
X216535000Y-48865000D01*
X216535000Y-51465000D02*
X200335000Y-51465000D01*
X218635000Y-47665000D02*
X218635000Y-52665000D01*
X218235000Y-53065000D02*
X213004400Y-53065000D01*
X213004400Y-47265000D02*
X218235000Y-47265000D01*
X191335000Y-51465000D02*
G75*
G02X211335000Y-48865000I10000000J1300000D01*
G01*
X195003450Y-50368631D02*
G75*
G02X207535000Y-48865000I6331550J203631D01*
G01*
X199039552Y-50340833D02*
G75*
G02X203235000Y-48865000I2295448J175833D01*
G01*
X192963800Y-42443400D02*
X193903600Y-43307000D01*
X192963800Y-57886600D02*
X193878200Y-57048400D01*
X199039552Y-49989167D02*
G75*
G03X203235000Y-51465000I2295448J-175833D01*
G01*
X195003450Y-49961369D02*
G75*
G03X207535000Y-51465000I6331550J-203631D01*
G01*
X191335000Y-48865000D02*
G75*
G03X211335000Y-51465000I10000000J-1300000D01*
G01*
X189934701Y-50240351D02*
G75*
G02X212185000Y-46665000I11400299J75351D01*
G01*
X189934701Y-50089649D02*
G75*
G03X212185000Y-53665000I11400299J-75351D01*
G01*
X212189277Y-53657182D02*
G75*
G02X213035000Y-53065000I845723J-307818D01*
G01*
G04 #@! TD*
G04 #@! TO.C,SB2*
D11*
X184083476Y-111619000D02*
X184178714Y-111571380D01*
X184321571Y-111571380D01*
X184464428Y-111619000D01*
X184559666Y-111714238D01*
X184607285Y-111809476D01*
X184654904Y-111999952D01*
X184654904Y-112142809D01*
X184607285Y-112333285D01*
X184559666Y-112428523D01*
X184464428Y-112523761D01*
X184321571Y-112571380D01*
X184226333Y-112571380D01*
X184083476Y-112523761D01*
X184035857Y-112476142D01*
X184035857Y-112142809D01*
X184226333Y-112142809D01*
X183654904Y-112523761D02*
X183512047Y-112571380D01*
X183273952Y-112571380D01*
X183178714Y-112523761D01*
X183131095Y-112476142D01*
X183083476Y-112380904D01*
X183083476Y-112285666D01*
X183131095Y-112190428D01*
X183178714Y-112142809D01*
X183273952Y-112095190D01*
X183464428Y-112047571D01*
X183559666Y-111999952D01*
X183607285Y-111952333D01*
X183654904Y-111857095D01*
X183654904Y-111761857D01*
X183607285Y-111666619D01*
X183559666Y-111619000D01*
X183464428Y-111571380D01*
X183226333Y-111571380D01*
X183083476Y-111619000D01*
X182702523Y-111666619D02*
X182654904Y-111619000D01*
X182559666Y-111571380D01*
X182321571Y-111571380D01*
X182226333Y-111619000D01*
X182178714Y-111666619D01*
X182131095Y-111761857D01*
X182131095Y-111857095D01*
X182178714Y-111999952D01*
X182750142Y-112571380D01*
X182131095Y-112571380D01*
G04 #@! TO.C,SB3*
X177786000Y-111958523D02*
X177738380Y-111863285D01*
X177738380Y-111720428D01*
X177786000Y-111577571D01*
X177881238Y-111482333D01*
X177976476Y-111434714D01*
X178166952Y-111387095D01*
X178309809Y-111387095D01*
X178500285Y-111434714D01*
X178595523Y-111482333D01*
X178690761Y-111577571D01*
X178738380Y-111720428D01*
X178738380Y-111815666D01*
X178690761Y-111958523D01*
X178643142Y-112006142D01*
X178309809Y-112006142D01*
X178309809Y-111815666D01*
X178690761Y-112387095D02*
X178738380Y-112529952D01*
X178738380Y-112768047D01*
X178690761Y-112863285D01*
X178643142Y-112910904D01*
X178547904Y-112958523D01*
X178452666Y-112958523D01*
X178357428Y-112910904D01*
X178309809Y-112863285D01*
X178262190Y-112768047D01*
X178214571Y-112577571D01*
X178166952Y-112482333D01*
X178119333Y-112434714D01*
X178024095Y-112387095D01*
X177928857Y-112387095D01*
X177833619Y-112434714D01*
X177786000Y-112482333D01*
X177738380Y-112577571D01*
X177738380Y-112815666D01*
X177786000Y-112958523D01*
X177738380Y-113291857D02*
X177738380Y-113910904D01*
X178119333Y-113577571D01*
X178119333Y-113720428D01*
X178166952Y-113815666D01*
X178214571Y-113863285D01*
X178309809Y-113910904D01*
X178547904Y-113910904D01*
X178643142Y-113863285D01*
X178690761Y-113815666D01*
X178738380Y-113720428D01*
X178738380Y-113434714D01*
X178690761Y-113339476D01*
X178643142Y-113291857D01*
G04 #@! TO.C,SB4*
X161594476Y-117759000D02*
X161689714Y-117711380D01*
X161832571Y-117711380D01*
X161975428Y-117759000D01*
X162070666Y-117854238D01*
X162118285Y-117949476D01*
X162165904Y-118139952D01*
X162165904Y-118282809D01*
X162118285Y-118473285D01*
X162070666Y-118568523D01*
X161975428Y-118663761D01*
X161832571Y-118711380D01*
X161737333Y-118711380D01*
X161594476Y-118663761D01*
X161546857Y-118616142D01*
X161546857Y-118282809D01*
X161737333Y-118282809D01*
X161165904Y-118663761D02*
X161023047Y-118711380D01*
X160784952Y-118711380D01*
X160689714Y-118663761D01*
X160642095Y-118616142D01*
X160594476Y-118520904D01*
X160594476Y-118425666D01*
X160642095Y-118330428D01*
X160689714Y-118282809D01*
X160784952Y-118235190D01*
X160975428Y-118187571D01*
X161070666Y-118139952D01*
X161118285Y-118092333D01*
X161165904Y-117997095D01*
X161165904Y-117901857D01*
X161118285Y-117806619D01*
X161070666Y-117759000D01*
X160975428Y-117711380D01*
X160737333Y-117711380D01*
X160594476Y-117759000D01*
X160213523Y-117806619D02*
X160165904Y-117759000D01*
X160070666Y-117711380D01*
X159832571Y-117711380D01*
X159737333Y-117759000D01*
X159689714Y-117806619D01*
X159642095Y-117901857D01*
X159642095Y-117997095D01*
X159689714Y-118139952D01*
X160261142Y-118711380D01*
X159642095Y-118711380D01*
G04 #@! TO.C,SB5*
X209229476Y-93331000D02*
X209324714Y-93283380D01*
X209467571Y-93283380D01*
X209610428Y-93331000D01*
X209705666Y-93426238D01*
X209753285Y-93521476D01*
X209800904Y-93711952D01*
X209800904Y-93854809D01*
X209753285Y-94045285D01*
X209705666Y-94140523D01*
X209610428Y-94235761D01*
X209467571Y-94283380D01*
X209372333Y-94283380D01*
X209229476Y-94235761D01*
X209181857Y-94188142D01*
X209181857Y-93854809D01*
X209372333Y-93854809D01*
X208800904Y-94235761D02*
X208658047Y-94283380D01*
X208419952Y-94283380D01*
X208324714Y-94235761D01*
X208277095Y-94188142D01*
X208229476Y-94092904D01*
X208229476Y-93997666D01*
X208277095Y-93902428D01*
X208324714Y-93854809D01*
X208419952Y-93807190D01*
X208610428Y-93759571D01*
X208705666Y-93711952D01*
X208753285Y-93664333D01*
X208800904Y-93569095D01*
X208800904Y-93473857D01*
X208753285Y-93378619D01*
X208705666Y-93331000D01*
X208610428Y-93283380D01*
X208372333Y-93283380D01*
X208229476Y-93331000D01*
X207848523Y-93378619D02*
X207800904Y-93331000D01*
X207705666Y-93283380D01*
X207467571Y-93283380D01*
X207372333Y-93331000D01*
X207324714Y-93378619D01*
X207277095Y-93473857D01*
X207277095Y-93569095D01*
X207324714Y-93711952D01*
X207896142Y-94283380D01*
X207277095Y-94283380D01*
G04 #@! TO.C,BT1*
X203630238Y-63522142D02*
X203677857Y-63569761D01*
X203820714Y-63617380D01*
X203915952Y-63617380D01*
X204058809Y-63569761D01*
X204154047Y-63474523D01*
X204201666Y-63379285D01*
X204249285Y-63188809D01*
X204249285Y-63045952D01*
X204201666Y-62855476D01*
X204154047Y-62760238D01*
X204058809Y-62665000D01*
X203915952Y-62617380D01*
X203820714Y-62617380D01*
X203677857Y-62665000D01*
X203630238Y-62712619D01*
X202630238Y-63617380D02*
X202963571Y-63141190D01*
X203201666Y-63617380D02*
X203201666Y-62617380D01*
X202820714Y-62617380D01*
X202725476Y-62665000D01*
X202677857Y-62712619D01*
X202630238Y-62807857D01*
X202630238Y-62950714D01*
X202677857Y-63045952D01*
X202725476Y-63093571D01*
X202820714Y-63141190D01*
X203201666Y-63141190D01*
X202249285Y-62712619D02*
X202201666Y-62665000D01*
X202106428Y-62617380D01*
X201868333Y-62617380D01*
X201773095Y-62665000D01*
X201725476Y-62712619D01*
X201677857Y-62807857D01*
X201677857Y-62903095D01*
X201725476Y-63045952D01*
X202296904Y-63617380D01*
X201677857Y-63617380D01*
X201058809Y-62617380D02*
X200963571Y-62617380D01*
X200868333Y-62665000D01*
X200820714Y-62712619D01*
X200773095Y-62807857D01*
X200725476Y-62998333D01*
X200725476Y-63236428D01*
X200773095Y-63426904D01*
X200820714Y-63522142D01*
X200868333Y-63569761D01*
X200963571Y-63617380D01*
X201058809Y-63617380D01*
X201154047Y-63569761D01*
X201201666Y-63522142D01*
X201249285Y-63426904D01*
X201296904Y-63236428D01*
X201296904Y-62998333D01*
X201249285Y-62807857D01*
X201201666Y-62712619D01*
X201154047Y-62665000D01*
X201058809Y-62617380D01*
X200392142Y-62617380D02*
X199773095Y-62617380D01*
X200106428Y-62998333D01*
X199963571Y-62998333D01*
X199868333Y-63045952D01*
X199820714Y-63093571D01*
X199773095Y-63188809D01*
X199773095Y-63426904D01*
X199820714Y-63522142D01*
X199868333Y-63569761D01*
X199963571Y-63617380D01*
X200249285Y-63617380D01*
X200344523Y-63569761D01*
X200392142Y-63522142D01*
X199392142Y-62712619D02*
X199344523Y-62665000D01*
X199249285Y-62617380D01*
X199011190Y-62617380D01*
X198915952Y-62665000D01*
X198868333Y-62712619D01*
X198820714Y-62807857D01*
X198820714Y-62903095D01*
X198868333Y-63045952D01*
X199439761Y-63617380D01*
X198820714Y-63617380D01*
G04 #@! TD*
M02*
