G04 #@! TF.GenerationSoftware,KiCad,Pcbnew,(5.0.1-3-g963ef8bb5)*
G04 #@! TF.CreationDate,2019-01-02T19:54:35-06:00*
G04 #@! TF.ProjectId,kbxBinaryClock.v4,6B627842696E617279436C6F636B2E76,rev?*
G04 #@! TF.SameCoordinates,Original*
G04 #@! TF.FileFunction,Other,User*
%FSLAX46Y46*%
G04 Gerber Fmt 4.6, Leading zero omitted, Abs format (unit mm)*
G04 Created by KiCad (PCBNEW (5.0.1-3-g963ef8bb5)) date Wednesday, January 02, 2019 at 07:54:35 PM*
%MOMM*%
%LPD*%
G01*
G04 APERTURE LIST*
%ADD10C,0.050000*%
G04 APERTURE END LIST*
D10*
G04 #@! TO.C,U7*
X133143000Y-113442000D02*
X133143000Y-118842000D01*
X140603000Y-113442000D02*
X140603000Y-118842000D01*
X133143000Y-113442000D02*
X140603000Y-113442000D01*
X133143000Y-118842000D02*
X140603000Y-118842000D01*
G04 #@! TO.C,U5*
X118201000Y-113506000D02*
X129601000Y-113506000D01*
X129601000Y-113506000D02*
X129601000Y-126906000D01*
X129601000Y-126906000D02*
X118201000Y-126906000D01*
X118201000Y-126906000D02*
X118201000Y-113506000D01*
G04 #@! TO.C,U1*
X163677000Y-110395000D02*
X163677000Y-123295000D01*
X176577000Y-110395000D02*
X176577000Y-123295000D01*
X163677000Y-110395000D02*
X176577000Y-110395000D01*
X163677000Y-123295000D02*
X176577000Y-123295000D01*
G04 #@! TO.C,R3*
X200903000Y-110836000D02*
X200903000Y-107736000D01*
X200903000Y-110836000D02*
X202703000Y-110836000D01*
X202703000Y-107736000D02*
X200903000Y-107736000D01*
X202703000Y-107736000D02*
X202703000Y-110836000D01*
G04 #@! TO.C,R8*
X206237000Y-110958000D02*
X206237000Y-107858000D01*
X206237000Y-110958000D02*
X208037000Y-110958000D01*
X208037000Y-107858000D02*
X206237000Y-107858000D01*
X208037000Y-107858000D02*
X208037000Y-110958000D01*
G04 #@! TO.C,C22*
X208289000Y-111208000D02*
X208289000Y-107708000D01*
X208289000Y-111208000D02*
X210039000Y-111208000D01*
X210039000Y-107708000D02*
X208289000Y-107708000D01*
X210039000Y-107708000D02*
X210039000Y-111208000D01*
G04 #@! TO.C,R7*
X190743000Y-114773000D02*
X190743000Y-111673000D01*
X190743000Y-114773000D02*
X192543000Y-114773000D01*
X192543000Y-111673000D02*
X190743000Y-111673000D01*
X192543000Y-111673000D02*
X192543000Y-114773000D01*
G04 #@! TO.C,R6*
X194172000Y-114773000D02*
X194172000Y-111673000D01*
X194172000Y-114773000D02*
X195972000Y-114773000D01*
X195972000Y-111673000D02*
X194172000Y-111673000D01*
X195972000Y-111673000D02*
X195972000Y-114773000D01*
G04 #@! TO.C,C5*
X205985000Y-107708000D02*
X205985000Y-111208000D01*
X205985000Y-107708000D02*
X204235000Y-107708000D01*
X204235000Y-111208000D02*
X205985000Y-111208000D01*
X204235000Y-111208000D02*
X204235000Y-107708000D01*
G04 #@! TO.C,P2*
X201395000Y-99805000D02*
X201395000Y-107205000D01*
X201395000Y-107205000D02*
X209995000Y-107205000D01*
X209995000Y-107205000D02*
X209995000Y-99805000D01*
X209995000Y-99805000D02*
X201395000Y-99805000D01*
G04 #@! TO.C,C13*
X164604000Y-105038000D02*
X168104000Y-105038000D01*
X164604000Y-105038000D02*
X164604000Y-106788000D01*
X168104000Y-106788000D02*
X168104000Y-105038000D01*
X168104000Y-106788000D02*
X164604000Y-106788000D01*
G04 #@! TO.C,U8*
X133143000Y-121570000D02*
X133143000Y-126970000D01*
X140603000Y-121570000D02*
X140603000Y-126970000D01*
X133143000Y-121570000D02*
X140603000Y-121570000D01*
X133143000Y-126970000D02*
X140603000Y-126970000D01*
G04 #@! TO.C,R20*
X200371000Y-80656000D02*
X197271000Y-80656000D01*
X200371000Y-80656000D02*
X200371000Y-78856000D01*
X197271000Y-78856000D02*
X197271000Y-80656000D01*
X197271000Y-78856000D02*
X200371000Y-78856000D01*
G04 #@! TO.C,Q5*
X193308000Y-84038500D02*
X196708000Y-84038500D01*
X196708000Y-84038500D02*
X196708000Y-87538500D01*
X196708000Y-87538500D02*
X193308000Y-87538500D01*
X193308000Y-87538500D02*
X193308000Y-84038500D01*
G04 #@! TO.C,R22*
X197271000Y-83174000D02*
X200371000Y-83174000D01*
X197271000Y-83174000D02*
X197271000Y-84974000D01*
X200371000Y-84974000D02*
X200371000Y-83174000D01*
X200371000Y-84974000D02*
X197271000Y-84974000D01*
G04 #@! TO.C,R21*
X197271000Y-81015000D02*
X200371000Y-81015000D01*
X197271000Y-81015000D02*
X197271000Y-82815000D01*
X200371000Y-82815000D02*
X200371000Y-81015000D01*
X200371000Y-82815000D02*
X197271000Y-82815000D01*
G04 #@! TO.C,C21*
X133775000Y-119326000D02*
X137275000Y-119326000D01*
X133775000Y-119326000D02*
X133775000Y-121076000D01*
X137275000Y-121076000D02*
X137275000Y-119326000D01*
X137275000Y-121076000D02*
X133775000Y-121076000D01*
G04 #@! TO.C,R27*
X196429000Y-89673000D02*
X193329000Y-89673000D01*
X196429000Y-89673000D02*
X196429000Y-87873000D01*
X193329000Y-87873000D02*
X193329000Y-89673000D01*
X193329000Y-87873000D02*
X196429000Y-87873000D01*
G04 #@! TO.C,Q4*
X193292000Y-80226000D02*
X196692000Y-80226000D01*
X196692000Y-80226000D02*
X196692000Y-83726000D01*
X196692000Y-83726000D02*
X193292000Y-83726000D01*
X193292000Y-83726000D02*
X193292000Y-80226000D01*
G04 #@! TO.C,R26*
X196434000Y-91705000D02*
X193334000Y-91705000D01*
X196434000Y-91705000D02*
X196434000Y-89905000D01*
X193334000Y-89905000D02*
X193334000Y-91705000D01*
X193334000Y-89905000D02*
X196434000Y-89905000D01*
G04 #@! TO.C,R13*
X176033000Y-128051000D02*
X176033000Y-131151000D01*
X176033000Y-128051000D02*
X174233000Y-128051000D01*
X174233000Y-131151000D02*
X176033000Y-131151000D01*
X174233000Y-131151000D02*
X174233000Y-128051000D01*
G04 #@! TO.C,R14*
X179335000Y-128051000D02*
X179335000Y-131151000D01*
X179335000Y-128051000D02*
X177535000Y-128051000D01*
X177535000Y-131151000D02*
X179335000Y-131151000D01*
X177535000Y-131151000D02*
X177535000Y-128051000D01*
G04 #@! TO.C,C7*
X162167000Y-124451000D02*
X158667000Y-124451000D01*
X162167000Y-124451000D02*
X162167000Y-122701000D01*
X158667000Y-122701000D02*
X158667000Y-124451000D01*
X158667000Y-122701000D02*
X162167000Y-122701000D01*
G04 #@! TO.C,C2*
X156071000Y-119371000D02*
X152571000Y-119371000D01*
X156071000Y-119371000D02*
X156071000Y-117621000D01*
X152571000Y-117621000D02*
X152571000Y-119371000D01*
X152571000Y-117621000D02*
X156071000Y-117621000D01*
G04 #@! TO.C,SB1*
X159013000Y-112402000D02*
X159013000Y-110102000D01*
X159013000Y-110102000D02*
X163313000Y-110102000D01*
X163313000Y-110102000D02*
X163313000Y-112402000D01*
X163313000Y-112402000D02*
X159013000Y-112402000D01*
G04 #@! TO.C,Y1*
X156388000Y-120009000D02*
X160188000Y-120009000D01*
X160188000Y-120009000D02*
X160188000Y-114409000D01*
X160188000Y-114409000D02*
X156388000Y-114409000D01*
X156388000Y-114409000D02*
X156388000Y-120009000D01*
G04 #@! TO.C,C1*
X156071000Y-117085000D02*
X152571000Y-117085000D01*
X156071000Y-117085000D02*
X156071000Y-115335000D01*
X152571000Y-115335000D02*
X152571000Y-117085000D01*
X152571000Y-115335000D02*
X156071000Y-115335000D01*
G04 #@! TO.C,C6*
X162167000Y-122419000D02*
X158667000Y-122419000D01*
X162167000Y-122419000D02*
X162167000Y-120669000D01*
X158667000Y-120669000D02*
X158667000Y-122419000D01*
X158667000Y-120669000D02*
X162167000Y-120669000D01*
G04 #@! TO.C,C4*
X152571000Y-112404000D02*
X156071000Y-112404000D01*
X152571000Y-112404000D02*
X152571000Y-114154000D01*
X156071000Y-114154000D02*
X156071000Y-112404000D01*
X156071000Y-114154000D02*
X152571000Y-114154000D01*
G04 #@! TO.C,Y2*
X158757000Y-110161000D02*
X158757000Y-114161000D01*
X156457000Y-110161000D02*
X156457000Y-114161000D01*
X158757000Y-110161000D02*
X156457000Y-110161000D01*
X158757000Y-114161000D02*
X156457000Y-114161000D01*
G04 #@! TO.C,MH1*
X104080000Y-140970000D02*
G75*
G03X104080000Y-140970000I-3750000J0D01*
G01*
G04 #@! TO.C,C3*
X156071000Y-111878000D02*
X152571000Y-111878000D01*
X156071000Y-111878000D02*
X156071000Y-110128000D01*
X152571000Y-110128000D02*
X152571000Y-111878000D01*
X152571000Y-110128000D02*
X156071000Y-110128000D01*
G04 #@! TO.C,R11*
X169429000Y-128051000D02*
X169429000Y-131151000D01*
X169429000Y-128051000D02*
X167629000Y-128051000D01*
X167629000Y-131151000D02*
X169429000Y-131151000D01*
X167629000Y-131151000D02*
X167629000Y-128051000D01*
G04 #@! TO.C,C14*
X169970000Y-124342000D02*
X173470000Y-124342000D01*
X169970000Y-124342000D02*
X169970000Y-126092000D01*
X173470000Y-126092000D02*
X173470000Y-124342000D01*
X173470000Y-126092000D02*
X169970000Y-126092000D01*
G04 #@! TO.C,R10*
X166127000Y-128051000D02*
X166127000Y-131151000D01*
X166127000Y-128051000D02*
X164327000Y-128051000D01*
X164327000Y-131151000D02*
X166127000Y-131151000D01*
X164327000Y-131151000D02*
X164327000Y-128051000D01*
G04 #@! TO.C,R12*
X172731000Y-128051000D02*
X172731000Y-131151000D01*
X172731000Y-128051000D02*
X170931000Y-128051000D01*
X170931000Y-131151000D02*
X172731000Y-131151000D01*
X170931000Y-131151000D02*
X170931000Y-128051000D01*
G04 #@! TO.C,R9*
X162825000Y-128051000D02*
X162825000Y-131151000D01*
X162825000Y-128051000D02*
X161025000Y-128051000D01*
X161025000Y-131151000D02*
X162825000Y-131151000D01*
X161025000Y-131151000D02*
X161025000Y-128051000D01*
G04 #@! TO.C,C11*
X177502000Y-126102000D02*
X174002000Y-126102000D01*
X177502000Y-126102000D02*
X177502000Y-124352000D01*
X174002000Y-124352000D02*
X174002000Y-126102000D01*
X174002000Y-124352000D02*
X177502000Y-124352000D01*
G04 #@! TO.C,C10*
X168517000Y-126102000D02*
X165017000Y-126102000D01*
X168517000Y-126102000D02*
X168517000Y-124352000D01*
X165017000Y-124352000D02*
X165017000Y-126102000D01*
X165017000Y-124352000D02*
X168517000Y-124352000D01*
G04 #@! TO.C,C12*
X164604000Y-107070000D02*
X168104000Y-107070000D01*
X164604000Y-107070000D02*
X164604000Y-108820000D01*
X168104000Y-108820000D02*
X168104000Y-107070000D01*
X168104000Y-108820000D02*
X164604000Y-108820000D01*
G04 #@! TO.C,C8*
X179950000Y-111518000D02*
X179950000Y-115018000D01*
X179950000Y-111518000D02*
X178200000Y-111518000D01*
X178200000Y-115018000D02*
X179950000Y-115018000D01*
X178200000Y-115018000D02*
X178200000Y-111518000D01*
G04 #@! TO.C,C9*
X181982000Y-111518000D02*
X181982000Y-115018000D01*
X181982000Y-111518000D02*
X180232000Y-111518000D01*
X180232000Y-115018000D02*
X181982000Y-115018000D01*
X180232000Y-115018000D02*
X180232000Y-111518000D01*
G04 #@! TO.C,C15*
X178447000Y-124342000D02*
X181947000Y-124342000D01*
X178447000Y-124342000D02*
X178447000Y-126092000D01*
X181947000Y-126092000D02*
X181947000Y-124342000D01*
X181947000Y-126092000D02*
X178447000Y-126092000D01*
G04 #@! TO.C,R23*
X161203000Y-107050000D02*
X164303000Y-107050000D01*
X161203000Y-107050000D02*
X161203000Y-108850000D01*
X164303000Y-108850000D02*
X164303000Y-107050000D01*
X164303000Y-108850000D02*
X161203000Y-108850000D01*
G04 #@! TO.C,R24*
X114924000Y-122261000D02*
X114924000Y-119161000D01*
X114924000Y-122261000D02*
X116724000Y-122261000D01*
X116724000Y-119161000D02*
X114924000Y-119161000D01*
X116724000Y-119161000D02*
X116724000Y-122261000D01*
G04 #@! TO.C,C19*
X114944000Y-118860000D02*
X114944000Y-115360000D01*
X114944000Y-118860000D02*
X116694000Y-118860000D01*
X116694000Y-115360000D02*
X114944000Y-115360000D01*
X116694000Y-115360000D02*
X116694000Y-118860000D01*
G04 #@! TO.C,C16*
X108375000Y-90560000D02*
X111875000Y-90560000D01*
X108375000Y-90560000D02*
X108375000Y-92310000D01*
X111875000Y-92310000D02*
X111875000Y-90560000D01*
X111875000Y-92310000D02*
X108375000Y-92310000D01*
G04 #@! TO.C,R15*
X107783000Y-92340000D02*
X104683000Y-92340000D01*
X107783000Y-92340000D02*
X107783000Y-90540000D01*
X104683000Y-90540000D02*
X104683000Y-92340000D01*
X104683000Y-90540000D02*
X107783000Y-90540000D01*
G04 #@! TO.C,R16*
X138263000Y-92340000D02*
X135163000Y-92340000D01*
X138263000Y-92340000D02*
X138263000Y-90540000D01*
X135163000Y-90540000D02*
X135163000Y-92340000D01*
X135163000Y-90540000D02*
X138263000Y-90540000D01*
G04 #@! TO.C,C17*
X138855000Y-90560000D02*
X142355000Y-90560000D01*
X138855000Y-90560000D02*
X138855000Y-92310000D01*
X142355000Y-92310000D02*
X142355000Y-90560000D01*
X142355000Y-92310000D02*
X138855000Y-92310000D01*
G04 #@! TO.C,R17*
X168748000Y-92340000D02*
X165648000Y-92340000D01*
X168748000Y-92340000D02*
X168748000Y-90540000D01*
X165648000Y-90540000D02*
X165648000Y-92340000D01*
X165648000Y-90540000D02*
X168748000Y-90540000D01*
G04 #@! TO.C,C18*
X169335000Y-90560000D02*
X172835000Y-90560000D01*
X169335000Y-90560000D02*
X169335000Y-92310000D01*
X172835000Y-92310000D02*
X172835000Y-90560000D01*
X172835000Y-92310000D02*
X169335000Y-92310000D01*
G04 #@! TO.C,R25*
X200371000Y-87133000D02*
X197271000Y-87133000D01*
X200371000Y-87133000D02*
X200371000Y-85333000D01*
X197271000Y-85333000D02*
X197271000Y-87133000D01*
X197271000Y-85333000D02*
X200371000Y-85333000D01*
G04 #@! TO.C,R18*
X101259000Y-90540000D02*
X104359000Y-90540000D01*
X101259000Y-90540000D02*
X101259000Y-92340000D01*
X104359000Y-92340000D02*
X104359000Y-90540000D01*
X104359000Y-92340000D02*
X101259000Y-92340000D01*
G04 #@! TO.C,Q3*
X193308000Y-76418500D02*
X196708000Y-76418500D01*
X196708000Y-76418500D02*
X196708000Y-79918500D01*
X196708000Y-79918500D02*
X193308000Y-79918500D01*
X193308000Y-79918500D02*
X193308000Y-76418500D01*
G04 #@! TO.C,J1*
X186160000Y-115675000D02*
X186160000Y-137025000D01*
X186160000Y-137025000D02*
X192310000Y-137025000D01*
X192310000Y-137025000D02*
X192310000Y-115675000D01*
X192310000Y-115675000D02*
X186160000Y-115675000D01*
G04 #@! TO.C,P1*
X222110000Y-120970000D02*
X222110000Y-112170000D01*
X216010000Y-112170000D02*
X222110000Y-112170000D01*
X216010000Y-120970000D02*
X216010000Y-112170000D01*
X222110000Y-120970000D02*
X216010000Y-120970000D01*
G04 #@! TO.C,U4*
X168570000Y-93940000D02*
X168570000Y-102940000D01*
X182045000Y-93940000D02*
X168570000Y-93940000D01*
X182045000Y-102940000D02*
X182045000Y-93940000D01*
X168570000Y-102940000D02*
X182045000Y-102940000D01*
G04 #@! TO.C,MH4*
X218380000Y-140970000D02*
G75*
G03X218380000Y-140970000I-3750000J0D01*
G01*
G04 #@! TO.C,MH3*
X218380000Y-39370000D02*
G75*
G03X218380000Y-39370000I-3750000J0D01*
G01*
G04 #@! TO.C,MH2*
X104080000Y-39370000D02*
G75*
G03X104080000Y-39370000I-3750000J0D01*
G01*
G04 #@! TO.C,U3*
X138097000Y-93940000D02*
X138097000Y-102940000D01*
X151572000Y-93940000D02*
X138097000Y-93940000D01*
X151572000Y-102940000D02*
X151572000Y-93940000D01*
X138097000Y-102940000D02*
X151572000Y-102940000D01*
G04 #@! TO.C,U2*
X107587000Y-93940000D02*
X107587000Y-102940000D01*
X121062000Y-93940000D02*
X107587000Y-93940000D01*
X121062000Y-102940000D02*
X121062000Y-93940000D01*
X107587000Y-102940000D02*
X121062000Y-102940000D01*
G04 #@! TO.C,C26*
X196985000Y-43355000D02*
X196985000Y-57055000D01*
X210685000Y-43355000D02*
X196985000Y-43355000D01*
X210685000Y-57055000D02*
X210685000Y-43355000D01*
X196985000Y-57055000D02*
X210685000Y-57055000D01*
G04 #@! TO.C,F1*
X204066000Y-135404000D02*
X210666000Y-135404000D01*
X204066000Y-145604000D02*
X210666000Y-145604000D01*
X210666000Y-145604000D02*
X210666000Y-135404000D01*
X204066000Y-145604000D02*
X204066000Y-135404000D01*
G04 #@! TO.C,BZ1*
X210085000Y-70475000D02*
G75*
G03X210085000Y-70475000I-6250000J0D01*
G01*
G04 #@! TO.C,LED1*
X184860000Y-83740000D02*
X178360000Y-83740000D01*
X178360000Y-83740000D02*
X178360000Y-90240000D01*
X178360000Y-90240000D02*
X184860000Y-90240000D01*
X184860000Y-90240000D02*
X184860000Y-83740000D01*
G04 #@! TO.C,LED2*
X184860000Y-71040000D02*
X178360000Y-71040000D01*
X178360000Y-71040000D02*
X178360000Y-77540000D01*
X178360000Y-77540000D02*
X184860000Y-77540000D01*
X184860000Y-77540000D02*
X184860000Y-71040000D01*
G04 #@! TO.C,LED3*
X184860000Y-58340000D02*
X178360000Y-58340000D01*
X178360000Y-58340000D02*
X178360000Y-64840000D01*
X178360000Y-64840000D02*
X184860000Y-64840000D01*
X184860000Y-64840000D02*
X184860000Y-58340000D01*
G04 #@! TO.C,LED4*
X184860000Y-45640000D02*
X178360000Y-45640000D01*
X178360000Y-45640000D02*
X178360000Y-52140000D01*
X178360000Y-52140000D02*
X184860000Y-52140000D01*
X184860000Y-52140000D02*
X184860000Y-45640000D01*
G04 #@! TO.C,LED5*
X172160000Y-83740000D02*
X165660000Y-83740000D01*
X165660000Y-83740000D02*
X165660000Y-90240000D01*
X165660000Y-90240000D02*
X172160000Y-90240000D01*
X172160000Y-90240000D02*
X172160000Y-83740000D01*
G04 #@! TO.C,LED6*
X172160000Y-71040000D02*
X165660000Y-71040000D01*
X165660000Y-71040000D02*
X165660000Y-77540000D01*
X165660000Y-77540000D02*
X172160000Y-77540000D01*
X172160000Y-77540000D02*
X172160000Y-71040000D01*
G04 #@! TO.C,LED7*
X172160000Y-58340000D02*
X165660000Y-58340000D01*
X165660000Y-58340000D02*
X165660000Y-64840000D01*
X165660000Y-64840000D02*
X172160000Y-64840000D01*
X172160000Y-64840000D02*
X172160000Y-58340000D01*
G04 #@! TO.C,LED8*
X172160000Y-45640000D02*
X165660000Y-45640000D01*
X165660000Y-45640000D02*
X165660000Y-52140000D01*
X165660000Y-52140000D02*
X172160000Y-52140000D01*
X172160000Y-52140000D02*
X172160000Y-45640000D01*
G04 #@! TO.C,LED9*
X154380000Y-83740000D02*
X147880000Y-83740000D01*
X147880000Y-83740000D02*
X147880000Y-90240000D01*
X147880000Y-90240000D02*
X154380000Y-90240000D01*
X154380000Y-90240000D02*
X154380000Y-83740000D01*
G04 #@! TO.C,LED10*
X154380000Y-71040000D02*
X147880000Y-71040000D01*
X147880000Y-71040000D02*
X147880000Y-77540000D01*
X147880000Y-77540000D02*
X154380000Y-77540000D01*
X154380000Y-77540000D02*
X154380000Y-71040000D01*
G04 #@! TO.C,LED11*
X154380000Y-58340000D02*
X147880000Y-58340000D01*
X147880000Y-58340000D02*
X147880000Y-64840000D01*
X147880000Y-64840000D02*
X154380000Y-64840000D01*
X154380000Y-64840000D02*
X154380000Y-58340000D01*
G04 #@! TO.C,LED12*
X154380000Y-45640000D02*
X147880000Y-45640000D01*
X147880000Y-45640000D02*
X147880000Y-52140000D01*
X147880000Y-52140000D02*
X154380000Y-52140000D01*
X154380000Y-52140000D02*
X154380000Y-45640000D01*
G04 #@! TO.C,LED13*
X141680000Y-83740000D02*
X135180000Y-83740000D01*
X135180000Y-83740000D02*
X135180000Y-90240000D01*
X135180000Y-90240000D02*
X141680000Y-90240000D01*
X141680000Y-90240000D02*
X141680000Y-83740000D01*
G04 #@! TO.C,LED14*
X141680000Y-71040000D02*
X135180000Y-71040000D01*
X135180000Y-71040000D02*
X135180000Y-77540000D01*
X135180000Y-77540000D02*
X141680000Y-77540000D01*
X141680000Y-77540000D02*
X141680000Y-71040000D01*
G04 #@! TO.C,LED15*
X141680000Y-58340000D02*
X135180000Y-58340000D01*
X135180000Y-58340000D02*
X135180000Y-64840000D01*
X135180000Y-64840000D02*
X141680000Y-64840000D01*
X141680000Y-64840000D02*
X141680000Y-58340000D01*
G04 #@! TO.C,LED16*
X141680000Y-45640000D02*
X135180000Y-45640000D01*
X135180000Y-45640000D02*
X135180000Y-52140000D01*
X135180000Y-52140000D02*
X141680000Y-52140000D01*
X141680000Y-52140000D02*
X141680000Y-45640000D01*
G04 #@! TO.C,LED17*
X123900000Y-83740000D02*
X117400000Y-83740000D01*
X117400000Y-83740000D02*
X117400000Y-90240000D01*
X117400000Y-90240000D02*
X123900000Y-90240000D01*
X123900000Y-90240000D02*
X123900000Y-83740000D01*
G04 #@! TO.C,LED18*
X123900000Y-71040000D02*
X117400000Y-71040000D01*
X117400000Y-71040000D02*
X117400000Y-77540000D01*
X117400000Y-77540000D02*
X123900000Y-77540000D01*
X123900000Y-77540000D02*
X123900000Y-71040000D01*
G04 #@! TO.C,LED19*
X123900000Y-58340000D02*
X117400000Y-58340000D01*
X117400000Y-58340000D02*
X117400000Y-64840000D01*
X117400000Y-64840000D02*
X123900000Y-64840000D01*
X123900000Y-64840000D02*
X123900000Y-58340000D01*
G04 #@! TO.C,LED20*
X123900000Y-45640000D02*
X117400000Y-45640000D01*
X117400000Y-45640000D02*
X117400000Y-52140000D01*
X117400000Y-52140000D02*
X123900000Y-52140000D01*
X123900000Y-52140000D02*
X123900000Y-45640000D01*
G04 #@! TO.C,LED21*
X111200000Y-83740000D02*
X104700000Y-83740000D01*
X104700000Y-83740000D02*
X104700000Y-90240000D01*
X104700000Y-90240000D02*
X111200000Y-90240000D01*
X111200000Y-90240000D02*
X111200000Y-83740000D01*
G04 #@! TO.C,LED22*
X111200000Y-71040000D02*
X104700000Y-71040000D01*
X104700000Y-71040000D02*
X104700000Y-77540000D01*
X104700000Y-77540000D02*
X111200000Y-77540000D01*
X111200000Y-77540000D02*
X111200000Y-71040000D01*
G04 #@! TO.C,LED23*
X111200000Y-58340000D02*
X104700000Y-58340000D01*
X104700000Y-58340000D02*
X104700000Y-64840000D01*
X104700000Y-64840000D02*
X111200000Y-64840000D01*
X111200000Y-64840000D02*
X111200000Y-58340000D01*
G04 #@! TO.C,LED24*
X111200000Y-45640000D02*
X104700000Y-45640000D01*
X104700000Y-45640000D02*
X104700000Y-52140000D01*
X104700000Y-52140000D02*
X111200000Y-52140000D01*
X111200000Y-52140000D02*
X111200000Y-45640000D01*
G04 #@! TO.C,Q2*
X188115000Y-71280000D02*
X188115000Y-67880000D01*
X188115000Y-67880000D02*
X191615000Y-67880000D01*
X191615000Y-67880000D02*
X191615000Y-71280000D01*
X191615000Y-71280000D02*
X188115000Y-71280000D01*
G04 #@! TO.C,R1*
X215103000Y-121042000D02*
X212003000Y-121042000D01*
X215103000Y-121042000D02*
X215103000Y-119242000D01*
X212003000Y-119242000D02*
X212003000Y-121042000D01*
X212003000Y-119242000D02*
X215103000Y-119242000D01*
G04 #@! TO.C,R2*
X208315000Y-119242000D02*
X211415000Y-119242000D01*
X208315000Y-119242000D02*
X208315000Y-121042000D01*
X211415000Y-121042000D02*
X211415000Y-119242000D01*
X211415000Y-121042000D02*
X208315000Y-121042000D01*
G04 #@! TO.C,R4*
X188381000Y-75935000D02*
X191481000Y-75935000D01*
X188381000Y-75935000D02*
X188381000Y-77735000D01*
X191481000Y-77735000D02*
X191481000Y-75935000D01*
X191481000Y-77735000D02*
X188381000Y-77735000D01*
G04 #@! TO.C,R5*
X188381000Y-73903000D02*
X191481000Y-73903000D01*
X188381000Y-73903000D02*
X188381000Y-75703000D01*
X191481000Y-75703000D02*
X191481000Y-73903000D01*
X191481000Y-75703000D02*
X188381000Y-75703000D01*
G04 #@! TO.C,SW1*
X199378000Y-111363000D02*
X193778000Y-111363000D01*
X193778000Y-111363000D02*
X193778000Y-107763000D01*
X193778000Y-107763000D02*
X199378000Y-107763000D01*
X199378000Y-107763000D02*
X199378000Y-111363000D01*
G04 #@! TO.C,C24*
X201918000Y-125594000D02*
X198418000Y-125594000D01*
X201918000Y-125594000D02*
X201918000Y-123844000D01*
X198418000Y-123844000D02*
X198418000Y-125594000D01*
X198418000Y-123844000D02*
X201918000Y-123844000D01*
G04 #@! TO.C,C25*
X195952000Y-116725000D02*
X195952000Y-120225000D01*
X195952000Y-116725000D02*
X194202000Y-116725000D01*
X194202000Y-120225000D02*
X195952000Y-120225000D01*
X194202000Y-120225000D02*
X194202000Y-116725000D01*
G04 #@! TO.C,RV1*
X199876000Y-101429000D02*
X199876000Y-95929000D01*
X199876000Y-95929000D02*
X193326000Y-95929000D01*
X193326000Y-95929000D02*
X193326000Y-101429000D01*
X193326000Y-101429000D02*
X199876000Y-101429000D01*
G04 #@! TO.C,LED25*
X207085000Y-78660000D02*
X200585000Y-78660000D01*
X200585000Y-78660000D02*
X200585000Y-85160000D01*
X200585000Y-85160000D02*
X207085000Y-85160000D01*
X207085000Y-85160000D02*
X207085000Y-78660000D01*
G04 #@! TO.C,LED26*
X207800000Y-83480000D02*
X211300000Y-83480000D01*
X211300000Y-83480000D02*
X211300000Y-79080000D01*
X211300000Y-79080000D02*
X207800000Y-79080000D01*
X207800000Y-79080000D02*
X207800000Y-83480000D01*
G04 #@! TO.C,J3*
X207750000Y-85830000D02*
X207750000Y-94480000D01*
X207750000Y-94480000D02*
X213900000Y-94480000D01*
X213900000Y-94480000D02*
X213900000Y-85830000D01*
X213900000Y-85830000D02*
X207750000Y-85830000D01*
G04 #@! TO.C,C23*
X204434000Y-134465000D02*
X193834000Y-134465000D01*
X204434000Y-134465000D02*
X204434000Y-125885000D01*
X193834000Y-125885000D02*
X193834000Y-134465000D01*
X193834000Y-125885000D02*
X204434000Y-125885000D01*
G04 #@! TO.C,C27*
X191631000Y-66412000D02*
X188131000Y-66412000D01*
X191631000Y-66412000D02*
X191631000Y-64662000D01*
X188131000Y-64662000D02*
X188131000Y-66412000D01*
X188131000Y-64662000D02*
X191631000Y-64662000D01*
G04 #@! TO.C,D1*
X214541000Y-115228000D02*
X210741000Y-115228000D01*
X214541000Y-118828000D02*
X214541000Y-115228000D01*
X210741000Y-118828000D02*
X214541000Y-118828000D01*
X210741000Y-115228000D02*
X210741000Y-118828000D01*
G04 #@! TO.C,D2*
X192525000Y-72580000D02*
X192525000Y-67880000D01*
X192525000Y-67880000D02*
X194825000Y-67880000D01*
X194825000Y-67880000D02*
X194825000Y-72580000D01*
X192525000Y-72580000D02*
X194825000Y-72580000D01*
G04 #@! TO.C,D3*
X195913000Y-145518000D02*
X195913000Y-135718000D01*
X195913000Y-135718000D02*
X202613000Y-135718000D01*
X202613000Y-135718000D02*
X202613000Y-145518000D01*
X202613000Y-145518000D02*
X195913000Y-145518000D01*
G04 #@! TO.C,D4*
X188115000Y-63184000D02*
X188115000Y-59784000D01*
X188115000Y-59784000D02*
X191615000Y-59784000D01*
X191615000Y-59784000D02*
X191615000Y-63184000D01*
X191615000Y-63184000D02*
X188115000Y-63184000D01*
G04 #@! TO.C,D5*
X193583000Y-60156000D02*
X192243000Y-60156000D01*
X193583000Y-62956000D02*
X193583000Y-60156000D01*
X192243000Y-62956000D02*
X193583000Y-62956000D01*
X192243000Y-60156000D02*
X192243000Y-62956000D01*
G04 #@! TO.C,Q1*
X219150000Y-67900000D02*
X212650000Y-67900000D01*
X212650000Y-67900000D02*
X212650000Y-74350000D01*
X212650000Y-74350000D02*
X219150000Y-74350000D01*
X219150000Y-74350000D02*
X219150000Y-67900000D01*
G04 #@! TO.C,R19*
X188381000Y-71871000D02*
X191481000Y-71871000D01*
X188381000Y-71871000D02*
X188381000Y-73671000D01*
X191481000Y-73671000D02*
X191481000Y-71871000D01*
X191481000Y-73671000D02*
X188381000Y-73671000D01*
G04 #@! TO.C,R28*
X207356000Y-88530000D02*
X204256000Y-88530000D01*
X207356000Y-88530000D02*
X207356000Y-86730000D01*
X204256000Y-86730000D02*
X204256000Y-88530000D01*
X204256000Y-86730000D02*
X207356000Y-86730000D01*
G04 #@! TO.C,U6*
X199945000Y-88740000D02*
X199945000Y-94140000D01*
X207405000Y-88740000D02*
X207405000Y-94140000D01*
X199945000Y-88740000D02*
X207405000Y-88740000D01*
X199945000Y-94140000D02*
X207405000Y-94140000D01*
G04 #@! TO.C,U9*
X197420000Y-122762000D02*
X204420000Y-122762000D01*
X204420000Y-122762000D02*
X204420000Y-111662000D01*
X204420000Y-111662000D02*
X197420000Y-111662000D01*
X197420000Y-111662000D02*
X197420000Y-122762000D01*
G04 #@! TO.C,C20*
X203117000Y-94751000D02*
X206617000Y-94751000D01*
X203117000Y-94751000D02*
X203117000Y-96501000D01*
X206617000Y-96501000D02*
X206617000Y-94751000D01*
X206617000Y-96501000D02*
X203117000Y-96501000D01*
G04 #@! TO.C,J4*
X210290000Y-95990000D02*
X210290000Y-112290000D01*
X210290000Y-112290000D02*
X213890000Y-112290000D01*
X213890000Y-112290000D02*
X213890000Y-95990000D01*
X213890000Y-95990000D02*
X210290000Y-95990000D01*
G04 #@! TO.C,J5*
X221366000Y-125431000D02*
X221366000Y-134931000D01*
X212366000Y-125431000D02*
X221366000Y-125431000D01*
X212366000Y-123431000D02*
X212366000Y-125431000D01*
X208366000Y-123431000D02*
X212366000Y-123431000D01*
X208366000Y-125431000D02*
X208366000Y-123431000D01*
X206366000Y-125431000D02*
X208366000Y-125431000D01*
X206366000Y-128181000D02*
X206366000Y-125431000D01*
X205366000Y-128181000D02*
X206366000Y-128181000D01*
X205366000Y-132181000D02*
X205366000Y-128181000D01*
X206366000Y-132181000D02*
X205366000Y-132181000D01*
X206366000Y-134681000D02*
X206366000Y-132181000D01*
X206366000Y-134931000D02*
X221366000Y-134931000D01*
X206366000Y-134681000D02*
X206366000Y-134931000D01*
G04 #@! TO.C,R29*
X206918000Y-94731000D02*
X210018000Y-94731000D01*
X206918000Y-94731000D02*
X206918000Y-96531000D01*
X210018000Y-96531000D02*
X210018000Y-94731000D01*
X210018000Y-96531000D02*
X206918000Y-96531000D01*
G04 #@! TO.C,R30*
X191481000Y-58304000D02*
X188381000Y-58304000D01*
X191481000Y-58304000D02*
X191481000Y-56504000D01*
X188381000Y-56504000D02*
X188381000Y-58304000D01*
X188381000Y-56504000D02*
X191481000Y-56504000D01*
G04 #@! TO.C,J2*
X143615000Y-113135000D02*
X143615000Y-126885000D01*
X143615000Y-126885000D02*
X149765000Y-126885000D01*
X149765000Y-126885000D02*
X149765000Y-113135000D01*
X149765000Y-113135000D02*
X143615000Y-113135000D01*
G04 #@! TO.C,SW2*
X199378000Y-106410000D02*
X193778000Y-106410000D01*
X193778000Y-106410000D02*
X193778000Y-102810000D01*
X193778000Y-102810000D02*
X199378000Y-102810000D01*
X199378000Y-102810000D02*
X199378000Y-106410000D01*
G04 #@! TD*
M02*
