M48
;DRILL file {KiCad (5.0.1-3-g963ef8bb5)} date Saturday, October 27, 2018 at 08:23:46 PM
;FORMAT={-:-/ absolute / inch / decimal}
FMAT,2
INCH,TZ
T1C0.0130
T2C0.0130
T3C0.0236
T4C0.0335
T5C0.0354
T6C0.0394
T7C0.0591
T8C0.1181
%
G90
G05
M72
T1
X4.2967Y-3.7988
X4.2967Y-3.85
X4.2967Y-3.9012
X4.2967Y-3.9524
X4.3479Y-3.7988
X4.3479Y-3.85
X4.3479Y-3.9012
X4.3479Y-3.9524
X4.3991Y-3.7988
X4.3991Y-3.85
X4.3991Y-3.9012
X4.3991Y-3.9524
X4.4503Y-3.7988
X4.4503Y-3.85
X4.4503Y-3.9012
X4.4503Y-3.9524
X4.5015Y-3.7988
X4.5015Y-3.85
X4.5015Y-3.9012
X4.5015Y-3.9524
X4.5526Y-3.7988
X4.5526Y-3.85
X4.5526Y-3.9012
X4.5526Y-3.9524
X4.6038Y-3.7988
X4.6038Y-3.85
X4.6038Y-3.9012
X4.6038Y-3.9524
X4.655Y-3.7988
X4.655Y-3.85
X4.655Y-3.9012
X4.655Y-3.9524
X4.7062Y-3.7988
X4.7062Y-3.85
X4.7062Y-3.9012
X4.7062Y-3.9524
X5.4979Y-3.7988
X5.4979Y-3.85
X5.4979Y-3.9012
X5.4979Y-3.9524
X5.5491Y-3.7988
X5.5491Y-3.85
X5.5491Y-3.9012
X5.5491Y-3.9524
X5.6003Y-3.7988
X5.6003Y-3.85
X5.6003Y-3.9012
X5.6003Y-3.9524
X5.6515Y-3.7988
X5.6515Y-3.85
X5.6515Y-3.9012
X5.6515Y-3.9524
X5.7026Y-3.7988
X5.7026Y-3.85
X5.7026Y-3.9012
X5.7026Y-3.9524
X5.7538Y-3.7988
X5.7538Y-3.85
X5.7538Y-3.9012
X5.7538Y-3.9524
X5.805Y-3.7988
X5.805Y-3.85
X5.805Y-3.9012
X5.805Y-3.9524
X5.8562Y-3.7988
X5.8562Y-3.85
X5.8562Y-3.9012
X5.8562Y-3.9524
X5.9074Y-3.7988
X5.9074Y-3.85
X5.9074Y-3.9012
X5.9074Y-3.9524
X6.6976Y-3.7988
X6.6976Y-3.85
X6.6976Y-3.9012
X6.6976Y-3.9524
X6.7488Y-3.7988
X6.7488Y-3.85
X6.7488Y-3.9012
X6.7488Y-3.9524
X6.8Y-3.7988
X6.8Y-3.85
X6.8Y-3.9012
X6.8Y-3.9524
X6.8512Y-3.7988
X6.8512Y-3.85
X6.8512Y-3.9012
X6.8512Y-3.9524
X6.9024Y-3.7988
X6.9024Y-3.85
X6.9024Y-3.9012
X6.9024Y-3.9524
X6.9535Y-3.7988
X6.9535Y-3.85
X6.9535Y-3.9012
X6.9535Y-3.9524
X7.0047Y-3.7988
X7.0047Y-3.85
X7.0047Y-3.9012
X7.0047Y-3.9524
X7.0559Y-3.7988
X7.0559Y-3.85
X7.0559Y-3.9012
X7.0559Y-3.9524
X7.1071Y-3.7988
X7.1071Y-3.85
X7.1071Y-3.9012
X7.1071Y-3.9524
T2
X3.75Y-3.975
X4.05Y-3.975
X4.195Y-3.75
X4.22Y-3.725
X4.245Y-3.7
X4.255Y-3.6
X4.31Y-1.98
X4.31Y-2.48
X4.31Y-2.98
X4.31Y-3.48
X4.325Y-4.09
X4.375Y-4.09
X4.375Y-4.3
X4.375Y-4.7
X4.42Y-4.09
X4.445Y-3.45
X4.475Y-3.35
X4.475Y-3.5
X4.5Y-4.17
X4.515Y-2.95
X4.55Y-2.85
X4.55Y-3.
X4.59Y-2.455
X4.625Y-2.35
X4.625Y-2.5
X4.645Y-1.99
X4.675Y-5.
X4.725Y-2.08
X4.725Y-2.12
X4.725Y-2.58
X4.725Y-2.62
X4.725Y-3.08
X4.725Y-3.12
X4.725Y-3.58
X4.725Y-3.62
X4.74Y-4.755
X4.75Y-2.05
X4.75Y-2.55
X4.75Y-3.05
X4.75Y-3.55
X4.76Y-3.7
X4.76Y-4.02
X4.835Y-4.63
X4.895Y-4.495
X5.015Y-4.655
X5.115Y-4.505
X5.115Y-4.705
X5.145Y-4.635
X5.27Y-4.42
X5.285Y-4.68
X5.31Y-3.6
X5.365Y-4.155
X5.37Y-4.02
X5.385Y-4.56
X5.395Y-3.75
X5.42Y-3.725
X5.42Y-4.02
X5.42Y-4.075
X5.425Y-4.165
X5.43Y-4.73
X5.436Y-4.5491
X5.445Y-3.7
X5.45Y-5.
X5.455Y-3.6
X5.455Y-4.19
X5.49Y-4.42
X5.51Y-1.98
X5.51Y-2.48
X5.51Y-2.98
X5.51Y-3.48
X5.52Y-4.3
X5.525Y-4.15
X5.55Y-4.12
X5.575Y-4.095
X5.645Y-3.45
X5.655Y-4.215
X5.665Y-4.775
X5.675Y-3.35
X5.675Y-3.5
X5.72Y-2.95
X5.75Y-2.85
X5.75Y-3.
X5.795Y-2.45
X5.825Y-2.35
X5.825Y-2.5
X5.825Y-4.42
X5.845Y-1.99
X5.925Y-2.08
X5.925Y-2.12
X5.925Y-2.58
X5.925Y-2.62
X5.925Y-3.08
X5.925Y-3.12
X5.925Y-3.58
X5.925Y-3.62
X5.925Y-4.94
X5.95Y-2.05
X5.95Y-2.55
X5.95Y-3.05
X5.95Y-3.55
X5.96Y-3.7
X5.96Y-4.02
X5.985Y-4.775
X5.995Y-4.415
X6.0363Y-4.52
X6.195Y-3.09
X6.225Y-5.
X6.365Y-4.65
X6.4Y-4.585
X6.405Y-4.89
X6.4626Y-4.8613
X6.4759Y-4.7833
X6.485Y-4.93
X6.51Y-3.6
X6.5138Y-4.639
X6.515Y-4.675
X6.53Y-4.02
X6.54Y-4.5297
X6.545Y-4.15
X6.555Y-4.675
X6.56Y-4.04
X6.57Y-4.555
X6.57Y-4.7835
X6.585Y-3.725
X6.605Y-4.785
X6.605Y-4.98
X6.625Y-3.725
X6.6391Y-4.8673
X6.65Y-3.7
X6.6552Y-3.6
X6.67Y-4.68
X6.695Y-4.745
X6.7Y-4.3349
X6.7096Y-4.4196
X6.71Y-1.98
X6.71Y-2.48
X6.71Y-2.98
X6.71Y-3.48
X6.725Y-4.115
X6.75Y-4.09
X6.7532Y-4.2352
X6.7563Y-4.7702
X6.775Y-4.065
X6.785Y-4.52
X6.7968Y-4.594
X6.825Y-4.625
X6.835Y-4.225
X6.835Y-4.265
X6.84Y-4.93
X6.845Y-3.45
X6.845Y-4.685
X6.85Y-4.65
X6.875Y-3.35
X6.875Y-3.5
X6.875Y-4.59
X6.88Y-4.49
X6.88Y-4.53
X6.88Y-4.68
X6.8815Y-4.7394
X6.92Y-2.95
X6.92Y-4.425
X6.9226Y-4.7749
X6.935Y-4.98
X6.95Y-2.85
X6.95Y-3.
X6.9555Y-4.8088
X6.9703Y-4.5697
X6.995Y-2.45
X7.Y-4.55
X7.0004Y-4.5146
X7.01Y-4.275
X7.025Y-2.35
X7.025Y-2.5
X7.045Y-1.99
X7.045Y-5.01
X7.11Y-5.075
X7.125Y-2.08
X7.125Y-2.12
X7.125Y-2.58
X7.125Y-2.62
X7.125Y-3.08
X7.125Y-3.12
X7.125Y-3.58
X7.125Y-3.62
X7.135Y-4.565
X7.14Y-4.845
X7.15Y-2.05
X7.15Y-2.55
X7.15Y-3.05
X7.15Y-3.55
X7.15Y-5.125
X7.16Y-4.02
X7.175Y-4.565
X7.1788Y-4.3177
X7.185Y-3.99
X7.2156Y-4.3308
X7.26Y-4.925
X7.31Y-4.975
X7.34Y-2.945
X7.425Y-5.4
X7.425Y-5.75
X7.445Y-4.185
X7.475Y-3.145
X7.505Y-4.065
X7.545Y-4.36
X7.575Y-4.305
X7.62Y-4.3
X7.63Y-3.74
X7.675Y-3.575
X7.6801Y-4.3857
X7.76Y-3.885
X7.8276Y-3.419
X7.86Y-3.625
X7.86Y-3.675
X7.86Y-3.71
X7.955Y-4.075
X8.025Y-4.35
X8.03Y-3.45
X8.105Y-4.025
X8.11Y-3.975
X8.28Y-3.765
X8.29Y-4.57
X8.29Y-4.645
X8.335Y-4.73
T4
X8.5437Y-4.4909
X8.5437Y-4.6878
T5
X5.95Y-3.35
X5.95Y-3.4
X5.95Y-3.45
X5.95Y-3.5
X6.65Y-1.85
X6.65Y-1.9
X6.65Y-1.95
X6.65Y-2.
X5.95Y-2.35
X5.95Y-2.4
X5.95Y-2.45
X5.95Y-2.5
X4.25Y-2.85
X4.25Y-2.9
X4.25Y-2.95
X4.25Y-3.
X6.65Y-2.35
X6.65Y-2.4
X6.65Y-2.45
X6.65Y-2.5
X4.75Y-2.85
X4.75Y-2.9
X4.75Y-2.95
X4.75Y-3.
X4.25Y-3.35
X4.25Y-3.4
X4.25Y-3.45
X4.25Y-3.5
X5.45Y-2.35
X5.45Y-2.4
X5.45Y-2.45
X5.45Y-2.5
X8.025Y-3.15
X8.025Y-3.2
X8.025Y-3.25
X8.025Y-3.3
X4.75Y-1.85
X4.75Y-1.9
X4.75Y-1.95
X4.75Y-2.
X5.45Y-2.85
X5.45Y-2.9
X5.45Y-2.95
X5.45Y-3.
X4.75Y-2.35
X4.75Y-2.4
X4.75Y-2.45
X4.75Y-2.5
X5.45Y-3.35
X5.45Y-3.4
X5.45Y-3.45
X5.45Y-3.5
X4.25Y-1.85
X4.25Y-1.9
X4.25Y-1.95
X4.25Y-2.
X7.15Y-2.35
X7.15Y-2.4
X7.15Y-2.45
X7.15Y-2.5
X5.95Y-1.85
X5.95Y-1.9
X5.95Y-1.95
X5.95Y-2.
X6.65Y-2.85
X6.65Y-2.9
X6.65Y-2.95
X6.65Y-3.
X4.25Y-2.35
X4.25Y-2.4
X4.25Y-2.45
X4.25Y-2.5
X4.75Y-3.35
X4.75Y-3.4
X4.75Y-3.45
X4.75Y-3.5
X7.15Y-2.85
X7.15Y-2.9
X7.15Y-2.95
X7.15Y-3.
X6.65Y-3.35
X6.65Y-3.4
X6.65Y-3.45
X6.65Y-3.5
X8.5Y-2.75
X8.5Y-2.85
X5.45Y-1.85
X5.45Y-1.9
X5.45Y-1.95
X5.45Y-2.
X7.15Y-3.35
X7.15Y-3.4
X7.15Y-3.45
X7.15Y-3.5
X5.95Y-2.85
X5.95Y-2.9
X5.95Y-2.95
X5.95Y-3.
X7.15Y-1.85
X7.15Y-1.9
X7.15Y-1.95
X7.15Y-2.
T6
X8.025Y-2.625
X8.025Y-2.9242
X8.25Y-3.45
X8.25Y-3.55
X8.25Y-3.65
X8.35Y-3.45
X8.35Y-3.55
X8.35Y-3.65
X8.35Y-3.85
X8.35Y-3.95
X8.35Y-4.05
X8.35Y-4.15
X8.35Y-4.25
X8.35Y-4.35
X7.4Y-4.625
X7.4Y-4.725
X7.4Y-4.825
X7.4Y-4.925
X7.4Y-5.025
X7.4Y-5.125
X7.4Y-5.225
X7.4Y-5.325
X7.5Y-4.625
X7.5Y-4.725
X7.5Y-4.825
X7.5Y-4.925
X7.5Y-5.025
X7.5Y-5.125
X7.5Y-5.225
X7.5Y-5.325
X5.725Y-4.525
X5.725Y-4.625
X5.725Y-4.725
X5.725Y-4.825
X5.725Y-4.925
X5.825Y-4.525
X5.825Y-4.625
X5.825Y-4.725
X5.825Y-4.825
X5.825Y-4.925
T7
X7.7183Y-1.975
X8.525Y-1.975
X8.025Y-1.8781
X8.025Y-2.075
T8
X8.164Y-5.1252
X8.2821Y-4.9402
X8.4002Y-5.1252
T3
X8.6362Y-4.4516G85X8.6638Y-4.4516
G05
X8.6638Y-4.7272G85X8.6362Y-4.7272
G05
T0
M30
