G04 #@! TF.GenerationSoftware,KiCad,Pcbnew,(5.0.1-3-g963ef8bb5)*
G04 #@! TF.CreationDate,2019-01-02T19:54:35-06:00*
G04 #@! TF.ProjectId,kbxBinaryClock.v4,6B627842696E617279436C6F636B2E76,rev?*
G04 #@! TF.SameCoordinates,Original*
G04 #@! TF.FileFunction,Paste,Top*
G04 #@! TF.FilePolarity,Positive*
%FSLAX46Y46*%
G04 Gerber Fmt 4.6, Leading zero omitted, Abs format (unit mm)*
G04 Created by KiCad (PCBNEW (5.0.1-3-g963ef8bb5)) date Wednesday, January 02, 2019 at 07:54:35 PM*
%MOMM*%
%LPD*%
G01*
G04 APERTURE LIST*
%ADD10R,1.550000X0.600000*%
%ADD11R,1.500000X0.600000*%
%ADD12R,1.000000X0.250000*%
%ADD13R,0.250000X1.000000*%
%ADD14R,1.300000X0.700000*%
%ADD15R,1.250000X1.000000*%
%ADD16R,2.400000X0.740000*%
%ADD17R,1.000000X1.250000*%
%ADD18R,0.700000X1.300000*%
%ADD19R,0.900000X0.800000*%
%ADD20R,0.970000X1.270000*%
%ADD21R,1.300000X1.600000*%
%ADD22R,1.800000X1.000000*%
%ADD23R,1.900000X1.500000*%
%ADD24R,1.350000X0.400000*%
%ADD25R,6.500000X3.500000*%
%ADD26R,0.400000X1.200000*%
%ADD27R,5.600000X2.300000*%
%ADD28R,0.800000X0.900000*%
%ADD29R,0.900000X1.000000*%
%ADD30R,0.800000X1.000000*%
%ADD31R,4.000000X2.500000*%
%ADD32R,1.060000X0.650000*%
%ADD33R,1.200000X0.900000*%
%ADD34R,3.300000X2.500000*%
%ADD35R,0.800000X0.600000*%
%ADD36R,1.200000X2.200000*%
%ADD37R,2.750000X3.050000*%
G04 APERTURE END LIST*
D10*
G04 #@! TO.C,U7*
X134173000Y-114237000D03*
X134173000Y-115507000D03*
X134173000Y-116777000D03*
X134173000Y-118047000D03*
X139573000Y-118047000D03*
X139573000Y-116777000D03*
X139573000Y-115507000D03*
X139573000Y-114237000D03*
G04 #@! TD*
D11*
G04 #@! TO.C,U5*
X119151000Y-120841000D03*
X119151000Y-119571000D03*
X119151000Y-118301000D03*
X119151000Y-117031000D03*
X119151000Y-115761000D03*
X119151000Y-114491000D03*
X119151000Y-122111000D03*
X119151000Y-123381000D03*
X119151000Y-124651000D03*
X119151000Y-125921000D03*
X128651000Y-125921000D03*
X128651000Y-124651000D03*
X128651000Y-123381000D03*
X128651000Y-122111000D03*
X128651000Y-120841000D03*
X128651000Y-119571000D03*
X128651000Y-118301000D03*
X128651000Y-117031000D03*
X128651000Y-115761000D03*
X128651000Y-114491000D03*
G04 #@! TD*
D12*
G04 #@! TO.C,U1*
X164427000Y-113095000D03*
X164427000Y-113595000D03*
X164427000Y-114095000D03*
X164427000Y-114595000D03*
X164427000Y-115095000D03*
X164427000Y-115595000D03*
X164427000Y-116095000D03*
X164427000Y-116595000D03*
X164427000Y-117095000D03*
X164427000Y-117595000D03*
X164427000Y-118095000D03*
X164427000Y-118595000D03*
X164427000Y-119095000D03*
X164427000Y-119595000D03*
X164427000Y-120095000D03*
X164427000Y-120595000D03*
D13*
X166377000Y-122545000D03*
X166877000Y-122545000D03*
X167377000Y-122545000D03*
X167877000Y-122545000D03*
X168377000Y-122545000D03*
X168877000Y-122545000D03*
X169377000Y-122545000D03*
X169877000Y-122545000D03*
X170377000Y-122545000D03*
X170877000Y-122545000D03*
X171377000Y-122545000D03*
X171877000Y-122545000D03*
X172377000Y-122545000D03*
X172877000Y-122545000D03*
X173377000Y-122545000D03*
X173877000Y-122545000D03*
D12*
X175827000Y-120595000D03*
X175827000Y-120095000D03*
X175827000Y-119595000D03*
X175827000Y-119095000D03*
X175827000Y-118595000D03*
X175827000Y-118095000D03*
X175827000Y-117595000D03*
X175827000Y-117095000D03*
X175827000Y-116595000D03*
X175827000Y-116095000D03*
X175827000Y-115595000D03*
X175827000Y-115095000D03*
X175827000Y-114595000D03*
X175827000Y-114095000D03*
X175827000Y-113595000D03*
X175827000Y-113095000D03*
D13*
X173877000Y-111145000D03*
X173377000Y-111145000D03*
X172877000Y-111145000D03*
X172377000Y-111145000D03*
X171877000Y-111145000D03*
X171377000Y-111145000D03*
X170877000Y-111145000D03*
X170377000Y-111145000D03*
X169877000Y-111145000D03*
X169377000Y-111145000D03*
X168877000Y-111145000D03*
X168377000Y-111145000D03*
X167877000Y-111145000D03*
X167377000Y-111145000D03*
X166877000Y-111145000D03*
X166377000Y-111145000D03*
G04 #@! TD*
D14*
G04 #@! TO.C,R3*
X201803000Y-110236000D03*
X201803000Y-108336000D03*
G04 #@! TD*
G04 #@! TO.C,R8*
X207137000Y-110358000D03*
X207137000Y-108458000D03*
G04 #@! TD*
D15*
G04 #@! TO.C,C22*
X209169000Y-110458000D03*
X209169000Y-108458000D03*
G04 #@! TD*
D14*
G04 #@! TO.C,R7*
X191643000Y-114173000D03*
X191643000Y-112273000D03*
G04 #@! TD*
G04 #@! TO.C,R6*
X195072000Y-114173000D03*
X195072000Y-112273000D03*
G04 #@! TD*
D15*
G04 #@! TO.C,C5*
X205105000Y-108458000D03*
X205105000Y-110458000D03*
G04 #@! TD*
D16*
G04 #@! TO.C,P2*
X203745000Y-100965000D03*
X207645000Y-100965000D03*
X203745000Y-102235000D03*
X207645000Y-102235000D03*
X203745000Y-103505000D03*
X207645000Y-103505000D03*
X203745000Y-104775000D03*
X207645000Y-104775000D03*
X203745000Y-106045000D03*
X207645000Y-106045000D03*
G04 #@! TD*
D17*
G04 #@! TO.C,C13*
X165354000Y-105918000D03*
X167354000Y-105918000D03*
G04 #@! TD*
D10*
G04 #@! TO.C,U8*
X134173000Y-122365000D03*
X134173000Y-123635000D03*
X134173000Y-124905000D03*
X134173000Y-126175000D03*
X139573000Y-126175000D03*
X139573000Y-124905000D03*
X139573000Y-123635000D03*
X139573000Y-122365000D03*
G04 #@! TD*
D18*
G04 #@! TO.C,R20*
X199771000Y-79756000D03*
X197871000Y-79756000D03*
G04 #@! TD*
D19*
G04 #@! TO.C,Q5*
X194008000Y-84838500D03*
X194008000Y-86738500D03*
X196008000Y-85788500D03*
G04 #@! TD*
D18*
G04 #@! TO.C,R22*
X197871000Y-84074000D03*
X199771000Y-84074000D03*
G04 #@! TD*
G04 #@! TO.C,R21*
X197871000Y-81915000D03*
X199771000Y-81915000D03*
G04 #@! TD*
D17*
G04 #@! TO.C,C21*
X134525000Y-120206000D03*
X136525000Y-120206000D03*
G04 #@! TD*
D18*
G04 #@! TO.C,R27*
X195829000Y-88773000D03*
X193929000Y-88773000D03*
G04 #@! TD*
D19*
G04 #@! TO.C,Q4*
X193992000Y-81026000D03*
X193992000Y-82926000D03*
X195992000Y-81976000D03*
G04 #@! TD*
D18*
G04 #@! TO.C,R26*
X195834000Y-90805000D03*
X193934000Y-90805000D03*
G04 #@! TD*
D14*
G04 #@! TO.C,R13*
X175133000Y-128651000D03*
X175133000Y-130551000D03*
G04 #@! TD*
G04 #@! TO.C,R14*
X178435000Y-128651000D03*
X178435000Y-130551000D03*
G04 #@! TD*
D17*
G04 #@! TO.C,C7*
X161417000Y-123571000D03*
X159417000Y-123571000D03*
G04 #@! TD*
G04 #@! TO.C,C2*
X155321000Y-118491000D03*
X153321000Y-118491000D03*
G04 #@! TD*
D20*
G04 #@! TO.C,SB1*
X159893000Y-111252000D03*
X161163000Y-111252000D03*
X162433000Y-111252000D03*
G04 #@! TD*
D21*
G04 #@! TO.C,Y1*
X159288000Y-118859000D03*
X159288000Y-115559000D03*
X157288000Y-115559000D03*
X157288000Y-118859000D03*
G04 #@! TD*
D17*
G04 #@! TO.C,C1*
X155321000Y-116205000D03*
X153321000Y-116205000D03*
G04 #@! TD*
G04 #@! TO.C,C6*
X161417000Y-121539000D03*
X159417000Y-121539000D03*
G04 #@! TD*
G04 #@! TO.C,C4*
X153321000Y-113284000D03*
X155321000Y-113284000D03*
G04 #@! TD*
D22*
G04 #@! TO.C,Y2*
X157607000Y-113411000D03*
X157607000Y-110911000D03*
G04 #@! TD*
D17*
G04 #@! TO.C,C3*
X155321000Y-110998000D03*
X153321000Y-110998000D03*
G04 #@! TD*
D14*
G04 #@! TO.C,R11*
X168529000Y-128651000D03*
X168529000Y-130551000D03*
G04 #@! TD*
D17*
G04 #@! TO.C,C14*
X170720000Y-125222000D03*
X172720000Y-125222000D03*
G04 #@! TD*
D14*
G04 #@! TO.C,R10*
X165227000Y-128651000D03*
X165227000Y-130551000D03*
G04 #@! TD*
G04 #@! TO.C,R12*
X171831000Y-128651000D03*
X171831000Y-130551000D03*
G04 #@! TD*
G04 #@! TO.C,R9*
X161925000Y-128651000D03*
X161925000Y-130551000D03*
G04 #@! TD*
D17*
G04 #@! TO.C,C11*
X176752000Y-125222000D03*
X174752000Y-125222000D03*
G04 #@! TD*
G04 #@! TO.C,C10*
X167767000Y-125222000D03*
X165767000Y-125222000D03*
G04 #@! TD*
G04 #@! TO.C,C12*
X165354000Y-107950000D03*
X167354000Y-107950000D03*
G04 #@! TD*
D15*
G04 #@! TO.C,C8*
X179070000Y-112268000D03*
X179070000Y-114268000D03*
G04 #@! TD*
G04 #@! TO.C,C9*
X181102000Y-112268000D03*
X181102000Y-114268000D03*
G04 #@! TD*
D17*
G04 #@! TO.C,C15*
X179197000Y-125222000D03*
X181197000Y-125222000D03*
G04 #@! TD*
D18*
G04 #@! TO.C,R23*
X161803000Y-107950000D03*
X163703000Y-107950000D03*
G04 #@! TD*
D14*
G04 #@! TO.C,R24*
X115824000Y-121661000D03*
X115824000Y-119761000D03*
G04 #@! TD*
D15*
G04 #@! TO.C,C19*
X115824000Y-118110000D03*
X115824000Y-116110000D03*
G04 #@! TD*
D17*
G04 #@! TO.C,C16*
X109125000Y-91440000D03*
X111125000Y-91440000D03*
G04 #@! TD*
D18*
G04 #@! TO.C,R15*
X107183000Y-91440000D03*
X105283000Y-91440000D03*
G04 #@! TD*
G04 #@! TO.C,R16*
X137663000Y-91440000D03*
X135763000Y-91440000D03*
G04 #@! TD*
D17*
G04 #@! TO.C,C17*
X139605000Y-91440000D03*
X141605000Y-91440000D03*
G04 #@! TD*
D18*
G04 #@! TO.C,R17*
X168148000Y-91440000D03*
X166248000Y-91440000D03*
G04 #@! TD*
D17*
G04 #@! TO.C,C18*
X170085000Y-91440000D03*
X172085000Y-91440000D03*
G04 #@! TD*
D18*
G04 #@! TO.C,R25*
X199771000Y-86233000D03*
X197871000Y-86233000D03*
G04 #@! TD*
G04 #@! TO.C,R18*
X101859000Y-91440000D03*
X103759000Y-91440000D03*
G04 #@! TD*
D19*
G04 #@! TO.C,Q3*
X194008000Y-77218500D03*
X194008000Y-79118500D03*
X196008000Y-78168500D03*
G04 #@! TD*
D23*
G04 #@! TO.C,P1*
X219710000Y-115570000D03*
D24*
X217010000Y-117220000D03*
X217010000Y-117870000D03*
X217010000Y-115270000D03*
X217010000Y-115920000D03*
X217010000Y-116570000D03*
D23*
X219710000Y-117570000D03*
G04 #@! TD*
D25*
G04 #@! TO.C,U4*
X175320000Y-98440000D03*
D26*
X169470000Y-94790000D03*
X170120000Y-94790000D03*
X170770000Y-94790000D03*
X171420000Y-94790000D03*
X172070000Y-94790000D03*
X172720000Y-94790000D03*
X173370000Y-94790000D03*
X174020000Y-94790000D03*
X174670000Y-94790000D03*
X175320000Y-94790000D03*
X175970000Y-94790000D03*
X176620000Y-94790000D03*
X177270000Y-94790000D03*
X177920000Y-94790000D03*
X178570000Y-94790000D03*
X179220000Y-94790000D03*
X179870000Y-94790000D03*
X180520000Y-94790000D03*
X181170000Y-94790000D03*
X181170000Y-102090000D03*
X180520000Y-102090000D03*
X179870000Y-102090000D03*
X179220000Y-102090000D03*
X178570000Y-102090000D03*
X177920000Y-102090000D03*
X177270000Y-102090000D03*
X176620000Y-102090000D03*
X175970000Y-102090000D03*
X175320000Y-102090000D03*
X174670000Y-102090000D03*
X174020000Y-102090000D03*
X173370000Y-102090000D03*
X172720000Y-102090000D03*
X172070000Y-102090000D03*
X171420000Y-102090000D03*
X170770000Y-102090000D03*
X170120000Y-102090000D03*
X169470000Y-102090000D03*
G04 #@! TD*
D25*
G04 #@! TO.C,U3*
X144847000Y-98440000D03*
D26*
X138997000Y-94790000D03*
X139647000Y-94790000D03*
X140297000Y-94790000D03*
X140947000Y-94790000D03*
X141597000Y-94790000D03*
X142247000Y-94790000D03*
X142897000Y-94790000D03*
X143547000Y-94790000D03*
X144197000Y-94790000D03*
X144847000Y-94790000D03*
X145497000Y-94790000D03*
X146147000Y-94790000D03*
X146797000Y-94790000D03*
X147447000Y-94790000D03*
X148097000Y-94790000D03*
X148747000Y-94790000D03*
X149397000Y-94790000D03*
X150047000Y-94790000D03*
X150697000Y-94790000D03*
X150697000Y-102090000D03*
X150047000Y-102090000D03*
X149397000Y-102090000D03*
X148747000Y-102090000D03*
X148097000Y-102090000D03*
X147447000Y-102090000D03*
X146797000Y-102090000D03*
X146147000Y-102090000D03*
X145497000Y-102090000D03*
X144847000Y-102090000D03*
X144197000Y-102090000D03*
X143547000Y-102090000D03*
X142897000Y-102090000D03*
X142247000Y-102090000D03*
X141597000Y-102090000D03*
X140947000Y-102090000D03*
X140297000Y-102090000D03*
X139647000Y-102090000D03*
X138997000Y-102090000D03*
G04 #@! TD*
D25*
G04 #@! TO.C,U2*
X114337000Y-98440000D03*
D26*
X108487000Y-94790000D03*
X109137000Y-94790000D03*
X109787000Y-94790000D03*
X110437000Y-94790000D03*
X111087000Y-94790000D03*
X111737000Y-94790000D03*
X112387000Y-94790000D03*
X113037000Y-94790000D03*
X113687000Y-94790000D03*
X114337000Y-94790000D03*
X114987000Y-94790000D03*
X115637000Y-94790000D03*
X116287000Y-94790000D03*
X116937000Y-94790000D03*
X117587000Y-94790000D03*
X118237000Y-94790000D03*
X118887000Y-94790000D03*
X119537000Y-94790000D03*
X120187000Y-94790000D03*
X120187000Y-102090000D03*
X119537000Y-102090000D03*
X118887000Y-102090000D03*
X118237000Y-102090000D03*
X117587000Y-102090000D03*
X116937000Y-102090000D03*
X116287000Y-102090000D03*
X115637000Y-102090000D03*
X114987000Y-102090000D03*
X114337000Y-102090000D03*
X113687000Y-102090000D03*
X113037000Y-102090000D03*
X112387000Y-102090000D03*
X111737000Y-102090000D03*
X111087000Y-102090000D03*
X110437000Y-102090000D03*
X109787000Y-102090000D03*
X109137000Y-102090000D03*
X108487000Y-102090000D03*
G04 #@! TD*
D27*
G04 #@! TO.C,F1*
X207366000Y-144204000D03*
X207366000Y-136804000D03*
G04 #@! TD*
D28*
G04 #@! TO.C,Q2*
X188915000Y-70580000D03*
X190815000Y-70580000D03*
X189865000Y-68580000D03*
G04 #@! TD*
D18*
G04 #@! TO.C,R1*
X214503000Y-120142000D03*
X212603000Y-120142000D03*
G04 #@! TD*
G04 #@! TO.C,R2*
X208915000Y-120142000D03*
X210815000Y-120142000D03*
G04 #@! TD*
G04 #@! TO.C,R4*
X188981000Y-76835000D03*
X190881000Y-76835000D03*
G04 #@! TD*
G04 #@! TO.C,R5*
X188981000Y-74803000D03*
X190881000Y-74803000D03*
G04 #@! TD*
D29*
G04 #@! TO.C,SW1*
X198628000Y-110363000D03*
X198628000Y-108763000D03*
X194528000Y-110363000D03*
X194528000Y-108763000D03*
G04 #@! TD*
D17*
G04 #@! TO.C,C24*
X201168000Y-124714000D03*
X199168000Y-124714000D03*
G04 #@! TD*
D15*
G04 #@! TO.C,C25*
X195072000Y-117475000D03*
X195072000Y-119475000D03*
G04 #@! TD*
D30*
G04 #@! TO.C,LED26*
X208850000Y-82530000D03*
X208850000Y-80030000D03*
X210250000Y-80030000D03*
X210250000Y-82530000D03*
G04 #@! TD*
D31*
G04 #@! TO.C,C23*
X202184000Y-130175000D03*
X196084000Y-130175000D03*
G04 #@! TD*
D17*
G04 #@! TO.C,C27*
X190881000Y-65532000D03*
X188881000Y-65532000D03*
G04 #@! TD*
D32*
G04 #@! TO.C,D1*
X211541000Y-116078000D03*
X211541000Y-117028000D03*
X211541000Y-117978000D03*
X213741000Y-117978000D03*
X213741000Y-116078000D03*
X213741000Y-117028000D03*
G04 #@! TD*
D33*
G04 #@! TO.C,D2*
X193675000Y-71880000D03*
X193675000Y-68580000D03*
G04 #@! TD*
D34*
G04 #@! TO.C,D3*
X199263000Y-144018000D03*
X199263000Y-137218000D03*
G04 #@! TD*
D28*
G04 #@! TO.C,D4*
X188915000Y-62484000D03*
X190815000Y-62484000D03*
X189865000Y-60484000D03*
G04 #@! TD*
D35*
G04 #@! TO.C,D5*
X192913000Y-62406000D03*
X192913000Y-60706000D03*
G04 #@! TD*
D18*
G04 #@! TO.C,R19*
X188981000Y-72771000D03*
X190881000Y-72771000D03*
G04 #@! TD*
G04 #@! TO.C,R28*
X206756000Y-87630000D03*
X204856000Y-87630000D03*
G04 #@! TD*
D10*
G04 #@! TO.C,U6*
X200975000Y-89535000D03*
X200975000Y-90805000D03*
X200975000Y-92075000D03*
X200975000Y-93345000D03*
X206375000Y-93345000D03*
X206375000Y-92075000D03*
X206375000Y-90805000D03*
X206375000Y-89535000D03*
G04 #@! TD*
D36*
G04 #@! TO.C,U9*
X198640000Y-121412000D03*
X203200000Y-121412000D03*
D37*
X202445000Y-113437000D03*
X199395000Y-116787000D03*
X199395000Y-113437000D03*
X202445000Y-116787000D03*
G04 #@! TD*
D17*
G04 #@! TO.C,C20*
X203867000Y-95631000D03*
X205867000Y-95631000D03*
G04 #@! TD*
D18*
G04 #@! TO.C,R29*
X207518000Y-95631000D03*
X209418000Y-95631000D03*
G04 #@! TD*
G04 #@! TO.C,R30*
X190881000Y-57404000D03*
X188981000Y-57404000D03*
G04 #@! TD*
D29*
G04 #@! TO.C,SW2*
X198628000Y-105410000D03*
X198628000Y-103810000D03*
X194528000Y-105410000D03*
X194528000Y-103810000D03*
G04 #@! TD*
M02*
