G04 #@! TF.FileFunction,Other,User*
%FSLAX46Y46*%
G04 Gerber Fmt 4.6, Leading zero omitted, Abs format (unit mm)*
G04 Created by KiCad (PCBNEW 4.0.7) date Saturday, March 31, 2018 'PMt' 05:04:50 PM*
%MOMM*%
%LPD*%
G01*
G04 APERTURE LIST*
%ADD10C,0.100000*%
%ADD11C,0.050000*%
G04 APERTURE END LIST*
D10*
D11*
X206360000Y-135310000D02*
X206360000Y-135560000D01*
X206360000Y-135560000D02*
X221360000Y-135560000D01*
X206360000Y-135310000D02*
X206360000Y-132810000D01*
X206360000Y-132810000D02*
X205360000Y-132810000D01*
X205360000Y-132810000D02*
X205360000Y-128810000D01*
X205360000Y-128810000D02*
X206360000Y-128810000D01*
X206360000Y-128810000D02*
X206360000Y-126060000D01*
X206360000Y-126060000D02*
X208360000Y-126060000D01*
X208360000Y-126060000D02*
X208360000Y-124060000D01*
X208360000Y-124060000D02*
X212360000Y-124060000D01*
X212360000Y-124060000D02*
X212360000Y-126060000D01*
X212360000Y-126060000D02*
X221360000Y-126060000D01*
X221360000Y-126060000D02*
X221360000Y-135560000D01*
X207775000Y-137670000D02*
X207775000Y-144270000D01*
X197575000Y-137670000D02*
X197575000Y-144270000D01*
X197575000Y-144270000D02*
X207775000Y-144270000D01*
X197575000Y-137670000D02*
X207775000Y-137670000D01*
X203130013Y-38625135D02*
G75*
G02X206800000Y-61560000I69987J-11749865D01*
G01*
X203269987Y-38625135D02*
G75*
G03X199600000Y-61560000I-69987J-11749865D01*
G01*
X206811889Y-61558169D02*
G75*
G03X206450000Y-62075000I188111J-516831D01*
G01*
X199588111Y-61558169D02*
G75*
G02X199950000Y-62075000I-188111J-516831D01*
G01*
X199950000Y-68025000D02*
X199950000Y-62075000D01*
X206450000Y-68025000D02*
X206450000Y-62075000D01*
X206450000Y-68025000D02*
X199950000Y-68025000D01*
X209450000Y-77460000D02*
G75*
G03X209450000Y-77460000I-6250000J0D01*
G01*
X128262000Y-122611000D02*
X128262000Y-119111000D01*
X128262000Y-122611000D02*
X130012000Y-122611000D01*
X130012000Y-119111000D02*
X128262000Y-119111000D01*
X130012000Y-119111000D02*
X130012000Y-122611000D01*
X132054000Y-110507000D02*
X132054000Y-114007000D01*
X132054000Y-110507000D02*
X130304000Y-110507000D01*
X130304000Y-114007000D02*
X132054000Y-114007000D01*
X130304000Y-114007000D02*
X130304000Y-110507000D01*
X131564000Y-126675000D02*
X131564000Y-123175000D01*
X131564000Y-126675000D02*
X133314000Y-126675000D01*
X133314000Y-123175000D02*
X131564000Y-123175000D01*
X133314000Y-123175000D02*
X133314000Y-126675000D01*
X131564000Y-122643000D02*
X131564000Y-119143000D01*
X131564000Y-122643000D02*
X133314000Y-122643000D01*
X133314000Y-119143000D02*
X131564000Y-119143000D01*
X133314000Y-119143000D02*
X133314000Y-122643000D01*
X168757000Y-121016000D02*
X168757000Y-124516000D01*
X168757000Y-121016000D02*
X167007000Y-121016000D01*
X167007000Y-124516000D02*
X168757000Y-124516000D01*
X167007000Y-124516000D02*
X167007000Y-121016000D01*
X198619000Y-96278000D02*
X198619000Y-99778000D01*
X198619000Y-96278000D02*
X196869000Y-96278000D01*
X196869000Y-99778000D02*
X198619000Y-99778000D01*
X196869000Y-99778000D02*
X196869000Y-96278000D01*
X138185000Y-126734000D02*
X138185000Y-123234000D01*
X138185000Y-126734000D02*
X139935000Y-126734000D01*
X139935000Y-123234000D02*
X138185000Y-123234000D01*
X139935000Y-123234000D02*
X139935000Y-126734000D01*
X156057000Y-113301000D02*
X156057000Y-116801000D01*
X156057000Y-113301000D02*
X154307000Y-113301000D01*
X154307000Y-116801000D02*
X156057000Y-116801000D01*
X154307000Y-116801000D02*
X154307000Y-113301000D01*
X143029000Y-109456000D02*
X146529000Y-109456000D01*
X143029000Y-109456000D02*
X143029000Y-111206000D01*
X146529000Y-111206000D02*
X146529000Y-109456000D01*
X146529000Y-111206000D02*
X143029000Y-111206000D01*
X151609000Y-126837000D02*
X148109000Y-126837000D01*
X151609000Y-126837000D02*
X151609000Y-125087000D01*
X148109000Y-125087000D02*
X148109000Y-126837000D01*
X148109000Y-125087000D02*
X151609000Y-125087000D01*
X134883000Y-126734000D02*
X134883000Y-123234000D01*
X134883000Y-126734000D02*
X136633000Y-126734000D01*
X136633000Y-123234000D02*
X134883000Y-123234000D01*
X136633000Y-123234000D02*
X136633000Y-126734000D01*
X159359000Y-113301000D02*
X159359000Y-116801000D01*
X159359000Y-113301000D02*
X157609000Y-113301000D01*
X157609000Y-116801000D02*
X159359000Y-116801000D01*
X157609000Y-116801000D02*
X157609000Y-113301000D01*
X151609000Y-130139000D02*
X148109000Y-130139000D01*
X151609000Y-130139000D02*
X151609000Y-128389000D01*
X148109000Y-128389000D02*
X148109000Y-130139000D01*
X148109000Y-128389000D02*
X151609000Y-128389000D01*
X144045000Y-125077000D02*
X147545000Y-125077000D01*
X144045000Y-125077000D02*
X144045000Y-126827000D01*
X147545000Y-126827000D02*
X147545000Y-125077000D01*
X147545000Y-126827000D02*
X144045000Y-126827000D01*
X147315000Y-109456000D02*
X150815000Y-109456000D01*
X147315000Y-109456000D02*
X147315000Y-111206000D01*
X150815000Y-111206000D02*
X150815000Y-109456000D01*
X150815000Y-111206000D02*
X147315000Y-111206000D01*
X154297000Y-120865000D02*
X154297000Y-117365000D01*
X154297000Y-120865000D02*
X156047000Y-120865000D01*
X156047000Y-117365000D02*
X154297000Y-117365000D01*
X156047000Y-117365000D02*
X156047000Y-120865000D01*
X143029000Y-106154000D02*
X146529000Y-106154000D01*
X143029000Y-106154000D02*
X143029000Y-107904000D01*
X146529000Y-107904000D02*
X146529000Y-106154000D01*
X146529000Y-107904000D02*
X143029000Y-107904000D01*
X173509000Y-106154000D02*
X177009000Y-106154000D01*
X173509000Y-106154000D02*
X173509000Y-107904000D01*
X177009000Y-107904000D02*
X177009000Y-106154000D01*
X177009000Y-107904000D02*
X173509000Y-107904000D01*
X210273000Y-96598200D02*
X210273000Y-112898200D01*
X210273000Y-112898200D02*
X213873000Y-112898200D01*
X213873000Y-112898200D02*
X213873000Y-96598200D01*
X213873000Y-96598200D02*
X210273000Y-96598200D01*
X184860000Y-83740000D02*
X178360000Y-83740000D01*
X178360000Y-83740000D02*
X178360000Y-90240000D01*
X178360000Y-90240000D02*
X184860000Y-90240000D01*
X184860000Y-90240000D02*
X184860000Y-83740000D01*
X184860000Y-71040000D02*
X178360000Y-71040000D01*
X178360000Y-71040000D02*
X178360000Y-77540000D01*
X178360000Y-77540000D02*
X184860000Y-77540000D01*
X184860000Y-77540000D02*
X184860000Y-71040000D01*
X184860000Y-58340000D02*
X178360000Y-58340000D01*
X178360000Y-58340000D02*
X178360000Y-64840000D01*
X178360000Y-64840000D02*
X184860000Y-64840000D01*
X184860000Y-64840000D02*
X184860000Y-58340000D01*
X184860000Y-45640000D02*
X178360000Y-45640000D01*
X178360000Y-45640000D02*
X178360000Y-52140000D01*
X178360000Y-52140000D02*
X184860000Y-52140000D01*
X184860000Y-52140000D02*
X184860000Y-45640000D01*
X172160000Y-83740000D02*
X165660000Y-83740000D01*
X165660000Y-83740000D02*
X165660000Y-90240000D01*
X165660000Y-90240000D02*
X172160000Y-90240000D01*
X172160000Y-90240000D02*
X172160000Y-83740000D01*
X172160000Y-71040000D02*
X165660000Y-71040000D01*
X165660000Y-71040000D02*
X165660000Y-77540000D01*
X165660000Y-77540000D02*
X172160000Y-77540000D01*
X172160000Y-77540000D02*
X172160000Y-71040000D01*
X172160000Y-58340000D02*
X165660000Y-58340000D01*
X165660000Y-58340000D02*
X165660000Y-64840000D01*
X165660000Y-64840000D02*
X172160000Y-64840000D01*
X172160000Y-64840000D02*
X172160000Y-58340000D01*
X172160000Y-45640000D02*
X165660000Y-45640000D01*
X165660000Y-45640000D02*
X165660000Y-52140000D01*
X165660000Y-52140000D02*
X172160000Y-52140000D01*
X172160000Y-52140000D02*
X172160000Y-45640000D01*
X154380000Y-83740000D02*
X147880000Y-83740000D01*
X147880000Y-83740000D02*
X147880000Y-90240000D01*
X147880000Y-90240000D02*
X154380000Y-90240000D01*
X154380000Y-90240000D02*
X154380000Y-83740000D01*
X154380000Y-71040000D02*
X147880000Y-71040000D01*
X147880000Y-71040000D02*
X147880000Y-77540000D01*
X147880000Y-77540000D02*
X154380000Y-77540000D01*
X154380000Y-77540000D02*
X154380000Y-71040000D01*
X154380000Y-58340000D02*
X147880000Y-58340000D01*
X147880000Y-58340000D02*
X147880000Y-64840000D01*
X147880000Y-64840000D02*
X154380000Y-64840000D01*
X154380000Y-64840000D02*
X154380000Y-58340000D01*
X154380000Y-45640000D02*
X147880000Y-45640000D01*
X147880000Y-45640000D02*
X147880000Y-52140000D01*
X147880000Y-52140000D02*
X154380000Y-52140000D01*
X154380000Y-52140000D02*
X154380000Y-45640000D01*
X141680000Y-83740000D02*
X135180000Y-83740000D01*
X135180000Y-83740000D02*
X135180000Y-90240000D01*
X135180000Y-90240000D02*
X141680000Y-90240000D01*
X141680000Y-90240000D02*
X141680000Y-83740000D01*
X141680000Y-71040000D02*
X135180000Y-71040000D01*
X135180000Y-71040000D02*
X135180000Y-77540000D01*
X135180000Y-77540000D02*
X141680000Y-77540000D01*
X141680000Y-77540000D02*
X141680000Y-71040000D01*
X141680000Y-58340000D02*
X135180000Y-58340000D01*
X135180000Y-58340000D02*
X135180000Y-64840000D01*
X135180000Y-64840000D02*
X141680000Y-64840000D01*
X141680000Y-64840000D02*
X141680000Y-58340000D01*
X141680000Y-45640000D02*
X135180000Y-45640000D01*
X135180000Y-45640000D02*
X135180000Y-52140000D01*
X135180000Y-52140000D02*
X141680000Y-52140000D01*
X141680000Y-52140000D02*
X141680000Y-45640000D01*
X123900000Y-83740000D02*
X117400000Y-83740000D01*
X117400000Y-83740000D02*
X117400000Y-90240000D01*
X117400000Y-90240000D02*
X123900000Y-90240000D01*
X123900000Y-90240000D02*
X123900000Y-83740000D01*
X123900000Y-71040000D02*
X117400000Y-71040000D01*
X117400000Y-71040000D02*
X117400000Y-77540000D01*
X117400000Y-77540000D02*
X123900000Y-77540000D01*
X123900000Y-77540000D02*
X123900000Y-71040000D01*
X123900000Y-58340000D02*
X117400000Y-58340000D01*
X117400000Y-58340000D02*
X117400000Y-64840000D01*
X117400000Y-64840000D02*
X123900000Y-64840000D01*
X123900000Y-64840000D02*
X123900000Y-58340000D01*
X123900000Y-45640000D02*
X117400000Y-45640000D01*
X117400000Y-45640000D02*
X117400000Y-52140000D01*
X117400000Y-52140000D02*
X123900000Y-52140000D01*
X123900000Y-52140000D02*
X123900000Y-45640000D01*
X111200000Y-83740000D02*
X104700000Y-83740000D01*
X104700000Y-83740000D02*
X104700000Y-90240000D01*
X104700000Y-90240000D02*
X111200000Y-90240000D01*
X111200000Y-90240000D02*
X111200000Y-83740000D01*
X111200000Y-71040000D02*
X104700000Y-71040000D01*
X104700000Y-71040000D02*
X104700000Y-77540000D01*
X104700000Y-77540000D02*
X111200000Y-77540000D01*
X111200000Y-77540000D02*
X111200000Y-71040000D01*
X111200000Y-58340000D02*
X104700000Y-58340000D01*
X104700000Y-58340000D02*
X104700000Y-64840000D01*
X104700000Y-64840000D02*
X111200000Y-64840000D01*
X111200000Y-64840000D02*
X111200000Y-58340000D01*
X111200000Y-45640000D02*
X104700000Y-45640000D01*
X104700000Y-45640000D02*
X104700000Y-52140000D01*
X104700000Y-52140000D02*
X111200000Y-52140000D01*
X111200000Y-52140000D02*
X111200000Y-45640000D01*
X199363000Y-99932000D02*
X199363000Y-107332000D01*
X199363000Y-107332000D02*
X207963000Y-107332000D01*
X207963000Y-107332000D02*
X207963000Y-99932000D01*
X207963000Y-99932000D02*
X199363000Y-99932000D01*
X193703000Y-94775000D02*
X193703000Y-91375000D01*
X193703000Y-91375000D02*
X197203000Y-91375000D01*
X197203000Y-91375000D02*
X197203000Y-94775000D01*
X197203000Y-94775000D02*
X193703000Y-94775000D01*
X183687000Y-118685000D02*
X187087000Y-118685000D01*
X187087000Y-118685000D02*
X187087000Y-122185000D01*
X187087000Y-122185000D02*
X183687000Y-122185000D01*
X183687000Y-122185000D02*
X183687000Y-118685000D01*
X183687000Y-123765000D02*
X187087000Y-123765000D01*
X187087000Y-123765000D02*
X187087000Y-127265000D01*
X187087000Y-127265000D02*
X183687000Y-127265000D01*
X183687000Y-127265000D02*
X183687000Y-123765000D01*
X115332000Y-113065000D02*
X115332000Y-116465000D01*
X115332000Y-116465000D02*
X111832000Y-116465000D01*
X111832000Y-116465000D02*
X111832000Y-113065000D01*
X111832000Y-113065000D02*
X115332000Y-113065000D01*
X120285000Y-113065000D02*
X120285000Y-116465000D01*
X120285000Y-116465000D02*
X116785000Y-116465000D01*
X116785000Y-116465000D02*
X116785000Y-113065000D01*
X116785000Y-113065000D02*
X120285000Y-113065000D01*
X164232000Y-106715000D02*
X164232000Y-110115000D01*
X164232000Y-110115000D02*
X160732000Y-110115000D01*
X160732000Y-110115000D02*
X160732000Y-106715000D01*
X160732000Y-106715000D02*
X164232000Y-106715000D01*
X169185000Y-106715000D02*
X169185000Y-110115000D01*
X169185000Y-110115000D02*
X165685000Y-110115000D01*
X165685000Y-110115000D02*
X165685000Y-106715000D01*
X165685000Y-106715000D02*
X169185000Y-106715000D01*
X133747000Y-106715000D02*
X133747000Y-110115000D01*
X133747000Y-110115000D02*
X130247000Y-110115000D01*
X130247000Y-110115000D02*
X130247000Y-106715000D01*
X130247000Y-106715000D02*
X133747000Y-106715000D01*
X195337000Y-96433000D02*
X195337000Y-99533000D01*
X195337000Y-96433000D02*
X193537000Y-96433000D01*
X193537000Y-99533000D02*
X195337000Y-99533000D01*
X193537000Y-99533000D02*
X193537000Y-96433000D01*
X191210000Y-121015000D02*
X188110000Y-121015000D01*
X191210000Y-121015000D02*
X191210000Y-119215000D01*
X188110000Y-119215000D02*
X188110000Y-121015000D01*
X188110000Y-119215000D02*
X191210000Y-119215000D01*
X188110000Y-122517000D02*
X191210000Y-122517000D01*
X188110000Y-122517000D02*
X188110000Y-124317000D01*
X191210000Y-124317000D02*
X191210000Y-122517000D01*
X191210000Y-124317000D02*
X188110000Y-124317000D01*
X188110000Y-132423000D02*
X191210000Y-132423000D01*
X188110000Y-132423000D02*
X188110000Y-134223000D01*
X191210000Y-134223000D02*
X191210000Y-132423000D01*
X191210000Y-134223000D02*
X188110000Y-134223000D01*
X185922000Y-115075000D02*
X185922000Y-118175000D01*
X185922000Y-115075000D02*
X184122000Y-115075000D01*
X184122000Y-118175000D02*
X185922000Y-118175000D01*
X184122000Y-118175000D02*
X184122000Y-115075000D01*
X189224000Y-115075000D02*
X189224000Y-118175000D01*
X189224000Y-115075000D02*
X187424000Y-115075000D01*
X187424000Y-118175000D02*
X189224000Y-118175000D01*
X187424000Y-118175000D02*
X187424000Y-115075000D01*
X192526000Y-115070000D02*
X192526000Y-118170000D01*
X192526000Y-115070000D02*
X190726000Y-115070000D01*
X190726000Y-118170000D02*
X192526000Y-118170000D01*
X190726000Y-118170000D02*
X190726000Y-115070000D01*
X195955000Y-109101000D02*
X195955000Y-112201000D01*
X195955000Y-109101000D02*
X194155000Y-109101000D01*
X194155000Y-112201000D02*
X195955000Y-112201000D01*
X194155000Y-112201000D02*
X194155000Y-109101000D01*
X184249000Y-112201000D02*
X184249000Y-109101000D01*
X184249000Y-112201000D02*
X186049000Y-112201000D01*
X186049000Y-109101000D02*
X184249000Y-109101000D01*
X186049000Y-109101000D02*
X186049000Y-112201000D01*
X189351000Y-109101000D02*
X189351000Y-112201000D01*
X189351000Y-109101000D02*
X187551000Y-109101000D01*
X187551000Y-112201000D02*
X189351000Y-112201000D01*
X187551000Y-112201000D02*
X187551000Y-109101000D01*
X136646000Y-128151000D02*
X136646000Y-131251000D01*
X136646000Y-128151000D02*
X134846000Y-128151000D01*
X134846000Y-131251000D02*
X136646000Y-131251000D01*
X134846000Y-131251000D02*
X134846000Y-128151000D01*
X139948000Y-128151000D02*
X139948000Y-131251000D01*
X139948000Y-128151000D02*
X138148000Y-128151000D01*
X138148000Y-131251000D02*
X139948000Y-131251000D01*
X138148000Y-131251000D02*
X138148000Y-128151000D01*
X143250000Y-128151000D02*
X143250000Y-131251000D01*
X143250000Y-128151000D02*
X141450000Y-128151000D01*
X141450000Y-131251000D02*
X143250000Y-131251000D01*
X141450000Y-131251000D02*
X141450000Y-128151000D01*
X146552000Y-128156000D02*
X146552000Y-131256000D01*
X146552000Y-128156000D02*
X144752000Y-128156000D01*
X144752000Y-131256000D02*
X146552000Y-131256000D01*
X144752000Y-131256000D02*
X144752000Y-128156000D01*
X154934000Y-128151000D02*
X154934000Y-131251000D01*
X154934000Y-128151000D02*
X153134000Y-128151000D01*
X153134000Y-131251000D02*
X154934000Y-131251000D01*
X153134000Y-131251000D02*
X153134000Y-128151000D01*
X158236000Y-128151000D02*
X158236000Y-131251000D01*
X158236000Y-128151000D02*
X156436000Y-128151000D01*
X156436000Y-131251000D02*
X158236000Y-131251000D01*
X156436000Y-131251000D02*
X156436000Y-128151000D01*
X192648000Y-109106000D02*
X192648000Y-112206000D01*
X192648000Y-109106000D02*
X190848000Y-109106000D01*
X190848000Y-112206000D02*
X192648000Y-112206000D01*
X190848000Y-112206000D02*
X190848000Y-109106000D01*
X157579000Y-112714000D02*
X157579000Y-109614000D01*
X157579000Y-112714000D02*
X159379000Y-112714000D01*
X159379000Y-109614000D02*
X157579000Y-109614000D01*
X159379000Y-109614000D02*
X159379000Y-112714000D01*
X154277000Y-112709000D02*
X154277000Y-109609000D01*
X154277000Y-112709000D02*
X156077000Y-112709000D01*
X156077000Y-109609000D02*
X154277000Y-109609000D01*
X156077000Y-109609000D02*
X156077000Y-112709000D01*
X121638000Y-112582000D02*
X121638000Y-109482000D01*
X121638000Y-112582000D02*
X123438000Y-112582000D01*
X123438000Y-109482000D02*
X121638000Y-109482000D01*
X123438000Y-109482000D02*
X123438000Y-112582000D01*
X123565000Y-116980000D02*
X123565000Y-120080000D01*
X123565000Y-116980000D02*
X121765000Y-116980000D01*
X121765000Y-120080000D02*
X123565000Y-120080000D01*
X121765000Y-120080000D02*
X121765000Y-116980000D01*
X113659000Y-116980000D02*
X113659000Y-120080000D01*
X113659000Y-116980000D02*
X111859000Y-116980000D01*
X111859000Y-120080000D02*
X113659000Y-120080000D01*
X111859000Y-120080000D02*
X111859000Y-116980000D01*
X116961000Y-116980000D02*
X116961000Y-120080000D01*
X116961000Y-116980000D02*
X115161000Y-116980000D01*
X115161000Y-120080000D02*
X116961000Y-120080000D01*
X115161000Y-120080000D02*
X115161000Y-116980000D01*
X111732000Y-112587000D02*
X111732000Y-109487000D01*
X111732000Y-112587000D02*
X113532000Y-112587000D01*
X113532000Y-109487000D02*
X111732000Y-109487000D01*
X113532000Y-109487000D02*
X113532000Y-112587000D01*
X115034000Y-112582000D02*
X115034000Y-109482000D01*
X115034000Y-112582000D02*
X116834000Y-112582000D01*
X116834000Y-109482000D02*
X115034000Y-109482000D01*
X116834000Y-109482000D02*
X116834000Y-112582000D01*
X118331000Y-112582000D02*
X118331000Y-109482000D01*
X118331000Y-112582000D02*
X120131000Y-112582000D01*
X120131000Y-109482000D02*
X118331000Y-109482000D01*
X120131000Y-109482000D02*
X120131000Y-112582000D01*
X120263000Y-116975000D02*
X120263000Y-120075000D01*
X120263000Y-116975000D02*
X118463000Y-116975000D01*
X118463000Y-120075000D02*
X120263000Y-120075000D01*
X118463000Y-120075000D02*
X118463000Y-116975000D01*
X162698000Y-110625000D02*
X162698000Y-113725000D01*
X162698000Y-110625000D02*
X160898000Y-110625000D01*
X160898000Y-113725000D02*
X162698000Y-113725000D01*
X160898000Y-113725000D02*
X160898000Y-110625000D01*
X160754000Y-106232000D02*
X160754000Y-103132000D01*
X160754000Y-106232000D02*
X162554000Y-106232000D01*
X162554000Y-103132000D02*
X160754000Y-103132000D01*
X162554000Y-103132000D02*
X162554000Y-106232000D01*
X164056000Y-106232000D02*
X164056000Y-103132000D01*
X164056000Y-106232000D02*
X165856000Y-106232000D01*
X165856000Y-103132000D02*
X164056000Y-103132000D01*
X165856000Y-103132000D02*
X165856000Y-106232000D01*
X167358000Y-106232000D02*
X167358000Y-103132000D01*
X167358000Y-106232000D02*
X169158000Y-106232000D01*
X169158000Y-103132000D02*
X167358000Y-103132000D01*
X169158000Y-103132000D02*
X169158000Y-106232000D01*
X166000000Y-110625000D02*
X166000000Y-113725000D01*
X166000000Y-110625000D02*
X164200000Y-110625000D01*
X164200000Y-113725000D02*
X166000000Y-113725000D01*
X164200000Y-113725000D02*
X164200000Y-110625000D01*
X135371000Y-110630000D02*
X135371000Y-113730000D01*
X135371000Y-110630000D02*
X133571000Y-110630000D01*
X133571000Y-113730000D02*
X135371000Y-113730000D01*
X133571000Y-113730000D02*
X133571000Y-110630000D01*
X130147000Y-106232000D02*
X130147000Y-103132000D01*
X130147000Y-106232000D02*
X131947000Y-106232000D01*
X131947000Y-103132000D02*
X130147000Y-103132000D01*
X131947000Y-103132000D02*
X131947000Y-106232000D01*
X133449000Y-106232000D02*
X133449000Y-103132000D01*
X133449000Y-106232000D02*
X135249000Y-106232000D01*
X135249000Y-103132000D02*
X133449000Y-103132000D01*
X135249000Y-103132000D02*
X135249000Y-106232000D01*
X136751000Y-106237000D02*
X136751000Y-103137000D01*
X136751000Y-106237000D02*
X138551000Y-106237000D01*
X138551000Y-103137000D02*
X136751000Y-103137000D01*
X138551000Y-103137000D02*
X138551000Y-106237000D01*
X195012000Y-106450000D02*
X195012000Y-100850000D01*
X195012000Y-100850000D02*
X198612000Y-100850000D01*
X198612000Y-100850000D02*
X198612000Y-106450000D01*
X198612000Y-106450000D02*
X195012000Y-106450000D01*
X142017000Y-112611000D02*
X142017000Y-123111000D01*
X152517000Y-112611000D02*
X152517000Y-123111000D01*
X142017000Y-112611000D02*
X152517000Y-112611000D01*
X142017000Y-123111000D02*
X152517000Y-123111000D01*
X118768000Y-105446200D02*
X118768000Y-93846200D01*
X118768000Y-93846200D02*
X109768000Y-93846200D01*
X109768000Y-93846200D02*
X109768000Y-105446200D01*
X109768000Y-105446200D02*
X118768000Y-105446200D01*
X149248000Y-105446200D02*
X149248000Y-93846200D01*
X149248000Y-93846200D02*
X140248000Y-93846200D01*
X140248000Y-93846200D02*
X140248000Y-105446200D01*
X140248000Y-105446200D02*
X149248000Y-105446200D01*
X179728000Y-105446200D02*
X179728000Y-93846200D01*
X179728000Y-93846200D02*
X170728000Y-93846200D01*
X170728000Y-93846200D02*
X170728000Y-105446200D01*
X170728000Y-105446200D02*
X179728000Y-105446200D01*
X197420000Y-120095000D02*
X204420000Y-120095000D01*
X204420000Y-120095000D02*
X204420000Y-108995000D01*
X204420000Y-108995000D02*
X197420000Y-108995000D01*
X197420000Y-108995000D02*
X197420000Y-120095000D01*
X170228000Y-114615000D02*
X170228000Y-125615000D01*
X181528000Y-114615000D02*
X181528000Y-125615000D01*
X170228000Y-114615000D02*
X181528000Y-114615000D01*
X170228000Y-125615000D02*
X181528000Y-125615000D01*
X158145000Y-117415000D02*
X158145000Y-122815000D01*
X165605000Y-117415000D02*
X165605000Y-122815000D01*
X158145000Y-117415000D02*
X165605000Y-117415000D01*
X158145000Y-122815000D02*
X165605000Y-122815000D01*
X207733000Y-86692200D02*
X207733000Y-95342200D01*
X207733000Y-95342200D02*
X213883000Y-95342200D01*
X213883000Y-95342200D02*
X213883000Y-86692200D01*
X213883000Y-86692200D02*
X207733000Y-86692200D01*
X138678000Y-110625000D02*
X138678000Y-113725000D01*
X138678000Y-110625000D02*
X136878000Y-110625000D01*
X136878000Y-113725000D02*
X138678000Y-113725000D01*
X136878000Y-113725000D02*
X136878000Y-110625000D01*
X175906000Y-110625000D02*
X175906000Y-113725000D01*
X175906000Y-110625000D02*
X174106000Y-110625000D01*
X174106000Y-113725000D02*
X175906000Y-113725000D01*
X174106000Y-113725000D02*
X174106000Y-110625000D01*
X195825000Y-114947000D02*
X195825000Y-118447000D01*
X195825000Y-114947000D02*
X194075000Y-114947000D01*
X194075000Y-118447000D02*
X195825000Y-118447000D01*
X194075000Y-118447000D02*
X194075000Y-114947000D01*
X166997000Y-120452000D02*
X166997000Y-116952000D01*
X166997000Y-120452000D02*
X168747000Y-120452000D01*
X168747000Y-116952000D02*
X166997000Y-116952000D01*
X168747000Y-116952000D02*
X168747000Y-120452000D01*
X161825000Y-115298000D02*
X165325000Y-115298000D01*
X161825000Y-115298000D02*
X161825000Y-117048000D01*
X165325000Y-117048000D02*
X165325000Y-115298000D01*
X165325000Y-117048000D02*
X161825000Y-117048000D01*
X112549000Y-106154000D02*
X116049000Y-106154000D01*
X112549000Y-106154000D02*
X112549000Y-107904000D01*
X116049000Y-107904000D02*
X116049000Y-106154000D01*
X116049000Y-107904000D02*
X112549000Y-107904000D01*
X206790000Y-114455000D02*
X217390000Y-114455000D01*
X206790000Y-114455000D02*
X206790000Y-123035000D01*
X217390000Y-123035000D02*
X217390000Y-114455000D01*
X217390000Y-123035000D02*
X206790000Y-123035000D01*
X201393000Y-122773000D02*
X197893000Y-122773000D01*
X201393000Y-122773000D02*
X201393000Y-121023000D01*
X197893000Y-121023000D02*
X197893000Y-122773000D01*
X197893000Y-121023000D02*
X201393000Y-121023000D01*
X127755000Y-118539000D02*
X127755000Y-114539000D01*
X130055000Y-118539000D02*
X130055000Y-114539000D01*
X127755000Y-118539000D02*
X130055000Y-118539000D01*
X127755000Y-114539000D02*
X130055000Y-114539000D01*
X138678000Y-116425000D02*
X134878000Y-116425000D01*
X134878000Y-116425000D02*
X134878000Y-122025000D01*
X134878000Y-122025000D02*
X138678000Y-122025000D01*
X138678000Y-122025000D02*
X138678000Y-116425000D01*
X104080000Y-39370000D02*
G75*
G03X104080000Y-39370000I-3750000J0D01*
G01*
X104080000Y-140970000D02*
G75*
G03X104080000Y-140970000I-3750000J0D01*
G01*
X218380000Y-140970000D02*
G75*
G03X218380000Y-140970000I-3750000J0D01*
G01*
X218380000Y-39370000D02*
G75*
G03X218380000Y-39370000I-3750000J0D01*
G01*
X206748000Y-111943000D02*
X206748000Y-108443000D01*
X206748000Y-111943000D02*
X208498000Y-111943000D01*
X208498000Y-108443000D02*
X206748000Y-108443000D01*
X208498000Y-108443000D02*
X208498000Y-111943000D01*
X188107000Y-106917000D02*
X193607000Y-106917000D01*
X193607000Y-106917000D02*
X193607000Y-100367000D01*
X193607000Y-100367000D02*
X188107000Y-100367000D01*
X188107000Y-100367000D02*
X188107000Y-106917000D01*
X179208000Y-110625000D02*
X179208000Y-113725000D01*
X179208000Y-110625000D02*
X177408000Y-110625000D01*
X177408000Y-113725000D02*
X179208000Y-113725000D01*
X177408000Y-113725000D02*
X177408000Y-110625000D01*
X202084000Y-95486200D02*
X205584000Y-95486200D01*
X202084000Y-95486200D02*
X202084000Y-97236200D01*
X205584000Y-97236200D02*
X205584000Y-95486200D01*
X205584000Y-97236200D02*
X202084000Y-97236200D01*
X183719000Y-128779000D02*
X187119000Y-128779000D01*
X187119000Y-128779000D02*
X187119000Y-132279000D01*
X187119000Y-132279000D02*
X183719000Y-132279000D01*
X183719000Y-132279000D02*
X183719000Y-128779000D01*
X219150000Y-74250000D02*
X212650000Y-74250000D01*
X212650000Y-74250000D02*
X212650000Y-80700000D01*
X212650000Y-80700000D02*
X219150000Y-80700000D01*
X219150000Y-80700000D02*
X219150000Y-74250000D01*
X138700000Y-106715000D02*
X138700000Y-110115000D01*
X138700000Y-110115000D02*
X135200000Y-110115000D01*
X135200000Y-110115000D02*
X135200000Y-106715000D01*
X135200000Y-106715000D02*
X138700000Y-106715000D01*
X169302000Y-110625000D02*
X169302000Y-113725000D01*
X169302000Y-110625000D02*
X167502000Y-110625000D01*
X167502000Y-113725000D02*
X169302000Y-113725000D01*
X167502000Y-113725000D02*
X167502000Y-110625000D01*
X172604000Y-110625000D02*
X172604000Y-113725000D01*
X172604000Y-110625000D02*
X170804000Y-110625000D01*
X170804000Y-113725000D02*
X172604000Y-113725000D01*
X170804000Y-113725000D02*
X170804000Y-110625000D01*
X193860000Y-125750000D02*
X187360000Y-125750000D01*
X187360000Y-125750000D02*
X187360000Y-132250000D01*
X187360000Y-132250000D02*
X193860000Y-132250000D01*
X193860000Y-132250000D02*
X193860000Y-125750000D01*
X192735000Y-124494000D02*
X196235000Y-124494000D01*
X196235000Y-124494000D02*
X196235000Y-120094000D01*
X196235000Y-120094000D02*
X192735000Y-120094000D01*
X192735000Y-120094000D02*
X192735000Y-124494000D01*
X133611000Y-118736000D02*
X131311000Y-118736000D01*
X131311000Y-118736000D02*
X131311000Y-114436000D01*
X131311000Y-114436000D02*
X133611000Y-114436000D01*
X133611000Y-114436000D02*
X133611000Y-118736000D01*
X213806000Y-85859000D02*
X209106000Y-85859000D01*
X209106000Y-85859000D02*
X209106000Y-83559000D01*
X209106000Y-83559000D02*
X213806000Y-83559000D01*
X213806000Y-85859000D02*
X213806000Y-83559000D01*
X195405000Y-135485000D02*
X195405000Y-125685000D01*
X195405000Y-125685000D02*
X202105000Y-125685000D01*
X202105000Y-125685000D02*
X202105000Y-135485000D01*
X202105000Y-135485000D02*
X195405000Y-135485000D01*
X158684000Y-124190000D02*
X158684000Y-127890000D01*
X165084000Y-124190000D02*
X165084000Y-127890000D01*
X158684000Y-124190000D02*
X165084000Y-124190000D01*
X158684000Y-127890000D02*
X165084000Y-127890000D01*
X198327000Y-89756000D02*
X198327000Y-95156000D01*
X205787000Y-89756000D02*
X205787000Y-95156000D01*
X198327000Y-89756000D02*
X205787000Y-89756000D01*
X198327000Y-95156000D02*
X205787000Y-95156000D01*
M02*
