G04 #@! TF.GenerationSoftware,KiCad,Pcbnew,(5.0.1-3-g963ef8bb5)*
G04 #@! TF.CreationDate,2019-01-02T20:23:15-06:00*
G04 #@! TF.ProjectId,kbxBinaryClock.v2.1,6B627842696E617279436C6F636B2E76,rev?*
G04 #@! TF.SameCoordinates,Original*
G04 #@! TF.FileFunction,Other,Fab,Bot*
%FSLAX46Y46*%
G04 Gerber Fmt 4.6, Leading zero omitted, Abs format (unit mm)*
G04 Created by KiCad (PCBNEW (5.0.1-3-g963ef8bb5)) date Wednesday, January 02, 2019 at 08:23:15 PM*
%MOMM*%
%LPD*%
G01*
G04 APERTURE LIST*
%ADD10C,0.150000*%
G04 APERTURE END LIST*
G04 #@! TO.C,SB2*
D10*
X176326476Y-120172000D02*
X176421714Y-120124380D01*
X176564571Y-120124380D01*
X176707428Y-120172000D01*
X176802666Y-120267238D01*
X176850285Y-120362476D01*
X176897904Y-120552952D01*
X176897904Y-120695809D01*
X176850285Y-120886285D01*
X176802666Y-120981523D01*
X176707428Y-121076761D01*
X176564571Y-121124380D01*
X176469333Y-121124380D01*
X176326476Y-121076761D01*
X176278857Y-121029142D01*
X176278857Y-120695809D01*
X176469333Y-120695809D01*
X175897904Y-121076761D02*
X175755047Y-121124380D01*
X175516952Y-121124380D01*
X175421714Y-121076761D01*
X175374095Y-121029142D01*
X175326476Y-120933904D01*
X175326476Y-120838666D01*
X175374095Y-120743428D01*
X175421714Y-120695809D01*
X175516952Y-120648190D01*
X175707428Y-120600571D01*
X175802666Y-120552952D01*
X175850285Y-120505333D01*
X175897904Y-120410095D01*
X175897904Y-120314857D01*
X175850285Y-120219619D01*
X175802666Y-120172000D01*
X175707428Y-120124380D01*
X175469333Y-120124380D01*
X175326476Y-120172000D01*
X174945523Y-120219619D02*
X174897904Y-120172000D01*
X174802666Y-120124380D01*
X174564571Y-120124380D01*
X174469333Y-120172000D01*
X174421714Y-120219619D01*
X174374095Y-120314857D01*
X174374095Y-120410095D01*
X174421714Y-120552952D01*
X174993142Y-121124380D01*
X174374095Y-121124380D01*
G04 #@! TD*
M02*
