G04 #@! TF.GenerationSoftware,KiCad,Pcbnew,(5.0.1-3-g963ef8bb5)*
G04 #@! TF.CreationDate,2019-01-02T20:23:15-06:00*
G04 #@! TF.ProjectId,kbxBinaryClock.v2.1,6B627842696E617279436C6F636B2E76,rev?*
G04 #@! TF.SameCoordinates,Original*
G04 #@! TF.FileFunction,Copper,L2,Bot,Signal*
G04 #@! TF.FilePolarity,Positive*
%FSLAX46Y46*%
G04 Gerber Fmt 4.6, Leading zero omitted, Abs format (unit mm)*
G04 Created by KiCad (PCBNEW (5.0.1-3-g963ef8bb5)) date Wednesday, January 02, 2019 at 08:23:15 PM*
%MOMM*%
%LPD*%
G01*
G04 APERTURE LIST*
G04 #@! TA.AperFunction,ComponentPad*
%ADD10C,3.600000*%
G04 #@! TD*
G04 #@! TA.AperFunction,ComponentPad*
%ADD11C,3.000000*%
G04 #@! TD*
G04 #@! TA.AperFunction,ComponentPad*
%ADD12R,3.000000X3.000000*%
G04 #@! TD*
G04 #@! TA.AperFunction,ComponentPad*
%ADD13R,2.000000X2.000000*%
G04 #@! TD*
G04 #@! TA.AperFunction,ComponentPad*
%ADD14C,2.000000*%
G04 #@! TD*
G04 #@! TA.AperFunction,ComponentPad*
%ADD15R,1.700000X1.700000*%
G04 #@! TD*
G04 #@! TA.AperFunction,ComponentPad*
%ADD16O,1.700000X1.700000*%
G04 #@! TD*
G04 #@! TA.AperFunction,ComponentPad*
%ADD17R,1.800000X1.070000*%
G04 #@! TD*
G04 #@! TA.AperFunction,ComponentPad*
%ADD18O,1.800000X1.070000*%
G04 #@! TD*
G04 #@! TA.AperFunction,Conductor*
%ADD19R,5.200000X11.000000*%
G04 #@! TD*
G04 #@! TA.AperFunction,ViaPad*
%ADD20C,1.330000*%
G04 #@! TD*
G04 #@! TA.AperFunction,ComponentPad*
%ADD21R,1.800000X1.800000*%
G04 #@! TD*
G04 #@! TA.AperFunction,ComponentPad*
%ADD22C,1.800000*%
G04 #@! TD*
G04 #@! TA.AperFunction,SMDPad,CuDef*
%ADD23R,0.970000X1.270000*%
G04 #@! TD*
G04 #@! TA.AperFunction,ViaPad*
%ADD24C,0.685800*%
G04 #@! TD*
G04 #@! TA.AperFunction,Conductor*
%ADD25C,0.200000*%
G04 #@! TD*
G04 #@! TA.AperFunction,Conductor*
%ADD26C,0.300000*%
G04 #@! TD*
G04 #@! TA.AperFunction,Conductor*
%ADD27C,0.152400*%
G04 #@! TD*
G04 #@! TA.AperFunction,Conductor*
%ADD28C,2.000000*%
G04 #@! TD*
G04 #@! TA.AperFunction,Conductor*
%ADD29C,0.960000*%
G04 #@! TD*
G04 #@! TA.AperFunction,Conductor*
%ADD30C,0.250000*%
G04 #@! TD*
G04 #@! TA.AperFunction,Conductor*
%ADD31C,0.254000*%
G04 #@! TD*
G04 APERTURE END LIST*
D10*
G04 #@! TO.P,J1,1*
G04 #@! TO.N,Net-(F1-Pad2)*
X207360000Y-130810000D03*
G04 #@! TO.P,J1,2*
G04 #@! TO.N,GND*
X213360000Y-130810000D03*
G04 #@! TO.P,J1,3*
X210360000Y-126110000D03*
G04 #@! TD*
D11*
G04 #@! TO.P,BT1,2*
G04 #@! TO.N,GND*
X203200000Y-45085000D03*
D12*
G04 #@! TO.P,BT1,1*
G04 #@! TO.N,+BATT*
X203200000Y-65575000D03*
G04 #@! TD*
D13*
G04 #@! TO.P,BZ1,1*
G04 #@! TO.N,+9V*
X203200000Y-73660000D03*
D14*
G04 #@! TO.P,BZ1,2*
G04 #@! TO.N,Net-(BZ1-Pad2)*
X203200000Y-81260000D03*
G04 #@! TD*
D15*
G04 #@! TO.P,J2,1*
G04 #@! TO.N,GND*
X212073000Y-98398200D03*
D16*
G04 #@! TO.P,J2,2*
G04 #@! TO.N,Net-(J2-Pad2)*
X212073000Y-100938200D03*
G04 #@! TO.P,J2,3*
G04 #@! TO.N,+3V3*
X212073000Y-103478200D03*
G04 #@! TO.P,J2,4*
G04 #@! TO.N,/MCU/USART1_RX*
X212073000Y-106018200D03*
G04 #@! TO.P,J2,5*
G04 #@! TO.N,/MCU/USART1_TX*
X212073000Y-108558200D03*
G04 #@! TO.P,J2,6*
G04 #@! TO.N,Net-(C25-Pad1)*
X212073000Y-111098200D03*
G04 #@! TD*
D17*
G04 #@! TO.P,LED1,1*
G04 #@! TO.N,LED1_R*
X181610000Y-85090000D03*
D18*
G04 #@! TO.P,LED1,2*
G04 #@! TO.N,+9V*
X181610000Y-86360000D03*
G04 #@! TO.P,LED1,3*
G04 #@! TO.N,LED1_G*
X181610000Y-87630000D03*
G04 #@! TO.P,LED1,4*
G04 #@! TO.N,LED1_B*
X181610000Y-88900000D03*
G04 #@! TD*
D17*
G04 #@! TO.P,LED2,1*
G04 #@! TO.N,LED2_R*
X181610000Y-72390000D03*
D18*
G04 #@! TO.P,LED2,2*
G04 #@! TO.N,+9V*
X181610000Y-73660000D03*
G04 #@! TO.P,LED2,3*
G04 #@! TO.N,LED2_G*
X181610000Y-74930000D03*
G04 #@! TO.P,LED2,4*
G04 #@! TO.N,LED2_B*
X181610000Y-76200000D03*
G04 #@! TD*
D17*
G04 #@! TO.P,LED3,1*
G04 #@! TO.N,LED3_R*
X181610000Y-59690000D03*
D18*
G04 #@! TO.P,LED3,2*
G04 #@! TO.N,+9V*
X181610000Y-60960000D03*
G04 #@! TO.P,LED3,3*
G04 #@! TO.N,LED3_G*
X181610000Y-62230000D03*
G04 #@! TO.P,LED3,4*
G04 #@! TO.N,LED3_B*
X181610000Y-63500000D03*
G04 #@! TD*
D17*
G04 #@! TO.P,LED4,1*
G04 #@! TO.N,LED4_R*
X181610000Y-46990000D03*
D18*
G04 #@! TO.P,LED4,2*
G04 #@! TO.N,+9V*
X181610000Y-48260000D03*
G04 #@! TO.P,LED4,3*
G04 #@! TO.N,LED4_G*
X181610000Y-49530000D03*
G04 #@! TO.P,LED4,4*
G04 #@! TO.N,LED4_B*
X181610000Y-50800000D03*
G04 #@! TD*
D17*
G04 #@! TO.P,LED5,1*
G04 #@! TO.N,LED5_R*
X168910000Y-85090000D03*
D18*
G04 #@! TO.P,LED5,2*
G04 #@! TO.N,+9V*
X168910000Y-86360000D03*
G04 #@! TO.P,LED5,3*
G04 #@! TO.N,LED5_G*
X168910000Y-87630000D03*
G04 #@! TO.P,LED5,4*
G04 #@! TO.N,LED5_B*
X168910000Y-88900000D03*
G04 #@! TD*
D17*
G04 #@! TO.P,LED6,1*
G04 #@! TO.N,LED6_R*
X168910000Y-72390000D03*
D18*
G04 #@! TO.P,LED6,2*
G04 #@! TO.N,+9V*
X168910000Y-73660000D03*
G04 #@! TO.P,LED6,3*
G04 #@! TO.N,LED6_G*
X168910000Y-74930000D03*
G04 #@! TO.P,LED6,4*
G04 #@! TO.N,LED6_B*
X168910000Y-76200000D03*
G04 #@! TD*
D17*
G04 #@! TO.P,LED7,1*
G04 #@! TO.N,LED7_R*
X168910000Y-59690000D03*
D18*
G04 #@! TO.P,LED7,2*
G04 #@! TO.N,+9V*
X168910000Y-60960000D03*
G04 #@! TO.P,LED7,3*
G04 #@! TO.N,LED7_G*
X168910000Y-62230000D03*
G04 #@! TO.P,LED7,4*
G04 #@! TO.N,LED7_B*
X168910000Y-63500000D03*
G04 #@! TD*
D17*
G04 #@! TO.P,LED8,1*
G04 #@! TO.N,LED8_R*
X168910000Y-46990000D03*
D18*
G04 #@! TO.P,LED8,2*
G04 #@! TO.N,+9V*
X168910000Y-48260000D03*
G04 #@! TO.P,LED8,3*
G04 #@! TO.N,LED8_G*
X168910000Y-49530000D03*
G04 #@! TO.P,LED8,4*
G04 #@! TO.N,LED8_B*
X168910000Y-50800000D03*
G04 #@! TD*
D17*
G04 #@! TO.P,LED9,1*
G04 #@! TO.N,LED9_R*
X151130000Y-85090000D03*
D18*
G04 #@! TO.P,LED9,2*
G04 #@! TO.N,+9V*
X151130000Y-86360000D03*
G04 #@! TO.P,LED9,3*
G04 #@! TO.N,LED9_G*
X151130000Y-87630000D03*
G04 #@! TO.P,LED9,4*
G04 #@! TO.N,LED9_B*
X151130000Y-88900000D03*
G04 #@! TD*
D17*
G04 #@! TO.P,LED10,1*
G04 #@! TO.N,LED10_R*
X151130000Y-72390000D03*
D18*
G04 #@! TO.P,LED10,2*
G04 #@! TO.N,+9V*
X151130000Y-73660000D03*
G04 #@! TO.P,LED10,3*
G04 #@! TO.N,LED10_G*
X151130000Y-74930000D03*
G04 #@! TO.P,LED10,4*
G04 #@! TO.N,LED10_B*
X151130000Y-76200000D03*
G04 #@! TD*
D17*
G04 #@! TO.P,LED11,1*
G04 #@! TO.N,LED11_R*
X151130000Y-59690000D03*
D18*
G04 #@! TO.P,LED11,2*
G04 #@! TO.N,+9V*
X151130000Y-60960000D03*
G04 #@! TO.P,LED11,3*
G04 #@! TO.N,LED11_G*
X151130000Y-62230000D03*
G04 #@! TO.P,LED11,4*
G04 #@! TO.N,LED11_B*
X151130000Y-63500000D03*
G04 #@! TD*
D17*
G04 #@! TO.P,LED12,1*
G04 #@! TO.N,LED12_R*
X151130000Y-46990000D03*
D18*
G04 #@! TO.P,LED12,2*
G04 #@! TO.N,+9V*
X151130000Y-48260000D03*
G04 #@! TO.P,LED12,3*
G04 #@! TO.N,LED12_G*
X151130000Y-49530000D03*
G04 #@! TO.P,LED12,4*
G04 #@! TO.N,LED12_B*
X151130000Y-50800000D03*
G04 #@! TD*
D17*
G04 #@! TO.P,LED13,1*
G04 #@! TO.N,LED13_R*
X138430000Y-85090000D03*
D18*
G04 #@! TO.P,LED13,2*
G04 #@! TO.N,+9V*
X138430000Y-86360000D03*
G04 #@! TO.P,LED13,3*
G04 #@! TO.N,LED13_G*
X138430000Y-87630000D03*
G04 #@! TO.P,LED13,4*
G04 #@! TO.N,LED13_B*
X138430000Y-88900000D03*
G04 #@! TD*
D17*
G04 #@! TO.P,LED14,1*
G04 #@! TO.N,LED14_R*
X138430000Y-72390000D03*
D18*
G04 #@! TO.P,LED14,2*
G04 #@! TO.N,+9V*
X138430000Y-73660000D03*
G04 #@! TO.P,LED14,3*
G04 #@! TO.N,LED14_G*
X138430000Y-74930000D03*
G04 #@! TO.P,LED14,4*
G04 #@! TO.N,LED14_B*
X138430000Y-76200000D03*
G04 #@! TD*
D17*
G04 #@! TO.P,LED15,1*
G04 #@! TO.N,LED15_R*
X138430000Y-59690000D03*
D18*
G04 #@! TO.P,LED15,2*
G04 #@! TO.N,+9V*
X138430000Y-60960000D03*
G04 #@! TO.P,LED15,3*
G04 #@! TO.N,LED15_G*
X138430000Y-62230000D03*
G04 #@! TO.P,LED15,4*
G04 #@! TO.N,LED15_B*
X138430000Y-63500000D03*
G04 #@! TD*
D17*
G04 #@! TO.P,LED16,1*
G04 #@! TO.N,LED16_R*
X138430000Y-46990000D03*
D18*
G04 #@! TO.P,LED16,2*
G04 #@! TO.N,+9V*
X138430000Y-48260000D03*
G04 #@! TO.P,LED16,3*
G04 #@! TO.N,LED16_G*
X138430000Y-49530000D03*
G04 #@! TO.P,LED16,4*
G04 #@! TO.N,LED16_B*
X138430000Y-50800000D03*
G04 #@! TD*
D17*
G04 #@! TO.P,LED17,1*
G04 #@! TO.N,LED17_R*
X120650000Y-85090000D03*
D18*
G04 #@! TO.P,LED17,2*
G04 #@! TO.N,+9V*
X120650000Y-86360000D03*
G04 #@! TO.P,LED17,3*
G04 #@! TO.N,LED17_G*
X120650000Y-87630000D03*
G04 #@! TO.P,LED17,4*
G04 #@! TO.N,LED17_B*
X120650000Y-88900000D03*
G04 #@! TD*
D17*
G04 #@! TO.P,LED18,1*
G04 #@! TO.N,LED18_R*
X120650000Y-72390000D03*
D18*
G04 #@! TO.P,LED18,2*
G04 #@! TO.N,+9V*
X120650000Y-73660000D03*
G04 #@! TO.P,LED18,3*
G04 #@! TO.N,LED18_G*
X120650000Y-74930000D03*
G04 #@! TO.P,LED18,4*
G04 #@! TO.N,LED18_B*
X120650000Y-76200000D03*
G04 #@! TD*
D17*
G04 #@! TO.P,LED19,1*
G04 #@! TO.N,LED19_R*
X120650000Y-59690000D03*
D18*
G04 #@! TO.P,LED19,2*
G04 #@! TO.N,+9V*
X120650000Y-60960000D03*
G04 #@! TO.P,LED19,3*
G04 #@! TO.N,LED19_G*
X120650000Y-62230000D03*
G04 #@! TO.P,LED19,4*
G04 #@! TO.N,LED19_B*
X120650000Y-63500000D03*
G04 #@! TD*
D17*
G04 #@! TO.P,LED20,1*
G04 #@! TO.N,LED20_R*
X120650000Y-46990000D03*
D18*
G04 #@! TO.P,LED20,2*
G04 #@! TO.N,+9V*
X120650000Y-48260000D03*
G04 #@! TO.P,LED20,3*
G04 #@! TO.N,LED20_G*
X120650000Y-49530000D03*
G04 #@! TO.P,LED20,4*
G04 #@! TO.N,LED20_B*
X120650000Y-50800000D03*
G04 #@! TD*
D17*
G04 #@! TO.P,LED21,1*
G04 #@! TO.N,LED21_R*
X107950000Y-85090000D03*
D18*
G04 #@! TO.P,LED21,2*
G04 #@! TO.N,+9V*
X107950000Y-86360000D03*
G04 #@! TO.P,LED21,3*
G04 #@! TO.N,LED21_G*
X107950000Y-87630000D03*
G04 #@! TO.P,LED21,4*
G04 #@! TO.N,LED21_B*
X107950000Y-88900000D03*
G04 #@! TD*
D17*
G04 #@! TO.P,LED22,1*
G04 #@! TO.N,LED22_R*
X107950000Y-72390000D03*
D18*
G04 #@! TO.P,LED22,2*
G04 #@! TO.N,+9V*
X107950000Y-73660000D03*
G04 #@! TO.P,LED22,3*
G04 #@! TO.N,LED22_G*
X107950000Y-74930000D03*
G04 #@! TO.P,LED22,4*
G04 #@! TO.N,LED22_B*
X107950000Y-76200000D03*
G04 #@! TD*
D17*
G04 #@! TO.P,LED23,1*
G04 #@! TO.N,LED23_R*
X107950000Y-59690000D03*
D18*
G04 #@! TO.P,LED23,2*
G04 #@! TO.N,+9V*
X107950000Y-60960000D03*
G04 #@! TO.P,LED23,3*
G04 #@! TO.N,LED23_G*
X107950000Y-62230000D03*
G04 #@! TO.P,LED23,4*
G04 #@! TO.N,LED23_B*
X107950000Y-63500000D03*
G04 #@! TD*
D17*
G04 #@! TO.P,LED24,1*
G04 #@! TO.N,LED24_R*
X107950000Y-46990000D03*
D18*
G04 #@! TO.P,LED24,2*
G04 #@! TO.N,+9V*
X107950000Y-48260000D03*
G04 #@! TO.P,LED24,3*
G04 #@! TO.N,LED24_G*
X107950000Y-49530000D03*
G04 #@! TO.P,LED24,4*
G04 #@! TO.N,LED24_B*
X107950000Y-50800000D03*
G04 #@! TD*
D19*
G04 #@! TO.N,GND*
G04 #@! TO.C,U2*
X114268000Y-99646200D03*
D20*
X116218000Y-104196200D03*
X116218000Y-102896200D03*
X116218000Y-101596200D03*
X116218000Y-100296200D03*
X116218000Y-98996200D03*
X116218000Y-97696200D03*
X116218000Y-96396200D03*
X116218000Y-95096200D03*
X114918000Y-104196200D03*
X114918000Y-102896200D03*
X114918000Y-101596200D03*
X114918000Y-100296200D03*
X114918000Y-98996200D03*
X114918000Y-97696200D03*
X114918000Y-96396200D03*
X114918000Y-95096200D03*
X113618000Y-104196200D03*
X113618000Y-102896200D03*
X113618000Y-101596200D03*
X113618000Y-100296200D03*
X113618000Y-98996200D03*
X113618000Y-97696200D03*
X113618000Y-96396200D03*
X113618000Y-95096200D03*
X112318000Y-104196200D03*
X112318000Y-102896200D03*
X112318000Y-101596200D03*
X112318000Y-100296200D03*
X112318000Y-98996200D03*
X112318000Y-97696200D03*
X112318000Y-96396200D03*
X112318000Y-95096200D03*
G04 #@! TD*
D19*
G04 #@! TO.N,GND*
G04 #@! TO.C,U3*
X144748000Y-99646200D03*
D20*
X146698000Y-104196200D03*
X146698000Y-102896200D03*
X146698000Y-101596200D03*
X146698000Y-100296200D03*
X146698000Y-98996200D03*
X146698000Y-97696200D03*
X146698000Y-96396200D03*
X146698000Y-95096200D03*
X145398000Y-104196200D03*
X145398000Y-102896200D03*
X145398000Y-101596200D03*
X145398000Y-100296200D03*
X145398000Y-98996200D03*
X145398000Y-97696200D03*
X145398000Y-96396200D03*
X145398000Y-95096200D03*
X144098000Y-104196200D03*
X144098000Y-102896200D03*
X144098000Y-101596200D03*
X144098000Y-100296200D03*
X144098000Y-98996200D03*
X144098000Y-97696200D03*
X144098000Y-96396200D03*
X144098000Y-95096200D03*
X142798000Y-104196200D03*
X142798000Y-102896200D03*
X142798000Y-101596200D03*
X142798000Y-100296200D03*
X142798000Y-98996200D03*
X142798000Y-97696200D03*
X142798000Y-96396200D03*
X142798000Y-95096200D03*
G04 #@! TD*
D19*
G04 #@! TO.N,GND*
G04 #@! TO.C,U4*
X175228000Y-99646200D03*
D20*
X177178000Y-104196200D03*
X177178000Y-102896200D03*
X177178000Y-101596200D03*
X177178000Y-100296200D03*
X177178000Y-98996200D03*
X177178000Y-97696200D03*
X177178000Y-96396200D03*
X177178000Y-95096200D03*
X175878000Y-104196200D03*
X175878000Y-102896200D03*
X175878000Y-101596200D03*
X175878000Y-100296200D03*
X175878000Y-98996200D03*
X175878000Y-97696200D03*
X175878000Y-96396200D03*
X175878000Y-95096200D03*
X174578000Y-104196200D03*
X174578000Y-102896200D03*
X174578000Y-101596200D03*
X174578000Y-100296200D03*
X174578000Y-98996200D03*
X174578000Y-97696200D03*
X174578000Y-96396200D03*
X174578000Y-95096200D03*
X173278000Y-104196200D03*
X173278000Y-102896200D03*
X173278000Y-101596200D03*
X173278000Y-100296200D03*
X173278000Y-98996200D03*
X173278000Y-97696200D03*
X173278000Y-96396200D03*
X173278000Y-95096200D03*
G04 #@! TD*
D15*
G04 #@! TO.P,J3,1*
G04 #@! TO.N,GND*
X209533000Y-88492200D03*
D16*
G04 #@! TO.P,J3,2*
X212073000Y-88492200D03*
G04 #@! TO.P,J3,3*
G04 #@! TO.N,Net-(J3-Pad3)*
X209533000Y-91032200D03*
G04 #@! TO.P,J3,4*
X212073000Y-91032200D03*
G04 #@! TO.P,J3,5*
G04 #@! TO.N,Net-(J3-Pad5)*
X209533000Y-93572200D03*
G04 #@! TO.P,J3,6*
X212073000Y-93572200D03*
G04 #@! TD*
D21*
G04 #@! TO.P,Q5,1*
G04 #@! TO.N,+3V3*
X215900000Y-76200000D03*
D22*
G04 #@! TO.P,Q5,2*
G04 #@! TO.N,ADC_IN*
X215900000Y-78740000D03*
G04 #@! TD*
D17*
G04 #@! TO.P,LED25,1*
G04 #@! TO.N,Net-(LED25-Pad1)*
X190610000Y-127100000D03*
D18*
G04 #@! TO.P,LED25,2*
G04 #@! TO.N,+9V*
X190610000Y-128370000D03*
G04 #@! TO.P,LED25,3*
G04 #@! TO.N,Net-(LED25-Pad3)*
X190610000Y-129640000D03*
G04 #@! TO.P,LED25,4*
G04 #@! TO.N,Net-(LED25-Pad4)*
X190610000Y-130910000D03*
G04 #@! TD*
D23*
G04 #@! TO.P,SB2,1*
G04 #@! TO.N,/MCU/RESET*
X176276000Y-118872000D03*
G04 #@! TO.P,SB2,2*
G04 #@! TO.N,Net-(SB2-Pad2)*
X174996000Y-118872000D03*
G04 #@! TD*
D24*
G04 #@! TO.N,GND*
X182372000Y-116332000D03*
X185547000Y-113157000D03*
X169672000Y-117856000D03*
X216408000Y-83820000D03*
X205994000Y-95504000D03*
X118745000Y-127000000D03*
X102870000Y-100965000D03*
X95250000Y-100965000D03*
X188595000Y-146050000D03*
X188595000Y-137160000D03*
X181610000Y-130175000D03*
X155558200Y-126084200D03*
X147828000Y-125957000D03*
X128380200Y-102208200D03*
X197612000Y-103632000D03*
X122665200Y-116559200D03*
X166607200Y-104494200D03*
X162482000Y-107061000D03*
X170671200Y-107034200D03*
X177529200Y-107034200D03*
X149970200Y-109066200D03*
X172576200Y-122401200D03*
X163178200Y-122020200D03*
X184006200Y-123036200D03*
X179180200Y-120750200D03*
X140425000Y-118611000D03*
X137414000Y-123984000D03*
X115934200Y-113003200D03*
X117585200Y-115924200D03*
X113582000Y-116757000D03*
X131174000Y-110238000D03*
X132825200Y-104621200D03*
X136127200Y-104621200D03*
X198738200Y-120623200D03*
X197595200Y-124687200D03*
X196960200Y-113511200D03*
X197595200Y-121893200D03*
X137016000Y-108558000D03*
X144890000Y-109320000D03*
G04 #@! TO.N,+BATT*
X166497000Y-125730000D03*
X181847000Y-118210000D03*
X139177100Y-115204500D03*
G04 #@! TO.N,+3V3*
X165464200Y-123290200D03*
X150605200Y-123290200D03*
X144517000Y-111074000D03*
X156828200Y-111860200D03*
G04 #@! TO.N,LED1_R*
X121522200Y-101954200D03*
X153570200Y-96738800D03*
X171017400Y-84113500D03*
G04 #@! TO.N,LED1_G*
X166984100Y-100833800D03*
G04 #@! TO.N,LED1_B*
X183944464Y-99292656D03*
G04 #@! TO.N,LED2_R*
X171687200Y-58901200D03*
X123808200Y-110460190D03*
G04 #@! TO.N,LED2_G*
X178545200Y-87730200D03*
X155685200Y-99160200D03*
G04 #@! TO.N,LED2_B*
X186309000Y-83058000D03*
G04 #@! TO.N,LED3_R*
X124932600Y-109749000D03*
G04 #@! TO.N,LED3_G*
X184150000Y-71965900D03*
X152129200Y-98271200D03*
X184709100Y-95501800D03*
G04 #@! TO.N,LED3_B*
X184843800Y-71247000D03*
G04 #@! TO.N,LED4_R*
X125126900Y-111128100D03*
G04 #@! TO.N,LED5_R*
X121029400Y-99082000D03*
X121230400Y-94371600D03*
X138373000Y-77417300D03*
G04 #@! TO.N,LED5_G*
X161298900Y-87761300D03*
G04 #@! TO.N,LED5_B*
X182277910Y-97286066D03*
X176259200Y-90397200D03*
G04 #@! TO.N,LED6_R*
X120175800Y-98543900D03*
X112597500Y-88323400D03*
X111294600Y-84059000D03*
X141397600Y-69845000D03*
G04 #@! TO.N,LED6_B*
X183576500Y-84656800D03*
G04 #@! TO.N,LED7_R*
X103361200Y-97255200D03*
X126441737Y-109836945D03*
X112290700Y-44898200D03*
G04 #@! TO.N,LED7_G*
X156945500Y-72517400D03*
G04 #@! TO.N,LED7_B*
X179641500Y-70672400D03*
G04 #@! TO.N,LED8_R*
X111235200Y-107669200D03*
X127237200Y-109447200D03*
G04 #@! TO.N,LED8_G*
X154590500Y-88234300D03*
X160283300Y-87538600D03*
G04 #@! TO.N,LED8_B*
X184033000Y-58420000D03*
X182118000Y-90678000D03*
X186070100Y-87630000D03*
G04 #@! TO.N,LED9_R*
X146484100Y-84883100D03*
G04 #@! TO.N,LED9_G*
X153630100Y-87807500D03*
G04 #@! TO.N,LED9_B*
X177402200Y-87730200D03*
G04 #@! TO.N,LED10_R*
X145183700Y-71286700D03*
G04 #@! TO.N,LED10_B*
X164444900Y-83237200D03*
G04 #@! TO.N,LED11_B*
X168923600Y-82710400D03*
X162393500Y-75381900D03*
G04 #@! TO.N,LED12_R*
X115680200Y-90778200D03*
X105846200Y-62092300D03*
G04 #@! TO.N,LED12_G*
X139407300Y-83131000D03*
X136405900Y-75419100D03*
G04 #@! TO.N,LED12_B*
X171923100Y-84962600D03*
X141555500Y-74853700D03*
G04 #@! TO.N,LED13_R*
X131500300Y-76361300D03*
G04 #@! TO.N,LED13_G*
X141080200Y-87730200D03*
G04 #@! TO.N,LED13_B*
X155519200Y-96143700D03*
G04 #@! TO.N,LED14_R*
X109896100Y-82276000D03*
G04 #@! TO.N,LED14_G*
X140507600Y-85154300D03*
G04 #@! TO.N,LED14_B*
X160561095Y-90474334D03*
X165210200Y-95477200D03*
X163370500Y-84539800D03*
G04 #@! TO.N,LED15_R*
X112324200Y-84623400D03*
X123202600Y-84237700D03*
X123444200Y-59767200D03*
G04 #@! TO.N,LED15_G*
X136553600Y-84685500D03*
X134386500Y-80721600D03*
X134765400Y-67531700D03*
G04 #@! TO.N,LED15_B*
X162814900Y-95916100D03*
X153134300Y-71218800D03*
X156378600Y-88515500D03*
G04 #@! TO.N,LED16_R*
X109329900Y-96530200D03*
G04 #@! TO.N,LED16_G*
X135607000Y-77934000D03*
X138278000Y-83610700D03*
G04 #@! TO.N,LED16_B*
X162433000Y-96729200D03*
X155376400Y-89672600D03*
X153454700Y-72522800D03*
X139517800Y-67584800D03*
G04 #@! TO.N,LED17_G*
X126489300Y-94027900D03*
G04 #@! TO.N,LED17_B*
X155321000Y-97022700D03*
G04 #@! TO.N,LED18_R*
X109880300Y-80747300D03*
X114189200Y-75107500D03*
G04 #@! TO.N,LED18_G*
X134650800Y-85280800D03*
G04 #@! TO.N,LED18_B*
X158369000Y-98038800D03*
X148712900Y-88043700D03*
X137257200Y-82703300D03*
X129811700Y-77998700D03*
G04 #@! TO.N,LED19_R*
X107171200Y-92175200D03*
G04 #@! TO.N,LED19_G*
X131191000Y-95763800D03*
X125138000Y-89710800D03*
G04 #@! TO.N,LED19_B*
X167492500Y-98712900D03*
X146952900Y-70517200D03*
X157864500Y-89084900D03*
G04 #@! TO.N,LED20_R*
X104062600Y-90900200D03*
G04 #@! TO.N,LED20_G*
X132063200Y-96493200D03*
X125967000Y-88875800D03*
G04 #@! TO.N,LED20_B*
X166182400Y-98994000D03*
X153014700Y-59407200D03*
X158571500Y-88459200D03*
G04 #@! TO.N,LED21_R*
X108848400Y-99508000D03*
X107730484Y-90639416D03*
G04 #@! TO.N,LED21_G*
X125205200Y-94715200D03*
G04 #@! TO.N,LED21_B*
X155305800Y-98219500D03*
G04 #@! TO.N,LED22_G*
X129904200Y-96493200D03*
X122962400Y-89328600D03*
G04 #@! TO.N,LED22_B*
X148076240Y-89567910D03*
X148827200Y-92556200D03*
X168117300Y-100851200D03*
X123121900Y-87661500D03*
G04 #@! TO.N,LED23_G*
X114410200Y-88365200D03*
X124697200Y-95477200D03*
X114321700Y-85242800D03*
G04 #@! TO.N,LED23_B*
X164321200Y-100049200D03*
X146898000Y-72227900D03*
X152340000Y-89684500D03*
G04 #@! TO.N,LED24_R*
X106515900Y-99822000D03*
G04 #@! TO.N,LED24_G*
X134739200Y-84185800D03*
X128800100Y-77021600D03*
G04 #@! TO.N,LED24_B*
X165955000Y-101906100D03*
X149582000Y-93186800D03*
X137342000Y-81167600D03*
X127657200Y-75674600D03*
G04 #@! TO.N,/MCU/USART1_TX*
X180848000Y-113030000D03*
X153209980Y-118298805D03*
X204453200Y-116178200D03*
G04 #@! TO.N,BOOT0*
X192896000Y-109701000D03*
X146795000Y-111606000D03*
X200008000Y-104875000D03*
G04 #@! TO.N,/MCU/USART1_RX*
X152825884Y-117500598D03*
X190027800Y-111321600D03*
G04 #@! TO.N,BEEP*
X194437000Y-96139000D03*
X151494000Y-121766000D03*
G04 #@! TO.N,LED1*
X183498000Y-124560000D03*
X148827000Y-124560000D03*
G04 #@! TO.N,LED0*
X183498000Y-119480000D03*
X147684000Y-124814000D03*
G04 #@! TO.N,/MCU/USART2_MODE*
X200635290Y-92429200D03*
X209406200Y-97763200D03*
X204326200Y-97763200D03*
X140886800Y-124318700D03*
G04 #@! TO.N,/MCU/USART2_TX*
X203691200Y-98525200D03*
X199373200Y-95223200D03*
X199500200Y-123163200D03*
X142259500Y-121603400D03*
G04 #@! TO.N,/MCU/USART2_RX*
X208771200Y-97001200D03*
X205977200Y-97001200D03*
X200897200Y-91540200D03*
X141121600Y-125362700D03*
G04 #@! TO.N,/MCU/I2C1_SCL*
X146795000Y-116963000D03*
X157844000Y-119480000D03*
X179180000Y-115670000D03*
G04 #@! TO.N,/MCU/I2C1_SDA*
X145923000Y-116205000D03*
X178418000Y-116940000D03*
X157844000Y-118210000D03*
G04 #@! TO.N,SOUT1_SIN2*
X150732000Y-107796000D03*
X109965000Y-106272000D03*
G04 #@! TO.N,SOUT2_SIN3*
X178672000Y-107034000D03*
X142985000Y-108558000D03*
X139937000Y-104748000D03*
X139937000Y-102589000D03*
G04 #@! TO.N,ADC_IN*
X208097899Y-85272101D03*
X141800900Y-122813800D03*
G04 #@! TO.N,G5_K2*
X143620000Y-125957000D03*
X148192000Y-119988000D03*
G04 #@! TO.N,G5_K3*
X145652000Y-127100000D03*
X147430000Y-120750000D03*
G04 #@! TO.N,LED2*
X152129000Y-125322000D03*
X185396189Y-125067401D03*
G04 #@! TO.N,Net-(LED25-Pad1)*
X188578200Y-127100200D03*
G04 #@! TO.N,/MCU/RESET*
X144255200Y-115797200D03*
X193912000Y-109701000D03*
G04 #@! TO.N,Net-(P1-Pad2)*
X159048300Y-108948700D03*
X203606600Y-101501900D03*
G04 #@! TO.N,Net-(P1-Pad4)*
X155806900Y-108972200D03*
X203828000Y-102486400D03*
G04 #@! TO.N,/Display/BLANK*
X121268000Y-105510000D03*
X149327000Y-105510000D03*
X118855000Y-105510000D03*
X179688000Y-105510000D03*
G04 #@! TO.N,/Display/CURRENT_LOW*
X127298000Y-115697000D03*
X143849098Y-113130000D03*
X136635000Y-113130000D03*
X149589000Y-115416000D03*
X159766000Y-114019000D03*
G04 #@! TO.N,/Display/CURRENT_HIGH*
X143383000Y-113892000D03*
X133206000Y-113130000D03*
X129904000Y-113130000D03*
X149716000Y-116551000D03*
X159766000Y-113130000D03*
G04 #@! TO.N,/MCU/OSC32_IN*
X142494000Y-114173000D03*
X169926000Y-115697000D03*
G04 #@! TO.N,/Display/SPI1_NSS*
X129904000Y-109320000D03*
X145144000Y-120115000D03*
X109203000Y-105510000D03*
X129904000Y-106272000D03*
X160511000Y-106272000D03*
G04 #@! TO.N,/Display/SPI1_SCK*
X134603000Y-107034000D03*
X134603000Y-109320000D03*
X145906000Y-119607000D03*
X119617000Y-107034000D03*
X149970000Y-107034000D03*
X179180000Y-106272000D03*
G04 #@! TO.N,/Display/SPI1_MISO*
X161671000Y-122047000D03*
X160274000Y-112268000D03*
X161273000Y-115797000D03*
X146287000Y-123417000D03*
G04 #@! TO.N,/Display/SPI1_MOSI*
X146795000Y-119480000D03*
X120379000Y-108558000D03*
G04 #@! TO.N,Net-(SB2-Pad2)*
X173863000Y-119126000D03*
G04 #@! TD*
D25*
G04 #@! TO.N,*
X203183000Y-113003000D02*
X203183000Y-113003400D01*
D26*
G04 #@! TO.N,GND*
X185547000Y-113157000D02*
X182372000Y-116332000D01*
X196960200Y-113511200D02*
X185901200Y-113511200D01*
X185901200Y-113511200D02*
X185547000Y-113157000D01*
X212073000Y-88492200D02*
X216408000Y-84157200D01*
X216408000Y-84157200D02*
X216408000Y-83820000D01*
D27*
X187960000Y-146050000D02*
X187325000Y-146050000D01*
X188595000Y-146050000D02*
X187960000Y-146050000D01*
X187960000Y-146050000D02*
X187960000Y-136525000D01*
X187325000Y-146050000D02*
X186690000Y-146050000D01*
X187325000Y-146050000D02*
X187325000Y-135890000D01*
X186690000Y-146050000D02*
X186055000Y-146050000D01*
X186690000Y-146050000D02*
X186690000Y-135255000D01*
X186055000Y-146050000D02*
X185420000Y-146050000D01*
X186055000Y-146050000D02*
X186055000Y-134620000D01*
X185420000Y-146050000D02*
X184785000Y-146050000D01*
X185420000Y-146050000D02*
X185420000Y-133985000D01*
X184785000Y-146050000D02*
X184150000Y-146050000D01*
X184785000Y-146050000D02*
X184785000Y-133350000D01*
X184150000Y-146050000D02*
X183515000Y-146050000D01*
X184150000Y-146050000D02*
X184150000Y-132715000D01*
X183515000Y-146050000D02*
X182880000Y-146050000D01*
X183515000Y-146050000D02*
X183515000Y-132080000D01*
X182880000Y-146050000D02*
X182245000Y-146050000D01*
X182880000Y-146050000D02*
X182880000Y-131445000D01*
X182245000Y-146050000D02*
X181610000Y-146050000D01*
X182245000Y-146050000D02*
X182245000Y-130810000D01*
X181610000Y-146050000D02*
X180975000Y-146050000D01*
X181610000Y-146050000D02*
X181610000Y-130175000D01*
X180975000Y-146050000D02*
X180340000Y-146050000D01*
X181610000Y-130175000D02*
X180975000Y-130175000D01*
X180975000Y-130175000D02*
X180340000Y-130175000D01*
X180975000Y-146050000D02*
X180975000Y-130175000D01*
X180340000Y-130175000D02*
X179705000Y-130175000D01*
X180340000Y-146050000D02*
X179705000Y-146050000D01*
X180340000Y-130175000D02*
X180340000Y-146050000D01*
X179705000Y-146050000D02*
X179070000Y-146050000D01*
X179705000Y-146050000D02*
X179705000Y-130175000D01*
X179705000Y-130175000D02*
X179070000Y-130175000D01*
X179070000Y-130175000D02*
X178435000Y-130175000D01*
X179070000Y-130175000D02*
X179070000Y-146050000D01*
X179070000Y-146050000D02*
X178435000Y-146050000D01*
X178435000Y-146050000D02*
X177800000Y-146050000D01*
X178435000Y-130175000D02*
X177800000Y-130175000D01*
X178435000Y-146050000D02*
X178435000Y-130175000D01*
X177800000Y-130175000D02*
X177165000Y-130175000D01*
X177800000Y-130175000D02*
X177800000Y-146050000D01*
X177800000Y-146050000D02*
X177165000Y-146050000D01*
X177165000Y-146050000D02*
X176530000Y-146050000D01*
X177165000Y-146050000D02*
X177165000Y-130175000D01*
X177165000Y-130175000D02*
X176530000Y-130175000D01*
X176530000Y-130175000D02*
X175895000Y-130175000D01*
X176530000Y-130175000D02*
X176530000Y-146050000D01*
X176530000Y-146050000D02*
X175895000Y-146050000D01*
X175895000Y-146050000D02*
X175260000Y-146050000D01*
X175895000Y-146050000D02*
X175895000Y-130175000D01*
X175895000Y-130175000D02*
X175260000Y-130175000D01*
X175260000Y-130175000D02*
X174625000Y-130175000D01*
X175260000Y-146050000D02*
X174625000Y-146050000D01*
X175260000Y-130175000D02*
X175260000Y-146050000D01*
X174625000Y-146050000D02*
X173990000Y-146050000D01*
X174625000Y-130175000D02*
X173990000Y-130175000D01*
X174625000Y-146050000D02*
X174625000Y-130175000D01*
X173990000Y-130175000D02*
X173355000Y-130175000D01*
X173990000Y-146050000D02*
X173355000Y-146050000D01*
X173990000Y-130175000D02*
X173990000Y-146050000D01*
X173355000Y-146050000D02*
X172720000Y-146050000D01*
X173355000Y-146050000D02*
X173355000Y-130175000D01*
X173355000Y-130175000D02*
X172720000Y-130175000D01*
X172720000Y-130175000D02*
X172085000Y-130175000D01*
X172720000Y-146050000D02*
X172085000Y-146050000D01*
X172720000Y-130175000D02*
X172720000Y-146050000D01*
X172085000Y-146050000D02*
X171450000Y-146050000D01*
X172085000Y-146050000D02*
X172085000Y-130175000D01*
X172085000Y-130175000D02*
X171450000Y-130175000D01*
X171450000Y-130175000D02*
X170815000Y-130175000D01*
X171450000Y-130175000D02*
X171450000Y-146050000D01*
X171450000Y-146050000D02*
X170815000Y-146050000D01*
X170815000Y-146050000D02*
X170180000Y-146050000D01*
X170815000Y-130175000D02*
X170180000Y-130175000D01*
X170815000Y-146050000D02*
X170815000Y-130175000D01*
X170180000Y-130175000D02*
X169545000Y-130175000D01*
X170180000Y-146050000D02*
X169545000Y-146050000D01*
X170180000Y-130175000D02*
X170180000Y-146050000D01*
X169545000Y-146050000D02*
X168910000Y-146050000D01*
X169545000Y-130175000D02*
X168910000Y-130175000D01*
X169545000Y-146050000D02*
X169545000Y-130175000D01*
X168910000Y-130175000D02*
X168275000Y-130175000D01*
X168910000Y-146050000D02*
X168275000Y-146050000D01*
X168910000Y-130175000D02*
X168910000Y-146050000D01*
X168275000Y-146050000D02*
X167640000Y-146050000D01*
X168275000Y-130175000D02*
X167640000Y-130175000D01*
X168275000Y-146050000D02*
X168275000Y-130175000D01*
X167640000Y-130175000D02*
X167005000Y-130175000D01*
X167640000Y-146050000D02*
X167005000Y-146050000D01*
X167640000Y-130175000D02*
X167640000Y-146050000D01*
X167005000Y-130175000D02*
X166370000Y-130175000D01*
X167005000Y-146050000D02*
X166370000Y-146050000D01*
X167005000Y-130175000D02*
X167005000Y-146050000D01*
X166370000Y-146050000D02*
X165735000Y-146050000D01*
X166370000Y-130175000D02*
X165735000Y-130175000D01*
X166370000Y-146050000D02*
X166370000Y-130175000D01*
X165735000Y-130175000D02*
X165100000Y-130175000D01*
X165735000Y-146050000D02*
X165100000Y-146050000D01*
X165735000Y-130175000D02*
X165735000Y-146050000D01*
X165100000Y-146050000D02*
X164465000Y-146050000D01*
X165100000Y-130175000D02*
X164465000Y-130175000D01*
X165100000Y-146050000D02*
X165100000Y-130175000D01*
X164465000Y-130175000D02*
X163830000Y-130175000D01*
X164465000Y-130175000D02*
X164465000Y-146050000D01*
X164465000Y-146050000D02*
X163830000Y-146050000D01*
X163830000Y-146050000D02*
X163195000Y-146050000D01*
X163830000Y-146050000D02*
X163830000Y-130175000D01*
X163830000Y-130175000D02*
X163195000Y-130175000D01*
X163195000Y-130175000D02*
X162560000Y-130175000D01*
X163195000Y-146050000D02*
X162560000Y-146050000D01*
X163195000Y-130175000D02*
X163195000Y-146050000D01*
X162560000Y-146050000D02*
X161925000Y-146050000D01*
X162560000Y-130175000D02*
X161925000Y-130175000D01*
X162560000Y-146050000D02*
X162560000Y-130175000D01*
X161925000Y-130175000D02*
X161290000Y-130175000D01*
X161925000Y-130175000D02*
X161925000Y-146050000D01*
X161925000Y-146050000D02*
X161290000Y-146050000D01*
X161290000Y-146050000D02*
X160655000Y-146050000D01*
X161290000Y-130175000D02*
X160655000Y-130175000D01*
X161290000Y-146050000D02*
X161290000Y-130175000D01*
X160655000Y-130175000D02*
X160020000Y-130175000D01*
X160655000Y-146050000D02*
X160020000Y-146050000D01*
X160655000Y-130175000D02*
X160655000Y-146050000D01*
X160020000Y-146050000D02*
X159385000Y-146050000D01*
X160020000Y-146050000D02*
X160020000Y-130175000D01*
X160020000Y-130175000D02*
X159385000Y-130175000D01*
X159385000Y-130175000D02*
X158750000Y-130175000D01*
X159385000Y-146050000D02*
X158750000Y-146050000D01*
X159385000Y-130175000D02*
X159385000Y-146050000D01*
X158750000Y-146050000D02*
X158115000Y-146050000D01*
X158750000Y-146050000D02*
X158750000Y-130175000D01*
X158750000Y-130175000D02*
X158115000Y-130175000D01*
X158115000Y-130175000D02*
X157480000Y-130175000D01*
X158115000Y-146050000D02*
X157480000Y-146050000D01*
X158115000Y-130175000D02*
X158115000Y-146050000D01*
X157480000Y-146050000D02*
X156845000Y-146050000D01*
X157480000Y-146050000D02*
X157480000Y-130175000D01*
X157480000Y-130175000D02*
X156845000Y-130175000D01*
X156845000Y-130175000D02*
X156210000Y-130175000D01*
X156845000Y-146050000D02*
X156210000Y-146050000D01*
X156845000Y-130175000D02*
X156845000Y-146050000D01*
X156210000Y-146050000D02*
X155575000Y-146050000D01*
X156210000Y-130175000D02*
X155575000Y-130175000D01*
X156210000Y-146050000D02*
X156210000Y-130175000D01*
X155575000Y-130175000D02*
X154940000Y-130175000D01*
X155575000Y-130175000D02*
X155575000Y-146050000D01*
X155575000Y-146050000D02*
X154940000Y-146050000D01*
X154940000Y-146050000D02*
X154305000Y-146050000D01*
X154940000Y-130175000D02*
X154305000Y-130175000D01*
X154940000Y-146050000D02*
X154940000Y-130175000D01*
X154305000Y-130175000D02*
X153670000Y-130175000D01*
X154305000Y-146050000D02*
X153670000Y-146050000D01*
X154305000Y-130175000D02*
X154305000Y-146050000D01*
X153670000Y-146050000D02*
X153035000Y-146050000D01*
X153670000Y-130175000D02*
X153035000Y-130175000D01*
X153670000Y-146050000D02*
X153670000Y-130175000D01*
X153035000Y-130175000D02*
X152400000Y-130175000D01*
X153035000Y-130175000D02*
X153035000Y-146050000D01*
X153035000Y-146050000D02*
X152400000Y-146050000D01*
X152400000Y-146050000D02*
X151765000Y-146050000D01*
X152400000Y-130175000D02*
X151765000Y-130175000D01*
X152400000Y-146050000D02*
X152400000Y-130175000D01*
X151765000Y-130175000D02*
X151130000Y-130175000D01*
X151765000Y-146050000D02*
X151130000Y-146050000D01*
X151765000Y-130175000D02*
X151765000Y-146050000D01*
X151130000Y-146050000D02*
X150495000Y-146050000D01*
X151130000Y-130175000D02*
X150495000Y-130175000D01*
X151130000Y-146050000D02*
X151130000Y-130175000D01*
X150495000Y-130175000D02*
X149860000Y-130175000D01*
X150495000Y-130175000D02*
X150495000Y-146050000D01*
X150495000Y-146050000D02*
X149860000Y-146050000D01*
X149860000Y-146050000D02*
X149225000Y-146050000D01*
X149860000Y-130175000D02*
X149225000Y-130175000D01*
X149860000Y-146050000D02*
X149860000Y-130175000D01*
X149225000Y-130175000D02*
X148590000Y-130175000D01*
X149225000Y-130175000D02*
X149225000Y-146050000D01*
X149225000Y-146050000D02*
X148590000Y-146050000D01*
X148590000Y-146050000D02*
X147955000Y-146050000D01*
X148590000Y-146050000D02*
X148590000Y-130175000D01*
X148590000Y-130175000D02*
X147955000Y-130175000D01*
X147955000Y-130175000D02*
X147320000Y-130175000D01*
X147955000Y-146050000D02*
X147320000Y-146050000D01*
X147955000Y-130175000D02*
X147955000Y-146050000D01*
X147320000Y-146050000D02*
X146685000Y-146050000D01*
X147320000Y-130175000D02*
X146685000Y-130175000D01*
X147320000Y-146050000D02*
X147320000Y-130175000D01*
X146685000Y-130175000D02*
X146050000Y-130175000D01*
X146685000Y-146050000D02*
X146050000Y-146050000D01*
X146685000Y-130175000D02*
X146685000Y-146050000D01*
X146050000Y-146050000D02*
X145415000Y-146050000D01*
X146050000Y-130175000D02*
X145415000Y-130175000D01*
X146050000Y-146050000D02*
X146050000Y-130175000D01*
X145415000Y-146050000D02*
X144780000Y-146050000D01*
X145415000Y-130175000D02*
X144780000Y-130175000D01*
X145415000Y-146050000D02*
X145415000Y-130175000D01*
X144780000Y-130175000D02*
X144145000Y-130175000D01*
X144780000Y-146050000D02*
X144145000Y-146050000D01*
X144780000Y-130175000D02*
X144780000Y-146050000D01*
X144145000Y-146050000D02*
X143510000Y-146050000D01*
X144145000Y-130175000D02*
X143510000Y-130175000D01*
X144145000Y-146050000D02*
X144145000Y-130175000D01*
X143510000Y-130175000D02*
X142875000Y-130175000D01*
X143510000Y-146050000D02*
X142875000Y-146050000D01*
X143510000Y-130175000D02*
X143510000Y-146050000D01*
X142875000Y-146050000D02*
X142240000Y-146050000D01*
X142875000Y-130175000D02*
X142240000Y-130175000D01*
X142875000Y-146050000D02*
X142875000Y-130175000D01*
X142240000Y-130175000D02*
X141605000Y-130175000D01*
X142240000Y-130175000D02*
X142240000Y-146050000D01*
X142240000Y-146050000D02*
X141605000Y-146050000D01*
X141605000Y-146050000D02*
X140970000Y-146050000D01*
X141605000Y-130175000D02*
X140970000Y-130175000D01*
X141605000Y-146050000D02*
X141605000Y-130175000D01*
X140970000Y-130175000D02*
X140335000Y-130175000D01*
X140970000Y-146050000D02*
X140335000Y-146050000D01*
X140970000Y-130175000D02*
X140970000Y-146050000D01*
X140335000Y-146050000D02*
X139700000Y-146050000D01*
X140335000Y-130175000D02*
X139700000Y-130175000D01*
X140335000Y-146050000D02*
X140335000Y-130175000D01*
X139700000Y-130175000D02*
X139065000Y-130175000D01*
X139700000Y-146050000D02*
X139065000Y-146050000D01*
X139700000Y-130175000D02*
X139700000Y-146050000D01*
X139065000Y-146050000D02*
X138430000Y-146050000D01*
X139065000Y-130175000D02*
X138430000Y-130175000D01*
X139065000Y-146050000D02*
X139065000Y-130175000D01*
X138430000Y-130175000D02*
X137795000Y-130175000D01*
X138430000Y-130175000D02*
X138430000Y-146050000D01*
X138430000Y-146050000D02*
X137795000Y-146050000D01*
X137795000Y-146050000D02*
X137160000Y-146050000D01*
X137795000Y-130175000D02*
X137160000Y-130175000D01*
X137795000Y-146050000D02*
X137795000Y-130175000D01*
X137160000Y-130175000D02*
X136525000Y-130175000D01*
X137160000Y-146050000D02*
X136525000Y-146050000D01*
X137160000Y-130175000D02*
X137160000Y-146050000D01*
X136525000Y-146050000D02*
X135890000Y-146050000D01*
X136525000Y-146050000D02*
X136525000Y-130175000D01*
X135890000Y-146050000D02*
X135255000Y-146050000D01*
X135890000Y-129540000D02*
X135890000Y-146050000D01*
X135255000Y-146050000D02*
X134620000Y-146050000D01*
X135255000Y-146050000D02*
X135255000Y-128905000D01*
X134620000Y-146050000D02*
X133985000Y-146050000D01*
X134620000Y-128270000D02*
X134620000Y-146050000D01*
X133985000Y-146050000D02*
X133350000Y-146050000D01*
X133985000Y-146050000D02*
X133985000Y-127635000D01*
X133350000Y-146050000D02*
X132715000Y-146050000D01*
X133350000Y-127000000D02*
X133350000Y-146050000D01*
X132715000Y-146050000D02*
X132080000Y-146050000D01*
X132715000Y-127000000D02*
X132080000Y-127000000D01*
X133350000Y-127000000D02*
X132715000Y-127000000D01*
X132715000Y-146050000D02*
X132715000Y-127000000D01*
X132080000Y-127000000D02*
X131445000Y-127000000D01*
X132080000Y-146050000D02*
X131445000Y-146050000D01*
X132080000Y-127000000D02*
X132080000Y-146050000D01*
X131445000Y-146050000D02*
X130810000Y-146050000D01*
X131445000Y-127000000D02*
X130810000Y-127000000D01*
X131445000Y-146050000D02*
X131445000Y-127000000D01*
X130810000Y-127000000D02*
X130175000Y-127000000D01*
X130810000Y-146050000D02*
X130175000Y-146050000D01*
X130810000Y-127000000D02*
X130810000Y-146050000D01*
X130175000Y-146050000D02*
X129540000Y-146050000D01*
X130175000Y-127000000D02*
X129540000Y-127000000D01*
X130175000Y-146050000D02*
X130175000Y-127000000D01*
X129540000Y-146050000D02*
X128905000Y-146050000D01*
X129540000Y-127000000D02*
X128905000Y-127000000D01*
X129540000Y-146050000D02*
X129540000Y-127000000D01*
X128905000Y-127000000D02*
X128270000Y-127000000D01*
X128905000Y-146050000D02*
X128270000Y-146050000D01*
X128905000Y-127000000D02*
X128905000Y-146050000D01*
X128270000Y-146050000D02*
X127635000Y-146050000D01*
X128270000Y-127000000D02*
X127635000Y-127000000D01*
X128270000Y-146050000D02*
X128270000Y-127000000D01*
X127635000Y-127000000D02*
X127000000Y-127000000D01*
X127635000Y-146050000D02*
X127000000Y-146050000D01*
X127635000Y-127000000D02*
X127635000Y-146050000D01*
X127000000Y-146050000D02*
X126365000Y-146050000D01*
X127000000Y-127000000D02*
X126365000Y-127000000D01*
X127000000Y-146050000D02*
X127000000Y-127000000D01*
X126365000Y-127000000D02*
X125730000Y-127000000D01*
X126365000Y-146050000D02*
X125730000Y-146050000D01*
X126365000Y-127000000D02*
X126365000Y-146050000D01*
X125730000Y-146050000D02*
X125095000Y-146050000D01*
X125730000Y-146050000D02*
X125730000Y-127000000D01*
X125730000Y-127000000D02*
X125095000Y-127000000D01*
X125095000Y-127000000D02*
X124460000Y-127000000D01*
X125095000Y-146050000D02*
X124460000Y-146050000D01*
X125095000Y-127000000D02*
X125095000Y-146050000D01*
X124460000Y-146050000D02*
X123825000Y-146050000D01*
X124460000Y-127000000D02*
X123825000Y-127000000D01*
X124460000Y-146050000D02*
X124460000Y-127000000D01*
X123825000Y-127000000D02*
X123190000Y-127000000D01*
X123825000Y-127000000D02*
X123825000Y-146050000D01*
X123825000Y-146050000D02*
X123190000Y-146050000D01*
X123190000Y-146050000D02*
X122555000Y-146050000D01*
X123190000Y-127000000D02*
X122555000Y-127000000D01*
X123190000Y-146050000D02*
X123190000Y-127000000D01*
X122555000Y-127000000D02*
X121920000Y-127000000D01*
X122555000Y-146050000D02*
X121920000Y-146050000D01*
X122555000Y-127000000D02*
X122555000Y-146050000D01*
X121920000Y-146050000D02*
X121285000Y-146050000D01*
X121920000Y-127000000D02*
X121285000Y-127000000D01*
X121920000Y-146050000D02*
X121920000Y-127000000D01*
X121285000Y-127000000D02*
X120650000Y-127000000D01*
X121285000Y-146050000D02*
X120650000Y-146050000D01*
X121285000Y-127000000D02*
X121285000Y-146050000D01*
X120650000Y-146050000D02*
X120015000Y-146050000D01*
X120650000Y-127000000D02*
X120015000Y-127000000D01*
X120650000Y-146050000D02*
X120650000Y-127000000D01*
X120015000Y-127000000D02*
X119380000Y-127000000D01*
X120015000Y-146050000D02*
X119380000Y-146050000D01*
X120015000Y-127000000D02*
X120015000Y-146050000D01*
X119380000Y-146050000D02*
X118745000Y-146050000D01*
X119380000Y-146050000D02*
X119380000Y-127000000D01*
X119380000Y-127000000D02*
X118745000Y-127000000D01*
X118745000Y-146050000D02*
X118110000Y-146050000D01*
X118745000Y-127000000D02*
X118745000Y-146050000D01*
X118110000Y-146050000D02*
X117475000Y-146050000D01*
X118110000Y-146050000D02*
X118110000Y-126365000D01*
X117475000Y-146050000D02*
X116840000Y-146050000D01*
X117475000Y-146050000D02*
X117475000Y-125730000D01*
X116840000Y-146050000D02*
X116205000Y-146050000D01*
X116840000Y-146050000D02*
X116840000Y-125095000D01*
X116205000Y-146050000D02*
X115570000Y-146050000D01*
X116205000Y-146050000D02*
X116205000Y-124460000D01*
X115570000Y-146050000D02*
X114935000Y-146050000D01*
X115570000Y-146050000D02*
X115570000Y-123825000D01*
X114935000Y-146050000D02*
X114300000Y-146050000D01*
X114935000Y-146050000D02*
X114935000Y-123190000D01*
X114300000Y-146050000D02*
X113665000Y-146050000D01*
X114300000Y-146050000D02*
X114300000Y-122555000D01*
X113665000Y-146050000D02*
X113030000Y-146050000D01*
X113665000Y-146050000D02*
X113665000Y-121920000D01*
X113030000Y-146050000D02*
X112395000Y-146050000D01*
X113030000Y-146050000D02*
X113030000Y-121285000D01*
X112395000Y-146050000D02*
X111760000Y-146050000D01*
X112395000Y-146050000D02*
X112395000Y-120650000D01*
X111760000Y-146050000D02*
X111125000Y-146050000D01*
X111760000Y-146050000D02*
X111760000Y-120015000D01*
X111125000Y-146050000D02*
X110490000Y-146050000D01*
X111125000Y-119380000D02*
X111125000Y-146050000D01*
X110490000Y-146050000D02*
X109855000Y-146050000D01*
X110998000Y-111125000D02*
X110490000Y-110617000D01*
X110490000Y-110617000D02*
X110363000Y-110490000D01*
X110490000Y-146050000D02*
X110490000Y-110617000D01*
X109855000Y-146050000D02*
X109220000Y-146050000D01*
X109855000Y-146050000D02*
X109855000Y-109982000D01*
X110363000Y-110490000D02*
X109855000Y-109982000D01*
X109855000Y-109982000D02*
X109728000Y-109855000D01*
X109220000Y-146050000D02*
X108585000Y-146050000D01*
X109728000Y-109855000D02*
X109220000Y-109347000D01*
X109220000Y-109347000D02*
X109093000Y-109220000D01*
X109220000Y-146050000D02*
X109220000Y-109347000D01*
X108585000Y-146050000D02*
X107950000Y-146050000D01*
X109093000Y-109220000D02*
X108585000Y-108712000D01*
X108585000Y-146050000D02*
X108585000Y-108712000D01*
X108585000Y-108712000D02*
X108458000Y-108585000D01*
X107950000Y-146050000D02*
X107315000Y-146050000D01*
X108458000Y-108585000D02*
X107950000Y-108077000D01*
X107950000Y-108077000D02*
X107823000Y-107950000D01*
X107950000Y-146050000D02*
X107950000Y-108077000D01*
X107315000Y-146050000D02*
X106680000Y-146050000D01*
X107823000Y-107950000D02*
X107315000Y-107442000D01*
X107315000Y-107442000D02*
X107188000Y-107315000D01*
X107315000Y-146050000D02*
X107315000Y-107442000D01*
X106680000Y-146050000D02*
X106045000Y-146050000D01*
X107188000Y-107315000D02*
X106680000Y-106807000D01*
X106680000Y-106807000D02*
X106553000Y-106680000D01*
X106680000Y-146050000D02*
X106680000Y-106807000D01*
X106045000Y-146050000D02*
X105410000Y-146050000D01*
X106045000Y-146050000D02*
X106045000Y-104140000D01*
X105410000Y-146050000D02*
X104775000Y-146050000D01*
X105410000Y-103505000D02*
X105410000Y-146050000D01*
X104775000Y-146050000D02*
X104140000Y-146050000D01*
X104775000Y-146050000D02*
X104775000Y-102870000D01*
X104140000Y-146050000D02*
X103505000Y-146050000D01*
X104140000Y-102235000D02*
X104140000Y-146050000D01*
X103505000Y-146050000D02*
X102870000Y-146050000D01*
X103505000Y-146050000D02*
X103505000Y-101600000D01*
X102870000Y-140335000D02*
X102870000Y-100965000D01*
X102870000Y-140970000D02*
X102870000Y-140335000D01*
X188595000Y-139700000D02*
X188595000Y-140335000D01*
X188595000Y-140335000D02*
X188595000Y-140970000D01*
X102870000Y-140335000D02*
X188595000Y-140335000D01*
X188595000Y-140970000D02*
X188595000Y-141605000D01*
X102870000Y-141605000D02*
X102870000Y-140970000D01*
X188595000Y-140970000D02*
X102870000Y-140970000D01*
X102870000Y-146050000D02*
X102870000Y-141605000D01*
X188595000Y-141605000D02*
X188595000Y-142240000D01*
X102870000Y-141605000D02*
X188595000Y-141605000D01*
X99695000Y-100965000D02*
X100330000Y-100965000D01*
X99060000Y-100965000D02*
X99695000Y-100965000D01*
X95250000Y-138430000D02*
X99695000Y-138430000D01*
X99695000Y-138430000D02*
X100330000Y-138430000D01*
X99695000Y-100965000D02*
X99695000Y-138430000D01*
X100330000Y-138430000D02*
X100965000Y-138430000D01*
X100330000Y-138430000D02*
X100330000Y-100965000D01*
X100330000Y-100965000D02*
X100965000Y-100965000D01*
X100965000Y-100965000D02*
X101600000Y-100965000D01*
X100965000Y-138430000D02*
X188595000Y-138430000D01*
X100965000Y-100965000D02*
X100965000Y-138430000D01*
X101600000Y-100965000D02*
X102235000Y-100965000D01*
X101600000Y-139065000D02*
X101600000Y-100965000D01*
X188595000Y-139065000D02*
X188595000Y-139700000D01*
X188595000Y-138430000D02*
X188595000Y-139065000D01*
X188595000Y-139065000D02*
X101600000Y-139065000D01*
X102235000Y-139700000D02*
X188595000Y-139700000D01*
X102235000Y-100965000D02*
X102870000Y-100965000D01*
X102235000Y-100965000D02*
X102235000Y-139700000D01*
X102870000Y-146050000D02*
X102235000Y-146050000D01*
X95250000Y-139700000D02*
X95250000Y-139065000D01*
X95250000Y-139065000D02*
X95250000Y-138430000D01*
X99060000Y-139065000D02*
X95250000Y-139065000D01*
X98425000Y-100965000D02*
X99060000Y-100965000D01*
X99060000Y-100965000D02*
X99060000Y-139065000D01*
X97790000Y-100965000D02*
X98425000Y-100965000D01*
X98425000Y-139700000D02*
X98425000Y-100965000D01*
X95250000Y-140335000D02*
X95250000Y-139700000D01*
X95250000Y-139700000D02*
X98425000Y-139700000D01*
X97790000Y-100965000D02*
X97790000Y-140335000D01*
X95250000Y-140970000D02*
X95250000Y-140335000D01*
X97790000Y-140335000D02*
X97790000Y-140970000D01*
X95250000Y-140335000D02*
X97790000Y-140335000D01*
X97790000Y-140970000D02*
X97790000Y-141605000D01*
X95250000Y-141605000D02*
X95250000Y-140970000D01*
X97790000Y-140970000D02*
X95250000Y-140970000D01*
X95250000Y-142240000D02*
X95250000Y-141605000D01*
X97790000Y-141605000D02*
X97790000Y-146050000D01*
X95250000Y-141605000D02*
X97790000Y-141605000D01*
X102235000Y-146050000D02*
X101600000Y-146050000D01*
X102235000Y-142240000D02*
X102235000Y-146050000D01*
X188595000Y-142240000D02*
X188595000Y-142875000D01*
X188595000Y-142240000D02*
X102235000Y-142240000D01*
X188595000Y-142875000D02*
X188595000Y-143510000D01*
X101600000Y-142875000D02*
X188595000Y-142875000D01*
X101600000Y-146050000D02*
X100965000Y-146050000D01*
X101600000Y-146050000D02*
X101600000Y-142875000D01*
X100965000Y-146050000D02*
X100965000Y-144145000D01*
X100965000Y-144145000D02*
X100965000Y-143510000D01*
X100965000Y-146050000D02*
X100330000Y-146050000D01*
X100330000Y-143510000D02*
X188595000Y-143510000D01*
X99695000Y-143510000D02*
X100330000Y-143510000D01*
X100330000Y-143510000D02*
X100330000Y-146050000D01*
X100330000Y-146050000D02*
X99060000Y-146050000D01*
X99695000Y-146050000D02*
X100330000Y-146050000D01*
X95250000Y-143510000D02*
X99695000Y-143510000D01*
X99695000Y-143510000D02*
X99695000Y-146050000D01*
X99060000Y-146050000D02*
X98425000Y-146050000D01*
X99060000Y-146050000D02*
X99060000Y-142875000D01*
X95250000Y-142875000D02*
X95250000Y-142240000D01*
X95250000Y-143510000D02*
X95250000Y-142875000D01*
X95250000Y-142875000D02*
X99060000Y-142875000D01*
X95250000Y-142240000D02*
X98425000Y-142240000D01*
X98425000Y-146050000D02*
X97790000Y-146050000D01*
X98425000Y-146050000D02*
X98425000Y-142240000D01*
X97155000Y-100965000D02*
X97790000Y-100965000D01*
X97790000Y-146050000D02*
X97155000Y-146050000D01*
X97155000Y-146050000D02*
X96520000Y-146050000D01*
X96520000Y-100965000D02*
X97155000Y-100965000D01*
X97155000Y-146050000D02*
X97155000Y-100965000D01*
X95885000Y-100965000D02*
X96520000Y-100965000D01*
X96520000Y-146050000D02*
X95885000Y-146050000D01*
X96520000Y-100965000D02*
X96520000Y-146050000D01*
X95885000Y-146050000D02*
X95250000Y-146050000D01*
X95250000Y-100965000D02*
X95885000Y-100965000D01*
X95885000Y-146050000D02*
X95885000Y-100965000D01*
X95250000Y-144145000D02*
X95250000Y-143510000D01*
X188595000Y-143510000D02*
X188595000Y-144145000D01*
X95250000Y-144780000D02*
X95250000Y-144145000D01*
X188595000Y-144145000D02*
X188595000Y-144780000D01*
X95250000Y-144145000D02*
X188595000Y-144145000D01*
X95250000Y-145415000D02*
X95250000Y-144780000D01*
X188595000Y-144780000D02*
X188595000Y-145415000D01*
X95250000Y-144780000D02*
X188595000Y-144780000D01*
X95250000Y-146050000D02*
X95250000Y-145415000D01*
X188595000Y-145415000D02*
X188595000Y-146050000D01*
X95250000Y-145415000D02*
X188595000Y-145415000D01*
X95250000Y-138430000D02*
X95250000Y-137795000D01*
X188595000Y-137795000D02*
X188595000Y-138430000D01*
X95250000Y-137795000D02*
X95250000Y-137160000D01*
X95250000Y-137795000D02*
X188595000Y-137795000D01*
X188595000Y-137160000D02*
X188595000Y-137795000D01*
X95250000Y-137160000D02*
X95250000Y-136525000D01*
X95250000Y-137160000D02*
X188595000Y-137160000D01*
X95250000Y-136525000D02*
X95250000Y-135890000D01*
X187325000Y-135890000D02*
X187960000Y-136525000D01*
X187960000Y-136525000D02*
X188595000Y-137160000D01*
X95250000Y-136525000D02*
X187960000Y-136525000D01*
X95250000Y-135890000D02*
X95250000Y-135255000D01*
X186690000Y-135255000D02*
X187325000Y-135890000D01*
X95250000Y-135890000D02*
X187325000Y-135890000D01*
X95250000Y-135255000D02*
X95250000Y-134620000D01*
X95250000Y-135255000D02*
X186690000Y-135255000D01*
X186055000Y-134620000D02*
X186690000Y-135255000D01*
X95250000Y-134620000D02*
X95250000Y-133985000D01*
X185420000Y-133985000D02*
X186055000Y-134620000D01*
X95250000Y-134620000D02*
X186055000Y-134620000D01*
X95250000Y-133985000D02*
X95250000Y-133350000D01*
X184785000Y-133350000D02*
X185420000Y-133985000D01*
X95250000Y-133985000D02*
X185420000Y-133985000D01*
X95250000Y-133350000D02*
X95250000Y-132715000D01*
X184150000Y-132715000D02*
X184785000Y-133350000D01*
X95250000Y-133350000D02*
X184785000Y-133350000D01*
X95250000Y-132715000D02*
X95250000Y-132080000D01*
X183515000Y-132080000D02*
X184150000Y-132715000D01*
X95250000Y-132715000D02*
X184150000Y-132715000D01*
X95250000Y-132080000D02*
X95250000Y-131445000D01*
X182880000Y-131445000D02*
X183515000Y-132080000D01*
X95250000Y-132080000D02*
X183515000Y-132080000D01*
X95250000Y-131445000D02*
X95250000Y-130810000D01*
X182245000Y-130810000D02*
X182880000Y-131445000D01*
X95250000Y-131445000D02*
X182880000Y-131445000D01*
X95250000Y-130810000D02*
X95250000Y-130175000D01*
X95250000Y-130810000D02*
X182245000Y-130810000D01*
X181610000Y-130175000D02*
X182245000Y-130810000D01*
X95250000Y-130175000D02*
X95250000Y-129540000D01*
X95250000Y-130175000D02*
X136525000Y-130175000D01*
X95250000Y-129540000D02*
X95250000Y-128905000D01*
X136525000Y-130175000D02*
X135890000Y-129540000D01*
X135890000Y-129540000D02*
X135255000Y-128905000D01*
X95250000Y-129540000D02*
X135890000Y-129540000D01*
X95250000Y-128905000D02*
X95250000Y-128270000D01*
X135255000Y-128905000D02*
X134620000Y-128270000D01*
X95250000Y-128905000D02*
X135255000Y-128905000D01*
X95250000Y-128270000D02*
X95250000Y-127635000D01*
X134620000Y-128270000D02*
X133985000Y-127635000D01*
X95250000Y-128270000D02*
X134620000Y-128270000D01*
X95250000Y-127635000D02*
X95250000Y-127000000D01*
X133985000Y-127635000D02*
X133350000Y-127000000D01*
X95250000Y-127635000D02*
X133985000Y-127635000D01*
X95250000Y-127000000D02*
X95250000Y-126365000D01*
X95250000Y-127000000D02*
X118745000Y-127000000D01*
X95250000Y-126365000D02*
X95250000Y-125730000D01*
X118745000Y-127000000D02*
X118110000Y-126365000D01*
X118110000Y-126365000D02*
X117475000Y-125730000D01*
X95250000Y-126365000D02*
X118110000Y-126365000D01*
X95250000Y-125730000D02*
X95250000Y-125095000D01*
X117475000Y-125730000D02*
X116840000Y-125095000D01*
X95250000Y-125730000D02*
X117475000Y-125730000D01*
X95250000Y-125095000D02*
X95250000Y-124460000D01*
X116840000Y-125095000D02*
X116205000Y-124460000D01*
X95250000Y-125095000D02*
X116840000Y-125095000D01*
X95250000Y-124460000D02*
X95250000Y-123825000D01*
X95250000Y-124460000D02*
X116205000Y-124460000D01*
X116205000Y-124460000D02*
X115570000Y-123825000D01*
X95250000Y-123825000D02*
X95250000Y-123190000D01*
X115570000Y-123825000D02*
X114935000Y-123190000D01*
X95250000Y-123825000D02*
X115570000Y-123825000D01*
X95250000Y-123190000D02*
X95250000Y-122555000D01*
X114935000Y-123190000D02*
X114300000Y-122555000D01*
X95250000Y-123190000D02*
X114935000Y-123190000D01*
X95250000Y-122555000D02*
X95250000Y-121920000D01*
X114300000Y-122555000D02*
X113665000Y-121920000D01*
X95250000Y-122555000D02*
X114300000Y-122555000D01*
X95250000Y-121920000D02*
X95250000Y-121285000D01*
X113665000Y-121920000D02*
X113030000Y-121285000D01*
X95250000Y-121920000D02*
X113665000Y-121920000D01*
X95250000Y-121285000D02*
X95250000Y-120650000D01*
X113030000Y-121285000D02*
X112395000Y-120650000D01*
X95250000Y-121285000D02*
X113030000Y-121285000D01*
X95250000Y-120650000D02*
X95250000Y-120015000D01*
X112395000Y-120650000D02*
X111760000Y-120015000D01*
X95250000Y-120650000D02*
X112395000Y-120650000D01*
X95250000Y-120015000D02*
X95250000Y-119380000D01*
X111760000Y-120015000D02*
X111125000Y-119380000D01*
X95250000Y-120015000D02*
X111760000Y-120015000D01*
X95250000Y-119380000D02*
X95250000Y-118745000D01*
X95250000Y-119380000D02*
X111125000Y-119380000D01*
X95250000Y-118745000D02*
X95250000Y-118110000D01*
X111125000Y-118745000D02*
X111125000Y-118110000D01*
X111125000Y-119380000D02*
X111125000Y-118745000D01*
X95250000Y-118745000D02*
X111125000Y-118745000D01*
X95250000Y-118110000D02*
X95250000Y-117475000D01*
X111125000Y-118110000D02*
X111125000Y-117475000D01*
X95250000Y-118110000D02*
X111125000Y-118110000D01*
X95250000Y-117475000D02*
X95250000Y-116840000D01*
X95250000Y-117475000D02*
X111125000Y-117475000D01*
X111125000Y-117475000D02*
X111125000Y-116840000D01*
X95250000Y-116840000D02*
X95250000Y-116205000D01*
X95250000Y-116840000D02*
X111125000Y-116840000D01*
X111125000Y-116840000D02*
X111125000Y-116205000D01*
X95250000Y-116205000D02*
X95250000Y-115570000D01*
X111125000Y-116205000D02*
X111125000Y-115570000D01*
X95250000Y-116205000D02*
X111125000Y-116205000D01*
X95250000Y-115570000D02*
X95250000Y-114935000D01*
X111125000Y-115570000D02*
X111125000Y-114935000D01*
X95250000Y-115570000D02*
X111125000Y-115570000D01*
X95250000Y-114935000D02*
X95250000Y-114300000D01*
X95250000Y-114935000D02*
X111125000Y-114935000D01*
X111125000Y-114935000D02*
X111125000Y-114300000D01*
X95250000Y-114300000D02*
X95250000Y-113665000D01*
X111125000Y-114300000D02*
X111125000Y-113665000D01*
X95250000Y-114300000D02*
X111125000Y-114300000D01*
X95250000Y-113665000D02*
X95250000Y-113030000D01*
X111125000Y-113665000D02*
X111125000Y-113030000D01*
X95250000Y-113665000D02*
X111125000Y-113665000D01*
X95250000Y-113030000D02*
X95250000Y-112395000D01*
X111125000Y-113030000D02*
X111125000Y-112395000D01*
X95250000Y-113030000D02*
X111125000Y-113030000D01*
X95250000Y-112395000D02*
X95250000Y-111760000D01*
X111125000Y-112395000D02*
X111125000Y-111760000D01*
X95250000Y-112395000D02*
X111125000Y-112395000D01*
X95250000Y-111760000D02*
X95250000Y-111125000D01*
X95250000Y-111760000D02*
X111125000Y-111760000D01*
X111125000Y-111760000D02*
X111125000Y-111252000D01*
X95250000Y-111125000D02*
X95250000Y-110490000D01*
X111125000Y-111252000D02*
X110998000Y-111125000D01*
X95250000Y-111125000D02*
X110998000Y-111125000D01*
X95250000Y-110490000D02*
X95250000Y-109855000D01*
X95250000Y-110490000D02*
X110363000Y-110490000D01*
X95250000Y-109855000D02*
X95250000Y-109220000D01*
X95250000Y-109855000D02*
X109728000Y-109855000D01*
X95250000Y-109220000D02*
X95250000Y-108585000D01*
X95250000Y-109220000D02*
X109093000Y-109220000D01*
X95250000Y-108585000D02*
X95250000Y-107950000D01*
X95250000Y-108585000D02*
X108458000Y-108585000D01*
X95250000Y-107950000D02*
X95250000Y-107315000D01*
X95250000Y-107950000D02*
X107823000Y-107950000D01*
X95250000Y-107315000D02*
X95250000Y-106680000D01*
X107188000Y-107315000D02*
X95250000Y-107315000D01*
X106553000Y-106680000D02*
X106426000Y-106553000D01*
X95250000Y-106680000D02*
X95250000Y-106045000D01*
X106553000Y-106680000D02*
X95250000Y-106680000D01*
X106426000Y-106045000D02*
X106426000Y-105410000D01*
X106426000Y-106045000D02*
X95250000Y-106045000D01*
X106426000Y-106553000D02*
X106426000Y-106045000D01*
X95250000Y-106045000D02*
X95250000Y-105410000D01*
X95250000Y-105410000D02*
X95250000Y-104775000D01*
X106426000Y-105410000D02*
X106426000Y-104775000D01*
X95250000Y-105410000D02*
X106426000Y-105410000D01*
X95250000Y-104775000D02*
X95250000Y-104140000D01*
X95250000Y-104775000D02*
X106426000Y-104775000D01*
X106426000Y-104775000D02*
X106426000Y-104521000D01*
X95250000Y-104140000D02*
X95250000Y-103505000D01*
X106426000Y-104521000D02*
X106045000Y-104140000D01*
X95250000Y-104140000D02*
X106045000Y-104140000D01*
X106045000Y-104140000D02*
X105410000Y-103505000D01*
X95250000Y-103505000D02*
X95250000Y-102870000D01*
X105410000Y-103505000D02*
X104775000Y-102870000D01*
X95250000Y-103505000D02*
X105410000Y-103505000D01*
X95250000Y-102870000D02*
X95250000Y-102235000D01*
X104775000Y-102870000D02*
X104140000Y-102235000D01*
X95250000Y-102870000D02*
X104775000Y-102870000D01*
X95250000Y-102235000D02*
X95250000Y-101600000D01*
X104140000Y-102235000D02*
X103505000Y-101600000D01*
X95250000Y-102235000D02*
X104140000Y-102235000D01*
X95250000Y-101600000D02*
X95250000Y-100965000D01*
X95250000Y-101600000D02*
X103505000Y-101600000D01*
X103505000Y-101600000D02*
X102870000Y-100965000D01*
D26*
X147828000Y-125957000D02*
X148170899Y-126299899D01*
X148170899Y-126299899D02*
X155342501Y-126299899D01*
X155342501Y-126299899D02*
X155558200Y-126084200D01*
X142798000Y-101596200D02*
X128992200Y-101596200D01*
X128992200Y-101596200D02*
X128380200Y-102208200D01*
X144890000Y-109320000D02*
X149716400Y-109320000D01*
X149716400Y-109320000D02*
X149970200Y-109066200D01*
X177529200Y-107034200D02*
X170671200Y-107034200D01*
X144890000Y-109320000D02*
X144890400Y-109320000D01*
X212073000Y-88492200D02*
X209533000Y-88492200D01*
X137778000Y-109320000D02*
X137016000Y-108558000D01*
X144890000Y-109320000D02*
X137778000Y-109320000D01*
G04 #@! TO.N,+BATT*
X163178200Y-126084200D02*
X166142800Y-126084200D01*
X166142800Y-126084200D02*
X166497000Y-125730000D01*
X205850000Y-68182000D02*
X205850000Y-84074000D01*
X181847000Y-118210000D02*
X199373000Y-118210000D01*
X199373000Y-118210000D02*
X207500800Y-110082200D01*
X207500800Y-110082200D02*
X207500800Y-85724800D01*
X207500800Y-85724800D02*
X205850000Y-84074000D01*
X203200000Y-65575000D02*
X203243000Y-65575000D01*
X203243000Y-65575000D02*
X205850000Y-68182000D01*
X156574200Y-126084200D02*
X155854200Y-126804200D01*
X155854200Y-126804200D02*
X146940200Y-126804200D01*
X163178200Y-126084200D02*
X156574200Y-126084200D01*
X146940200Y-126804200D02*
X145923000Y-127821400D01*
X145923000Y-127821400D02*
X144444100Y-127821400D01*
X144444100Y-127821400D02*
X142903800Y-126281100D01*
X142903800Y-126281100D02*
X142903800Y-121939500D01*
X142903800Y-121939500D02*
X142952700Y-121890600D01*
X142952700Y-121890600D02*
X142952700Y-118980100D01*
X142952700Y-118980100D02*
X139177100Y-115204500D01*
D28*
G04 #@! TO.N,+9V*
X196479000Y-73660000D02*
X203200000Y-73660000D01*
D29*
X196479000Y-75638400D02*
X196479000Y-73660000D01*
X185757000Y-86360000D02*
X196479000Y-75638400D01*
X181610000Y-86360000D02*
X185757000Y-86360000D01*
X196479000Y-71628000D02*
X196479000Y-73660000D01*
X185811000Y-60960000D02*
X196479000Y-71628000D01*
X181610000Y-60960000D02*
X185811000Y-60960000D01*
X196479000Y-73660000D02*
X181610000Y-73660000D01*
X120650000Y-60960000D02*
X107950000Y-60960000D01*
X138430000Y-60960000D02*
X120650000Y-60960000D01*
X151130000Y-60960000D02*
X138430000Y-60960000D01*
X168910000Y-60960000D02*
X151130000Y-60960000D01*
X181610000Y-60960000D02*
X168910000Y-60960000D01*
X168910000Y-86360000D02*
X181610000Y-86360000D01*
X151130000Y-86360000D02*
X168910000Y-86360000D01*
X138430000Y-86360000D02*
X151130000Y-86360000D01*
X120650000Y-86360000D02*
X138430000Y-86360000D01*
X107950000Y-86360000D02*
X120650000Y-86360000D01*
X120650000Y-73660000D02*
X107950000Y-73660000D01*
X138430000Y-73660000D02*
X120650000Y-73660000D01*
X151130000Y-73660000D02*
X138430000Y-73660000D01*
X168910000Y-73660000D02*
X151130000Y-73660000D01*
X181610000Y-73660000D02*
X168910000Y-73660000D01*
D26*
G04 #@! TO.N,+3V3*
X215900000Y-76200000D02*
X217407000Y-77707000D01*
X217407000Y-77707000D02*
X217407000Y-98144200D01*
X217407000Y-98144200D02*
X212073000Y-103478000D01*
X212073000Y-103478000D02*
X212073000Y-103478200D01*
X165464200Y-123290200D02*
X150605200Y-123290200D01*
X147430200Y-110844200D02*
X144746800Y-110844200D01*
X144746800Y-110844200D02*
X144517000Y-111074000D01*
X148446200Y-111860200D02*
X147430200Y-110844200D01*
X156828200Y-111860200D02*
X148446200Y-111860200D01*
D25*
G04 #@! TO.N,Net-(J3-Pad3)*
X209533000Y-91032200D02*
X212073000Y-91032200D01*
D30*
G04 #@! TO.N,LED1_R*
X171017400Y-84113500D02*
X180252500Y-84113500D01*
X180252500Y-84113500D02*
X181229000Y-85090000D01*
X181229000Y-85090000D02*
X181610000Y-85090000D01*
X121522200Y-101954200D02*
X125586200Y-97890200D01*
X132444200Y-97890200D02*
X139048200Y-91286200D01*
X125586200Y-97890200D02*
X132444200Y-97890200D01*
X139048200Y-91286200D02*
X148626500Y-91286200D01*
X148626500Y-91286200D02*
X153570200Y-96229900D01*
X153570200Y-96229900D02*
X153570200Y-96738800D01*
G04 #@! TO.N,LED1_G*
X181610000Y-87630000D02*
X181245000Y-87630000D01*
X181245000Y-87630000D02*
X179339900Y-89535100D01*
X179339900Y-89535100D02*
X173100900Y-89535100D01*
X173100900Y-89535100D02*
X168784700Y-93851300D01*
X168784700Y-99033200D02*
X166984100Y-100833800D01*
X168784700Y-93851300D02*
X168784700Y-99033200D01*
G04 #@! TO.N,LED1_B*
X183007000Y-93091000D02*
X183007000Y-98355192D01*
X183007000Y-98355192D02*
X183944464Y-99292656D01*
X181367410Y-91451410D02*
X183007000Y-93091000D01*
X181367410Y-89927590D02*
X181367410Y-91451410D01*
X181610000Y-88900000D02*
X181610000Y-89685000D01*
X181610000Y-89685000D02*
X181367410Y-89927590D01*
G04 #@! TO.N,LED2_R*
X167713600Y-58218300D02*
X171004300Y-58218300D01*
X171004300Y-58218300D02*
X171687200Y-58901200D01*
X107363200Y-43666700D02*
X153162000Y-43666700D01*
X167713600Y-58218300D02*
X153162000Y-43666700D01*
X123808200Y-110460190D02*
X112308990Y-110460190D01*
X104631200Y-100457000D02*
X104631200Y-94140600D01*
X104631200Y-94140600D02*
X102438600Y-91948000D01*
X112308990Y-110460190D02*
X107950000Y-106101200D01*
X107950000Y-106101200D02*
X107950000Y-103775800D01*
X107950000Y-103775800D02*
X104631200Y-100457000D01*
X102438600Y-91948000D02*
X102438600Y-48591300D01*
X102438600Y-48591300D02*
X107363200Y-43666700D01*
G04 #@! TO.N,LED2_G*
X178545200Y-87730200D02*
X177619000Y-88656400D01*
X177619000Y-88656400D02*
X173217600Y-88656400D01*
X164035700Y-100811200D02*
X162384700Y-99160200D01*
X173217600Y-88656400D02*
X168258200Y-93615800D01*
X168258200Y-93615800D02*
X168258200Y-98906200D01*
X168258200Y-98906200D02*
X167431700Y-99732700D01*
X167431700Y-99732700D02*
X165653700Y-99732700D01*
X165653700Y-99732700D02*
X164575200Y-100811200D01*
X164575200Y-100811200D02*
X164035700Y-100811200D01*
X162384700Y-99160200D02*
X155685200Y-99160200D01*
G04 #@! TO.N,LED2_B*
X181610000Y-76200000D02*
X181610000Y-78359000D01*
X181610000Y-78359000D02*
X186309000Y-83058000D01*
G04 #@! TO.N,LED3_R*
X170053000Y-58694100D02*
X167438500Y-58694100D01*
X181610000Y-59690000D02*
X171048900Y-59690000D01*
X171048900Y-59690000D02*
X170053000Y-58694100D01*
X107529200Y-44163600D02*
X152908000Y-44163600D01*
X167438500Y-58694100D02*
X152908000Y-44163600D01*
X112234700Y-109749000D02*
X108403700Y-105918000D01*
X105166000Y-100203000D02*
X105166000Y-93942400D01*
X108403700Y-105918000D02*
X108403700Y-103440700D01*
X108403700Y-103440700D02*
X105166000Y-100203000D01*
X124932600Y-109749000D02*
X112234700Y-109749000D01*
X105166000Y-93942400D02*
X102917600Y-91694000D01*
X102917600Y-91694000D02*
X102917600Y-48775200D01*
X102917600Y-48775200D02*
X107529200Y-44163600D01*
G04 #@! TO.N,LED3_G*
X184709100Y-95501800D02*
X184709100Y-99516514D01*
X184709100Y-99516514D02*
X184265057Y-99960557D01*
X165457000Y-103227000D02*
X164465000Y-102235000D01*
X184265057Y-99960557D02*
X183653557Y-99960557D01*
X183653557Y-99960557D02*
X181610000Y-97917000D01*
X163322000Y-102235000D02*
X162042000Y-100955000D01*
X181610000Y-97917000D02*
X181610000Y-93218000D01*
X172238800Y-91159200D02*
X169274200Y-94123800D01*
X169274200Y-94123800D02*
X169274200Y-100684200D01*
X181610000Y-93218000D02*
X179551200Y-91159200D01*
X179551200Y-91159200D02*
X172238800Y-91159200D01*
X154813000Y-100955000D02*
X152129200Y-98271200D01*
X169274200Y-100684200D02*
X166731400Y-103227000D01*
X166731400Y-103227000D02*
X165457000Y-103227000D01*
X164465000Y-102235000D02*
X163322000Y-102235000D01*
X162042000Y-100955000D02*
X154813000Y-100955000D01*
X184150000Y-71965900D02*
X180384700Y-68200600D01*
X180384700Y-68200600D02*
X180384700Y-62230000D01*
X181610000Y-62230000D02*
X180384700Y-62230000D01*
G04 #@! TO.N,LED3_B*
X181610000Y-68013200D02*
X184843800Y-71247000D01*
X181610000Y-63500000D02*
X181610000Y-68013200D01*
G04 #@! TO.N,LED4_R*
X107442000Y-106230100D02*
X112340000Y-111128100D01*
X104123200Y-94334200D02*
X104123200Y-100711000D01*
X107442000Y-106230100D02*
X107442000Y-104029800D01*
X107442000Y-104029800D02*
X104123200Y-100711000D01*
X181610000Y-46990000D02*
X180384700Y-46990000D01*
X180384700Y-46990000D02*
X176602700Y-43208000D01*
X176602700Y-43208000D02*
X107157500Y-43208000D01*
X107157500Y-43208000D02*
X101979600Y-48385900D01*
X112340000Y-111128100D02*
X125126900Y-111128100D01*
X101979600Y-48385900D02*
X101979600Y-92190600D01*
X101979600Y-92190600D02*
X104123200Y-94334200D01*
G04 #@! TO.N,LED5_R*
X168910000Y-85090000D02*
X167684700Y-85090000D01*
X121230400Y-98881000D02*
X121230400Y-94371600D01*
X121029400Y-99082000D02*
X121230400Y-98881000D01*
X145115700Y-84160000D02*
X138373000Y-77417300D01*
X162006300Y-84160000D02*
X145115700Y-84160000D01*
X163116100Y-85269800D02*
X162006300Y-84160000D01*
X167504900Y-85269800D02*
X163116100Y-85269800D01*
X167684700Y-85090000D02*
X167504900Y-85269800D01*
G04 #@! TO.N,LED5_G*
X167553400Y-87761300D02*
X167684700Y-87630000D01*
X161298900Y-87761300D02*
X167553400Y-87761300D01*
X168910000Y-87630000D02*
X167684700Y-87630000D01*
G04 #@! TO.N,LED5_B*
X182277910Y-97286066D02*
X182277910Y-93113910D01*
X176259200Y-90397200D02*
X179561200Y-90397200D01*
X179561200Y-90397200D02*
X182277910Y-93113910D01*
G04 #@! TO.N,LED6_R*
X116061200Y-89127200D02*
X113401300Y-89127200D01*
X113401300Y-89127200D02*
X112597500Y-88323400D01*
X120175800Y-93241800D02*
X116061200Y-89127200D01*
X120175800Y-98543900D02*
X120175800Y-93241800D01*
X107903600Y-69845000D02*
X141397600Y-69845000D01*
X106207500Y-71541100D02*
X107903600Y-69845000D01*
X106207500Y-79589700D02*
X106207500Y-71541100D01*
X110676800Y-84059000D02*
X106207500Y-79589700D01*
X111294600Y-84059000D02*
X110676800Y-84059000D01*
G04 #@! TO.N,LED6_B*
X175119700Y-76200000D02*
X168910000Y-76200000D01*
X183576500Y-84656800D02*
X175119700Y-76200000D01*
G04 #@! TO.N,LED7_R*
X106934000Y-106392300D02*
X106934000Y-104384000D01*
X103615200Y-101065200D02*
X103615200Y-97509200D01*
X103615200Y-97509200D02*
X103361200Y-97255200D01*
X106934000Y-104384000D02*
X103615200Y-101065200D01*
X112395000Y-111853300D02*
X106934000Y-106392300D01*
X126441737Y-109836945D02*
X126441737Y-110863763D01*
X126441737Y-110863763D02*
X125452200Y-111853300D01*
X125452200Y-111853300D02*
X112395000Y-111853300D01*
X152892900Y-44898200D02*
X112290700Y-44898200D01*
X167684700Y-59690000D02*
X152892900Y-44898200D01*
X168910000Y-59690000D02*
X167684700Y-59690000D01*
G04 #@! TO.N,LED7_G*
X167232900Y-62230000D02*
X168910000Y-62230000D01*
X156945500Y-72517400D02*
X167232900Y-62230000D01*
G04 #@! TO.N,LED7_B*
X177307700Y-70672400D02*
X170135300Y-63500000D01*
X179641500Y-70672400D02*
X177307700Y-70672400D01*
X168910000Y-63500000D02*
X170135300Y-63500000D01*
G04 #@! TO.N,LED8_R*
X111235200Y-107669200D02*
X112809300Y-109243300D01*
X112809300Y-109243300D02*
X120880700Y-109243300D01*
X120880700Y-109243300D02*
X121046700Y-109077300D01*
X121046700Y-109077300D02*
X126873000Y-109077300D01*
X126873000Y-109077300D02*
X126873000Y-109083000D01*
X126873000Y-109083000D02*
X127237200Y-109447200D01*
G04 #@! TO.N,LED8_G*
X155528600Y-87296200D02*
X154590500Y-88234300D01*
X160040900Y-87296200D02*
X155528600Y-87296200D01*
X160283300Y-87538600D02*
X160040900Y-87296200D01*
G04 #@! TO.N,LED8_B*
X176413000Y-50800000D02*
X184033000Y-58420000D01*
X182118000Y-90678000D02*
X185166000Y-87630000D01*
X185166000Y-87630000D02*
X186070100Y-87630000D01*
X168910000Y-50800000D02*
X176413000Y-50800000D01*
G04 #@! TO.N,LED9_R*
X149697800Y-84883100D02*
X149904700Y-85090000D01*
X146484100Y-84883100D02*
X149697800Y-84883100D01*
X151130000Y-85090000D02*
X149904700Y-85090000D01*
G04 #@! TO.N,LED9_G*
X153630100Y-87807500D02*
X152532800Y-87807500D01*
X152532800Y-87807500D02*
X152355300Y-87630000D01*
X151130000Y-87630000D02*
X152355300Y-87630000D01*
G04 #@! TO.N,LED9_B*
X177402200Y-87730200D02*
X173391300Y-87730200D01*
X173391300Y-87730200D02*
X171352200Y-89769300D01*
X171352200Y-89769300D02*
X161463600Y-89769300D01*
X161463600Y-89769300D02*
X159468000Y-87773700D01*
X159468000Y-87773700D02*
X155996200Y-87773700D01*
X155996200Y-87773700D02*
X154867400Y-88902500D01*
X154867400Y-88902500D02*
X152357800Y-88902500D01*
X152357800Y-88902500D02*
X152355300Y-88900000D01*
X152355300Y-88900000D02*
X151130000Y-88900000D01*
G04 #@! TO.N,LED10_R*
X148801400Y-71286700D02*
X149904700Y-72390000D01*
X145183700Y-71286700D02*
X148801400Y-71286700D01*
X151130000Y-72390000D02*
X149904700Y-72390000D01*
G04 #@! TO.N,LED10_B*
X157407700Y-76200000D02*
X152355300Y-76200000D01*
X164444900Y-83237200D02*
X157407700Y-76200000D01*
X151130000Y-76200000D02*
X152355300Y-76200000D01*
G04 #@! TO.N,LED11_B*
X162393500Y-76180300D02*
X162393500Y-75381900D01*
X168923600Y-82710400D02*
X162393500Y-76180300D01*
G04 #@! TO.N,LED12_R*
X115680200Y-90778200D02*
X113013200Y-90778200D01*
X113013200Y-90778200D02*
X112191100Y-89956100D01*
X107403200Y-89956100D02*
X112191100Y-89956100D01*
X105256200Y-62682300D02*
X105846200Y-62092300D01*
X105256200Y-87809100D02*
X105256200Y-62682300D01*
X107403200Y-89956100D02*
X105256200Y-87809100D01*
G04 #@! TO.N,LED12_G*
X136405900Y-78096000D02*
X136405900Y-75419100D01*
X139407300Y-81097400D02*
X136405900Y-78096000D01*
X139407300Y-83131000D02*
X139407300Y-81097400D01*
G04 #@! TO.N,LED12_B*
X170921500Y-84962600D02*
X171923100Y-84962600D01*
X170123400Y-84164500D02*
X170921500Y-84962600D01*
X164365500Y-84164500D02*
X170123400Y-84164500D01*
X159095100Y-78894100D02*
X164365500Y-84164500D01*
X145595900Y-78894100D02*
X159095100Y-78894100D01*
X141555500Y-74853700D02*
X145595900Y-78894100D01*
G04 #@! TO.N,LED13_R*
X137541000Y-83402700D02*
X137927900Y-83015800D01*
X137541000Y-84572000D02*
X137541000Y-83402700D01*
X138059000Y-85090000D02*
X137541000Y-84572000D01*
X138430000Y-85090000D02*
X138059000Y-85090000D01*
X131608200Y-76361300D02*
X131500300Y-76361300D01*
X135505000Y-80258100D02*
X131608200Y-76361300D01*
X135505000Y-80275700D02*
X135505000Y-80258100D01*
X137065200Y-81835900D02*
X135505000Y-80275700D01*
X137411000Y-81835900D02*
X137065200Y-81835900D01*
X137927900Y-82352800D02*
X137411000Y-81835900D01*
X137927900Y-83015800D02*
X137927900Y-82352800D01*
G04 #@! TO.N,LED13_G*
X141080200Y-87730200D02*
X138530200Y-87730200D01*
X138530200Y-87730200D02*
X138430000Y-87630000D01*
G04 #@! TO.N,LED13_B*
X155519200Y-96143700D02*
X155176301Y-95800801D01*
X155176301Y-95800801D02*
X155176301Y-95630807D01*
X155176301Y-95630807D02*
X148445494Y-88900000D01*
X148445494Y-88900000D02*
X138430000Y-88900000D01*
X138795000Y-88900000D02*
X138430000Y-88900000D01*
G04 #@! TO.N,LED14_R*
X138430000Y-72390000D02*
X137204700Y-72390000D01*
X136344400Y-71529700D02*
X137204700Y-72390000D01*
X106905400Y-71529700D02*
X136344400Y-71529700D01*
X106657900Y-71777200D02*
X106905400Y-71529700D01*
X106657900Y-79037800D02*
X106657900Y-71777200D01*
X109896100Y-82276000D02*
X106657900Y-79037800D01*
G04 #@! TO.N,LED14_G*
X137204700Y-77360300D02*
X137204700Y-74930000D01*
X140507600Y-80663200D02*
X137204700Y-77360300D01*
X140507600Y-85154300D02*
X140507600Y-80663200D01*
X138430000Y-74930000D02*
X137204700Y-74930000D01*
G04 #@! TO.N,LED14_B*
X165210200Y-95477200D02*
X160561095Y-90828095D01*
X160561095Y-90828095D02*
X160561095Y-90474334D01*
X147164900Y-83709600D02*
X139655300Y-76200000D01*
X162540300Y-83709600D02*
X147164900Y-83709600D01*
X163370500Y-84539800D02*
X162540300Y-83709600D01*
X138430000Y-76200000D02*
X139655300Y-76200000D01*
G04 #@! TO.N,LED15_R*
X123194500Y-84229600D02*
X123202600Y-84237700D01*
X112718000Y-84229600D02*
X123194500Y-84229600D01*
X112324200Y-84623400D02*
X112718000Y-84229600D01*
X138430000Y-59690000D02*
X137204700Y-59690000D01*
X123521400Y-59690000D02*
X123444200Y-59767200D01*
X137204700Y-59690000D02*
X123521400Y-59690000D01*
G04 #@! TO.N,LED15_G*
X134386500Y-82518400D02*
X134386500Y-80721600D01*
X136553600Y-84685500D02*
X134386500Y-82518400D01*
X134765400Y-64669300D02*
X137204700Y-62230000D01*
X134765400Y-67531700D02*
X134765400Y-64669300D01*
X138430000Y-62230000D02*
X137204700Y-62230000D01*
G04 #@! TO.N,LED15_B*
X156378600Y-89479800D02*
X162814900Y-95916100D01*
X156378600Y-88515500D02*
X156378600Y-89479800D01*
X145415500Y-63500000D02*
X153134300Y-71218800D01*
X138430000Y-63500000D02*
X145415500Y-63500000D01*
G04 #@! TO.N,LED16_R*
X105791000Y-93716000D02*
X105791000Y-100076000D01*
X109329900Y-96530200D02*
X109329900Y-99032900D01*
X109329900Y-99032900D02*
X109533700Y-99236700D01*
X109533700Y-99236700D02*
X109533700Y-99845700D01*
X109533700Y-99845700D02*
X108822200Y-100557200D01*
X108822200Y-100557200D02*
X106272200Y-100557200D01*
X106272200Y-100557200D02*
X105791000Y-100076000D01*
X103388000Y-91313000D02*
X105791000Y-93716000D01*
X103386200Y-48949700D02*
X103386200Y-91313000D01*
X103386200Y-91313000D02*
X103388000Y-91313000D01*
X138430000Y-46990000D02*
X137204700Y-46990000D01*
X106703100Y-45632800D02*
X103386200Y-48949700D01*
X135847500Y-45632800D02*
X106703100Y-45632800D01*
X137204700Y-46990000D02*
X135847500Y-45632800D01*
G04 #@! TO.N,LED16_G*
X138378300Y-83510400D02*
X138278000Y-83610700D01*
X138378300Y-80705300D02*
X138378300Y-83510400D01*
X135607000Y-77934000D02*
X138378300Y-80705300D01*
G04 #@! TO.N,LED16_B*
X155376400Y-89672600D02*
X162433000Y-96729200D01*
X148516700Y-67584800D02*
X139517800Y-67584800D01*
X153454700Y-72522800D02*
X148516700Y-67584800D01*
G04 #@! TO.N,LED17_G*
X124117700Y-94027900D02*
X126489300Y-94027900D01*
X119424700Y-89334900D02*
X124117700Y-94027900D01*
X119424700Y-87630000D02*
X119424700Y-89334900D01*
X120650000Y-87630000D02*
X119424700Y-87630000D01*
G04 #@! TO.N,LED17_B*
X155321000Y-97022700D02*
X154785500Y-96487200D01*
X154785500Y-96487200D02*
X154785500Y-96171400D01*
X120650000Y-88900000D02*
X121875300Y-88900000D01*
X122139200Y-88636100D02*
X121875300Y-88900000D01*
X125261800Y-88636100D02*
X122139200Y-88636100D01*
X125261800Y-88636000D02*
X125261800Y-88636100D01*
X125690200Y-88207600D02*
X125261800Y-88636000D01*
X126243900Y-88207600D02*
X125690200Y-88207600D01*
X128306500Y-90270200D02*
X126243900Y-88207600D01*
X148884300Y-90270200D02*
X128306500Y-90270200D01*
X154785500Y-96171400D02*
X148884300Y-90270200D01*
G04 #@! TO.N,LED18_R*
X114189200Y-76438400D02*
X114189200Y-75107500D01*
X109880300Y-80747300D02*
X114189200Y-76438400D01*
G04 #@! TO.N,LED18_G*
X124300000Y-74930000D02*
X134650800Y-85280800D01*
X120650000Y-74930000D02*
X124300000Y-74930000D01*
G04 #@! TO.N,LED18_B*
X158369000Y-98038800D02*
X148712900Y-88382700D01*
X148712900Y-88382700D02*
X148712900Y-88043700D01*
X132608700Y-77998700D02*
X129811700Y-77998700D01*
X135054700Y-80444700D02*
X132608700Y-77998700D01*
X135054700Y-80500800D02*
X135054700Y-80444700D01*
X137257200Y-82703300D02*
X135054700Y-80500800D01*
G04 #@! TO.N,LED19_R*
X104775100Y-89126200D02*
X104775100Y-89779100D01*
X104775100Y-89779100D02*
X107171200Y-92175200D01*
X120650000Y-59690000D02*
X119424700Y-59690000D01*
X104775100Y-60916000D02*
X104775100Y-89126200D01*
X106861400Y-58829700D02*
X104775100Y-60916000D01*
X118564400Y-58829700D02*
X106861400Y-58829700D01*
X119424700Y-59690000D02*
X118564400Y-58829700D01*
G04 #@! TO.N,LED19_G*
X131191000Y-95763800D02*
X125138000Y-89710800D01*
G04 #@! TO.N,LED19_B*
X120650000Y-63500000D02*
X121875300Y-63500000D01*
X145028900Y-68593200D02*
X146952900Y-70517200D01*
X126968500Y-68593200D02*
X145028900Y-68593200D01*
X121875300Y-63500000D02*
X126968500Y-68593200D01*
X157864500Y-89084900D02*
X167492500Y-98712900D01*
G04 #@! TO.N,LED20_R*
X120650000Y-46990000D02*
X119424700Y-46990000D01*
X103843700Y-90681300D02*
X104062600Y-90900200D01*
X103843700Y-49129100D02*
X103843700Y-90681300D01*
X106843100Y-46129700D02*
X103843700Y-49129100D01*
X118564400Y-46129700D02*
X106843100Y-46129700D01*
X119424700Y-46990000D02*
X118564400Y-46129700D01*
G04 #@! TO.N,LED20_G*
X126523099Y-89218699D02*
X132080000Y-94775600D01*
X132063200Y-96493200D02*
X132063200Y-94792400D01*
X132063200Y-94792400D02*
X132080000Y-94775600D01*
X125967000Y-88875800D02*
X126309899Y-89218699D01*
X126309899Y-89218699D02*
X126523099Y-89218699D01*
G04 #@! TO.N,LED20_B*
X157554600Y-88416600D02*
X158528900Y-88416600D01*
X158528900Y-88416600D02*
X158571500Y-88459200D01*
X157149400Y-88821800D02*
X157554600Y-88416600D01*
X157149400Y-89339600D02*
X157149400Y-88821800D01*
X163057700Y-95247900D02*
X157149400Y-89339600D01*
X163091800Y-95247900D02*
X163057700Y-95247900D01*
X166182400Y-98338500D02*
X163091800Y-95247900D01*
X166182400Y-98994000D02*
X166182400Y-98338500D01*
X145632800Y-52025300D02*
X153014700Y-59407200D01*
X123100600Y-52025300D02*
X145632800Y-52025300D01*
X121875300Y-50800000D02*
X123100600Y-52025300D01*
X120650000Y-50800000D02*
X121875300Y-50800000D01*
G04 #@! TO.N,LED21_R*
X108848400Y-99508000D02*
X107933200Y-98592800D01*
X107933200Y-98592800D02*
X107933200Y-91327065D01*
X107933200Y-91327065D02*
X107730484Y-91124349D01*
X107730484Y-91124349D02*
X107730484Y-90639416D01*
G04 #@! TO.N,LED21_G*
X116596000Y-87630000D02*
X107950000Y-87630000D01*
X125205200Y-94715200D02*
X123681200Y-94715200D01*
X123681200Y-94715200D02*
X116596000Y-87630000D01*
G04 #@! TO.N,LED21_B*
X119463700Y-93545700D02*
X119463700Y-98808200D01*
X112084000Y-88900000D02*
X112903000Y-89719000D01*
X119463700Y-93545700D02*
X115637000Y-89719000D01*
X115637000Y-89719000D02*
X112903000Y-89719000D01*
X122782200Y-99822000D02*
X125349000Y-97255200D01*
X125349000Y-97255200D02*
X132334000Y-97255200D01*
X107950000Y-88900000D02*
X112084000Y-88900000D01*
X119463700Y-98808200D02*
X120477500Y-99822000D01*
X120477500Y-99822000D02*
X122782200Y-99822000D01*
X138794200Y-90778200D02*
X148755400Y-90778200D01*
X148755400Y-90778200D02*
X154335200Y-96358000D01*
X132334000Y-97255200D02*
X132334000Y-97238400D01*
X132334000Y-97238400D02*
X138794200Y-90778200D01*
X154335200Y-96358000D02*
X154335200Y-97248900D01*
X154335200Y-97248900D02*
X155305800Y-98219500D01*
G04 #@! TO.N,LED22_G*
X122962400Y-89328600D02*
X129904200Y-96270400D01*
X129904200Y-96270400D02*
X129904200Y-96493200D01*
G04 #@! TO.N,LED22_B*
X148076240Y-89567910D02*
X148005490Y-89567910D01*
X148005490Y-89567910D02*
X147753600Y-89819800D01*
X147753600Y-89819800D02*
X130811800Y-89819800D01*
X130811800Y-89819800D02*
X128653500Y-87661500D01*
X128653500Y-87661500D02*
X123121900Y-87661500D01*
X152273000Y-96891000D02*
X148827200Y-93445200D01*
X148827200Y-93445200D02*
X148827200Y-92556200D01*
X152273000Y-97350800D02*
X152273000Y-96891000D01*
X155379200Y-100457000D02*
X152273000Y-97350800D01*
X165735000Y-102733000D02*
X166235500Y-102733000D01*
X166235500Y-102733000D02*
X168117300Y-100851200D01*
X162272400Y-100457000D02*
X163576000Y-101760600D01*
X165735000Y-102733000D02*
X164762600Y-101760600D01*
X164762600Y-101760600D02*
X163576000Y-101760600D01*
X155379200Y-100457000D02*
X162272400Y-100457000D01*
G04 #@! TO.N,LED23_G*
X114410200Y-88365200D02*
X116315200Y-88365200D01*
X116315200Y-88365200D02*
X123427200Y-95477200D01*
X123427200Y-95477200D02*
X124697200Y-95477200D01*
X107950000Y-62230000D02*
X106724700Y-62230000D01*
X114256300Y-85308200D02*
X114321700Y-85242800D01*
X111264400Y-85308200D02*
X114256300Y-85308200D01*
X105755700Y-79799500D02*
X111264400Y-85308200D01*
X105755700Y-63199000D02*
X105755700Y-79799500D01*
X106724700Y-62230000D02*
X105755700Y-63199000D01*
G04 #@! TO.N,LED23_B*
X164321200Y-100049200D02*
X153956500Y-89684500D01*
X153956500Y-89684500D02*
X152340000Y-89684500D01*
X164321200Y-100049200D02*
X164338000Y-100032400D01*
X107950000Y-63500000D02*
X109175300Y-63500000D01*
X114852100Y-69176800D02*
X109175300Y-63500000D01*
X141674500Y-69176800D02*
X114852100Y-69176800D01*
X144725600Y-72227900D02*
X141674500Y-69176800D01*
X146898000Y-72227900D02*
X144725600Y-72227900D01*
G04 #@! TO.N,LED24_R*
X106515900Y-99822000D02*
X106515900Y-92310600D01*
X104311100Y-49403600D02*
X106724700Y-46990000D01*
X104311100Y-90105800D02*
X104311100Y-49403600D01*
X106515900Y-92310600D02*
X104311100Y-90105800D01*
X107950000Y-46990000D02*
X106724700Y-46990000D01*
G04 #@! TO.N,LED24_G*
X128800100Y-78246700D02*
X128800100Y-77021600D01*
X134739200Y-84185800D02*
X128800100Y-78246700D01*
G04 #@! TO.N,LED24_B*
X155508100Y-99949000D02*
X152781000Y-97221900D01*
X152781000Y-97221900D02*
X152781000Y-96385800D01*
X152781000Y-96385800D02*
X149582000Y-93186800D01*
X165315100Y-101266200D02*
X165955000Y-101906100D01*
X162512800Y-99949000D02*
X163830000Y-101266200D01*
X163830000Y-101266200D02*
X165315100Y-101266200D01*
X155508100Y-99949000D02*
X162512800Y-99949000D01*
X131849000Y-75674600D02*
X137342000Y-81167600D01*
X127657200Y-75674600D02*
X131849000Y-75674600D01*
D25*
G04 #@! TO.N,/MCU/USART1_TX*
X180848000Y-113030000D02*
X179705000Y-111887000D01*
X170076000Y-111887000D02*
X164914811Y-117048189D01*
X179705000Y-111887000D02*
X170076000Y-111887000D01*
X164914811Y-117048189D02*
X154460596Y-117048189D01*
X154460596Y-117048189D02*
X153209980Y-118298805D01*
X212073000Y-108558200D02*
X204453200Y-116178000D01*
X204453200Y-116178000D02*
X204453200Y-116178200D01*
G04 #@! TO.N,BOOT0*
X168402000Y-111606000D02*
X159385200Y-111606000D01*
X192896000Y-109701000D02*
X192006800Y-110590200D01*
X192006800Y-110590200D02*
X169417800Y-110590200D01*
X169417800Y-110590200D02*
X168402000Y-111606000D01*
X148296133Y-112622200D02*
X158369000Y-112622200D01*
X159385200Y-111606000D02*
X158369000Y-112622200D01*
X146795000Y-111606000D02*
X147279933Y-111606000D01*
X147279933Y-111606000D02*
X148296133Y-112622200D01*
X197722000Y-104875000D02*
X192896000Y-109701000D01*
X200008000Y-104875000D02*
X197722000Y-104875000D01*
G04 #@! TO.N,/MCU/USART1_RX*
X164553300Y-116440300D02*
X153886182Y-116440300D01*
X190027800Y-111321600D02*
X169672000Y-111321600D01*
X164553300Y-116440300D02*
X169672000Y-111321600D01*
X153886182Y-116440300D02*
X152825884Y-117500598D01*
G04 #@! TO.N,BEEP*
X204072000Y-100076000D02*
X206739000Y-102743000D01*
X194437000Y-96139000D02*
X198374000Y-100076000D01*
X198374000Y-100076000D02*
X204072000Y-100076000D01*
X206739000Y-102743000D02*
X206739000Y-109701400D01*
X198965400Y-117475000D02*
X181312000Y-117475000D01*
X158369000Y-121766000D02*
X151494000Y-121766000D01*
X181312000Y-117475000D02*
X177656000Y-121131000D01*
X177656000Y-121131000D02*
X159004000Y-121131000D01*
X159004000Y-121131000D02*
X158369000Y-121766000D01*
X206739000Y-109701400D02*
X198965400Y-117475000D01*
G04 #@! TO.N,LED1*
X183498000Y-124560000D02*
X148827000Y-124560000D01*
G04 #@! TO.N,LED0*
X181847200Y-124052200D02*
X181847200Y-124051800D01*
X181847200Y-124051800D02*
X183498000Y-122401000D01*
X148590000Y-123908000D02*
X147684000Y-124814000D01*
X149335200Y-124052200D02*
X149191000Y-123908000D01*
X149191000Y-123908000D02*
X148590000Y-123908000D01*
X181847200Y-124052200D02*
X149335200Y-124052200D01*
X183498000Y-119480000D02*
X183498000Y-122401000D01*
G04 #@! TO.N,/MCU/USART2_MODE*
X143989989Y-129266989D02*
X146406411Y-129266989D01*
X167767000Y-126719200D02*
X185911200Y-126719200D01*
X140886800Y-124318700D02*
X140478400Y-124727100D01*
X140478400Y-124727100D02*
X140478400Y-125755400D01*
X140478400Y-125755400D02*
X143989989Y-129266989D01*
X146406411Y-129266989D02*
X147322211Y-128351189D01*
X147322211Y-128351189D02*
X156337000Y-128351189D01*
X156337000Y-128351189D02*
X157053189Y-127635000D01*
X157053189Y-127635000D02*
X166851200Y-127635000D01*
X166851200Y-127635000D02*
X167767000Y-126719200D01*
X209042000Y-110446400D02*
X209042000Y-98127400D01*
X199771000Y-119717400D02*
X209042000Y-110446400D01*
X209042000Y-98127400D02*
X209406200Y-97763200D01*
X185911200Y-126719200D02*
X192913000Y-119717400D01*
X192913000Y-119717400D02*
X199771000Y-119717400D01*
X200635290Y-92914133D02*
X200635290Y-92429200D01*
X200635290Y-95342290D02*
X200635290Y-92914133D01*
X203056200Y-97763200D02*
X200635290Y-95342290D01*
X204326200Y-97763200D02*
X203056200Y-97763200D01*
G04 #@! TO.N,/MCU/USART2_TX*
X186038200Y-127227200D02*
X167894000Y-127227200D01*
X142259500Y-121603400D02*
X142100600Y-121603400D01*
X142100600Y-121603400D02*
X140063700Y-123640300D01*
X140063700Y-123640300D02*
X140063700Y-125906900D01*
X140063700Y-125906900D02*
X143823800Y-129667000D01*
X143823800Y-129667000D02*
X146641400Y-129667000D01*
X146641400Y-129667000D02*
X147557200Y-128751200D01*
X156591000Y-128751200D02*
X157242800Y-128099400D01*
X157242800Y-128099400D02*
X167021800Y-128099400D01*
X147557200Y-128751200D02*
X156591000Y-128751200D01*
X167021800Y-128099400D02*
X167894000Y-127227200D01*
X190102200Y-123163200D02*
X186038200Y-127227200D01*
X199500200Y-123163200D02*
X190102200Y-123163200D01*
X202675200Y-98525200D02*
X203691200Y-98525200D01*
X202675200Y-98525200D02*
X199373200Y-95223200D01*
G04 #@! TO.N,/MCU/USART2_RX*
X185784200Y-126211200D02*
X167640000Y-126211200D01*
X147176200Y-127862200D02*
X156210000Y-127862200D01*
X156210000Y-127862200D02*
X156860696Y-127211504D01*
X156860696Y-127211504D02*
X166639696Y-127211504D01*
X141121600Y-125362700D02*
X141121600Y-125768900D01*
X141121600Y-125768900D02*
X144130700Y-128778000D01*
X144130700Y-128778000D02*
X146260400Y-128778000D01*
X146260400Y-128778000D02*
X147176200Y-127862200D01*
X166639696Y-127211504D02*
X167640000Y-126211200D01*
X208771200Y-97486133D02*
X208771200Y-97001200D01*
X208559700Y-97697633D02*
X208771200Y-97486133D01*
X192742400Y-119253000D02*
X185784200Y-126211200D01*
X208559700Y-110363000D02*
X199669700Y-119253000D01*
X208559700Y-110363000D02*
X208559700Y-97697633D01*
X199669700Y-119253000D02*
X192742400Y-119253000D01*
X201278200Y-94715200D02*
X203564200Y-97001200D01*
X203564200Y-97001200D02*
X205977200Y-97001200D01*
X201278200Y-91921200D02*
X201278200Y-94715200D01*
X201240099Y-91883099D02*
X201278200Y-91921200D01*
X200897200Y-91540200D02*
X201240099Y-91883099D01*
G04 #@! TO.N,/MCU/I2C1_SCL*
X171958000Y-120115000D02*
X158479000Y-120115000D01*
X179180000Y-117238000D02*
X178816000Y-117602000D01*
X179180000Y-115670000D02*
X179180000Y-117238000D01*
X178816000Y-117602000D02*
X174471000Y-117602000D01*
X174471000Y-117602000D02*
X171958000Y-120115000D01*
X146795000Y-116963000D02*
X149947000Y-120115000D01*
X149947000Y-120115000D02*
X157209000Y-120115000D01*
X157209000Y-120115000D02*
X157844000Y-119480000D01*
X158479000Y-120115000D02*
X157844000Y-119480000D01*
G04 #@! TO.N,/MCU/I2C1_SDA*
X178418000Y-116940000D02*
X174498000Y-116940000D01*
X157844000Y-118210000D02*
X159241000Y-119607000D01*
X159241000Y-119607000D02*
X171831000Y-119607000D01*
X171831000Y-119607000D02*
X174498000Y-116940000D01*
X145923000Y-116205000D02*
X146949000Y-116205000D01*
X146949000Y-116205000D02*
X150351000Y-119607000D01*
X150351000Y-119607000D02*
X156447000Y-119607000D01*
X156447000Y-119607000D02*
X157844000Y-118210000D01*
G04 #@! TO.N,SOUT1_SIN2*
X119380000Y-107796000D02*
X150732000Y-107796000D01*
X109965000Y-106272000D02*
X110600200Y-106907200D01*
X110600200Y-106907200D02*
X118491200Y-106907200D01*
X118491200Y-106907200D02*
X119380000Y-107796000D01*
G04 #@! TO.N,SOUT2_SIN3*
X178672000Y-107034000D02*
X177910000Y-107796000D01*
X177910000Y-107796000D02*
X151748000Y-107796000D01*
X151748000Y-107796000D02*
X150986000Y-108558000D01*
X150986000Y-108558000D02*
X150413496Y-108558000D01*
X150413496Y-108558000D02*
X150070597Y-108215101D01*
X150070597Y-108215101D02*
X149805299Y-108215101D01*
X149805299Y-108215101D02*
X149462400Y-108558000D01*
X149462400Y-108558000D02*
X142985000Y-108558000D01*
X139937000Y-102589000D02*
X139937000Y-104748000D01*
G04 #@! TO.N,Net-(J3-Pad5)*
X212073000Y-93572200D02*
X209533000Y-93572200D01*
G04 #@! TO.N,ADC_IN*
X167513000Y-125730000D02*
X185674000Y-125730000D01*
X156672189Y-126746000D02*
X166497000Y-126746000D01*
X141800900Y-122813800D02*
X141800900Y-125875300D01*
X166497000Y-126746000D02*
X167513000Y-125730000D01*
X141800900Y-125875300D02*
X144257109Y-128331509D01*
X144257109Y-128331509D02*
X146141191Y-128331509D01*
X146141191Y-128331509D02*
X147010511Y-127462189D01*
X147010511Y-127462189D02*
X155956000Y-127462189D01*
X155956000Y-127462189D02*
X156672189Y-126746000D01*
X214630000Y-78740000D02*
X215900000Y-78740000D01*
X192622000Y-118782000D02*
X199478900Y-118782000D01*
X185674000Y-125730000D02*
X192622000Y-118782000D01*
X199478900Y-118782000D02*
X208097899Y-110163001D01*
X208097899Y-110163001D02*
X208097899Y-85272101D01*
X208097899Y-85272101D02*
X214630000Y-78740000D01*
D27*
G04 #@! TO.N,G5_K2*
X143620000Y-125957000D02*
X143620000Y-123671000D01*
X147303000Y-119988000D02*
X148192000Y-119988000D01*
X143620000Y-123671000D02*
X147303000Y-119988000D01*
G04 #@! TO.N,G5_K3*
X145652000Y-122528000D02*
X147430000Y-120750000D01*
X145652000Y-127100000D02*
X145652000Y-122528000D01*
D25*
G04 #@! TO.N,LED2*
X152129000Y-125322000D02*
X152129400Y-125322000D01*
X183879200Y-125322200D02*
X184133999Y-125067401D01*
X184133999Y-125067401D02*
X185396189Y-125067401D01*
X152129400Y-125322000D02*
X152383200Y-125068200D01*
X152383200Y-125068200D02*
X182990200Y-125068200D01*
X182990200Y-125068200D02*
X183244200Y-125322200D01*
X183244200Y-125322200D02*
X183879200Y-125322200D01*
G04 #@! TO.N,Net-(LED25-Pad1)*
X190610000Y-127100000D02*
X188578400Y-127100000D01*
X188578400Y-127100000D02*
X188578200Y-127100200D01*
G04 #@! TO.N,/MCU/RESET*
X191599000Y-112014000D02*
X193912000Y-109701000D01*
X178181000Y-118872000D02*
X185039000Y-112014000D01*
X185039000Y-112014000D02*
X191599000Y-112014000D01*
X176276000Y-118872000D02*
X178181000Y-118872000D01*
X175387000Y-120623000D02*
X176276000Y-119734000D01*
X176276000Y-119734000D02*
X176276000Y-118872000D01*
X149843000Y-120623000D02*
X175387000Y-120623000D01*
X144255200Y-115797200D02*
X147684200Y-119226200D01*
X147684200Y-119226200D02*
X148446200Y-119226200D01*
X148446200Y-119226200D02*
X149843000Y-120623000D01*
G04 #@! TO.N,Net-(P1-Pad2)*
X197764300Y-101501900D02*
X203606600Y-101501900D01*
X190317500Y-108948700D02*
X197764300Y-101501900D01*
X159048300Y-108948700D02*
X190317500Y-108948700D01*
G04 #@! TO.N,Net-(P1-Pad4)*
X204266500Y-102047900D02*
X203828000Y-102486400D01*
X204266500Y-101156500D02*
X204266500Y-102047900D01*
X203870400Y-100760400D02*
X204266500Y-101156500D01*
X197399700Y-100760400D02*
X203870400Y-100760400D01*
X189963700Y-108196400D02*
X197399700Y-100760400D01*
X156582700Y-108196400D02*
X189963700Y-108196400D01*
X155806900Y-108972200D02*
X156582700Y-108196400D01*
G04 #@! TO.N,/Display/BLANK*
X179688000Y-105510000D02*
X149327000Y-105510000D01*
X118855000Y-105510000D02*
X121268000Y-105510000D01*
X121268000Y-105510000D02*
X149327000Y-105510000D01*
G04 #@! TO.N,/Display/CURRENT_LOW*
X128735000Y-114260000D02*
X127298000Y-115697000D01*
X136635000Y-113130000D02*
X135506000Y-114260000D01*
X135506000Y-114260000D02*
X128735000Y-114260000D01*
X159766000Y-114019000D02*
X150986000Y-114019000D01*
X147303000Y-113130000D02*
X143849098Y-113130000D01*
X150986000Y-114019000D02*
X149589000Y-115416000D01*
X149589000Y-115416000D02*
X147303000Y-113130000D01*
G04 #@! TO.N,/Display/CURRENT_HIGH*
X159766000Y-113130000D02*
X147955000Y-113130000D01*
X143383000Y-113892000D02*
X143383000Y-113615396D01*
X143383000Y-113615396D02*
X143206197Y-113438593D01*
X143206197Y-113438593D02*
X143206197Y-112798803D01*
X147193000Y-112368000D02*
X143637000Y-112368000D01*
X143206197Y-112798803D02*
X143637000Y-112368000D01*
X143383000Y-113892000D02*
X147057000Y-113892000D01*
X147955000Y-113130000D02*
X147193000Y-112368000D01*
X129904000Y-113130000D02*
X133206000Y-113130000D01*
X147057000Y-113892000D02*
X149716000Y-116551000D01*
G04 #@! TO.N,/MCU/OSC32_IN*
X165354000Y-117475000D02*
X157226000Y-117475000D01*
X142494000Y-114173000D02*
X143256000Y-114935000D01*
X143256000Y-114935000D02*
X147066000Y-114935000D01*
X147066000Y-114935000D02*
X151257000Y-119126000D01*
X151257000Y-119126000D02*
X155575000Y-119126000D01*
X155575000Y-119126000D02*
X157226000Y-117475000D01*
X167132000Y-115697000D02*
X165354000Y-117475000D01*
X169926000Y-115697000D02*
X167132000Y-115697000D01*
G04 #@! TO.N,/Display/SPI1_NSS*
X129904000Y-106272000D02*
X111235000Y-106272000D01*
X111235000Y-106272000D02*
X110473000Y-105510000D01*
X110473000Y-105510000D02*
X109203000Y-105510000D01*
X133587000Y-109320000D02*
X129904000Y-109320000D01*
X134349000Y-110082000D02*
X133587000Y-109320000D01*
X135111000Y-110082000D02*
X134349000Y-110082000D01*
X145144000Y-120115000D02*
X135111000Y-110082000D01*
X129904000Y-106272000D02*
X160511000Y-106272000D01*
G04 #@! TO.N,/Display/SPI1_SCK*
X135619000Y-109320000D02*
X134603000Y-109320000D01*
X145906000Y-119607000D02*
X135619000Y-109320000D01*
X160765000Y-107034000D02*
X149970000Y-107034000D01*
X161527000Y-106272000D02*
X160765000Y-107034000D01*
X179180000Y-106272000D02*
X161527000Y-106272000D01*
X149970000Y-107034000D02*
X134603000Y-107034000D01*
X134603000Y-107034000D02*
X119617000Y-107034000D01*
G04 #@! TO.N,/Display/SPI1_MISO*
X161671000Y-122047000D02*
X159131000Y-122047000D01*
X159131000Y-122047000D02*
X158769099Y-122408901D01*
X158769099Y-122408901D02*
X147295099Y-122408901D01*
X147295099Y-122408901D02*
X146287000Y-123417000D01*
X160274000Y-112268000D02*
X161273000Y-113267000D01*
X161273000Y-113267000D02*
X161273000Y-115797000D01*
G04 #@! TO.N,/Display/SPI1_MOSI*
X120379000Y-108558000D02*
X135800504Y-108558000D01*
X135800504Y-108558000D02*
X146379605Y-119137101D01*
X146379605Y-119137101D02*
X146452101Y-119137101D01*
X146452101Y-119137101D02*
X146795000Y-119480000D01*
G04 #@! TO.N,Net-(SB2-Pad2)*
X173863000Y-119126000D02*
X174742000Y-119126000D01*
X174742000Y-119126000D02*
X174996000Y-118872000D01*
G04 #@! TD*
D31*
G04 #@! TO.N,GND*
G36*
X219583000Y-145923000D02*
X188722000Y-145923000D01*
X188722000Y-140495594D01*
X212245000Y-140495594D01*
X212245000Y-141444406D01*
X212608095Y-142320994D01*
X213279006Y-142991905D01*
X214155594Y-143355000D01*
X215104406Y-143355000D01*
X215980994Y-142991905D01*
X216651905Y-142320994D01*
X217015000Y-141444406D01*
X217015000Y-140495594D01*
X216651905Y-139619006D01*
X215980994Y-138948095D01*
X215104406Y-138585000D01*
X214155594Y-138585000D01*
X213279006Y-138948095D01*
X212608095Y-139619006D01*
X212245000Y-140495594D01*
X188722000Y-140495594D01*
X188722000Y-137160000D01*
X188712333Y-137111399D01*
X188684803Y-137070197D01*
X181699803Y-130085197D01*
X181658601Y-130057667D01*
X181610000Y-130048000D01*
X147299846Y-130048000D01*
X147861647Y-129486200D01*
X156518616Y-129486200D01*
X156591000Y-129500598D01*
X156663384Y-129486200D01*
X156663388Y-129486200D01*
X156877783Y-129443554D01*
X157120905Y-129281105D01*
X157161911Y-129219735D01*
X157547247Y-128834400D01*
X166949416Y-128834400D01*
X167021800Y-128848798D01*
X167094184Y-128834400D01*
X167094188Y-128834400D01*
X167308583Y-128791754D01*
X167551705Y-128629305D01*
X167592711Y-128567935D01*
X168198447Y-127962200D01*
X185965816Y-127962200D01*
X186038200Y-127976598D01*
X186110584Y-127962200D01*
X186110588Y-127962200D01*
X186324983Y-127919554D01*
X186568105Y-127757105D01*
X186609111Y-127695735D01*
X187742526Y-126562320D01*
X187600300Y-126905684D01*
X187600300Y-127294716D01*
X187749177Y-127654136D01*
X188024264Y-127929223D01*
X188383684Y-128078100D01*
X188772716Y-128078100D01*
X189132136Y-127929223D01*
X189138580Y-127922779D01*
X189140473Y-127925613D01*
X189052079Y-128370000D01*
X189142885Y-128826511D01*
X189262147Y-129005000D01*
X189142885Y-129183489D01*
X189052079Y-129640000D01*
X189142885Y-130096511D01*
X189262147Y-130275000D01*
X189142885Y-130453489D01*
X189052079Y-130910000D01*
X189142885Y-131366511D01*
X189401477Y-131753523D01*
X189788489Y-132012115D01*
X190129769Y-132080000D01*
X191090231Y-132080000D01*
X191431511Y-132012115D01*
X191818523Y-131753523D01*
X192077115Y-131366511D01*
X192167921Y-130910000D01*
X192077115Y-130453489D01*
X191991695Y-130325648D01*
X204925000Y-130325648D01*
X204925000Y-131294352D01*
X205295707Y-132189316D01*
X205980684Y-132874293D01*
X206875648Y-133245000D01*
X207844352Y-133245000D01*
X208739316Y-132874293D01*
X209424293Y-132189316D01*
X209795000Y-131294352D01*
X209795000Y-130325648D01*
X209424293Y-129430684D01*
X208739316Y-128745707D01*
X207844352Y-128375000D01*
X206875648Y-128375000D01*
X205980684Y-128745707D01*
X205295707Y-129430684D01*
X204925000Y-130325648D01*
X191991695Y-130325648D01*
X191957853Y-130275000D01*
X192077115Y-130096511D01*
X192167921Y-129640000D01*
X192077115Y-129183489D01*
X191957853Y-129005000D01*
X192077115Y-128826511D01*
X192167921Y-128370000D01*
X192079527Y-127925613D01*
X192108157Y-127882765D01*
X192157440Y-127635000D01*
X192157440Y-126565000D01*
X192108157Y-126317235D01*
X191967809Y-126107191D01*
X191757765Y-125966843D01*
X191510000Y-125917560D01*
X189710000Y-125917560D01*
X189462235Y-125966843D01*
X189252191Y-126107191D01*
X189138420Y-126277461D01*
X189132136Y-126271177D01*
X188772716Y-126122300D01*
X188383684Y-126122300D01*
X188040320Y-126264526D01*
X190406647Y-123898200D01*
X198852241Y-123898200D01*
X198946264Y-123992223D01*
X199305684Y-124141100D01*
X199694716Y-124141100D01*
X200054136Y-123992223D01*
X200329223Y-123717136D01*
X200478100Y-123357716D01*
X200478100Y-122968684D01*
X200329223Y-122609264D01*
X200054136Y-122334177D01*
X199694716Y-122185300D01*
X199305684Y-122185300D01*
X198946264Y-122334177D01*
X198852241Y-122428200D01*
X191241647Y-122428200D01*
X193217447Y-120452400D01*
X199698616Y-120452400D01*
X199771000Y-120466798D01*
X199843384Y-120452400D01*
X199843388Y-120452400D01*
X200057783Y-120409754D01*
X200300905Y-120247305D01*
X200341911Y-120185935D01*
X203709944Y-116817903D01*
X203899264Y-117007223D01*
X204258684Y-117156100D01*
X204647716Y-117156100D01*
X205007136Y-117007223D01*
X205282223Y-116732136D01*
X205431100Y-116372716D01*
X205431100Y-116239546D01*
X210561154Y-111109493D01*
X210674161Y-111677618D01*
X211002375Y-112168825D01*
X211493582Y-112497039D01*
X211926744Y-112583200D01*
X212219256Y-112583200D01*
X212652418Y-112497039D01*
X213143625Y-112168825D01*
X213471839Y-111677618D01*
X213587092Y-111098200D01*
X213471839Y-110518782D01*
X213143625Y-110027575D01*
X212845239Y-109828200D01*
X213143625Y-109628825D01*
X213471839Y-109137618D01*
X213587092Y-108558200D01*
X213471839Y-107978782D01*
X213143625Y-107487575D01*
X212845239Y-107288200D01*
X213143625Y-107088825D01*
X213471839Y-106597618D01*
X213587092Y-106018200D01*
X213471839Y-105438782D01*
X213143625Y-104947575D01*
X212845239Y-104748200D01*
X213143625Y-104548825D01*
X213471839Y-104057618D01*
X213587092Y-103478200D01*
X213520047Y-103141142D01*
X217907404Y-98753951D01*
X217972953Y-98710153D01*
X218056937Y-98584463D01*
X218146448Y-98450506D01*
X218146449Y-98450499D01*
X218146454Y-98450492D01*
X218185742Y-98252977D01*
X218207378Y-98144215D01*
X218192000Y-98066895D01*
X218192000Y-77784312D01*
X218207378Y-77707000D01*
X218192000Y-77629688D01*
X218192000Y-77629684D01*
X218146454Y-77400708D01*
X218132660Y-77380064D01*
X218016749Y-77206591D01*
X218016747Y-77206589D01*
X217972953Y-77141047D01*
X217907411Y-77097253D01*
X217447440Y-76637282D01*
X217447440Y-75300000D01*
X217398157Y-75052235D01*
X217257809Y-74842191D01*
X217047765Y-74701843D01*
X216800000Y-74652560D01*
X215000000Y-74652560D01*
X214752235Y-74701843D01*
X214542191Y-74842191D01*
X214401843Y-75052235D01*
X214352560Y-75300000D01*
X214352560Y-77100000D01*
X214401843Y-77347765D01*
X214542191Y-77557809D01*
X214752235Y-77698157D01*
X214767908Y-77701275D01*
X214598690Y-77870493D01*
X214541661Y-78008173D01*
X214343217Y-78047646D01*
X214100095Y-78210095D01*
X214059091Y-78271462D01*
X208036353Y-84294201D01*
X207903383Y-84294201D01*
X207543963Y-84443078D01*
X207436599Y-84550442D01*
X206635000Y-83748843D01*
X206635000Y-68259312D01*
X206650378Y-68182000D01*
X206635000Y-68104688D01*
X206635000Y-68104684D01*
X206589454Y-67875708D01*
X206415953Y-67616047D01*
X206350408Y-67572251D01*
X205347440Y-66569283D01*
X205347440Y-64075000D01*
X205298157Y-63827235D01*
X205157809Y-63617191D01*
X204947765Y-63476843D01*
X204700000Y-63427560D01*
X201700000Y-63427560D01*
X201452235Y-63476843D01*
X201242191Y-63617191D01*
X201101843Y-63827235D01*
X201052560Y-64075000D01*
X201052560Y-67075000D01*
X201101843Y-67322765D01*
X201242191Y-67532809D01*
X201452235Y-67673157D01*
X201700000Y-67722440D01*
X204280283Y-67722440D01*
X205065000Y-68507157D01*
X205065001Y-83996683D01*
X205049622Y-84074000D01*
X205110546Y-84380291D01*
X205240251Y-84574408D01*
X205240254Y-84574411D01*
X205284048Y-84639953D01*
X205349590Y-84683747D01*
X206715801Y-86049958D01*
X206715801Y-96356842D01*
X206531136Y-96172177D01*
X206171716Y-96023300D01*
X205782684Y-96023300D01*
X205423264Y-96172177D01*
X205329241Y-96266200D01*
X203868647Y-96266200D01*
X202013200Y-94410754D01*
X202013200Y-91993584D01*
X202027598Y-91921200D01*
X202013200Y-91848816D01*
X202013200Y-91848812D01*
X201970554Y-91634417D01*
X201875100Y-91491560D01*
X201875100Y-91345684D01*
X201726223Y-90986264D01*
X201451136Y-90711177D01*
X201091716Y-90562300D01*
X200702684Y-90562300D01*
X200343264Y-90711177D01*
X200068177Y-90986264D01*
X199919300Y-91345684D01*
X199919300Y-91734716D01*
X199927359Y-91754172D01*
X199806267Y-91875264D01*
X199657390Y-92234684D01*
X199657390Y-92623716D01*
X199806267Y-92983136D01*
X199900291Y-93077160D01*
X199900290Y-94383057D01*
X199567716Y-94245300D01*
X199178684Y-94245300D01*
X198819264Y-94394177D01*
X198544177Y-94669264D01*
X198395300Y-95028684D01*
X198395300Y-95417716D01*
X198544177Y-95777136D01*
X198819264Y-96052223D01*
X199178684Y-96201100D01*
X199311654Y-96201100D01*
X202104291Y-98993737D01*
X202145295Y-99055105D01*
X202388417Y-99217554D01*
X202602812Y-99260200D01*
X202602815Y-99260200D01*
X202675199Y-99274598D01*
X202747583Y-99260200D01*
X203043241Y-99260200D01*
X203124041Y-99341000D01*
X198678447Y-99341000D01*
X195414900Y-96077454D01*
X195414900Y-95944484D01*
X195266023Y-95585064D01*
X194990936Y-95309977D01*
X194631516Y-95161100D01*
X194242484Y-95161100D01*
X193883064Y-95309977D01*
X193607977Y-95585064D01*
X193459100Y-95944484D01*
X193459100Y-96333516D01*
X193607977Y-96692936D01*
X193883064Y-96968023D01*
X194242484Y-97116900D01*
X194375454Y-97116900D01*
X197291147Y-100032594D01*
X197112917Y-100068046D01*
X196869795Y-100230495D01*
X196828791Y-100291862D01*
X189659254Y-107461400D01*
X179553436Y-107461400D01*
X179649900Y-107228516D01*
X179649900Y-107135832D01*
X179733936Y-107101023D01*
X180009023Y-106825936D01*
X180157900Y-106466516D01*
X180157900Y-106373832D01*
X180241936Y-106339023D01*
X180517023Y-106063936D01*
X180665900Y-105704516D01*
X180665900Y-105315484D01*
X180517023Y-104956064D01*
X180241936Y-104680977D01*
X179882516Y-104532100D01*
X179493484Y-104532100D01*
X179134064Y-104680977D01*
X179040041Y-104775000D01*
X149974959Y-104775000D01*
X149880936Y-104680977D01*
X149521516Y-104532100D01*
X149132484Y-104532100D01*
X148773064Y-104680977D01*
X148679041Y-104775000D01*
X140914900Y-104775000D01*
X140914900Y-104553484D01*
X140766023Y-104194064D01*
X140672000Y-104100041D01*
X140672000Y-103236959D01*
X140766023Y-103142936D01*
X140914900Y-102783516D01*
X140914900Y-102394484D01*
X140766023Y-102035064D01*
X140490936Y-101759977D01*
X140131516Y-101611100D01*
X139742484Y-101611100D01*
X139383064Y-101759977D01*
X139107977Y-102035064D01*
X138959100Y-102394484D01*
X138959100Y-102783516D01*
X139107977Y-103142936D01*
X139202000Y-103236959D01*
X139202001Y-104100040D01*
X139107977Y-104194064D01*
X138959100Y-104553484D01*
X138959100Y-104775000D01*
X121915959Y-104775000D01*
X121821936Y-104680977D01*
X121462516Y-104532100D01*
X121073484Y-104532100D01*
X120714064Y-104680977D01*
X120620041Y-104775000D01*
X119502959Y-104775000D01*
X119408936Y-104680977D01*
X119049516Y-104532100D01*
X118660484Y-104532100D01*
X118301064Y-104680977D01*
X118025977Y-104956064D01*
X117877100Y-105315484D01*
X117877100Y-105537000D01*
X111539447Y-105537000D01*
X111043911Y-105041465D01*
X111002905Y-104980095D01*
X110759783Y-104817646D01*
X110545388Y-104775000D01*
X110545384Y-104775000D01*
X110473000Y-104760602D01*
X110400616Y-104775000D01*
X109850959Y-104775000D01*
X109756936Y-104680977D01*
X109397516Y-104532100D01*
X109163700Y-104532100D01*
X109163700Y-103515546D01*
X109178588Y-103440699D01*
X109163700Y-103365852D01*
X109163700Y-103365848D01*
X109119604Y-103144163D01*
X108951629Y-102892771D01*
X108888173Y-102850371D01*
X107355002Y-101317200D01*
X108747353Y-101317200D01*
X108822200Y-101332088D01*
X108897047Y-101317200D01*
X108897052Y-101317200D01*
X109118737Y-101273104D01*
X109370129Y-101105129D01*
X109412531Y-101041670D01*
X110018173Y-100436029D01*
X110081629Y-100393629D01*
X110249604Y-100142237D01*
X110293700Y-99920552D01*
X110293700Y-99920547D01*
X110308588Y-99845700D01*
X110293700Y-99770853D01*
X110293700Y-99311548D01*
X110308588Y-99236700D01*
X110293700Y-99161852D01*
X110293700Y-99161848D01*
X110249604Y-98940163D01*
X110089900Y-98701149D01*
X110089900Y-97153159D01*
X110158923Y-97084136D01*
X110307800Y-96724716D01*
X110307800Y-96335684D01*
X110158923Y-95976264D01*
X109883836Y-95701177D01*
X109524416Y-95552300D01*
X109135384Y-95552300D01*
X108775964Y-95701177D01*
X108693200Y-95783941D01*
X108693200Y-91401913D01*
X108708088Y-91327065D01*
X108693200Y-91252217D01*
X108693200Y-91252213D01*
X108649104Y-91030528D01*
X108635429Y-91010061D01*
X108708384Y-90833932D01*
X108708384Y-90716100D01*
X111876299Y-90716100D01*
X112422870Y-91262672D01*
X112465271Y-91326129D01*
X112716663Y-91494104D01*
X112938348Y-91538200D01*
X112938353Y-91538200D01*
X113013200Y-91553088D01*
X113088047Y-91538200D01*
X115057241Y-91538200D01*
X115126264Y-91607223D01*
X115485684Y-91756100D01*
X115874716Y-91756100D01*
X116234136Y-91607223D01*
X116342279Y-91499080D01*
X118703700Y-93860502D01*
X118703701Y-98733348D01*
X118688812Y-98808200D01*
X118703701Y-98883052D01*
X118725847Y-98994388D01*
X118747797Y-99104737D01*
X118871945Y-99290537D01*
X118915772Y-99356129D01*
X118979228Y-99398529D01*
X119887171Y-100306473D01*
X119929571Y-100369929D01*
X119993027Y-100412329D01*
X120180962Y-100537904D01*
X120214309Y-100544537D01*
X120402648Y-100582000D01*
X120402652Y-100582000D01*
X120477500Y-100596888D01*
X120552348Y-100582000D01*
X121819599Y-100582000D01*
X121425299Y-100976300D01*
X121327684Y-100976300D01*
X120968264Y-101125177D01*
X120693177Y-101400264D01*
X120544300Y-101759684D01*
X120544300Y-102148716D01*
X120693177Y-102508136D01*
X120968264Y-102783223D01*
X121327684Y-102932100D01*
X121716716Y-102932100D01*
X122076136Y-102783223D01*
X122351223Y-102508136D01*
X122500100Y-102148716D01*
X122500100Y-102051101D01*
X125901002Y-98650200D01*
X132369353Y-98650200D01*
X132444200Y-98665088D01*
X132519047Y-98650200D01*
X132519052Y-98650200D01*
X132740737Y-98606104D01*
X132992129Y-98438129D01*
X133034531Y-98374670D01*
X139363003Y-92046200D01*
X147979978Y-92046200D01*
X147849300Y-92361684D01*
X147849300Y-92750716D01*
X147998177Y-93110136D01*
X148067200Y-93179159D01*
X148067200Y-93370352D01*
X148052312Y-93445200D01*
X148067200Y-93520047D01*
X148067200Y-93520051D01*
X148111296Y-93741736D01*
X148279271Y-93993129D01*
X148342730Y-94035531D01*
X151513000Y-97205802D01*
X151513000Y-97275953D01*
X151498112Y-97350800D01*
X151513000Y-97425647D01*
X151513000Y-97425651D01*
X151526072Y-97491369D01*
X151300177Y-97717264D01*
X151151300Y-98076684D01*
X151151300Y-98465716D01*
X151300177Y-98825136D01*
X151575264Y-99100223D01*
X151934684Y-99249100D01*
X152032299Y-99249100D01*
X154222673Y-101439476D01*
X154265071Y-101502929D01*
X154328524Y-101545327D01*
X154328526Y-101545329D01*
X154389527Y-101586088D01*
X154516463Y-101670904D01*
X154738148Y-101715000D01*
X154738152Y-101715000D01*
X154812999Y-101729888D01*
X154887846Y-101715000D01*
X161727199Y-101715000D01*
X162731673Y-102719476D01*
X162774071Y-102782929D01*
X162837524Y-102825327D01*
X162837526Y-102825329D01*
X162925334Y-102884000D01*
X163025463Y-102950904D01*
X163247148Y-102995000D01*
X163247152Y-102995000D01*
X163321999Y-103009888D01*
X163396846Y-102995000D01*
X164150199Y-102995000D01*
X164866671Y-103711473D01*
X164909071Y-103774929D01*
X165160463Y-103942904D01*
X165382148Y-103987000D01*
X165382153Y-103987000D01*
X165457000Y-104001888D01*
X165531847Y-103987000D01*
X166656553Y-103987000D01*
X166731400Y-104001888D01*
X166806247Y-103987000D01*
X166806252Y-103987000D01*
X167027937Y-103942904D01*
X167279329Y-103774929D01*
X167321731Y-103711470D01*
X169758673Y-101274529D01*
X169822129Y-101232129D01*
X169990104Y-100980737D01*
X170034200Y-100759052D01*
X170034200Y-100759048D01*
X170049088Y-100684201D01*
X170034200Y-100609354D01*
X170034200Y-94438601D01*
X172553602Y-91919200D01*
X179236399Y-91919200D01*
X180850001Y-93532803D01*
X180850000Y-97842153D01*
X180835112Y-97917000D01*
X180850000Y-97991847D01*
X180850000Y-97991851D01*
X180894096Y-98213536D01*
X181062071Y-98464929D01*
X181125530Y-98507331D01*
X183063228Y-100445030D01*
X183105628Y-100508486D01*
X183357020Y-100676461D01*
X183578705Y-100720557D01*
X183578709Y-100720557D01*
X183653556Y-100735445D01*
X183728403Y-100720557D01*
X184190210Y-100720557D01*
X184265057Y-100735445D01*
X184339904Y-100720557D01*
X184339909Y-100720557D01*
X184561594Y-100676461D01*
X184812986Y-100508486D01*
X184855388Y-100445027D01*
X185193570Y-100106845D01*
X185257029Y-100064443D01*
X185425004Y-99813051D01*
X185469100Y-99591366D01*
X185469100Y-99591362D01*
X185483988Y-99516514D01*
X185469100Y-99441666D01*
X185469100Y-96124759D01*
X185538123Y-96055736D01*
X185687000Y-95696316D01*
X185687000Y-95307284D01*
X185538123Y-94947864D01*
X185263036Y-94672777D01*
X184903616Y-94523900D01*
X184514584Y-94523900D01*
X184155164Y-94672777D01*
X183880077Y-94947864D01*
X183767000Y-95220855D01*
X183767000Y-93165846D01*
X183781888Y-93090999D01*
X183767000Y-93016152D01*
X183767000Y-93016148D01*
X183722904Y-92794463D01*
X183675080Y-92722889D01*
X183597329Y-92606526D01*
X183597327Y-92606524D01*
X183554929Y-92543071D01*
X183491476Y-92500673D01*
X182548821Y-91558019D01*
X182671936Y-91507023D01*
X182947023Y-91231936D01*
X183095900Y-90872516D01*
X183095900Y-90774901D01*
X185463971Y-88406830D01*
X185516164Y-88459023D01*
X185875584Y-88607900D01*
X186264616Y-88607900D01*
X186624036Y-88459023D01*
X186899123Y-88183936D01*
X187048000Y-87824516D01*
X187048000Y-87435484D01*
X186899123Y-87076064D01*
X186758457Y-86935398D01*
X192759301Y-80934778D01*
X201565000Y-80934778D01*
X201565000Y-81585222D01*
X201813914Y-82186153D01*
X202273847Y-82646086D01*
X202874778Y-82895000D01*
X203525222Y-82895000D01*
X204126153Y-82646086D01*
X204586086Y-82186153D01*
X204835000Y-81585222D01*
X204835000Y-80934778D01*
X204586086Y-80333847D01*
X204126153Y-79873914D01*
X203525222Y-79625000D01*
X202874778Y-79625000D01*
X202273847Y-79873914D01*
X201813914Y-80333847D01*
X201565000Y-80934778D01*
X192759301Y-80934778D01*
X197189764Y-76504481D01*
X197282870Y-76442270D01*
X197412595Y-76248123D01*
X197529298Y-76073472D01*
X197529300Y-76073461D01*
X197529307Y-76073451D01*
X197582235Y-75807364D01*
X197615843Y-75638422D01*
X197594000Y-75528599D01*
X197594000Y-75295000D01*
X202137459Y-75295000D01*
X202200000Y-75307440D01*
X204200000Y-75307440D01*
X204447765Y-75258157D01*
X204657809Y-75117809D01*
X204798157Y-74907765D01*
X204847440Y-74660000D01*
X204847440Y-73758491D01*
X204867031Y-73660000D01*
X204847440Y-73561509D01*
X204847440Y-72660000D01*
X204798157Y-72412235D01*
X204657809Y-72202191D01*
X204447765Y-72061843D01*
X204200000Y-72012560D01*
X202200000Y-72012560D01*
X202137459Y-72025000D01*
X197594000Y-72025000D01*
X197594000Y-71737811D01*
X197615843Y-71627999D01*
X197594000Y-71518187D01*
X197594000Y-71518183D01*
X197529307Y-71192949D01*
X197282870Y-70824130D01*
X197189772Y-70761924D01*
X186677078Y-60249231D01*
X186614870Y-60156130D01*
X186246051Y-59909693D01*
X185920817Y-59845000D01*
X185920812Y-59845000D01*
X185811000Y-59823157D01*
X185701188Y-59845000D01*
X183157440Y-59845000D01*
X183157440Y-59155000D01*
X183108157Y-58907235D01*
X182967809Y-58697191D01*
X182757765Y-58556843D01*
X182510000Y-58507560D01*
X180710000Y-58507560D01*
X180462235Y-58556843D01*
X180252191Y-58697191D01*
X180111843Y-58907235D01*
X180107315Y-58930000D01*
X172665100Y-58930000D01*
X172665100Y-58706684D01*
X172516223Y-58347264D01*
X172241136Y-58072177D01*
X171881716Y-57923300D01*
X171784102Y-57923300D01*
X171594630Y-57733829D01*
X171552229Y-57670371D01*
X171300837Y-57502396D01*
X171079152Y-57458300D01*
X171079147Y-57458300D01*
X171004300Y-57443412D01*
X170929453Y-57458300D01*
X168028402Y-57458300D01*
X158830102Y-48260000D01*
X167352079Y-48260000D01*
X167442885Y-48716511D01*
X167562147Y-48895000D01*
X167442885Y-49073489D01*
X167352079Y-49530000D01*
X167442885Y-49986511D01*
X167562147Y-50165000D01*
X167442885Y-50343489D01*
X167352079Y-50800000D01*
X167442885Y-51256511D01*
X167701477Y-51643523D01*
X168088489Y-51902115D01*
X168429769Y-51970000D01*
X169390231Y-51970000D01*
X169731511Y-51902115D01*
X170118523Y-51643523D01*
X170174331Y-51560000D01*
X176098199Y-51560000D01*
X183055100Y-58516903D01*
X183055100Y-58614516D01*
X183203977Y-58973936D01*
X183479064Y-59249023D01*
X183838484Y-59397900D01*
X184227516Y-59397900D01*
X184586936Y-59249023D01*
X184862023Y-58973936D01*
X185010900Y-58614516D01*
X185010900Y-58225484D01*
X184862023Y-57866064D01*
X184586936Y-57590977D01*
X184227516Y-57442100D01*
X184129903Y-57442100D01*
X177003331Y-50315530D01*
X176960929Y-50252071D01*
X176709537Y-50084096D01*
X176487852Y-50040000D01*
X176487847Y-50040000D01*
X176413000Y-50025112D01*
X176338153Y-50040000D01*
X170341375Y-50040000D01*
X170377115Y-49986511D01*
X170467921Y-49530000D01*
X170377115Y-49073489D01*
X170257853Y-48895000D01*
X170377115Y-48716511D01*
X170467921Y-48260000D01*
X170379527Y-47815613D01*
X170408157Y-47772765D01*
X170457440Y-47525000D01*
X170457440Y-46455000D01*
X170408157Y-46207235D01*
X170267809Y-45997191D01*
X170057765Y-45856843D01*
X169810000Y-45807560D01*
X168010000Y-45807560D01*
X167762235Y-45856843D01*
X167552191Y-45997191D01*
X167411843Y-46207235D01*
X167362560Y-46455000D01*
X167362560Y-47525000D01*
X167411843Y-47772765D01*
X167440473Y-47815613D01*
X167352079Y-48260000D01*
X158830102Y-48260000D01*
X154538101Y-43968000D01*
X176287899Y-43968000D01*
X179794371Y-47474473D01*
X179836771Y-47537929D01*
X179900227Y-47580329D01*
X180088162Y-47705904D01*
X180098971Y-47708054D01*
X180111843Y-47772765D01*
X180140473Y-47815613D01*
X180052079Y-48260000D01*
X180142885Y-48716511D01*
X180262147Y-48895000D01*
X180142885Y-49073489D01*
X180052079Y-49530000D01*
X180142885Y-49986511D01*
X180262147Y-50165000D01*
X180142885Y-50343489D01*
X180052079Y-50800000D01*
X180142885Y-51256511D01*
X180401477Y-51643523D01*
X180788489Y-51902115D01*
X181129769Y-51970000D01*
X182090231Y-51970000D01*
X182431511Y-51902115D01*
X182818523Y-51643523D01*
X183077115Y-51256511D01*
X183167921Y-50800000D01*
X183077115Y-50343489D01*
X182957853Y-50165000D01*
X183077115Y-49986511D01*
X183167921Y-49530000D01*
X183077115Y-49073489D01*
X182957853Y-48895000D01*
X183077115Y-48716511D01*
X183167921Y-48260000D01*
X183079527Y-47815613D01*
X183108157Y-47772765D01*
X183157440Y-47525000D01*
X183157440Y-46598970D01*
X201865635Y-46598970D01*
X202025418Y-46917739D01*
X202816187Y-47227723D01*
X203665387Y-47211497D01*
X204374582Y-46917739D01*
X204534365Y-46598970D01*
X203200000Y-45264605D01*
X201865635Y-46598970D01*
X183157440Y-46598970D01*
X183157440Y-46455000D01*
X183108157Y-46207235D01*
X182967809Y-45997191D01*
X182757765Y-45856843D01*
X182510000Y-45807560D01*
X180710000Y-45807560D01*
X180462235Y-45856843D01*
X180380775Y-45911273D01*
X179170689Y-44701187D01*
X201057277Y-44701187D01*
X201073503Y-45550387D01*
X201367261Y-46259582D01*
X201686030Y-46419365D01*
X203020395Y-45085000D01*
X203379605Y-45085000D01*
X204713970Y-46419365D01*
X205032739Y-46259582D01*
X205342723Y-45468813D01*
X205326497Y-44619613D01*
X205032739Y-43910418D01*
X204713970Y-43750635D01*
X203379605Y-45085000D01*
X203020395Y-45085000D01*
X201686030Y-43750635D01*
X201367261Y-43910418D01*
X201057277Y-44701187D01*
X179170689Y-44701187D01*
X178040532Y-43571030D01*
X201865635Y-43571030D01*
X203200000Y-44905395D01*
X204534365Y-43571030D01*
X204374582Y-43252261D01*
X203583813Y-42942277D01*
X202734613Y-42958503D01*
X202025418Y-43252261D01*
X201865635Y-43571030D01*
X178040532Y-43571030D01*
X177193031Y-42723530D01*
X177150629Y-42660071D01*
X176899237Y-42492096D01*
X176677552Y-42448000D01*
X176677547Y-42448000D01*
X176602700Y-42433112D01*
X176527853Y-42448000D01*
X107232346Y-42448000D01*
X107157499Y-42433112D01*
X107082652Y-42448000D01*
X107082648Y-42448000D01*
X106860963Y-42492096D01*
X106860961Y-42492097D01*
X106860962Y-42492097D01*
X106673026Y-42617671D01*
X106673024Y-42617673D01*
X106609571Y-42660071D01*
X106567173Y-42723524D01*
X101495130Y-47795569D01*
X101431671Y-47837971D01*
X101263696Y-48089364D01*
X101219600Y-48311049D01*
X101219600Y-48311053D01*
X101204712Y-48385900D01*
X101219600Y-48460747D01*
X101219601Y-92115748D01*
X101204712Y-92190600D01*
X101263697Y-92487137D01*
X101386091Y-92670312D01*
X101431672Y-92738529D01*
X101495128Y-92780929D01*
X103363200Y-94649002D01*
X103363200Y-96277300D01*
X103166684Y-96277300D01*
X102807264Y-96426177D01*
X102532177Y-96701264D01*
X102383300Y-97060684D01*
X102383300Y-97449716D01*
X102532177Y-97809136D01*
X102807264Y-98084223D01*
X102855201Y-98104079D01*
X102855200Y-100838000D01*
X95377000Y-100838000D01*
X95377000Y-38895594D01*
X97945000Y-38895594D01*
X97945000Y-39844406D01*
X98308095Y-40720994D01*
X98979006Y-41391905D01*
X99855594Y-41755000D01*
X100804406Y-41755000D01*
X101680994Y-41391905D01*
X102351905Y-40720994D01*
X102715000Y-39844406D01*
X102715000Y-38895594D01*
X212245000Y-38895594D01*
X212245000Y-39844406D01*
X212608095Y-40720994D01*
X213279006Y-41391905D01*
X214155594Y-41755000D01*
X215104406Y-41755000D01*
X215980994Y-41391905D01*
X216651905Y-40720994D01*
X217015000Y-39844406D01*
X217015000Y-38895594D01*
X216651905Y-38019006D01*
X215980994Y-37348095D01*
X215104406Y-36985000D01*
X214155594Y-36985000D01*
X213279006Y-37348095D01*
X212608095Y-38019006D01*
X212245000Y-38895594D01*
X102715000Y-38895594D01*
X102351905Y-38019006D01*
X101680994Y-37348095D01*
X100804406Y-36985000D01*
X99855594Y-36985000D01*
X98979006Y-37348095D01*
X98308095Y-38019006D01*
X97945000Y-38895594D01*
X95377000Y-38895594D01*
X95377000Y-34417000D01*
X219583000Y-34417000D01*
X219583000Y-145923000D01*
X219583000Y-145923000D01*
G37*
X219583000Y-145923000D02*
X188722000Y-145923000D01*
X188722000Y-140495594D01*
X212245000Y-140495594D01*
X212245000Y-141444406D01*
X212608095Y-142320994D01*
X213279006Y-142991905D01*
X214155594Y-143355000D01*
X215104406Y-143355000D01*
X215980994Y-142991905D01*
X216651905Y-142320994D01*
X217015000Y-141444406D01*
X217015000Y-140495594D01*
X216651905Y-139619006D01*
X215980994Y-138948095D01*
X215104406Y-138585000D01*
X214155594Y-138585000D01*
X213279006Y-138948095D01*
X212608095Y-139619006D01*
X212245000Y-140495594D01*
X188722000Y-140495594D01*
X188722000Y-137160000D01*
X188712333Y-137111399D01*
X188684803Y-137070197D01*
X181699803Y-130085197D01*
X181658601Y-130057667D01*
X181610000Y-130048000D01*
X147299846Y-130048000D01*
X147861647Y-129486200D01*
X156518616Y-129486200D01*
X156591000Y-129500598D01*
X156663384Y-129486200D01*
X156663388Y-129486200D01*
X156877783Y-129443554D01*
X157120905Y-129281105D01*
X157161911Y-129219735D01*
X157547247Y-128834400D01*
X166949416Y-128834400D01*
X167021800Y-128848798D01*
X167094184Y-128834400D01*
X167094188Y-128834400D01*
X167308583Y-128791754D01*
X167551705Y-128629305D01*
X167592711Y-128567935D01*
X168198447Y-127962200D01*
X185965816Y-127962200D01*
X186038200Y-127976598D01*
X186110584Y-127962200D01*
X186110588Y-127962200D01*
X186324983Y-127919554D01*
X186568105Y-127757105D01*
X186609111Y-127695735D01*
X187742526Y-126562320D01*
X187600300Y-126905684D01*
X187600300Y-127294716D01*
X187749177Y-127654136D01*
X188024264Y-127929223D01*
X188383684Y-128078100D01*
X188772716Y-128078100D01*
X189132136Y-127929223D01*
X189138580Y-127922779D01*
X189140473Y-127925613D01*
X189052079Y-128370000D01*
X189142885Y-128826511D01*
X189262147Y-129005000D01*
X189142885Y-129183489D01*
X189052079Y-129640000D01*
X189142885Y-130096511D01*
X189262147Y-130275000D01*
X189142885Y-130453489D01*
X189052079Y-130910000D01*
X189142885Y-131366511D01*
X189401477Y-131753523D01*
X189788489Y-132012115D01*
X190129769Y-132080000D01*
X191090231Y-132080000D01*
X191431511Y-132012115D01*
X191818523Y-131753523D01*
X192077115Y-131366511D01*
X192167921Y-130910000D01*
X192077115Y-130453489D01*
X191991695Y-130325648D01*
X204925000Y-130325648D01*
X204925000Y-131294352D01*
X205295707Y-132189316D01*
X205980684Y-132874293D01*
X206875648Y-133245000D01*
X207844352Y-133245000D01*
X208739316Y-132874293D01*
X209424293Y-132189316D01*
X209795000Y-131294352D01*
X209795000Y-130325648D01*
X209424293Y-129430684D01*
X208739316Y-128745707D01*
X207844352Y-128375000D01*
X206875648Y-128375000D01*
X205980684Y-128745707D01*
X205295707Y-129430684D01*
X204925000Y-130325648D01*
X191991695Y-130325648D01*
X191957853Y-130275000D01*
X192077115Y-130096511D01*
X192167921Y-129640000D01*
X192077115Y-129183489D01*
X191957853Y-129005000D01*
X192077115Y-128826511D01*
X192167921Y-128370000D01*
X192079527Y-127925613D01*
X192108157Y-127882765D01*
X192157440Y-127635000D01*
X192157440Y-126565000D01*
X192108157Y-126317235D01*
X191967809Y-126107191D01*
X191757765Y-125966843D01*
X191510000Y-125917560D01*
X189710000Y-125917560D01*
X189462235Y-125966843D01*
X189252191Y-126107191D01*
X189138420Y-126277461D01*
X189132136Y-126271177D01*
X188772716Y-126122300D01*
X188383684Y-126122300D01*
X188040320Y-126264526D01*
X190406647Y-123898200D01*
X198852241Y-123898200D01*
X198946264Y-123992223D01*
X199305684Y-124141100D01*
X199694716Y-124141100D01*
X200054136Y-123992223D01*
X200329223Y-123717136D01*
X200478100Y-123357716D01*
X200478100Y-122968684D01*
X200329223Y-122609264D01*
X200054136Y-122334177D01*
X199694716Y-122185300D01*
X199305684Y-122185300D01*
X198946264Y-122334177D01*
X198852241Y-122428200D01*
X191241647Y-122428200D01*
X193217447Y-120452400D01*
X199698616Y-120452400D01*
X199771000Y-120466798D01*
X199843384Y-120452400D01*
X199843388Y-120452400D01*
X200057783Y-120409754D01*
X200300905Y-120247305D01*
X200341911Y-120185935D01*
X203709944Y-116817903D01*
X203899264Y-117007223D01*
X204258684Y-117156100D01*
X204647716Y-117156100D01*
X205007136Y-117007223D01*
X205282223Y-116732136D01*
X205431100Y-116372716D01*
X205431100Y-116239546D01*
X210561154Y-111109493D01*
X210674161Y-111677618D01*
X211002375Y-112168825D01*
X211493582Y-112497039D01*
X211926744Y-112583200D01*
X212219256Y-112583200D01*
X212652418Y-112497039D01*
X213143625Y-112168825D01*
X213471839Y-111677618D01*
X213587092Y-111098200D01*
X213471839Y-110518782D01*
X213143625Y-110027575D01*
X212845239Y-109828200D01*
X213143625Y-109628825D01*
X213471839Y-109137618D01*
X213587092Y-108558200D01*
X213471839Y-107978782D01*
X213143625Y-107487575D01*
X212845239Y-107288200D01*
X213143625Y-107088825D01*
X213471839Y-106597618D01*
X213587092Y-106018200D01*
X213471839Y-105438782D01*
X213143625Y-104947575D01*
X212845239Y-104748200D01*
X213143625Y-104548825D01*
X213471839Y-104057618D01*
X213587092Y-103478200D01*
X213520047Y-103141142D01*
X217907404Y-98753951D01*
X217972953Y-98710153D01*
X218056937Y-98584463D01*
X218146448Y-98450506D01*
X218146449Y-98450499D01*
X218146454Y-98450492D01*
X218185742Y-98252977D01*
X218207378Y-98144215D01*
X218192000Y-98066895D01*
X218192000Y-77784312D01*
X218207378Y-77707000D01*
X218192000Y-77629688D01*
X218192000Y-77629684D01*
X218146454Y-77400708D01*
X218132660Y-77380064D01*
X218016749Y-77206591D01*
X218016747Y-77206589D01*
X217972953Y-77141047D01*
X217907411Y-77097253D01*
X217447440Y-76637282D01*
X217447440Y-75300000D01*
X217398157Y-75052235D01*
X217257809Y-74842191D01*
X217047765Y-74701843D01*
X216800000Y-74652560D01*
X215000000Y-74652560D01*
X214752235Y-74701843D01*
X214542191Y-74842191D01*
X214401843Y-75052235D01*
X214352560Y-75300000D01*
X214352560Y-77100000D01*
X214401843Y-77347765D01*
X214542191Y-77557809D01*
X214752235Y-77698157D01*
X214767908Y-77701275D01*
X214598690Y-77870493D01*
X214541661Y-78008173D01*
X214343217Y-78047646D01*
X214100095Y-78210095D01*
X214059091Y-78271462D01*
X208036353Y-84294201D01*
X207903383Y-84294201D01*
X207543963Y-84443078D01*
X207436599Y-84550442D01*
X206635000Y-83748843D01*
X206635000Y-68259312D01*
X206650378Y-68182000D01*
X206635000Y-68104688D01*
X206635000Y-68104684D01*
X206589454Y-67875708D01*
X206415953Y-67616047D01*
X206350408Y-67572251D01*
X205347440Y-66569283D01*
X205347440Y-64075000D01*
X205298157Y-63827235D01*
X205157809Y-63617191D01*
X204947765Y-63476843D01*
X204700000Y-63427560D01*
X201700000Y-63427560D01*
X201452235Y-63476843D01*
X201242191Y-63617191D01*
X201101843Y-63827235D01*
X201052560Y-64075000D01*
X201052560Y-67075000D01*
X201101843Y-67322765D01*
X201242191Y-67532809D01*
X201452235Y-67673157D01*
X201700000Y-67722440D01*
X204280283Y-67722440D01*
X205065000Y-68507157D01*
X205065001Y-83996683D01*
X205049622Y-84074000D01*
X205110546Y-84380291D01*
X205240251Y-84574408D01*
X205240254Y-84574411D01*
X205284048Y-84639953D01*
X205349590Y-84683747D01*
X206715801Y-86049958D01*
X206715801Y-96356842D01*
X206531136Y-96172177D01*
X206171716Y-96023300D01*
X205782684Y-96023300D01*
X205423264Y-96172177D01*
X205329241Y-96266200D01*
X203868647Y-96266200D01*
X202013200Y-94410754D01*
X202013200Y-91993584D01*
X202027598Y-91921200D01*
X202013200Y-91848816D01*
X202013200Y-91848812D01*
X201970554Y-91634417D01*
X201875100Y-91491560D01*
X201875100Y-91345684D01*
X201726223Y-90986264D01*
X201451136Y-90711177D01*
X201091716Y-90562300D01*
X200702684Y-90562300D01*
X200343264Y-90711177D01*
X200068177Y-90986264D01*
X199919300Y-91345684D01*
X199919300Y-91734716D01*
X199927359Y-91754172D01*
X199806267Y-91875264D01*
X199657390Y-92234684D01*
X199657390Y-92623716D01*
X199806267Y-92983136D01*
X199900291Y-93077160D01*
X199900290Y-94383057D01*
X199567716Y-94245300D01*
X199178684Y-94245300D01*
X198819264Y-94394177D01*
X198544177Y-94669264D01*
X198395300Y-95028684D01*
X198395300Y-95417716D01*
X198544177Y-95777136D01*
X198819264Y-96052223D01*
X199178684Y-96201100D01*
X199311654Y-96201100D01*
X202104291Y-98993737D01*
X202145295Y-99055105D01*
X202388417Y-99217554D01*
X202602812Y-99260200D01*
X202602815Y-99260200D01*
X202675199Y-99274598D01*
X202747583Y-99260200D01*
X203043241Y-99260200D01*
X203124041Y-99341000D01*
X198678447Y-99341000D01*
X195414900Y-96077454D01*
X195414900Y-95944484D01*
X195266023Y-95585064D01*
X194990936Y-95309977D01*
X194631516Y-95161100D01*
X194242484Y-95161100D01*
X193883064Y-95309977D01*
X193607977Y-95585064D01*
X193459100Y-95944484D01*
X193459100Y-96333516D01*
X193607977Y-96692936D01*
X193883064Y-96968023D01*
X194242484Y-97116900D01*
X194375454Y-97116900D01*
X197291147Y-100032594D01*
X197112917Y-100068046D01*
X196869795Y-100230495D01*
X196828791Y-100291862D01*
X189659254Y-107461400D01*
X179553436Y-107461400D01*
X179649900Y-107228516D01*
X179649900Y-107135832D01*
X179733936Y-107101023D01*
X180009023Y-106825936D01*
X180157900Y-106466516D01*
X180157900Y-106373832D01*
X180241936Y-106339023D01*
X180517023Y-106063936D01*
X180665900Y-105704516D01*
X180665900Y-105315484D01*
X180517023Y-104956064D01*
X180241936Y-104680977D01*
X179882516Y-104532100D01*
X179493484Y-104532100D01*
X179134064Y-104680977D01*
X179040041Y-104775000D01*
X149974959Y-104775000D01*
X149880936Y-104680977D01*
X149521516Y-104532100D01*
X149132484Y-104532100D01*
X148773064Y-104680977D01*
X148679041Y-104775000D01*
X140914900Y-104775000D01*
X140914900Y-104553484D01*
X140766023Y-104194064D01*
X140672000Y-104100041D01*
X140672000Y-103236959D01*
X140766023Y-103142936D01*
X140914900Y-102783516D01*
X140914900Y-102394484D01*
X140766023Y-102035064D01*
X140490936Y-101759977D01*
X140131516Y-101611100D01*
X139742484Y-101611100D01*
X139383064Y-101759977D01*
X139107977Y-102035064D01*
X138959100Y-102394484D01*
X138959100Y-102783516D01*
X139107977Y-103142936D01*
X139202000Y-103236959D01*
X139202001Y-104100040D01*
X139107977Y-104194064D01*
X138959100Y-104553484D01*
X138959100Y-104775000D01*
X121915959Y-104775000D01*
X121821936Y-104680977D01*
X121462516Y-104532100D01*
X121073484Y-104532100D01*
X120714064Y-104680977D01*
X120620041Y-104775000D01*
X119502959Y-104775000D01*
X119408936Y-104680977D01*
X119049516Y-104532100D01*
X118660484Y-104532100D01*
X118301064Y-104680977D01*
X118025977Y-104956064D01*
X117877100Y-105315484D01*
X117877100Y-105537000D01*
X111539447Y-105537000D01*
X111043911Y-105041465D01*
X111002905Y-104980095D01*
X110759783Y-104817646D01*
X110545388Y-104775000D01*
X110545384Y-104775000D01*
X110473000Y-104760602D01*
X110400616Y-104775000D01*
X109850959Y-104775000D01*
X109756936Y-104680977D01*
X109397516Y-104532100D01*
X109163700Y-104532100D01*
X109163700Y-103515546D01*
X109178588Y-103440699D01*
X109163700Y-103365852D01*
X109163700Y-103365848D01*
X109119604Y-103144163D01*
X108951629Y-102892771D01*
X108888173Y-102850371D01*
X107355002Y-101317200D01*
X108747353Y-101317200D01*
X108822200Y-101332088D01*
X108897047Y-101317200D01*
X108897052Y-101317200D01*
X109118737Y-101273104D01*
X109370129Y-101105129D01*
X109412531Y-101041670D01*
X110018173Y-100436029D01*
X110081629Y-100393629D01*
X110249604Y-100142237D01*
X110293700Y-99920552D01*
X110293700Y-99920547D01*
X110308588Y-99845700D01*
X110293700Y-99770853D01*
X110293700Y-99311548D01*
X110308588Y-99236700D01*
X110293700Y-99161852D01*
X110293700Y-99161848D01*
X110249604Y-98940163D01*
X110089900Y-98701149D01*
X110089900Y-97153159D01*
X110158923Y-97084136D01*
X110307800Y-96724716D01*
X110307800Y-96335684D01*
X110158923Y-95976264D01*
X109883836Y-95701177D01*
X109524416Y-95552300D01*
X109135384Y-95552300D01*
X108775964Y-95701177D01*
X108693200Y-95783941D01*
X108693200Y-91401913D01*
X108708088Y-91327065D01*
X108693200Y-91252217D01*
X108693200Y-91252213D01*
X108649104Y-91030528D01*
X108635429Y-91010061D01*
X108708384Y-90833932D01*
X108708384Y-90716100D01*
X111876299Y-90716100D01*
X112422870Y-91262672D01*
X112465271Y-91326129D01*
X112716663Y-91494104D01*
X112938348Y-91538200D01*
X112938353Y-91538200D01*
X113013200Y-91553088D01*
X113088047Y-91538200D01*
X115057241Y-91538200D01*
X115126264Y-91607223D01*
X115485684Y-91756100D01*
X115874716Y-91756100D01*
X116234136Y-91607223D01*
X116342279Y-91499080D01*
X118703700Y-93860502D01*
X118703701Y-98733348D01*
X118688812Y-98808200D01*
X118703701Y-98883052D01*
X118725847Y-98994388D01*
X118747797Y-99104737D01*
X118871945Y-99290537D01*
X118915772Y-99356129D01*
X118979228Y-99398529D01*
X119887171Y-100306473D01*
X119929571Y-100369929D01*
X119993027Y-100412329D01*
X120180962Y-100537904D01*
X120214309Y-100544537D01*
X120402648Y-100582000D01*
X120402652Y-100582000D01*
X120477500Y-100596888D01*
X120552348Y-100582000D01*
X121819599Y-100582000D01*
X121425299Y-100976300D01*
X121327684Y-100976300D01*
X120968264Y-101125177D01*
X120693177Y-101400264D01*
X120544300Y-101759684D01*
X120544300Y-102148716D01*
X120693177Y-102508136D01*
X120968264Y-102783223D01*
X121327684Y-102932100D01*
X121716716Y-102932100D01*
X122076136Y-102783223D01*
X122351223Y-102508136D01*
X122500100Y-102148716D01*
X122500100Y-102051101D01*
X125901002Y-98650200D01*
X132369353Y-98650200D01*
X132444200Y-98665088D01*
X132519047Y-98650200D01*
X132519052Y-98650200D01*
X132740737Y-98606104D01*
X132992129Y-98438129D01*
X133034531Y-98374670D01*
X139363003Y-92046200D01*
X147979978Y-92046200D01*
X147849300Y-92361684D01*
X147849300Y-92750716D01*
X147998177Y-93110136D01*
X148067200Y-93179159D01*
X148067200Y-93370352D01*
X148052312Y-93445200D01*
X148067200Y-93520047D01*
X148067200Y-93520051D01*
X148111296Y-93741736D01*
X148279271Y-93993129D01*
X148342730Y-94035531D01*
X151513000Y-97205802D01*
X151513000Y-97275953D01*
X151498112Y-97350800D01*
X151513000Y-97425647D01*
X151513000Y-97425651D01*
X151526072Y-97491369D01*
X151300177Y-97717264D01*
X151151300Y-98076684D01*
X151151300Y-98465716D01*
X151300177Y-98825136D01*
X151575264Y-99100223D01*
X151934684Y-99249100D01*
X152032299Y-99249100D01*
X154222673Y-101439476D01*
X154265071Y-101502929D01*
X154328524Y-101545327D01*
X154328526Y-101545329D01*
X154389527Y-101586088D01*
X154516463Y-101670904D01*
X154738148Y-101715000D01*
X154738152Y-101715000D01*
X154812999Y-101729888D01*
X154887846Y-101715000D01*
X161727199Y-101715000D01*
X162731673Y-102719476D01*
X162774071Y-102782929D01*
X162837524Y-102825327D01*
X162837526Y-102825329D01*
X162925334Y-102884000D01*
X163025463Y-102950904D01*
X163247148Y-102995000D01*
X163247152Y-102995000D01*
X163321999Y-103009888D01*
X163396846Y-102995000D01*
X164150199Y-102995000D01*
X164866671Y-103711473D01*
X164909071Y-103774929D01*
X165160463Y-103942904D01*
X165382148Y-103987000D01*
X165382153Y-103987000D01*
X165457000Y-104001888D01*
X165531847Y-103987000D01*
X166656553Y-103987000D01*
X166731400Y-104001888D01*
X166806247Y-103987000D01*
X166806252Y-103987000D01*
X167027937Y-103942904D01*
X167279329Y-103774929D01*
X167321731Y-103711470D01*
X169758673Y-101274529D01*
X169822129Y-101232129D01*
X169990104Y-100980737D01*
X170034200Y-100759052D01*
X170034200Y-100759048D01*
X170049088Y-100684201D01*
X170034200Y-100609354D01*
X170034200Y-94438601D01*
X172553602Y-91919200D01*
X179236399Y-91919200D01*
X180850001Y-93532803D01*
X180850000Y-97842153D01*
X180835112Y-97917000D01*
X180850000Y-97991847D01*
X180850000Y-97991851D01*
X180894096Y-98213536D01*
X181062071Y-98464929D01*
X181125530Y-98507331D01*
X183063228Y-100445030D01*
X183105628Y-100508486D01*
X183357020Y-100676461D01*
X183578705Y-100720557D01*
X183578709Y-100720557D01*
X183653556Y-100735445D01*
X183728403Y-100720557D01*
X184190210Y-100720557D01*
X184265057Y-100735445D01*
X184339904Y-100720557D01*
X184339909Y-100720557D01*
X184561594Y-100676461D01*
X184812986Y-100508486D01*
X184855388Y-100445027D01*
X185193570Y-100106845D01*
X185257029Y-100064443D01*
X185425004Y-99813051D01*
X185469100Y-99591366D01*
X185469100Y-99591362D01*
X185483988Y-99516514D01*
X185469100Y-99441666D01*
X185469100Y-96124759D01*
X185538123Y-96055736D01*
X185687000Y-95696316D01*
X185687000Y-95307284D01*
X185538123Y-94947864D01*
X185263036Y-94672777D01*
X184903616Y-94523900D01*
X184514584Y-94523900D01*
X184155164Y-94672777D01*
X183880077Y-94947864D01*
X183767000Y-95220855D01*
X183767000Y-93165846D01*
X183781888Y-93090999D01*
X183767000Y-93016152D01*
X183767000Y-93016148D01*
X183722904Y-92794463D01*
X183675080Y-92722889D01*
X183597329Y-92606526D01*
X183597327Y-92606524D01*
X183554929Y-92543071D01*
X183491476Y-92500673D01*
X182548821Y-91558019D01*
X182671936Y-91507023D01*
X182947023Y-91231936D01*
X183095900Y-90872516D01*
X183095900Y-90774901D01*
X185463971Y-88406830D01*
X185516164Y-88459023D01*
X185875584Y-88607900D01*
X186264616Y-88607900D01*
X186624036Y-88459023D01*
X186899123Y-88183936D01*
X187048000Y-87824516D01*
X187048000Y-87435484D01*
X186899123Y-87076064D01*
X186758457Y-86935398D01*
X192759301Y-80934778D01*
X201565000Y-80934778D01*
X201565000Y-81585222D01*
X201813914Y-82186153D01*
X202273847Y-82646086D01*
X202874778Y-82895000D01*
X203525222Y-82895000D01*
X204126153Y-82646086D01*
X204586086Y-82186153D01*
X204835000Y-81585222D01*
X204835000Y-80934778D01*
X204586086Y-80333847D01*
X204126153Y-79873914D01*
X203525222Y-79625000D01*
X202874778Y-79625000D01*
X202273847Y-79873914D01*
X201813914Y-80333847D01*
X201565000Y-80934778D01*
X192759301Y-80934778D01*
X197189764Y-76504481D01*
X197282870Y-76442270D01*
X197412595Y-76248123D01*
X197529298Y-76073472D01*
X197529300Y-76073461D01*
X197529307Y-76073451D01*
X197582235Y-75807364D01*
X197615843Y-75638422D01*
X197594000Y-75528599D01*
X197594000Y-75295000D01*
X202137459Y-75295000D01*
X202200000Y-75307440D01*
X204200000Y-75307440D01*
X204447765Y-75258157D01*
X204657809Y-75117809D01*
X204798157Y-74907765D01*
X204847440Y-74660000D01*
X204847440Y-73758491D01*
X204867031Y-73660000D01*
X204847440Y-73561509D01*
X204847440Y-72660000D01*
X204798157Y-72412235D01*
X204657809Y-72202191D01*
X204447765Y-72061843D01*
X204200000Y-72012560D01*
X202200000Y-72012560D01*
X202137459Y-72025000D01*
X197594000Y-72025000D01*
X197594000Y-71737811D01*
X197615843Y-71627999D01*
X197594000Y-71518187D01*
X197594000Y-71518183D01*
X197529307Y-71192949D01*
X197282870Y-70824130D01*
X197189772Y-70761924D01*
X186677078Y-60249231D01*
X186614870Y-60156130D01*
X186246051Y-59909693D01*
X185920817Y-59845000D01*
X185920812Y-59845000D01*
X185811000Y-59823157D01*
X185701188Y-59845000D01*
X183157440Y-59845000D01*
X183157440Y-59155000D01*
X183108157Y-58907235D01*
X182967809Y-58697191D01*
X182757765Y-58556843D01*
X182510000Y-58507560D01*
X180710000Y-58507560D01*
X180462235Y-58556843D01*
X180252191Y-58697191D01*
X180111843Y-58907235D01*
X180107315Y-58930000D01*
X172665100Y-58930000D01*
X172665100Y-58706684D01*
X172516223Y-58347264D01*
X172241136Y-58072177D01*
X171881716Y-57923300D01*
X171784102Y-57923300D01*
X171594630Y-57733829D01*
X171552229Y-57670371D01*
X171300837Y-57502396D01*
X171079152Y-57458300D01*
X171079147Y-57458300D01*
X171004300Y-57443412D01*
X170929453Y-57458300D01*
X168028402Y-57458300D01*
X158830102Y-48260000D01*
X167352079Y-48260000D01*
X167442885Y-48716511D01*
X167562147Y-48895000D01*
X167442885Y-49073489D01*
X167352079Y-49530000D01*
X167442885Y-49986511D01*
X167562147Y-50165000D01*
X167442885Y-50343489D01*
X167352079Y-50800000D01*
X167442885Y-51256511D01*
X167701477Y-51643523D01*
X168088489Y-51902115D01*
X168429769Y-51970000D01*
X169390231Y-51970000D01*
X169731511Y-51902115D01*
X170118523Y-51643523D01*
X170174331Y-51560000D01*
X176098199Y-51560000D01*
X183055100Y-58516903D01*
X183055100Y-58614516D01*
X183203977Y-58973936D01*
X183479064Y-59249023D01*
X183838484Y-59397900D01*
X184227516Y-59397900D01*
X184586936Y-59249023D01*
X184862023Y-58973936D01*
X185010900Y-58614516D01*
X185010900Y-58225484D01*
X184862023Y-57866064D01*
X184586936Y-57590977D01*
X184227516Y-57442100D01*
X184129903Y-57442100D01*
X177003331Y-50315530D01*
X176960929Y-50252071D01*
X176709537Y-50084096D01*
X176487852Y-50040000D01*
X176487847Y-50040000D01*
X176413000Y-50025112D01*
X176338153Y-50040000D01*
X170341375Y-50040000D01*
X170377115Y-49986511D01*
X170467921Y-49530000D01*
X170377115Y-49073489D01*
X170257853Y-48895000D01*
X170377115Y-48716511D01*
X170467921Y-48260000D01*
X170379527Y-47815613D01*
X170408157Y-47772765D01*
X170457440Y-47525000D01*
X170457440Y-46455000D01*
X170408157Y-46207235D01*
X170267809Y-45997191D01*
X170057765Y-45856843D01*
X169810000Y-45807560D01*
X168010000Y-45807560D01*
X167762235Y-45856843D01*
X167552191Y-45997191D01*
X167411843Y-46207235D01*
X167362560Y-46455000D01*
X167362560Y-47525000D01*
X167411843Y-47772765D01*
X167440473Y-47815613D01*
X167352079Y-48260000D01*
X158830102Y-48260000D01*
X154538101Y-43968000D01*
X176287899Y-43968000D01*
X179794371Y-47474473D01*
X179836771Y-47537929D01*
X179900227Y-47580329D01*
X180088162Y-47705904D01*
X180098971Y-47708054D01*
X180111843Y-47772765D01*
X180140473Y-47815613D01*
X180052079Y-48260000D01*
X180142885Y-48716511D01*
X180262147Y-48895000D01*
X180142885Y-49073489D01*
X180052079Y-49530000D01*
X180142885Y-49986511D01*
X180262147Y-50165000D01*
X180142885Y-50343489D01*
X180052079Y-50800000D01*
X180142885Y-51256511D01*
X180401477Y-51643523D01*
X180788489Y-51902115D01*
X181129769Y-51970000D01*
X182090231Y-51970000D01*
X182431511Y-51902115D01*
X182818523Y-51643523D01*
X183077115Y-51256511D01*
X183167921Y-50800000D01*
X183077115Y-50343489D01*
X182957853Y-50165000D01*
X183077115Y-49986511D01*
X183167921Y-49530000D01*
X183077115Y-49073489D01*
X182957853Y-48895000D01*
X183077115Y-48716511D01*
X183167921Y-48260000D01*
X183079527Y-47815613D01*
X183108157Y-47772765D01*
X183157440Y-47525000D01*
X183157440Y-46598970D01*
X201865635Y-46598970D01*
X202025418Y-46917739D01*
X202816187Y-47227723D01*
X203665387Y-47211497D01*
X204374582Y-46917739D01*
X204534365Y-46598970D01*
X203200000Y-45264605D01*
X201865635Y-46598970D01*
X183157440Y-46598970D01*
X183157440Y-46455000D01*
X183108157Y-46207235D01*
X182967809Y-45997191D01*
X182757765Y-45856843D01*
X182510000Y-45807560D01*
X180710000Y-45807560D01*
X180462235Y-45856843D01*
X180380775Y-45911273D01*
X179170689Y-44701187D01*
X201057277Y-44701187D01*
X201073503Y-45550387D01*
X201367261Y-46259582D01*
X201686030Y-46419365D01*
X203020395Y-45085000D01*
X203379605Y-45085000D01*
X204713970Y-46419365D01*
X205032739Y-46259582D01*
X205342723Y-45468813D01*
X205326497Y-44619613D01*
X205032739Y-43910418D01*
X204713970Y-43750635D01*
X203379605Y-45085000D01*
X203020395Y-45085000D01*
X201686030Y-43750635D01*
X201367261Y-43910418D01*
X201057277Y-44701187D01*
X179170689Y-44701187D01*
X178040532Y-43571030D01*
X201865635Y-43571030D01*
X203200000Y-44905395D01*
X204534365Y-43571030D01*
X204374582Y-43252261D01*
X203583813Y-42942277D01*
X202734613Y-42958503D01*
X202025418Y-43252261D01*
X201865635Y-43571030D01*
X178040532Y-43571030D01*
X177193031Y-42723530D01*
X177150629Y-42660071D01*
X176899237Y-42492096D01*
X176677552Y-42448000D01*
X176677547Y-42448000D01*
X176602700Y-42433112D01*
X176527853Y-42448000D01*
X107232346Y-42448000D01*
X107157499Y-42433112D01*
X107082652Y-42448000D01*
X107082648Y-42448000D01*
X106860963Y-42492096D01*
X106860961Y-42492097D01*
X106860962Y-42492097D01*
X106673026Y-42617671D01*
X106673024Y-42617673D01*
X106609571Y-42660071D01*
X106567173Y-42723524D01*
X101495130Y-47795569D01*
X101431671Y-47837971D01*
X101263696Y-48089364D01*
X101219600Y-48311049D01*
X101219600Y-48311053D01*
X101204712Y-48385900D01*
X101219600Y-48460747D01*
X101219601Y-92115748D01*
X101204712Y-92190600D01*
X101263697Y-92487137D01*
X101386091Y-92670312D01*
X101431672Y-92738529D01*
X101495128Y-92780929D01*
X103363200Y-94649002D01*
X103363200Y-96277300D01*
X103166684Y-96277300D01*
X102807264Y-96426177D01*
X102532177Y-96701264D01*
X102383300Y-97060684D01*
X102383300Y-97449716D01*
X102532177Y-97809136D01*
X102807264Y-98084223D01*
X102855201Y-98104079D01*
X102855200Y-100838000D01*
X95377000Y-100838000D01*
X95377000Y-38895594D01*
X97945000Y-38895594D01*
X97945000Y-39844406D01*
X98308095Y-40720994D01*
X98979006Y-41391905D01*
X99855594Y-41755000D01*
X100804406Y-41755000D01*
X101680994Y-41391905D01*
X102351905Y-40720994D01*
X102715000Y-39844406D01*
X102715000Y-38895594D01*
X212245000Y-38895594D01*
X212245000Y-39844406D01*
X212608095Y-40720994D01*
X213279006Y-41391905D01*
X214155594Y-41755000D01*
X215104406Y-41755000D01*
X215980994Y-41391905D01*
X216651905Y-40720994D01*
X217015000Y-39844406D01*
X217015000Y-38895594D01*
X216651905Y-38019006D01*
X215980994Y-37348095D01*
X215104406Y-36985000D01*
X214155594Y-36985000D01*
X213279006Y-37348095D01*
X212608095Y-38019006D01*
X212245000Y-38895594D01*
X102715000Y-38895594D01*
X102351905Y-38019006D01*
X101680994Y-37348095D01*
X100804406Y-36985000D01*
X99855594Y-36985000D01*
X98979006Y-37348095D01*
X98308095Y-38019006D01*
X97945000Y-38895594D01*
X95377000Y-38895594D01*
X95377000Y-34417000D01*
X219583000Y-34417000D01*
X219583000Y-145923000D01*
G36*
X128926100Y-109514516D02*
X129074977Y-109873936D01*
X129350064Y-110149023D01*
X129709484Y-110297900D01*
X130098516Y-110297900D01*
X130457936Y-110149023D01*
X130551959Y-110055000D01*
X133282554Y-110055000D01*
X133778090Y-110550537D01*
X133819095Y-110611905D01*
X134062217Y-110774354D01*
X134276612Y-110817000D01*
X134349000Y-110831399D01*
X134421388Y-110817000D01*
X134806554Y-110817000D01*
X136229179Y-112239625D01*
X136081064Y-112300977D01*
X135805977Y-112576064D01*
X135657100Y-112935484D01*
X135657100Y-113068860D01*
X135201364Y-113525000D01*
X134100857Y-113525000D01*
X134183900Y-113324516D01*
X134183900Y-112935484D01*
X134035023Y-112576064D01*
X133759936Y-112300977D01*
X133400516Y-112152100D01*
X133011484Y-112152100D01*
X132652064Y-112300977D01*
X132558041Y-112395000D01*
X130551959Y-112395000D01*
X130457936Y-112300977D01*
X130098516Y-112152100D01*
X129709484Y-112152100D01*
X129350064Y-112300977D01*
X129074977Y-112576064D01*
X128926100Y-112935484D01*
X128926100Y-113324516D01*
X129009143Y-113525000D01*
X128807384Y-113525000D01*
X128735000Y-113510602D01*
X128662616Y-113525000D01*
X128662612Y-113525000D01*
X128448217Y-113567646D01*
X128205095Y-113730095D01*
X128164090Y-113791463D01*
X127236454Y-114719100D01*
X127103484Y-114719100D01*
X126744064Y-114867977D01*
X126468977Y-115143064D01*
X126320100Y-115502484D01*
X126320100Y-115891516D01*
X126468977Y-116250936D01*
X126744064Y-116526023D01*
X127103484Y-116674900D01*
X127492516Y-116674900D01*
X127851936Y-116526023D01*
X128127023Y-116250936D01*
X128275900Y-115891516D01*
X128275900Y-115758546D01*
X129039447Y-114995000D01*
X135433779Y-114995000D01*
X135506331Y-115009398D01*
X135648157Y-114981122D01*
X135792783Y-114952354D01*
X135792924Y-114952260D01*
X135793088Y-114952227D01*
X135913847Y-114871462D01*
X136035905Y-114789905D01*
X136077001Y-114728400D01*
X136696952Y-114107900D01*
X136829516Y-114107900D01*
X137188936Y-113959023D01*
X137464023Y-113683936D01*
X137525374Y-113535821D01*
X138494097Y-114504544D01*
X138348077Y-114650564D01*
X138199200Y-115009984D01*
X138199200Y-115399016D01*
X138348077Y-115758436D01*
X138623164Y-116033523D01*
X138982584Y-116182400D01*
X139044843Y-116182400D01*
X142167701Y-119305258D01*
X142167700Y-120625500D01*
X142064984Y-120625500D01*
X141705564Y-120774377D01*
X141430477Y-121049464D01*
X141299936Y-121364617D01*
X139595165Y-123069389D01*
X139533795Y-123110395D01*
X139371346Y-123353518D01*
X139328700Y-123567913D01*
X139328700Y-123567916D01*
X139314302Y-123640300D01*
X139328700Y-123712685D01*
X139328701Y-125834511D01*
X139314302Y-125906900D01*
X139371346Y-126193682D01*
X139453902Y-126317235D01*
X139533796Y-126436805D01*
X139595163Y-126477809D01*
X143165353Y-130048000D01*
X136577606Y-130048000D01*
X133439803Y-126910197D01*
X133398601Y-126882667D01*
X133350000Y-126873000D01*
X118797606Y-126873000D01*
X111252000Y-119327394D01*
X111252000Y-111785102D01*
X111804671Y-112337773D01*
X111847071Y-112401229D01*
X112098463Y-112569204D01*
X112320148Y-112613300D01*
X112320152Y-112613300D01*
X112394999Y-112628188D01*
X112469846Y-112613300D01*
X125377353Y-112613300D01*
X125452200Y-112628188D01*
X125527047Y-112613300D01*
X125527052Y-112613300D01*
X125748737Y-112569204D01*
X126000129Y-112401229D01*
X126042531Y-112337770D01*
X126926210Y-111454092D01*
X126989666Y-111411692D01*
X127157641Y-111160300D01*
X127201737Y-110938615D01*
X127201737Y-110938611D01*
X127216625Y-110863763D01*
X127201737Y-110788915D01*
X127201737Y-110459904D01*
X127236541Y-110425100D01*
X127431716Y-110425100D01*
X127791136Y-110276223D01*
X128066223Y-110001136D01*
X128215100Y-109641716D01*
X128215100Y-109293000D01*
X128926100Y-109293000D01*
X128926100Y-109514516D01*
X128926100Y-109514516D01*
G37*
X128926100Y-109514516D02*
X129074977Y-109873936D01*
X129350064Y-110149023D01*
X129709484Y-110297900D01*
X130098516Y-110297900D01*
X130457936Y-110149023D01*
X130551959Y-110055000D01*
X133282554Y-110055000D01*
X133778090Y-110550537D01*
X133819095Y-110611905D01*
X134062217Y-110774354D01*
X134276612Y-110817000D01*
X134349000Y-110831399D01*
X134421388Y-110817000D01*
X134806554Y-110817000D01*
X136229179Y-112239625D01*
X136081064Y-112300977D01*
X135805977Y-112576064D01*
X135657100Y-112935484D01*
X135657100Y-113068860D01*
X135201364Y-113525000D01*
X134100857Y-113525000D01*
X134183900Y-113324516D01*
X134183900Y-112935484D01*
X134035023Y-112576064D01*
X133759936Y-112300977D01*
X133400516Y-112152100D01*
X133011484Y-112152100D01*
X132652064Y-112300977D01*
X132558041Y-112395000D01*
X130551959Y-112395000D01*
X130457936Y-112300977D01*
X130098516Y-112152100D01*
X129709484Y-112152100D01*
X129350064Y-112300977D01*
X129074977Y-112576064D01*
X128926100Y-112935484D01*
X128926100Y-113324516D01*
X129009143Y-113525000D01*
X128807384Y-113525000D01*
X128735000Y-113510602D01*
X128662616Y-113525000D01*
X128662612Y-113525000D01*
X128448217Y-113567646D01*
X128205095Y-113730095D01*
X128164090Y-113791463D01*
X127236454Y-114719100D01*
X127103484Y-114719100D01*
X126744064Y-114867977D01*
X126468977Y-115143064D01*
X126320100Y-115502484D01*
X126320100Y-115891516D01*
X126468977Y-116250936D01*
X126744064Y-116526023D01*
X127103484Y-116674900D01*
X127492516Y-116674900D01*
X127851936Y-116526023D01*
X128127023Y-116250936D01*
X128275900Y-115891516D01*
X128275900Y-115758546D01*
X129039447Y-114995000D01*
X135433779Y-114995000D01*
X135506331Y-115009398D01*
X135648157Y-114981122D01*
X135792783Y-114952354D01*
X135792924Y-114952260D01*
X135793088Y-114952227D01*
X135913847Y-114871462D01*
X136035905Y-114789905D01*
X136077001Y-114728400D01*
X136696952Y-114107900D01*
X136829516Y-114107900D01*
X137188936Y-113959023D01*
X137464023Y-113683936D01*
X137525374Y-113535821D01*
X138494097Y-114504544D01*
X138348077Y-114650564D01*
X138199200Y-115009984D01*
X138199200Y-115399016D01*
X138348077Y-115758436D01*
X138623164Y-116033523D01*
X138982584Y-116182400D01*
X139044843Y-116182400D01*
X142167701Y-119305258D01*
X142167700Y-120625500D01*
X142064984Y-120625500D01*
X141705564Y-120774377D01*
X141430477Y-121049464D01*
X141299936Y-121364617D01*
X139595165Y-123069389D01*
X139533795Y-123110395D01*
X139371346Y-123353518D01*
X139328700Y-123567913D01*
X139328700Y-123567916D01*
X139314302Y-123640300D01*
X139328700Y-123712685D01*
X139328701Y-125834511D01*
X139314302Y-125906900D01*
X139371346Y-126193682D01*
X139453902Y-126317235D01*
X139533796Y-126436805D01*
X139595163Y-126477809D01*
X143165353Y-130048000D01*
X136577606Y-130048000D01*
X133439803Y-126910197D01*
X133398601Y-126882667D01*
X133350000Y-126873000D01*
X118797606Y-126873000D01*
X111252000Y-119327394D01*
X111252000Y-111785102D01*
X111804671Y-112337773D01*
X111847071Y-112401229D01*
X112098463Y-112569204D01*
X112320148Y-112613300D01*
X112320152Y-112613300D01*
X112394999Y-112628188D01*
X112469846Y-112613300D01*
X125377353Y-112613300D01*
X125452200Y-112628188D01*
X125527047Y-112613300D01*
X125527052Y-112613300D01*
X125748737Y-112569204D01*
X126000129Y-112401229D01*
X126042531Y-112337770D01*
X126926210Y-111454092D01*
X126989666Y-111411692D01*
X127157641Y-111160300D01*
X127201737Y-110938615D01*
X127201737Y-110938611D01*
X127216625Y-110863763D01*
X127201737Y-110788915D01*
X127201737Y-110459904D01*
X127236541Y-110425100D01*
X127431716Y-110425100D01*
X127791136Y-110276223D01*
X128066223Y-110001136D01*
X128215100Y-109641716D01*
X128215100Y-109293000D01*
X128926100Y-109293000D01*
X128926100Y-109514516D01*
G36*
X149627300Y-123315550D02*
X149477783Y-123215646D01*
X149263388Y-123173000D01*
X149263384Y-123173000D01*
X149191000Y-123158602D01*
X149118616Y-123173000D01*
X148662383Y-123173000D01*
X148589999Y-123158602D01*
X148517615Y-123173000D01*
X148517612Y-123173000D01*
X148303217Y-123215646D01*
X148060095Y-123378095D01*
X148019090Y-123439463D01*
X147622453Y-123836100D01*
X147489484Y-123836100D01*
X147130064Y-123984977D01*
X146854977Y-124260064D01*
X146706100Y-124619484D01*
X146706100Y-125008516D01*
X146854977Y-125367936D01*
X147130064Y-125643023D01*
X147489484Y-125791900D01*
X147878516Y-125791900D01*
X148237936Y-125643023D01*
X148427830Y-125453129D01*
X148632484Y-125537900D01*
X149021516Y-125537900D01*
X149380936Y-125389023D01*
X149474959Y-125295000D01*
X151151100Y-125295000D01*
X151151100Y-125516516D01*
X151299977Y-125875936D01*
X151443241Y-126019200D01*
X147017511Y-126019200D01*
X146940199Y-126003822D01*
X146862887Y-126019200D01*
X146862884Y-126019200D01*
X146633908Y-126064746D01*
X146439791Y-126194451D01*
X146439789Y-126194453D01*
X146374247Y-126238247D01*
X146363200Y-126254780D01*
X146363200Y-124394900D01*
X146481516Y-124394900D01*
X146840936Y-124246023D01*
X147116023Y-123970936D01*
X147264900Y-123611516D01*
X147264900Y-123478546D01*
X147599546Y-123143901D01*
X149627300Y-123143901D01*
X149627300Y-123315550D01*
X149627300Y-123315550D01*
G37*
X149627300Y-123315550D02*
X149477783Y-123215646D01*
X149263388Y-123173000D01*
X149263384Y-123173000D01*
X149191000Y-123158602D01*
X149118616Y-123173000D01*
X148662383Y-123173000D01*
X148589999Y-123158602D01*
X148517615Y-123173000D01*
X148517612Y-123173000D01*
X148303217Y-123215646D01*
X148060095Y-123378095D01*
X148019090Y-123439463D01*
X147622453Y-123836100D01*
X147489484Y-123836100D01*
X147130064Y-123984977D01*
X146854977Y-124260064D01*
X146706100Y-124619484D01*
X146706100Y-125008516D01*
X146854977Y-125367936D01*
X147130064Y-125643023D01*
X147489484Y-125791900D01*
X147878516Y-125791900D01*
X148237936Y-125643023D01*
X148427830Y-125453129D01*
X148632484Y-125537900D01*
X149021516Y-125537900D01*
X149380936Y-125389023D01*
X149474959Y-125295000D01*
X151151100Y-125295000D01*
X151151100Y-125516516D01*
X151299977Y-125875936D01*
X151443241Y-126019200D01*
X147017511Y-126019200D01*
X146940199Y-126003822D01*
X146862887Y-126019200D01*
X146862884Y-126019200D01*
X146633908Y-126064746D01*
X146439791Y-126194451D01*
X146439789Y-126194453D01*
X146374247Y-126238247D01*
X146363200Y-126254780D01*
X146363200Y-124394900D01*
X146481516Y-124394900D01*
X146840936Y-124246023D01*
X147116023Y-123970936D01*
X147264900Y-123611516D01*
X147264900Y-123478546D01*
X147599546Y-123143901D01*
X149627300Y-123143901D01*
X149627300Y-123315550D01*
G36*
X155529043Y-126019200D02*
X152814759Y-126019200D01*
X152958023Y-125875936D01*
X152988151Y-125803200D01*
X155745043Y-125803200D01*
X155529043Y-126019200D01*
X155529043Y-126019200D01*
G37*
X155529043Y-126019200D02*
X152814759Y-126019200D01*
X152958023Y-125875936D01*
X152988151Y-125803200D01*
X155745043Y-125803200D01*
X155529043Y-126019200D01*
G36*
X186038150Y-124326403D02*
X185950125Y-124238378D01*
X185590705Y-124089501D01*
X185201673Y-124089501D01*
X184842253Y-124238378D01*
X184748230Y-124332401D01*
X184462197Y-124332401D01*
X184327023Y-124006064D01*
X184051936Y-123730977D01*
X183692516Y-123582100D01*
X183356347Y-123582100D01*
X183966537Y-122971910D01*
X184027905Y-122930905D01*
X184190354Y-122687783D01*
X184233000Y-122473388D01*
X184247399Y-122401000D01*
X184233000Y-122328612D01*
X184233000Y-120127959D01*
X184327023Y-120033936D01*
X184475900Y-119674516D01*
X184475900Y-119285484D01*
X184355577Y-118995000D01*
X191369553Y-118995000D01*
X186038150Y-124326403D01*
X186038150Y-124326403D01*
G37*
X186038150Y-124326403D02*
X185950125Y-124238378D01*
X185590705Y-124089501D01*
X185201673Y-124089501D01*
X184842253Y-124238378D01*
X184748230Y-124332401D01*
X184462197Y-124332401D01*
X184327023Y-124006064D01*
X184051936Y-123730977D01*
X183692516Y-123582100D01*
X183356347Y-123582100D01*
X183966537Y-122971910D01*
X184027905Y-122930905D01*
X184190354Y-122687783D01*
X184233000Y-122473388D01*
X184247399Y-122401000D01*
X184233000Y-122328612D01*
X184233000Y-120127959D01*
X184327023Y-120033936D01*
X184475900Y-119674516D01*
X184475900Y-119285484D01*
X184355577Y-118995000D01*
X191369553Y-118995000D01*
X186038150Y-124326403D01*
G36*
X181293064Y-119039023D02*
X181652484Y-119187900D01*
X182041516Y-119187900D01*
X182400936Y-119039023D01*
X182444959Y-118995000D01*
X182640423Y-118995000D01*
X182520100Y-119285484D01*
X182520100Y-119674516D01*
X182668977Y-120033936D01*
X182763000Y-120127959D01*
X182763001Y-122096552D01*
X181542354Y-123317200D01*
X166442100Y-123317200D01*
X166442100Y-123095684D01*
X166293223Y-122736264D01*
X166018136Y-122461177D01*
X165658716Y-122312300D01*
X165269684Y-122312300D01*
X164910264Y-122461177D01*
X164866241Y-122505200D01*
X162539678Y-122505200D01*
X162648900Y-122241516D01*
X162648900Y-121866000D01*
X177583616Y-121866000D01*
X177656000Y-121880398D01*
X177728384Y-121866000D01*
X177728388Y-121866000D01*
X177942783Y-121823354D01*
X178185905Y-121660905D01*
X178226911Y-121599535D01*
X181040244Y-118786203D01*
X181293064Y-119039023D01*
X181293064Y-119039023D01*
G37*
X181293064Y-119039023D02*
X181652484Y-119187900D01*
X182041516Y-119187900D01*
X182400936Y-119039023D01*
X182444959Y-118995000D01*
X182640423Y-118995000D01*
X182520100Y-119285484D01*
X182520100Y-119674516D01*
X182668977Y-120033936D01*
X182763000Y-120127959D01*
X182763001Y-122096552D01*
X181542354Y-123317200D01*
X166442100Y-123317200D01*
X166442100Y-123095684D01*
X166293223Y-122736264D01*
X166018136Y-122461177D01*
X165658716Y-122312300D01*
X165269684Y-122312300D01*
X164910264Y-122461177D01*
X164866241Y-122505200D01*
X162539678Y-122505200D01*
X162648900Y-122241516D01*
X162648900Y-121866000D01*
X177583616Y-121866000D01*
X177656000Y-121880398D01*
X177728384Y-121866000D01*
X177728388Y-121866000D01*
X177942783Y-121823354D01*
X178185905Y-121660905D01*
X178226911Y-121599535D01*
X181040244Y-118786203D01*
X181293064Y-119039023D01*
G36*
X180157900Y-115855654D02*
X180157900Y-115475484D01*
X180009023Y-115116064D01*
X179733936Y-114840977D01*
X179374516Y-114692100D01*
X178985484Y-114692100D01*
X178626064Y-114840977D01*
X178350977Y-115116064D01*
X178202100Y-115475484D01*
X178202100Y-115864516D01*
X178242521Y-115962100D01*
X178223484Y-115962100D01*
X177864064Y-116110977D01*
X177770041Y-116205000D01*
X174570388Y-116205000D01*
X174498000Y-116190601D01*
X174425612Y-116205000D01*
X174211217Y-116247646D01*
X173968095Y-116410095D01*
X173927091Y-116471463D01*
X171526554Y-118872000D01*
X159545447Y-118872000D01*
X158883446Y-118210000D01*
X165281616Y-118210000D01*
X165354000Y-118224398D01*
X165426384Y-118210000D01*
X165426388Y-118210000D01*
X165640783Y-118167354D01*
X165883905Y-118004905D01*
X165924911Y-117943535D01*
X167436447Y-116432000D01*
X169278041Y-116432000D01*
X169372064Y-116526023D01*
X169731484Y-116674900D01*
X170120516Y-116674900D01*
X170479936Y-116526023D01*
X170755023Y-116250936D01*
X170903900Y-115891516D01*
X170903900Y-115502484D01*
X170755023Y-115143064D01*
X170479936Y-114867977D01*
X170120516Y-114719100D01*
X169731484Y-114719100D01*
X169372064Y-114867977D01*
X169278041Y-114962000D01*
X168040447Y-114962000D01*
X170380447Y-112622000D01*
X179400554Y-112622000D01*
X179870100Y-113091547D01*
X179870100Y-113224516D01*
X180018977Y-113583936D01*
X180294064Y-113859023D01*
X180653484Y-114007900D01*
X181042516Y-114007900D01*
X181401936Y-113859023D01*
X181677023Y-113583936D01*
X181825900Y-113224516D01*
X181825900Y-112835484D01*
X181677023Y-112476064D01*
X181401936Y-112200977D01*
X181053380Y-112056600D01*
X183956953Y-112056600D01*
X180157900Y-115855654D01*
X180157900Y-115855654D01*
G37*
X180157900Y-115855654D02*
X180157900Y-115475484D01*
X180009023Y-115116064D01*
X179733936Y-114840977D01*
X179374516Y-114692100D01*
X178985484Y-114692100D01*
X178626064Y-114840977D01*
X178350977Y-115116064D01*
X178202100Y-115475484D01*
X178202100Y-115864516D01*
X178242521Y-115962100D01*
X178223484Y-115962100D01*
X177864064Y-116110977D01*
X177770041Y-116205000D01*
X174570388Y-116205000D01*
X174498000Y-116190601D01*
X174425612Y-116205000D01*
X174211217Y-116247646D01*
X173968095Y-116410095D01*
X173927091Y-116471463D01*
X171526554Y-118872000D01*
X159545447Y-118872000D01*
X158883446Y-118210000D01*
X165281616Y-118210000D01*
X165354000Y-118224398D01*
X165426384Y-118210000D01*
X165426388Y-118210000D01*
X165640783Y-118167354D01*
X165883905Y-118004905D01*
X165924911Y-117943535D01*
X167436447Y-116432000D01*
X169278041Y-116432000D01*
X169372064Y-116526023D01*
X169731484Y-116674900D01*
X170120516Y-116674900D01*
X170479936Y-116526023D01*
X170755023Y-116250936D01*
X170903900Y-115891516D01*
X170903900Y-115502484D01*
X170755023Y-115143064D01*
X170479936Y-114867977D01*
X170120516Y-114719100D01*
X169731484Y-114719100D01*
X169372064Y-114867977D01*
X169278041Y-114962000D01*
X168040447Y-114962000D01*
X170380447Y-112622000D01*
X179400554Y-112622000D01*
X179870100Y-113091547D01*
X179870100Y-113224516D01*
X180018977Y-113583936D01*
X180294064Y-113859023D01*
X180653484Y-114007900D01*
X181042516Y-114007900D01*
X181401936Y-113859023D01*
X181677023Y-113583936D01*
X181825900Y-113224516D01*
X181825900Y-112835484D01*
X181677023Y-112476064D01*
X181401936Y-112200977D01*
X181053380Y-112056600D01*
X183956953Y-112056600D01*
X180157900Y-115855654D01*
G36*
X206004000Y-103047447D02*
X206004001Y-109396952D01*
X203138501Y-112262452D01*
X202896217Y-112310646D01*
X202653095Y-112473095D01*
X202490646Y-112716218D01*
X202448000Y-112930613D01*
X202448000Y-112952953D01*
X198660954Y-116740000D01*
X181384384Y-116740000D01*
X181357745Y-116734701D01*
X185343447Y-112749000D01*
X191526616Y-112749000D01*
X191599000Y-112763398D01*
X191671384Y-112749000D01*
X191671388Y-112749000D01*
X191885783Y-112706354D01*
X192128905Y-112543905D01*
X192169911Y-112482535D01*
X193973547Y-110678900D01*
X194106516Y-110678900D01*
X194465936Y-110530023D01*
X194741023Y-110254936D01*
X194889900Y-109895516D01*
X194889900Y-109506484D01*
X194741023Y-109147064D01*
X194615203Y-109021244D01*
X198026447Y-105610000D01*
X199360041Y-105610000D01*
X199454064Y-105704023D01*
X199813484Y-105852900D01*
X200202516Y-105852900D01*
X200561936Y-105704023D01*
X200837023Y-105428936D01*
X200985900Y-105069516D01*
X200985900Y-104680484D01*
X200837023Y-104321064D01*
X200561936Y-104045977D01*
X200202516Y-103897100D01*
X199813484Y-103897100D01*
X199454064Y-104045977D01*
X199360041Y-104140000D01*
X197794388Y-104140000D01*
X197722000Y-104125601D01*
X197649612Y-104140000D01*
X197435217Y-104182646D01*
X197192095Y-104345095D01*
X197151091Y-104406462D01*
X192834454Y-108723100D01*
X192701484Y-108723100D01*
X192342064Y-108871977D01*
X192066977Y-109147064D01*
X191918100Y-109506484D01*
X191918100Y-109639454D01*
X191702354Y-109855200D01*
X169490183Y-109855200D01*
X169417799Y-109840802D01*
X169345415Y-109855200D01*
X169345412Y-109855200D01*
X169131017Y-109897846D01*
X168887895Y-110060295D01*
X168846890Y-110121663D01*
X168097554Y-110871000D01*
X159457584Y-110871000D01*
X159385200Y-110856602D01*
X159312816Y-110871000D01*
X159312812Y-110871000D01*
X159098417Y-110913646D01*
X158855295Y-111076095D01*
X158814290Y-111137463D01*
X158064554Y-111887200D01*
X157806100Y-111887200D01*
X157806100Y-111665684D01*
X157657223Y-111306264D01*
X157382136Y-111031177D01*
X157022716Y-110882300D01*
X156633684Y-110882300D01*
X156274264Y-111031177D01*
X156230241Y-111075200D01*
X148771358Y-111075200D01*
X148039949Y-110343792D01*
X147996153Y-110278247D01*
X147736492Y-110104746D01*
X147507516Y-110059200D01*
X147507512Y-110059200D01*
X147430200Y-110043822D01*
X147352888Y-110059200D01*
X144824110Y-110059200D01*
X144746799Y-110043822D01*
X144669489Y-110059200D01*
X144669484Y-110059200D01*
X144483975Y-110096100D01*
X144322484Y-110096100D01*
X143963064Y-110244977D01*
X143687977Y-110520064D01*
X143539100Y-110879484D01*
X143539100Y-111268516D01*
X143687977Y-111627936D01*
X143688983Y-111628942D01*
X143636999Y-111618602D01*
X143564615Y-111633000D01*
X143564612Y-111633000D01*
X143350217Y-111675646D01*
X143107095Y-111838095D01*
X143066089Y-111899465D01*
X142737660Y-112227894D01*
X142676293Y-112268898D01*
X142513843Y-112512020D01*
X142471197Y-112726415D01*
X142471197Y-112726419D01*
X142456799Y-112798803D01*
X142471197Y-112871187D01*
X142471197Y-113195100D01*
X142299484Y-113195100D01*
X141940064Y-113343977D01*
X141782996Y-113501045D01*
X136812950Y-108531000D01*
X142007100Y-108531000D01*
X142007100Y-108752516D01*
X142155977Y-109111936D01*
X142431064Y-109387023D01*
X142790484Y-109535900D01*
X143179516Y-109535900D01*
X143538936Y-109387023D01*
X143632959Y-109293000D01*
X149390016Y-109293000D01*
X149462400Y-109307398D01*
X149534784Y-109293000D01*
X149534788Y-109293000D01*
X149749183Y-109250354D01*
X149937948Y-109124225D01*
X150126713Y-109250354D01*
X150341108Y-109293000D01*
X150341111Y-109293000D01*
X150413495Y-109307398D01*
X150485879Y-109293000D01*
X150913616Y-109293000D01*
X150986000Y-109307398D01*
X151058384Y-109293000D01*
X151058388Y-109293000D01*
X151272783Y-109250354D01*
X151515905Y-109087905D01*
X151556911Y-109026535D01*
X152052447Y-108531000D01*
X154931180Y-108531000D01*
X154829000Y-108777684D01*
X154829000Y-109166716D01*
X154977877Y-109526136D01*
X155252964Y-109801223D01*
X155612384Y-109950100D01*
X156001416Y-109950100D01*
X156360836Y-109801223D01*
X156635923Y-109526136D01*
X156784800Y-109166716D01*
X156784800Y-109033747D01*
X156887147Y-108931400D01*
X158070400Y-108931400D01*
X158070400Y-109143216D01*
X158219277Y-109502636D01*
X158494364Y-109777723D01*
X158853784Y-109926600D01*
X159242816Y-109926600D01*
X159602236Y-109777723D01*
X159696259Y-109683700D01*
X190245116Y-109683700D01*
X190317500Y-109698098D01*
X190389884Y-109683700D01*
X190389888Y-109683700D01*
X190604283Y-109641054D01*
X190847405Y-109478605D01*
X190888411Y-109417235D01*
X198068747Y-102236900D01*
X202872875Y-102236900D01*
X202850100Y-102291884D01*
X202850100Y-102680916D01*
X202998977Y-103040336D01*
X203274064Y-103315423D01*
X203633484Y-103464300D01*
X204022516Y-103464300D01*
X204381936Y-103315423D01*
X204657023Y-103040336D01*
X204805900Y-102680916D01*
X204805900Y-102563595D01*
X204958854Y-102334683D01*
X205001500Y-102120288D01*
X205014000Y-102057447D01*
X206004000Y-103047447D01*
X206004000Y-103047447D01*
G37*
X206004000Y-103047447D02*
X206004001Y-109396952D01*
X203138501Y-112262452D01*
X202896217Y-112310646D01*
X202653095Y-112473095D01*
X202490646Y-112716218D01*
X202448000Y-112930613D01*
X202448000Y-112952953D01*
X198660954Y-116740000D01*
X181384384Y-116740000D01*
X181357745Y-116734701D01*
X185343447Y-112749000D01*
X191526616Y-112749000D01*
X191599000Y-112763398D01*
X191671384Y-112749000D01*
X191671388Y-112749000D01*
X191885783Y-112706354D01*
X192128905Y-112543905D01*
X192169911Y-112482535D01*
X193973547Y-110678900D01*
X194106516Y-110678900D01*
X194465936Y-110530023D01*
X194741023Y-110254936D01*
X194889900Y-109895516D01*
X194889900Y-109506484D01*
X194741023Y-109147064D01*
X194615203Y-109021244D01*
X198026447Y-105610000D01*
X199360041Y-105610000D01*
X199454064Y-105704023D01*
X199813484Y-105852900D01*
X200202516Y-105852900D01*
X200561936Y-105704023D01*
X200837023Y-105428936D01*
X200985900Y-105069516D01*
X200985900Y-104680484D01*
X200837023Y-104321064D01*
X200561936Y-104045977D01*
X200202516Y-103897100D01*
X199813484Y-103897100D01*
X199454064Y-104045977D01*
X199360041Y-104140000D01*
X197794388Y-104140000D01*
X197722000Y-104125601D01*
X197649612Y-104140000D01*
X197435217Y-104182646D01*
X197192095Y-104345095D01*
X197151091Y-104406462D01*
X192834454Y-108723100D01*
X192701484Y-108723100D01*
X192342064Y-108871977D01*
X192066977Y-109147064D01*
X191918100Y-109506484D01*
X191918100Y-109639454D01*
X191702354Y-109855200D01*
X169490183Y-109855200D01*
X169417799Y-109840802D01*
X169345415Y-109855200D01*
X169345412Y-109855200D01*
X169131017Y-109897846D01*
X168887895Y-110060295D01*
X168846890Y-110121663D01*
X168097554Y-110871000D01*
X159457584Y-110871000D01*
X159385200Y-110856602D01*
X159312816Y-110871000D01*
X159312812Y-110871000D01*
X159098417Y-110913646D01*
X158855295Y-111076095D01*
X158814290Y-111137463D01*
X158064554Y-111887200D01*
X157806100Y-111887200D01*
X157806100Y-111665684D01*
X157657223Y-111306264D01*
X157382136Y-111031177D01*
X157022716Y-110882300D01*
X156633684Y-110882300D01*
X156274264Y-111031177D01*
X156230241Y-111075200D01*
X148771358Y-111075200D01*
X148039949Y-110343792D01*
X147996153Y-110278247D01*
X147736492Y-110104746D01*
X147507516Y-110059200D01*
X147507512Y-110059200D01*
X147430200Y-110043822D01*
X147352888Y-110059200D01*
X144824110Y-110059200D01*
X144746799Y-110043822D01*
X144669489Y-110059200D01*
X144669484Y-110059200D01*
X144483975Y-110096100D01*
X144322484Y-110096100D01*
X143963064Y-110244977D01*
X143687977Y-110520064D01*
X143539100Y-110879484D01*
X143539100Y-111268516D01*
X143687977Y-111627936D01*
X143688983Y-111628942D01*
X143636999Y-111618602D01*
X143564615Y-111633000D01*
X143564612Y-111633000D01*
X143350217Y-111675646D01*
X143107095Y-111838095D01*
X143066089Y-111899465D01*
X142737660Y-112227894D01*
X142676293Y-112268898D01*
X142513843Y-112512020D01*
X142471197Y-112726415D01*
X142471197Y-112726419D01*
X142456799Y-112798803D01*
X142471197Y-112871187D01*
X142471197Y-113195100D01*
X142299484Y-113195100D01*
X141940064Y-113343977D01*
X141782996Y-113501045D01*
X136812950Y-108531000D01*
X142007100Y-108531000D01*
X142007100Y-108752516D01*
X142155977Y-109111936D01*
X142431064Y-109387023D01*
X142790484Y-109535900D01*
X143179516Y-109535900D01*
X143538936Y-109387023D01*
X143632959Y-109293000D01*
X149390016Y-109293000D01*
X149462400Y-109307398D01*
X149534784Y-109293000D01*
X149534788Y-109293000D01*
X149749183Y-109250354D01*
X149937948Y-109124225D01*
X150126713Y-109250354D01*
X150341108Y-109293000D01*
X150341111Y-109293000D01*
X150413495Y-109307398D01*
X150485879Y-109293000D01*
X150913616Y-109293000D01*
X150986000Y-109307398D01*
X151058384Y-109293000D01*
X151058388Y-109293000D01*
X151272783Y-109250354D01*
X151515905Y-109087905D01*
X151556911Y-109026535D01*
X152052447Y-108531000D01*
X154931180Y-108531000D01*
X154829000Y-108777684D01*
X154829000Y-109166716D01*
X154977877Y-109526136D01*
X155252964Y-109801223D01*
X155612384Y-109950100D01*
X156001416Y-109950100D01*
X156360836Y-109801223D01*
X156635923Y-109526136D01*
X156784800Y-109166716D01*
X156784800Y-109033747D01*
X156887147Y-108931400D01*
X158070400Y-108931400D01*
X158070400Y-109143216D01*
X158219277Y-109502636D01*
X158494364Y-109777723D01*
X158853784Y-109926600D01*
X159242816Y-109926600D01*
X159602236Y-109777723D01*
X159696259Y-109683700D01*
X190245116Y-109683700D01*
X190317500Y-109698098D01*
X190389884Y-109683700D01*
X190389888Y-109683700D01*
X190604283Y-109641054D01*
X190847405Y-109478605D01*
X190888411Y-109417235D01*
X198068747Y-102236900D01*
X202872875Y-102236900D01*
X202850100Y-102291884D01*
X202850100Y-102680916D01*
X202998977Y-103040336D01*
X203274064Y-103315423D01*
X203633484Y-103464300D01*
X204022516Y-103464300D01*
X204381936Y-103315423D01*
X204657023Y-103040336D01*
X204805900Y-102680916D01*
X204805900Y-102563595D01*
X204958854Y-102334683D01*
X205001500Y-102120288D01*
X205014000Y-102057447D01*
X206004000Y-103047447D01*
G36*
X215030493Y-80041310D02*
X215594670Y-80275000D01*
X216205330Y-80275000D01*
X216622000Y-80102409D01*
X216622001Y-97819032D01*
X213573094Y-100867826D01*
X213471839Y-100358782D01*
X213143625Y-99867575D01*
X213121967Y-99853104D01*
X213282698Y-99786527D01*
X213461327Y-99607899D01*
X213558000Y-99374510D01*
X213558000Y-98683950D01*
X213399250Y-98525200D01*
X212200000Y-98525200D01*
X212200000Y-98545200D01*
X211946000Y-98545200D01*
X211946000Y-98525200D01*
X210746750Y-98525200D01*
X210588000Y-98683950D01*
X210588000Y-99374510D01*
X210684673Y-99607899D01*
X210863302Y-99786527D01*
X211024033Y-99853104D01*
X211002375Y-99867575D01*
X210674161Y-100358782D01*
X210558908Y-100938200D01*
X210674161Y-101517618D01*
X211002375Y-102008825D01*
X211300761Y-102208200D01*
X211002375Y-102407575D01*
X210674161Y-102898782D01*
X210558908Y-103478200D01*
X210674161Y-104057618D01*
X211002375Y-104548825D01*
X211300761Y-104748200D01*
X211002375Y-104947575D01*
X210674161Y-105438782D01*
X210558908Y-106018200D01*
X210674161Y-106597618D01*
X211002375Y-107088825D01*
X211300761Y-107288200D01*
X211002375Y-107487575D01*
X210674161Y-107978782D01*
X210558908Y-108558200D01*
X210637656Y-108954097D01*
X209777000Y-109814753D01*
X209777000Y-98668081D01*
X209960136Y-98592223D01*
X210235223Y-98317136D01*
X210384100Y-97957716D01*
X210384100Y-97568684D01*
X210323296Y-97421890D01*
X210588000Y-97421890D01*
X210588000Y-98112450D01*
X210746750Y-98271200D01*
X211946000Y-98271200D01*
X211946000Y-97071950D01*
X212200000Y-97071950D01*
X212200000Y-98271200D01*
X213399250Y-98271200D01*
X213558000Y-98112450D01*
X213558000Y-97421890D01*
X213461327Y-97188501D01*
X213282698Y-97009873D01*
X213049309Y-96913200D01*
X212358750Y-96913200D01*
X212200000Y-97071950D01*
X211946000Y-97071950D01*
X211787250Y-96913200D01*
X211096691Y-96913200D01*
X210863302Y-97009873D01*
X210684673Y-97188501D01*
X210588000Y-97421890D01*
X210323296Y-97421890D01*
X210235223Y-97209264D01*
X209960136Y-96934177D01*
X209749100Y-96846763D01*
X209749100Y-96806684D01*
X209600223Y-96447264D01*
X209325136Y-96172177D01*
X208965716Y-96023300D01*
X208832899Y-96023300D01*
X208832899Y-94890401D01*
X208953582Y-94971039D01*
X209386744Y-95057200D01*
X209679256Y-95057200D01*
X210112418Y-94971039D01*
X210603625Y-94642825D01*
X210803000Y-94344439D01*
X211002375Y-94642825D01*
X211493582Y-94971039D01*
X211926744Y-95057200D01*
X212219256Y-95057200D01*
X212652418Y-94971039D01*
X213143625Y-94642825D01*
X213471839Y-94151618D01*
X213587092Y-93572200D01*
X213471839Y-92992782D01*
X213143625Y-92501575D01*
X212845239Y-92302200D01*
X213143625Y-92102825D01*
X213471839Y-91611618D01*
X213587092Y-91032200D01*
X213471839Y-90452782D01*
X213143625Y-89961575D01*
X212824522Y-89748357D01*
X212954358Y-89687383D01*
X213344645Y-89259124D01*
X213514476Y-88849090D01*
X213393155Y-88619200D01*
X212200000Y-88619200D01*
X212200000Y-88639200D01*
X211946000Y-88639200D01*
X211946000Y-88619200D01*
X209660000Y-88619200D01*
X209660000Y-88639200D01*
X209406000Y-88639200D01*
X209406000Y-88619200D01*
X209386000Y-88619200D01*
X209386000Y-88365200D01*
X209406000Y-88365200D01*
X209406000Y-87165950D01*
X209660000Y-87165950D01*
X209660000Y-88365200D01*
X211946000Y-88365200D01*
X211946000Y-87171381D01*
X212200000Y-87171381D01*
X212200000Y-88365200D01*
X213393155Y-88365200D01*
X213514476Y-88135310D01*
X213344645Y-87725276D01*
X212954358Y-87297017D01*
X212429892Y-87050714D01*
X212200000Y-87171381D01*
X211946000Y-87171381D01*
X211716108Y-87050714D01*
X211191642Y-87297017D01*
X211009930Y-87496408D01*
X210921327Y-87282501D01*
X210742698Y-87103873D01*
X210509309Y-87007200D01*
X209818750Y-87007200D01*
X209660000Y-87165950D01*
X209406000Y-87165950D01*
X209247250Y-87007200D01*
X208832899Y-87007200D01*
X208832899Y-85920060D01*
X208926922Y-85826037D01*
X209075799Y-85466617D01*
X209075799Y-85333647D01*
X214699315Y-79710132D01*
X215030493Y-80041310D01*
X215030493Y-80041310D01*
G37*
X215030493Y-80041310D02*
X215594670Y-80275000D01*
X216205330Y-80275000D01*
X216622000Y-80102409D01*
X216622001Y-97819032D01*
X213573094Y-100867826D01*
X213471839Y-100358782D01*
X213143625Y-99867575D01*
X213121967Y-99853104D01*
X213282698Y-99786527D01*
X213461327Y-99607899D01*
X213558000Y-99374510D01*
X213558000Y-98683950D01*
X213399250Y-98525200D01*
X212200000Y-98525200D01*
X212200000Y-98545200D01*
X211946000Y-98545200D01*
X211946000Y-98525200D01*
X210746750Y-98525200D01*
X210588000Y-98683950D01*
X210588000Y-99374510D01*
X210684673Y-99607899D01*
X210863302Y-99786527D01*
X211024033Y-99853104D01*
X211002375Y-99867575D01*
X210674161Y-100358782D01*
X210558908Y-100938200D01*
X210674161Y-101517618D01*
X211002375Y-102008825D01*
X211300761Y-102208200D01*
X211002375Y-102407575D01*
X210674161Y-102898782D01*
X210558908Y-103478200D01*
X210674161Y-104057618D01*
X211002375Y-104548825D01*
X211300761Y-104748200D01*
X211002375Y-104947575D01*
X210674161Y-105438782D01*
X210558908Y-106018200D01*
X210674161Y-106597618D01*
X211002375Y-107088825D01*
X211300761Y-107288200D01*
X211002375Y-107487575D01*
X210674161Y-107978782D01*
X210558908Y-108558200D01*
X210637656Y-108954097D01*
X209777000Y-109814753D01*
X209777000Y-98668081D01*
X209960136Y-98592223D01*
X210235223Y-98317136D01*
X210384100Y-97957716D01*
X210384100Y-97568684D01*
X210323296Y-97421890D01*
X210588000Y-97421890D01*
X210588000Y-98112450D01*
X210746750Y-98271200D01*
X211946000Y-98271200D01*
X211946000Y-97071950D01*
X212200000Y-97071950D01*
X212200000Y-98271200D01*
X213399250Y-98271200D01*
X213558000Y-98112450D01*
X213558000Y-97421890D01*
X213461327Y-97188501D01*
X213282698Y-97009873D01*
X213049309Y-96913200D01*
X212358750Y-96913200D01*
X212200000Y-97071950D01*
X211946000Y-97071950D01*
X211787250Y-96913200D01*
X211096691Y-96913200D01*
X210863302Y-97009873D01*
X210684673Y-97188501D01*
X210588000Y-97421890D01*
X210323296Y-97421890D01*
X210235223Y-97209264D01*
X209960136Y-96934177D01*
X209749100Y-96846763D01*
X209749100Y-96806684D01*
X209600223Y-96447264D01*
X209325136Y-96172177D01*
X208965716Y-96023300D01*
X208832899Y-96023300D01*
X208832899Y-94890401D01*
X208953582Y-94971039D01*
X209386744Y-95057200D01*
X209679256Y-95057200D01*
X210112418Y-94971039D01*
X210603625Y-94642825D01*
X210803000Y-94344439D01*
X211002375Y-94642825D01*
X211493582Y-94971039D01*
X211926744Y-95057200D01*
X212219256Y-95057200D01*
X212652418Y-94971039D01*
X213143625Y-94642825D01*
X213471839Y-94151618D01*
X213587092Y-93572200D01*
X213471839Y-92992782D01*
X213143625Y-92501575D01*
X212845239Y-92302200D01*
X213143625Y-92102825D01*
X213471839Y-91611618D01*
X213587092Y-91032200D01*
X213471839Y-90452782D01*
X213143625Y-89961575D01*
X212824522Y-89748357D01*
X212954358Y-89687383D01*
X213344645Y-89259124D01*
X213514476Y-88849090D01*
X213393155Y-88619200D01*
X212200000Y-88619200D01*
X212200000Y-88639200D01*
X211946000Y-88639200D01*
X211946000Y-88619200D01*
X209660000Y-88619200D01*
X209660000Y-88639200D01*
X209406000Y-88639200D01*
X209406000Y-88619200D01*
X209386000Y-88619200D01*
X209386000Y-88365200D01*
X209406000Y-88365200D01*
X209406000Y-87165950D01*
X209660000Y-87165950D01*
X209660000Y-88365200D01*
X211946000Y-88365200D01*
X211946000Y-87171381D01*
X212200000Y-87171381D01*
X212200000Y-88365200D01*
X213393155Y-88365200D01*
X213514476Y-88135310D01*
X213344645Y-87725276D01*
X212954358Y-87297017D01*
X212429892Y-87050714D01*
X212200000Y-87171381D01*
X211946000Y-87171381D01*
X211716108Y-87050714D01*
X211191642Y-87297017D01*
X211009930Y-87496408D01*
X210921327Y-87282501D01*
X210742698Y-87103873D01*
X210509309Y-87007200D01*
X209818750Y-87007200D01*
X209660000Y-87165950D01*
X209406000Y-87165950D01*
X209247250Y-87007200D01*
X208832899Y-87007200D01*
X208832899Y-85920060D01*
X208926922Y-85826037D01*
X209075799Y-85466617D01*
X209075799Y-85333647D01*
X214699315Y-79710132D01*
X215030493Y-80041310D01*
G36*
X177605554Y-107061000D02*
X161777447Y-107061000D01*
X161831447Y-107007000D01*
X177659554Y-107007000D01*
X177605554Y-107061000D01*
X177605554Y-107061000D01*
G37*
X177605554Y-107061000D02*
X161777447Y-107061000D01*
X161831447Y-107007000D01*
X177659554Y-107007000D01*
X177605554Y-107061000D01*
G04 #@! TD*
M02*
