G04 #@! TF.FileFunction,Other,Fab,Bot*
%FSLAX46Y46*%
G04 Gerber Fmt 4.6, Leading zero omitted, Abs format (unit mm)*
G04 Created by KiCad (PCBNEW 4.0.7) date Saturday, March 31, 2018 'PMt' 05:04:50 PM*
%MOMM*%
%LPD*%
G01*
G04 APERTURE LIST*
%ADD10C,0.100000*%
%ADD11C,0.150000*%
G04 APERTURE END LIST*
D10*
D11*
X176326476Y-120172000D02*
X176421714Y-120124381D01*
X176564571Y-120124381D01*
X176707429Y-120172000D01*
X176802667Y-120267238D01*
X176850286Y-120362476D01*
X176897905Y-120552952D01*
X176897905Y-120695810D01*
X176850286Y-120886286D01*
X176802667Y-120981524D01*
X176707429Y-121076762D01*
X176564571Y-121124381D01*
X176469333Y-121124381D01*
X176326476Y-121076762D01*
X176278857Y-121029143D01*
X176278857Y-120695810D01*
X176469333Y-120695810D01*
X175897905Y-121076762D02*
X175755048Y-121124381D01*
X175516952Y-121124381D01*
X175421714Y-121076762D01*
X175374095Y-121029143D01*
X175326476Y-120933905D01*
X175326476Y-120838667D01*
X175374095Y-120743429D01*
X175421714Y-120695810D01*
X175516952Y-120648190D01*
X175707429Y-120600571D01*
X175802667Y-120552952D01*
X175850286Y-120505333D01*
X175897905Y-120410095D01*
X175897905Y-120314857D01*
X175850286Y-120219619D01*
X175802667Y-120172000D01*
X175707429Y-120124381D01*
X175469333Y-120124381D01*
X175326476Y-120172000D01*
X174945524Y-120219619D02*
X174897905Y-120172000D01*
X174802667Y-120124381D01*
X174564571Y-120124381D01*
X174469333Y-120172000D01*
X174421714Y-120219619D01*
X174374095Y-120314857D01*
X174374095Y-120410095D01*
X174421714Y-120552952D01*
X174993143Y-121124381D01*
X174374095Y-121124381D01*
M02*
