G04 #@! TF.GenerationSoftware,KiCad,Pcbnew,(5.0.1-3-g963ef8bb5)*
G04 #@! TF.CreationDate,2019-01-02T20:31:46-06:00*
G04 #@! TF.ProjectId,kbxBinaryClock.v3,6B627842696E617279436C6F636B2E76,rev?*
G04 #@! TF.SameCoordinates,Original*
G04 #@! TF.FileFunction,Other,Fab,Bot*
%FSLAX46Y46*%
G04 Gerber Fmt 4.6, Leading zero omitted, Abs format (unit mm)*
G04 Created by KiCad (PCBNEW (5.0.1-3-g963ef8bb5)) date Wednesday, January 02, 2019 at 08:31:46 PM*
%MOMM*%
%LPD*%
G01*
G04 APERTURE LIST*
%ADD10C,0.150000*%
G04 APERTURE END LIST*
G04 #@! TO.C,SB2*
D10*
X166654000Y-116154523D02*
X166606380Y-116059285D01*
X166606380Y-115916428D01*
X166654000Y-115773571D01*
X166749238Y-115678333D01*
X166844476Y-115630714D01*
X167034952Y-115583095D01*
X167177809Y-115583095D01*
X167368285Y-115630714D01*
X167463523Y-115678333D01*
X167558761Y-115773571D01*
X167606380Y-115916428D01*
X167606380Y-116011666D01*
X167558761Y-116154523D01*
X167511142Y-116202142D01*
X167177809Y-116202142D01*
X167177809Y-116011666D01*
X167558761Y-116583095D02*
X167606380Y-116725952D01*
X167606380Y-116964047D01*
X167558761Y-117059285D01*
X167511142Y-117106904D01*
X167415904Y-117154523D01*
X167320666Y-117154523D01*
X167225428Y-117106904D01*
X167177809Y-117059285D01*
X167130190Y-116964047D01*
X167082571Y-116773571D01*
X167034952Y-116678333D01*
X166987333Y-116630714D01*
X166892095Y-116583095D01*
X166796857Y-116583095D01*
X166701619Y-116630714D01*
X166654000Y-116678333D01*
X166606380Y-116773571D01*
X166606380Y-117011666D01*
X166654000Y-117154523D01*
X166701619Y-117535476D02*
X166654000Y-117583095D01*
X166606380Y-117678333D01*
X166606380Y-117916428D01*
X166654000Y-118011666D01*
X166701619Y-118059285D01*
X166796857Y-118106904D01*
X166892095Y-118106904D01*
X167034952Y-118059285D01*
X167606380Y-117487857D01*
X167606380Y-118106904D01*
G04 #@! TD*
M02*
