G04 #@! TF.FileFunction,Paste,Top*
%FSLAX46Y46*%
G04 Gerber Fmt 4.6, Leading zero omitted, Abs format (unit mm)*
G04 Created by KiCad (PCBNEW 4.0.7) date Sunday, February 18, 2018 'AMt' 02:02:00 AM*
%MOMM*%
%LPD*%
G01*
G04 APERTURE LIST*
%ADD10C,0.100000*%
%ADD11R,2.300000X5.600000*%
%ADD12R,1.250000X1.000000*%
%ADD13R,1.000000X1.250000*%
%ADD14R,2.400000X0.740000*%
%ADD15R,0.800000X0.900000*%
%ADD16R,0.900000X0.800000*%
%ADD17R,1.300000X0.700000*%
%ADD18R,0.700000X1.300000*%
%ADD19R,1.000000X0.900000*%
%ADD20R,1.300000X0.250000*%
%ADD21R,0.250000X1.300000*%
%ADD22R,1.200000X0.400000*%
%ADD23R,4.110000X4.360000*%
%ADD24R,1.200000X2.200000*%
%ADD25R,2.750000X3.050000*%
%ADD26R,1.550000X0.600000*%
%ADD27R,4.000000X2.500000*%
%ADD28R,1.800000X1.000000*%
%ADD29R,1.300000X1.600000*%
%ADD30R,0.800000X1.000000*%
%ADD31R,1.500000X0.600000*%
%ADD32R,0.900000X1.200000*%
%ADD33R,3.300000X2.500000*%
%ADD34R,1.270000X0.970000*%
G04 APERTURE END LIST*
D10*
D11*
X198975000Y-140970000D03*
X206375000Y-140970000D03*
D12*
X129142000Y-121861000D03*
X129142000Y-119861000D03*
X131174000Y-111257000D03*
X131174000Y-113257000D03*
X132444000Y-125925000D03*
X132444000Y-123925000D03*
X132444000Y-121893000D03*
X132444000Y-119893000D03*
X158496000Y-122174000D03*
X158496000Y-124174000D03*
X197739000Y-97060000D03*
X197739000Y-99060000D03*
X139065000Y-125984000D03*
X139065000Y-123984000D03*
X155177000Y-114051000D03*
X155177000Y-116051000D03*
D13*
X143779000Y-110336000D03*
X145779000Y-110336000D03*
X150859000Y-125957000D03*
X148859000Y-125957000D03*
D12*
X135763000Y-125984000D03*
X135763000Y-123984000D03*
X158479000Y-114051000D03*
X158479000Y-116051000D03*
D13*
X150859000Y-129259000D03*
X148859000Y-129259000D03*
X144795000Y-125957000D03*
X146795000Y-125957000D03*
X148065000Y-110336000D03*
X150065000Y-110336000D03*
D12*
X155194000Y-120142000D03*
X155194000Y-118142000D03*
D13*
X143779000Y-107034000D03*
X145779000Y-107034000D03*
X174259000Y-107034000D03*
X176259000Y-107034000D03*
D14*
X201713000Y-101092000D03*
X205613000Y-101092000D03*
X201713000Y-102362000D03*
X205613000Y-102362000D03*
X201713000Y-103632000D03*
X205613000Y-103632000D03*
X201713000Y-104902000D03*
X205613000Y-104902000D03*
X201713000Y-106172000D03*
X205613000Y-106172000D03*
D15*
X194437000Y-94107000D03*
X196337000Y-94107000D03*
X195387000Y-92107000D03*
D16*
X184387000Y-119485000D03*
X184387000Y-121385000D03*
X186387000Y-120435000D03*
X184387000Y-124565000D03*
X184387000Y-126465000D03*
X186387000Y-125515000D03*
D15*
X114532000Y-113765000D03*
X112632000Y-113765000D03*
X113582000Y-115765000D03*
X119485000Y-113765000D03*
X117585000Y-113765000D03*
X118535000Y-115765000D03*
X163432000Y-107415000D03*
X161532000Y-107415000D03*
X162482000Y-109415000D03*
X168385000Y-107415000D03*
X166485000Y-107415000D03*
X167435000Y-109415000D03*
X132947000Y-107415000D03*
X131047000Y-107415000D03*
X131997000Y-109415000D03*
D17*
X194437000Y-97028000D03*
X194437000Y-98928000D03*
D18*
X190610000Y-120115000D03*
X188710000Y-120115000D03*
X188710000Y-123417000D03*
X190610000Y-123417000D03*
X188710000Y-133323000D03*
X190610000Y-133323000D03*
D17*
X185022000Y-115675000D03*
X185022000Y-117575000D03*
X188324000Y-115675000D03*
X188324000Y-117575000D03*
X191626000Y-115670000D03*
X191626000Y-117570000D03*
X185149000Y-111601000D03*
X185149000Y-109701000D03*
X188451000Y-109701000D03*
X188451000Y-111601000D03*
X135746000Y-128751000D03*
X135746000Y-130651000D03*
X139065000Y-128751000D03*
X139065000Y-130651000D03*
X142350000Y-128751000D03*
X142350000Y-130651000D03*
X145652000Y-128751000D03*
X145652000Y-130651000D03*
X154034000Y-128751000D03*
X154034000Y-130651000D03*
X157331000Y-128756000D03*
X157331000Y-130656000D03*
X191753000Y-109706000D03*
X191753000Y-111606000D03*
X158496000Y-112136000D03*
X158496000Y-110236000D03*
X155177000Y-112109000D03*
X155177000Y-110209000D03*
X195055000Y-111601000D03*
X195055000Y-109701000D03*
X122665000Y-117580000D03*
X122665000Y-119480000D03*
X112759000Y-117580000D03*
X112759000Y-119480000D03*
X116061000Y-117580000D03*
X116061000Y-119480000D03*
X112632000Y-111987000D03*
X112632000Y-110087000D03*
X115934000Y-111982000D03*
X115934000Y-110082000D03*
X119231000Y-111982000D03*
X119231000Y-110082000D03*
X119363000Y-117575000D03*
X119363000Y-119475000D03*
X161798000Y-111225000D03*
X161798000Y-113125000D03*
X161654000Y-105632000D03*
X161654000Y-103732000D03*
X164956000Y-105632000D03*
X164956000Y-103732000D03*
X168258000Y-105632000D03*
X168258000Y-103732000D03*
X165100000Y-111225000D03*
X165100000Y-113125000D03*
X134476000Y-111225000D03*
X134476000Y-113125000D03*
X131047000Y-105632000D03*
X131047000Y-103732000D03*
X134349000Y-105632000D03*
X134349000Y-103732000D03*
X137651000Y-105637000D03*
X137651000Y-103737000D03*
X137778000Y-111225000D03*
X137778000Y-113125000D03*
D19*
X196012000Y-105700000D03*
X197612000Y-105700000D03*
X196012000Y-101600000D03*
X197612000Y-101600000D03*
D20*
X142917000Y-115111000D03*
X142917000Y-115611000D03*
X142917000Y-116111000D03*
X142917000Y-116611000D03*
X142917000Y-117111000D03*
X142917000Y-117611000D03*
X142917000Y-118111000D03*
X142917000Y-118611000D03*
X142917000Y-119111000D03*
X142917000Y-119611000D03*
X142917000Y-120111000D03*
X142917000Y-120611000D03*
D21*
X144517000Y-122211000D03*
X145017000Y-122211000D03*
X145517000Y-122211000D03*
X146017000Y-122211000D03*
X146517000Y-122211000D03*
X147017000Y-122211000D03*
X147517000Y-122211000D03*
X148017000Y-122211000D03*
X148517000Y-122211000D03*
X149017000Y-122211000D03*
X149517000Y-122211000D03*
X150017000Y-122211000D03*
D20*
X151617000Y-120611000D03*
X151617000Y-120111000D03*
X151617000Y-119611000D03*
X151617000Y-119111000D03*
X151617000Y-118611000D03*
X151617000Y-118111000D03*
X151617000Y-117611000D03*
X151617000Y-117111000D03*
X151617000Y-116611000D03*
X151617000Y-116111000D03*
X151617000Y-115611000D03*
X151617000Y-115111000D03*
D21*
X150017000Y-113511000D03*
X149517000Y-113511000D03*
X149017000Y-113511000D03*
X148517000Y-113511000D03*
X148017000Y-113511000D03*
X147517000Y-113511000D03*
X147017000Y-113511000D03*
X146517000Y-113511000D03*
X146017000Y-113511000D03*
X145517000Y-113511000D03*
X145017000Y-113511000D03*
X144517000Y-113511000D03*
D22*
X117918000Y-104521200D03*
X117918000Y-103871200D03*
X117918000Y-103221200D03*
X117918000Y-102571200D03*
X117918000Y-101921200D03*
X117918000Y-101271200D03*
X117918000Y-100621200D03*
X117918000Y-99971200D03*
X117918000Y-99321200D03*
X117918000Y-98671200D03*
X117918000Y-98021200D03*
X117918000Y-97371200D03*
X117918000Y-96721200D03*
X117918000Y-96071200D03*
X117918000Y-95421200D03*
X117918000Y-94771200D03*
X110618000Y-94771200D03*
X110618000Y-95421200D03*
X110618000Y-96071200D03*
X110618000Y-96721200D03*
X110618000Y-97371200D03*
X110618000Y-98021200D03*
X110618000Y-98671200D03*
X110618000Y-99321200D03*
X110618000Y-99971200D03*
X110618000Y-100621200D03*
X110618000Y-101271200D03*
X110618000Y-101921200D03*
X110618000Y-102571200D03*
X110618000Y-103221200D03*
X110618000Y-103871200D03*
X110618000Y-104521200D03*
D23*
X114268000Y-99646200D03*
D22*
X148398000Y-104521200D03*
X148398000Y-103871200D03*
X148398000Y-103221200D03*
X148398000Y-102571200D03*
X148398000Y-101921200D03*
X148398000Y-101271200D03*
X148398000Y-100621200D03*
X148398000Y-99971200D03*
X148398000Y-99321200D03*
X148398000Y-98671200D03*
X148398000Y-98021200D03*
X148398000Y-97371200D03*
X148398000Y-96721200D03*
X148398000Y-96071200D03*
X148398000Y-95421200D03*
X148398000Y-94771200D03*
X141098000Y-94771200D03*
X141098000Y-95421200D03*
X141098000Y-96071200D03*
X141098000Y-96721200D03*
X141098000Y-97371200D03*
X141098000Y-98021200D03*
X141098000Y-98671200D03*
X141098000Y-99321200D03*
X141098000Y-99971200D03*
X141098000Y-100621200D03*
X141098000Y-101271200D03*
X141098000Y-101921200D03*
X141098000Y-102571200D03*
X141098000Y-103221200D03*
X141098000Y-103871200D03*
X141098000Y-104521200D03*
D23*
X144748000Y-99646200D03*
D22*
X178878000Y-104521200D03*
X178878000Y-103871200D03*
X178878000Y-103221200D03*
X178878000Y-102571200D03*
X178878000Y-101921200D03*
X178878000Y-101271200D03*
X178878000Y-100621200D03*
X178878000Y-99971200D03*
X178878000Y-99321200D03*
X178878000Y-98671200D03*
X178878000Y-98021200D03*
X178878000Y-97371200D03*
X178878000Y-96721200D03*
X178878000Y-96071200D03*
X178878000Y-95421200D03*
X178878000Y-94771200D03*
X171578000Y-94771200D03*
X171578000Y-95421200D03*
X171578000Y-96071200D03*
X171578000Y-96721200D03*
X171578000Y-97371200D03*
X171578000Y-98021200D03*
X171578000Y-98671200D03*
X171578000Y-99321200D03*
X171578000Y-99971200D03*
X171578000Y-100621200D03*
X171578000Y-101271200D03*
X171578000Y-101921200D03*
X171578000Y-102571200D03*
X171578000Y-103221200D03*
X171578000Y-103871200D03*
X171578000Y-104521200D03*
D23*
X175228000Y-99646200D03*
D24*
X198640000Y-118745000D03*
X203200000Y-118745000D03*
D25*
X202445000Y-110770000D03*
X199395000Y-114120000D03*
X199395000Y-110770000D03*
X202445000Y-114120000D03*
D26*
X175989000Y-116078000D03*
X175989000Y-117348000D03*
X175989000Y-118618000D03*
X175989000Y-119888000D03*
X181389000Y-119888000D03*
X181389000Y-118618000D03*
X181389000Y-117348000D03*
X181389000Y-116078000D03*
D17*
X122538000Y-111982000D03*
X122538000Y-110082000D03*
X168402000Y-113125000D03*
X168402000Y-111225000D03*
D12*
X194945000Y-115697000D03*
X194945000Y-117697000D03*
X158496000Y-120142000D03*
X158496000Y-118142000D03*
D13*
X181324000Y-121920000D03*
X179324000Y-121920000D03*
X113299000Y-107034000D03*
X115299000Y-107034000D03*
D27*
X209040000Y-118745000D03*
X215140000Y-118745000D03*
D13*
X200643000Y-121893000D03*
X198643000Y-121893000D03*
D28*
X128905000Y-115356000D03*
X128905000Y-117856000D03*
D29*
X135778000Y-117575000D03*
X135778000Y-120875000D03*
X137778000Y-120875000D03*
X137778000Y-117575000D03*
D12*
X207628000Y-111193000D03*
X207628000Y-109193000D03*
D17*
X171704000Y-113125000D03*
X171704000Y-111225000D03*
D13*
X202834000Y-96366200D03*
X204834000Y-96366200D03*
D26*
X175989000Y-123952000D03*
X175989000Y-125222000D03*
X175989000Y-126492000D03*
X175989000Y-127762000D03*
X181389000Y-127762000D03*
X181389000Y-126492000D03*
X181389000Y-125222000D03*
X181389000Y-123952000D03*
D16*
X184419000Y-129579000D03*
X184419000Y-131479000D03*
X186419000Y-130529000D03*
D15*
X137900000Y-107415000D03*
X136000000Y-107415000D03*
X136950000Y-109415000D03*
D30*
X193785000Y-123544000D03*
X193785000Y-121044000D03*
X195185000Y-121044000D03*
X195185000Y-123544000D03*
D31*
X161874000Y-122555000D03*
X161874000Y-121285000D03*
X161874000Y-120015000D03*
X161874000Y-118745000D03*
X161874000Y-117475000D03*
X161874000Y-116205000D03*
X161874000Y-123825000D03*
X161874000Y-125095000D03*
X161874000Y-126365000D03*
X161874000Y-127635000D03*
X171374000Y-127635000D03*
X171374000Y-126365000D03*
X171374000Y-125095000D03*
X171374000Y-123825000D03*
X171374000Y-122555000D03*
X171374000Y-121285000D03*
X171374000Y-120015000D03*
X171374000Y-118745000D03*
X171374000Y-117475000D03*
X171374000Y-116205000D03*
D26*
X199324000Y-90551000D03*
X199324000Y-91821000D03*
X199324000Y-93091000D03*
X199324000Y-94361000D03*
X204724000Y-94361000D03*
X204724000Y-93091000D03*
X204724000Y-91821000D03*
X204724000Y-90551000D03*
D32*
X213106000Y-84836000D03*
X209806000Y-84836000D03*
D33*
X198755000Y-134054000D03*
X198755000Y-127254000D03*
D34*
X132461000Y-115316000D03*
X132461000Y-116586000D03*
X132461000Y-117856000D03*
M02*
