M48
;DRILL file {KiCad 4.0.7} date Tuesday, March 20, 2018 'AMt' 01:08:25 AM
;FORMAT={-:-/ absolute / inch / decimal}
FMAT,2
INCH,TZ
T1C0.013
T2C0.013
T3C0.035
T4C0.039
T5C0.059
T6C0.118
%
G90
G05
M72
T1
X4.422Y-3.7439
X4.422Y-3.7951
X4.422Y-3.8463
X4.422Y-3.8975
X4.422Y-3.9487
X4.422Y-3.9999
X4.422Y-4.051
X4.422Y-4.1022
X4.4731Y-3.7439
X4.4731Y-3.7951
X4.4731Y-3.8463
X4.4731Y-3.8975
X4.4731Y-3.9487
X4.4731Y-3.9999
X4.4731Y-4.051
X4.4731Y-4.1022
X4.5243Y-3.7439
X4.5243Y-3.7951
X4.5243Y-3.8463
X4.5243Y-3.8975
X4.5243Y-3.9487
X4.5243Y-3.9999
X4.5243Y-4.051
X4.5243Y-4.1022
X4.5755Y-3.7439
X4.5755Y-3.7951
X4.5755Y-3.8463
X4.5755Y-3.8975
X4.5755Y-3.9487
X4.5755Y-3.9999
X4.5755Y-4.051
X4.5755Y-4.1022
X5.622Y-3.7439
X5.622Y-3.7951
X5.622Y-3.8463
X5.622Y-3.8975
X5.622Y-3.9487
X5.622Y-3.9999
X5.622Y-4.051
X5.622Y-4.1022
X5.6731Y-3.7439
X5.6731Y-3.7951
X5.6731Y-3.8463
X5.6731Y-3.8975
X5.6731Y-3.9487
X5.6731Y-3.9999
X5.6731Y-4.051
X5.6731Y-4.1022
X5.7243Y-3.7439
X5.7243Y-3.7951
X5.7243Y-3.8463
X5.7243Y-3.8975
X5.7243Y-3.9487
X5.7243Y-3.9999
X5.7243Y-4.051
X5.7243Y-4.1022
X5.7755Y-3.7439
X5.7755Y-3.7951
X5.7755Y-3.8463
X5.7755Y-3.8975
X5.7755Y-3.9487
X5.7755Y-3.9999
X5.7755Y-4.051
X5.7755Y-4.1022
X6.822Y-3.7439
X6.822Y-3.7951
X6.822Y-3.8463
X6.822Y-3.8975
X6.822Y-3.9487
X6.822Y-3.9999
X6.822Y-4.051
X6.822Y-4.1022
X6.8731Y-3.7439
X6.8731Y-3.7951
X6.8731Y-3.8463
X6.8731Y-3.8975
X6.8731Y-3.9487
X6.8731Y-3.9999
X6.8731Y-4.051
X6.8731Y-4.1022
X6.9243Y-3.7439
X6.9243Y-3.7951
X6.9243Y-3.8463
X6.9243Y-3.8975
X6.9243Y-3.9487
X6.9243Y-3.9999
X6.9243Y-4.051
X6.9243Y-4.1022
X6.9755Y-3.7439
X6.9755Y-3.7951
X6.9755Y-3.8463
X6.9755Y-3.8975
X6.9755Y-3.9487
X6.9755Y-3.9999
X6.9755Y-4.051
X6.9755Y-4.1022
T2
X3.75Y-3.975
X4.05Y-3.975
X4.0693Y-3.8289
X4.097Y-3.5787
X4.1672Y-2.4446
X4.1935Y-3.93
X4.2193Y-3.6289
X4.2414Y-3.5685
X4.2854Y-3.9176
X4.2993Y-4.1539
X4.3043Y-3.8004
X4.326Y-3.179
X4.3266Y-3.2392
X4.3293Y-4.1839
X4.3793Y-4.2389
X4.3817Y-3.3094
X4.4209Y-1.7676
X4.4222Y-3.3316
X4.433Y-3.4773
X4.4717Y-4.5967
X4.4956Y-2.957
X4.5009Y-3.356
X4.5043Y-3.4789
X4.5543Y-3.5739
X4.5643Y-4.4489
X4.6293Y-4.5639
X4.675Y-5.
X4.6793Y-4.1539
X4.7093Y-4.2139
X4.7313Y-3.8797
X4.7393Y-4.2739
X4.7649Y-3.9009
X4.7729Y-3.7154
X4.7743Y-4.1539
X4.7843Y-4.0139
X4.8293Y-4.5889
X4.841Y-3.5169
X4.8473Y-3.4512
X4.8505Y-3.3164
X4.86Y-2.353
X4.8743Y-4.3488
X4.9093Y-3.7589
X4.9186Y-4.3208
X4.9263Y-4.3751
X4.9267Y-3.5319
X4.9293Y-3.7289
X4.9593Y-3.499
X4.978Y-4.3243
X4.9799Y-3.7019
X5.0093Y-4.3089
X5.01Y-4.555
X5.0259Y-2.9793
X5.0543Y-4.0239
X5.0709Y-3.0323
X5.1107Y-3.0708
X5.1143Y-4.1839
X5.1143Y-4.3039
X5.1143Y-4.4539
X5.1143Y-3.7989
X5.1643Y-4.3401
X5.165Y-3.7702
X5.1772Y-3.0064
X5.1993Y-3.7989
X5.2293Y-4.1189
X5.2443Y-4.4539
X5.25Y-5.
X5.26Y-4.63
X5.2908Y-3.178
X5.2993Y-4.2139
X5.2993Y-4.3039
X5.3012Y-3.3575
X5.3047Y-3.3144
X5.3057Y-2.6587
X5.3389Y-3.0683
X5.3593Y-4.1189
X5.3703Y-2.9693
X5.3761Y-3.3341
X5.3793Y-4.4539
X5.3943Y-4.2739
X5.4038Y-3.256
X5.4072Y-3.1956
X5.444Y-3.2918
X5.4478Y-3.0479
X5.45Y-4.51
X5.4794Y-4.5356
X5.4885Y-3.2729
X5.4928Y-2.6608
X5.5093Y-4.0389
X5.5093Y-4.1239
X5.5318Y-3.3525
X5.5467Y-4.8944
X5.5543Y-3.4539
X5.556Y-4.9355
X5.5668Y-2.7498
X5.5731Y-2.947
X5.5827Y-4.8352
X5.6008Y-4.7875
X5.61Y-4.495
X5.6293Y-4.2739
X5.645Y-4.4839
X5.6543Y-4.9589
X5.6634Y-4.4539
X5.6793Y-4.5589
X5.6896Y-4.373
X5.69Y-4.7645
X5.695Y-4.725
X5.7043Y-4.3039
X5.7159Y-2.8066
X5.7196Y-4.5204
X5.7304Y-4.655
X5.7343Y-5.0039
X5.735Y-4.72
X5.75Y-4.5397
X5.7671Y-3.3419
X5.7793Y-4.3939
X5.7834Y-2.8436
X5.7855Y-2.7763
X5.8043Y-4.7539
X5.82Y-4.91
X5.82Y-4.9589
X5.8298Y-3.5263
X5.8343Y-4.7239
X5.835Y-4.52
X5.8548Y-3.4663
X5.8593Y-3.6439
X5.86Y-4.75
X5.86Y-4.91
X5.879Y-4.1539
X5.8891Y-3.6688
X5.9043Y-4.2139
X5.9043Y-4.2939
X5.9053Y-4.565
X5.9053Y-4.605
X5.9293Y-4.8539
X5.9343Y-4.2439
X5.9893Y-3.8689
X5.9976Y-3.5309
X6.0139Y-4.602
X6.0242Y-2.3389
X6.0289Y-2.8039
X6.035Y-4.6297
X6.0415Y-2.8552
X6.0461Y-3.8086
X6.0484Y-3.457
X6.0862Y-3.4738
X6.105Y-4.855
X6.1144Y-3.8669
X6.115Y-3.8198
X6.1172Y-3.5304
X6.1228Y-3.7852
X6.1243Y-4.9639
X6.1293Y-3.9039
X6.1341Y-4.2902
X6.155Y-4.85
X6.1566Y-3.4849
X6.16Y-4.1539
X6.1743Y-4.4039
X6.179Y-2.855
X6.2151Y-3.5073
X6.235Y-3.8598
X6.24Y-4.9639
X6.243Y-3.4826
X6.2617Y-4.2893
X6.28Y-4.765
X6.285Y-4.4539
X6.29Y-4.49
X6.295Y-4.42
X6.3104Y-3.4464
X6.3193Y-4.1839
X6.32Y-4.575
X6.3213Y-3.562
X6.325Y-5.125
X6.3504Y-3.4552
X6.3934Y-2.9678
X6.395Y-3.8082
X6.3969Y-4.215
X6.41Y-3.7762
X6.4243Y-4.9639
X6.43Y-4.615
X6.4319Y-3.3283
X6.4693Y-3.9389
X6.4742Y-3.2771
X6.5043Y-3.7589
X6.51Y-4.67
X6.5337Y-4.0121
X6.5426Y-3.8974
X6.5453Y-4.685
X6.5593Y-4.1139
X6.5742Y-3.9698
X6.5942Y-3.8863
X6.6188Y-3.9705
X6.6505Y-3.2563
X6.69Y-4.855
X6.695Y-4.575
X6.695Y-4.625
X6.7193Y-4.2139
X6.733Y-3.3116
X6.7593Y-2.3189
X6.7686Y-3.345
X6.815Y-4.455
X6.85Y-4.725
X6.91Y-4.765
X6.9393Y-3.5589
X6.9843Y-3.4539
X6.9893Y-4.2139
X7.0293Y-3.4539
X7.0343Y-4.2139
X7.0543Y-4.1839
X7.0725Y-2.7824
X7.0743Y-4.1539
X7.09Y-4.67
X7.09Y-4.72
X7.15Y-5.125
X7.17Y-3.57
X7.1763Y-3.8302
X7.22Y-4.515
X7.2243Y-4.7039
X7.2274Y-3.3329
X7.2419Y-3.9092
X7.2443Y-4.8439
X7.272Y-3.7599
X7.2729Y-2.8562
X7.2901Y-2.8178
X7.2943Y-4.8689
X7.2991Y-4.9239
X7.2993Y-2.3539
X7.3256Y-3.45
X7.3519Y-3.2185
X7.4243Y-5.0039
X7.425Y-5.4
X7.425Y-5.75
X7.45Y-4.465
X7.5943Y-4.3189
X7.6343Y-4.3189
X7.655Y-3.785
X7.7543Y-4.4689
X7.7793Y-4.7989
X7.7793Y-4.9089
X7.78Y-4.08
X7.8243Y-4.7489
X7.8493Y-3.7489
X7.8543Y-4.8489
X7.8743Y-4.1289
X7.899Y-3.6389
X7.9093Y-3.6039
X8.016Y-3.9961
X8.0193Y-3.8789
X8.0247Y-4.0349
X8.0443Y-3.8489
X8.0493Y-4.5739
X8.1093Y-3.8189
X8.11Y-3.76
X8.1928Y-3.3572
X8.2193Y-3.8189
X8.2443Y-3.8489
X8.52Y-3.3
T3
X4.25Y-1.85
X4.25Y-1.9
X4.25Y-1.95
X4.25Y-2.
X4.25Y-2.35
X4.25Y-2.4
X4.25Y-2.45
X4.25Y-2.5
X4.25Y-2.85
X4.25Y-2.9
X4.25Y-2.95
X4.25Y-3.
X4.25Y-3.35
X4.25Y-3.4
X4.25Y-3.45
X4.25Y-3.5
X4.75Y-1.85
X4.75Y-1.9
X4.75Y-1.95
X4.75Y-2.
X4.75Y-2.35
X4.75Y-2.4
X4.75Y-2.45
X4.75Y-2.5
X4.75Y-2.85
X4.75Y-2.9
X4.75Y-2.95
X4.75Y-3.
X4.75Y-3.35
X4.75Y-3.4
X4.75Y-3.45
X4.75Y-3.5
X5.45Y-1.85
X5.45Y-1.9
X5.45Y-1.95
X5.45Y-2.
X5.45Y-2.35
X5.45Y-2.4
X5.45Y-2.45
X5.45Y-2.5
X5.45Y-2.85
X5.45Y-2.9
X5.45Y-2.95
X5.45Y-3.
X5.45Y-3.35
X5.45Y-3.4
X5.45Y-3.45
X5.45Y-3.5
X5.95Y-1.85
X5.95Y-1.9
X5.95Y-1.95
X5.95Y-2.
X5.95Y-2.35
X5.95Y-2.4
X5.95Y-2.45
X5.95Y-2.5
X5.95Y-2.85
X5.95Y-2.9
X5.95Y-2.95
X5.95Y-3.
X5.95Y-3.35
X5.95Y-3.4
X5.95Y-3.45
X5.95Y-3.5
X6.65Y-1.85
X6.65Y-1.9
X6.65Y-1.95
X6.65Y-2.
X6.65Y-2.35
X6.65Y-2.4
X6.65Y-2.45
X6.65Y-2.5
X6.65Y-2.85
X6.65Y-2.9
X6.65Y-2.95
X6.65Y-3.
X6.65Y-3.35
X6.65Y-3.4
X6.65Y-3.45
X6.65Y-3.5
X7.15Y-1.85
X7.15Y-1.9
X7.15Y-1.95
X7.15Y-2.
X7.15Y-2.35
X7.15Y-2.4
X7.15Y-2.45
X7.15Y-2.5
X7.15Y-2.85
X7.15Y-2.9
X7.15Y-2.95
X7.15Y-3.
X7.15Y-3.35
X7.15Y-3.4
X7.15Y-3.45
X7.15Y-3.5
X7.5043Y-5.0039
X7.5043Y-5.0539
X7.5043Y-5.1039
X7.5043Y-5.1539
X8.5Y-3.
X8.5Y-3.1
T4
X8.Y-2.9
X8.Y-3.1992
X8.2493Y-3.4839
X8.2493Y-3.5839
X8.2493Y-3.6839
X8.3493Y-3.4839
X8.3493Y-3.5839
X8.3493Y-3.6839
X8.3493Y-3.8739
X8.3493Y-3.9739
X8.3493Y-4.0739
X8.3493Y-4.1739
X8.3493Y-4.2739
X8.3493Y-4.3739
T5
X8.Y-1.775
X8.Y-2.5817
T6
X8.165Y-5.15
X8.2831Y-4.965
X8.4012Y-5.15
T0
M30
