G04 #@! TF.FileFunction,Soldermask,Bot*
%FSLAX46Y46*%
G04 Gerber Fmt 4.6, Leading zero omitted, Abs format (unit mm)*
G04 Created by KiCad (PCBNEW 4.0.7) date Saturday, March 31, 2018 'PMt' 07:15:42 PM*
%MOMM*%
%LPD*%
G01*
G04 APERTURE LIST*
%ADD10C,0.100000*%
%ADD11C,3.400000*%
%ADD12R,3.400000X3.400000*%
%ADD13R,2.400000X2.400000*%
%ADD14C,2.400000*%
%ADD15R,2.200000X1.470000*%
%ADD16O,2.200000X1.470000*%
%ADD17C,3.900000*%
%ADD18R,2.200000X2.200000*%
%ADD19C,2.200000*%
%ADD20C,4.000000*%
%ADD21R,2.100000X2.100000*%
%ADD22O,2.100000X2.100000*%
%ADD23R,1.670000X1.370000*%
G04 APERTURE END LIST*
D10*
D11*
X203200000Y-45085000D03*
D12*
X203200000Y-65575000D03*
D13*
X203200000Y-73660000D03*
D14*
X203200000Y-81260000D03*
D15*
X181610000Y-85090000D03*
D16*
X181610000Y-86360000D03*
X181610000Y-87630000D03*
X181610000Y-88900000D03*
D15*
X181610000Y-72390000D03*
D16*
X181610000Y-73660000D03*
X181610000Y-74930000D03*
X181610000Y-76200000D03*
D15*
X181610000Y-59690000D03*
D16*
X181610000Y-60960000D03*
X181610000Y-62230000D03*
X181610000Y-63500000D03*
D15*
X181610000Y-46990000D03*
D16*
X181610000Y-48260000D03*
X181610000Y-49530000D03*
X181610000Y-50800000D03*
D15*
X168910000Y-85090000D03*
D16*
X168910000Y-86360000D03*
X168910000Y-87630000D03*
X168910000Y-88900000D03*
D15*
X168910000Y-72390000D03*
D16*
X168910000Y-73660000D03*
X168910000Y-74930000D03*
X168910000Y-76200000D03*
D15*
X168910000Y-59690000D03*
D16*
X168910000Y-60960000D03*
X168910000Y-62230000D03*
X168910000Y-63500000D03*
D15*
X168910000Y-46990000D03*
D16*
X168910000Y-48260000D03*
X168910000Y-49530000D03*
X168910000Y-50800000D03*
D15*
X151130000Y-85090000D03*
D16*
X151130000Y-86360000D03*
X151130000Y-87630000D03*
X151130000Y-88900000D03*
D15*
X151130000Y-72390000D03*
D16*
X151130000Y-73660000D03*
X151130000Y-74930000D03*
X151130000Y-76200000D03*
D15*
X151130000Y-59690000D03*
D16*
X151130000Y-60960000D03*
X151130000Y-62230000D03*
X151130000Y-63500000D03*
D15*
X151130000Y-46990000D03*
D16*
X151130000Y-48260000D03*
X151130000Y-49530000D03*
X151130000Y-50800000D03*
D15*
X138430000Y-85090000D03*
D16*
X138430000Y-86360000D03*
X138430000Y-87630000D03*
X138430000Y-88900000D03*
D15*
X138430000Y-72390000D03*
D16*
X138430000Y-73660000D03*
X138430000Y-74930000D03*
X138430000Y-76200000D03*
D15*
X138430000Y-59690000D03*
D16*
X138430000Y-60960000D03*
X138430000Y-62230000D03*
X138430000Y-63500000D03*
D15*
X138430000Y-46990000D03*
D16*
X138430000Y-48260000D03*
X138430000Y-49530000D03*
X138430000Y-50800000D03*
D15*
X120650000Y-85090000D03*
D16*
X120650000Y-86360000D03*
X120650000Y-87630000D03*
X120650000Y-88900000D03*
D15*
X120650000Y-72390000D03*
D16*
X120650000Y-73660000D03*
X120650000Y-74930000D03*
X120650000Y-76200000D03*
D15*
X120650000Y-59690000D03*
D16*
X120650000Y-60960000D03*
X120650000Y-62230000D03*
X120650000Y-63500000D03*
D15*
X120650000Y-46990000D03*
D16*
X120650000Y-48260000D03*
X120650000Y-49530000D03*
X120650000Y-50800000D03*
D15*
X107950000Y-85090000D03*
D16*
X107950000Y-86360000D03*
X107950000Y-87630000D03*
X107950000Y-88900000D03*
D15*
X107950000Y-72390000D03*
D16*
X107950000Y-73660000D03*
X107950000Y-74930000D03*
X107950000Y-76200000D03*
D15*
X107950000Y-59690000D03*
D16*
X107950000Y-60960000D03*
X107950000Y-62230000D03*
X107950000Y-63500000D03*
D15*
X107950000Y-46990000D03*
D16*
X107950000Y-48260000D03*
X107950000Y-49530000D03*
X107950000Y-50800000D03*
D17*
X100330000Y-39370000D03*
X100330000Y-140970000D03*
X214630000Y-140970000D03*
X214630000Y-39370000D03*
D18*
X215900000Y-76200000D03*
D19*
X215900000Y-78740000D03*
D15*
X190610000Y-127100000D03*
D16*
X190610000Y-128370000D03*
X190610000Y-129640000D03*
X190610000Y-130910000D03*
D20*
X207391000Y-130810000D03*
X213391000Y-130810000D03*
X210391000Y-126110000D03*
D21*
X212073000Y-98398200D03*
D22*
X212073000Y-100938200D03*
X212073000Y-103478200D03*
X212073000Y-106018200D03*
X212073000Y-108558200D03*
X212073000Y-111098200D03*
D21*
X209533000Y-88492200D03*
D22*
X212073000Y-88492200D03*
X209533000Y-91032200D03*
X212073000Y-91032200D03*
X209533000Y-93572200D03*
X212073000Y-93572200D03*
D23*
X165354000Y-116205000D03*
X165354000Y-117485000D03*
M02*
