G04 #@! TF.FileFunction,Other,Fab,Bot*
%FSLAX46Y46*%
G04 Gerber Fmt 4.6, Leading zero omitted, Abs format (unit mm)*
G04 Created by KiCad (PCBNEW 4.0.7) date Tuesday, March 20, 2018 'AMt' 01:08:29 AM*
%MOMM*%
%LPD*%
G01*
G04 APERTURE LIST*
%ADD10C,0.100000*%
%ADD11C,0.150000*%
G04 APERTURE END LIST*
D10*
D11*
X166654000Y-116154524D02*
X166606381Y-116059286D01*
X166606381Y-115916429D01*
X166654000Y-115773571D01*
X166749238Y-115678333D01*
X166844476Y-115630714D01*
X167034952Y-115583095D01*
X167177810Y-115583095D01*
X167368286Y-115630714D01*
X167463524Y-115678333D01*
X167558762Y-115773571D01*
X167606381Y-115916429D01*
X167606381Y-116011667D01*
X167558762Y-116154524D01*
X167511143Y-116202143D01*
X167177810Y-116202143D01*
X167177810Y-116011667D01*
X167558762Y-116583095D02*
X167606381Y-116725952D01*
X167606381Y-116964048D01*
X167558762Y-117059286D01*
X167511143Y-117106905D01*
X167415905Y-117154524D01*
X167320667Y-117154524D01*
X167225429Y-117106905D01*
X167177810Y-117059286D01*
X167130190Y-116964048D01*
X167082571Y-116773571D01*
X167034952Y-116678333D01*
X166987333Y-116630714D01*
X166892095Y-116583095D01*
X166796857Y-116583095D01*
X166701619Y-116630714D01*
X166654000Y-116678333D01*
X166606381Y-116773571D01*
X166606381Y-117011667D01*
X166654000Y-117154524D01*
X166701619Y-117535476D02*
X166654000Y-117583095D01*
X166606381Y-117678333D01*
X166606381Y-117916429D01*
X166654000Y-118011667D01*
X166701619Y-118059286D01*
X166796857Y-118106905D01*
X166892095Y-118106905D01*
X167034952Y-118059286D01*
X167606381Y-117487857D01*
X167606381Y-118106905D01*
M02*
